<svg xmlns="http://www.w3.org/2000/svg" viewBox="0 0 1182 689.5"><defs><style>.a,.as,.b{fill:none;stroke:#000;stroke-miterlimit:10;}.b{stroke-dasharray:11.81 11.81;}.c{fill:#fff;}.d{isolation:isolate;}.e{font-size:30px;font-family:MyriadPro-Regular, Myriad Pro;}.f{letter-spacing:0em;}.g{letter-spacing:0em;}.h{letter-spacing:0.01em;}.i{letter-spacing:0.02em;}.j{letter-spacing:-0.01em;}.k{font-size:20px;}.aa,.k{font-family:Montserrat-SemiBold, Montserrat;font-weight:600;}.l{letter-spacing:0em;}.m{letter-spacing:-0.01em;}.n{letter-spacing:0em;}.o{letter-spacing:-0.01em;}.p{letter-spacing:-0.01em;}.q{letter-spacing:0em;}.r{letter-spacing:-0.02em;}.s{letter-spacing:-0.02em;}.t{letter-spacing:0.01em;}.u{font-size:15px;}.at,.u{font-family:Montserrat-Regular, Montserrat;}.v{letter-spacing:-0.01em;}.w{letter-spacing:-0.02em;}.x{letter-spacing:-0.05em;}.y{letter-spacing:0.05em;}.z{letter-spacing:0em;}.aa{font-size:16.77px;}.ab{letter-spacing:-0.01em;}.ac{letter-spacing:-0.01em;}.ad{letter-spacing:-0.01em;}.ae{letter-spacing:0em;}.af{letter-spacing:0em;}.ag{letter-spacing:-0.01em;}.ah{letter-spacing:-0.02em;}.ai{letter-spacing:0.01em;}.aj{letter-spacing:-0.01em;}.ak{letter-spacing:-0.02em;}.al{letter-spacing:0.01em;}.am{letter-spacing:-0.01em;}.an{letter-spacing:-0.01em;}.ao{letter-spacing:-0.02em;}.ap{letter-spacing:-0.01em;}.aq{letter-spacing:-0.02em;}.ar{letter-spacing:0em;}.as{stroke-dasharray:12 12;}.at{font-size:10px;}.au{letter-spacing:0em;}.av{letter-spacing:-0.02em;}</style></defs><line class="a" x1="386.95" x2="386.95" y2="6"/><line class="b" x1="386.95" y1="17.81" x2="386.95" y2="673.1"/><line class="a" x1="386.95" y1="679" x2="386.95" y2="685"/><line class="a" x1="0.5" y1="0.5" x2="0.5" y2="6.5"/><line class="b" x1="0.5" y1="18.31" x2="0.5" y2="673.6"/><line class="a" x1="0.5" y1="679.5" x2="0.5" y2="685.5"/><line class="a" x1="779.45" y1="0.5" x2="779.45" y2="6.5"/><line class="b" x1="779.45" y1="18.31" x2="779.45" y2="673.6"/><line class="a" x1="779.45" y1="679.5" x2="779.45" y2="685.5"/><rect class="c" x="713" y="146.5" width="121" height="27"/><rect class="c" x="713" y="192.5" width="121" height="27"/><line class="a" x1="1181.5" y1="0.5" x2="1181.5" y2="6.5"/><line class="b" x1="1181.5" y1="18.31" x2="1181.5" y2="673.6"/><line class="a" x1="1181.5" y1="679.5" x2="1181.5" y2="685.5"/><g class="d"><path d="M205.45,79.09l1.64.27A134.86,134.86,0,0,0,188,77.68c-2.44,0-4.77,0-7,.07h0l1.68-.06c1.9-.08,3.93-.1,6.07-.06A117.06,117.06,0,0,1,205.45,79.09Z"/><path d="M205.5,77.12l1.63.27a135.41,135.41,0,0,0-19.06-1.66c-2.41,0-4.71,0-6.87.07h0l.91,0,.75,0c1.88-.07,3.89-.09,6,0A119.39,119.39,0,0,1,205.5,77.12Z"/><path d="M203.79,71l1.32.18a137.4,137.4,0,0,0-16.66-1.29c-1.56,0-3.06,0-4.51,0h0l1.33,0c1.27,0,2.59,0,3.95,0A120.45,120.45,0,0,1,203.79,71Z"/><path d="M206.29,75.26l1.71.3a134.08,134.08,0,0,0-19.81-1.79c-2.69,0-5.24,0-7.61.1.29,0,.58,0,.87,0l.87,0c2.07-.09,4.3-.13,6.65-.08A118.48,118.48,0,0,1,206.29,75.26Z"/><path d="M205.69,73.2l1.64.27a135.15,135.15,0,0,0-19-1.65c-2.39,0-4.68,0-6.82.06h0l1.65-.06q2.82-.1,6-.06A118.65,118.65,0,0,1,205.69,73.2Z"/><path class="c" d="M180.21,91.1a66.25,66.25,0,0,1-8.56-1.64c-1.1-.23-2.55-.68-3.65-1a30.47,30.47,0,0,1-5.7-2.18c-1.05-.55-2.73-1.29-3.13-2.4-.13-.35-.53-.83-.42-1.19a4.64,4.64,0,0,1,1.47-2.14c.62-.45,2.57-1.58,7.23-2.47,2.26-.44,5.32-.76,7.62-1,1.35-.14,3.16-.19,4.51-.27l1.47-.06c-13,.51-20.93,3.19-18.22,6.58,3.16,4,19.6,7.43,36.65,7.73s28.34-2.69,25.18-6.65c-1.91-2.4-8.68-4.61-17.5-6,3.25.53,5.77,1,5.8,1,1.19.24,2.78.58,4,.91,2,.54,4.55,1.38,6.47,2.08a19.11,19.11,0,0,1,2.37,1.14c.94.53,2.5,1.35,2.67,2.42.06.34.34.85.17,1.16a6.14,6.14,0,0,1-1.92,2.1c-.72.43-2.93,1.52-7.8,2.36-2.36.4-5.54.69-7.93.9-1.39.13-3.25.16-4.64.22,0,0-3.15-.49-6.33-1.17a2.41,2.41,0,0,0-.37-.07c-.23,0-.53,0-.75,0-.94,0-3.45-.08-6.59-.29-2.49-.17-4.53-.37-4.75-.4a6.39,6.39,0,0,0-1.07,0C183.24,91,180.22,91.1,180.21,91.1Z"/><path d="M207.61,90l-1.82.09c10.8-.53,17.24-2.82,14.94-5.7-2.75-3.45-17.12-6.48-32-6.74s-24.75,2.34-22,5.8c1.6,2,7.09,3.86,14.31,5.12h0l-1.78-.31c-8.28-1.44-14.55-3.57-16.38-5.86-3.16-4,8.13-6.95,25.17-6.65s33.48,3.76,36.64,7.73C227.34,86.75,220,89.37,207.61,90Z"/><path class="c" d="M179.58,76.84c-2.57.15-6,.29-8.57.7-1.07.17-2.51.32-3.56.57A34.94,34.94,0,0,0,162,79.64a11.07,11.07,0,0,0-2.88,2c-.26.24-.27.78-.37,1.11-.25.84.94,1.87,1.62,2.41,1,.78,3.12,2,7.63,3.36,1.09.33,2.55.74,3.65,1,2.56.55,6,1.2,8.56,1.64l-1.27,0C168.82,89.52,161,87,158.85,84.26c-3-3.82,5.85-6.84,20.53-7.41Z"/><path class="c" d="M206.31,92.71c2.66-.13,6.22-.23,8.85-.6,1.12-.15,2.62-.29,3.72-.52a44.09,44.09,0,0,0,5.81-1.46A14.39,14.39,0,0,0,228,88.22c.29-.22.43-.76.6-1.09.36-.7-.56-1.84-1.13-2.38-.84-.79-2.74-2-7.05-3.42a89,89,0,0,0-11.82-2.71l.2,0c9.94,1.62,17.56,4.12,19.71,6.82,3.08,3.86-6,6.89-20.95,7.42Z"/><path class="c" d="M180.43,89.16a68.08,68.08,0,0,1-8.59-1.63c-1.11-.24-2.57-.68-3.67-1a30.75,30.75,0,0,1-5.73-2.18c-1.06-.56-2.74-1.29-3.15-2.41-.13-.35-.53-.83-.42-1.19a4.75,4.75,0,0,1,1.47-2.15c.63-.45,2.59-1.58,7.26-2.47,2.28-.44,5.36-.76,7.66-1,1.36-.14,3.17-.19,4.53-.27l1.46,0c-13.08.5-21,3.18-18.3,6.58,3.16,4,19.6,7.43,36.65,7.73s28.34-2.69,25.18-6.65c-1.92-2.41-8.72-4.63-17.58-6.07,3.2.52,5.78,1,5.8,1,1.2.24,2.8.58,4,.91,2,.55,4.57,1.38,6.5,2.08a19.3,19.3,0,0,1,2.38,1.15c.95.53,2.52,1.35,2.69,2.42.06.35.34.86.17,1.17a6.07,6.07,0,0,1-1.93,2.1c-.73.43-2.95,1.53-7.83,2.36-2.37.4-5.57.69-8,.9-1.39.13-3.26.16-4.66.22,0,0-3.09-.49-6.23-1.15a2.29,2.29,0,0,0-.36-.07c-.23,0-.53,0-.76,0-.72,0-3.36-.07-6.6-.29-2.49-.17-4.53-.37-4.75-.4a6.39,6.39,0,0,0-1.07,0C183.48,89.06,180.44,89.16,180.43,89.16Z"/><path class="c" d="M199.61,91.47c.11,0,.26,0,.37.07,1.91.41,4,.8,6.33,1.17-2.54.05-6.8.14-13.34-.26-6.08-.38-10.6-1-12.76-1.35,2.26-.08,4.36-.21,6.24-.38l.36,0c.21,0,.49,0,.71.07s2.72.28,5.59.46,5.13.22,5.75.23C199.08,91.46,199.39,91.44,199.61,91.47Z"/><path class="c" d="M177.65,89A140.64,140.64,0,0,0,193,90.73a140.91,140.91,0,0,0,16.1.16l-.86,0-.73,0c-2.5.13-5.21.17-8.07.12a135.1,135.1,0,0,1-20.27-1.86Z"/><path d="M209.73,77.08l1.78.31c10.11,1.77,17.78,4.37,20,7.17,3.86,4.85-9.93,8.49-30.78,8.13s-40.93-4.6-44.8-9.45c-3.21-4,5.8-7.23,20.91-8,.31,0,.61,0,.91,0l.91,0c-13.55.68-21.63,3.54-18.75,7.15,3.46,4.35,21.48,8.14,40.15,8.47s31-2.94,27.59-7.28C225.67,81,218.79,78.66,209.73,77.08Z"/><path d="M207.9,88l-1.84.09c10.7-.55,17.08-2.83,14.79-5.69-2.75-3.46-17.12-6.49-32-6.74s-24.75,2.34-22,5.8c1.59,2,7,3.83,14.16,5.09h-.09l-.81-.15-.91-.16C171,84.81,164.83,82.7,163,80.42c-3.16-4,8.14-6.94,25.18-6.65s33.49,3.77,36.65,7.73C227.46,84.78,220.16,87.39,207.9,88Z"/><path class="c" d="M179.79,74.88c-2.58.16-6,.29-8.61.69-1.07.17-2.52.33-3.58.58a35.06,35.06,0,0,0-5.46,1.53,11.26,11.26,0,0,0-2.9,2c-.26.25-.27.78-.37,1.12-.25.84.95,1.87,1.63,2.41,1,.79,3.13,2,7.67,3.37,1.09.33,2.56.74,3.67,1,2.56.54,6,1.19,8.59,1.63l-1.28,0c-10.17-1.62-18-4.15-20.18-6.89-3.05-3.84,5.88-6.85,20.62-7.42Z"/><path class="c" d="M206.33,90.76c2.67-.12,6.24-.22,8.89-.59,1.12-.16,2.63-.3,3.74-.53a42.85,42.85,0,0,0,5.83-1.46,14.52,14.52,0,0,0,3.33-1.91c.29-.22.43-.76.6-1.09.36-.71-.56-1.85-1.14-2.39-.84-.79-2.75-2-7.09-3.43a91.42,91.42,0,0,0-11.86-2.71l.2,0c10,1.62,17.64,4.12,19.81,6.83,3.08,3.87-6,6.91-21,7.44Z"/><path class="c" d="M179.63,87.06a63.5,63.5,0,0,1-8.26-1.64c-1.07-.23-2.46-.67-3.51-1a29.1,29.1,0,0,1-5.49-2.15c-1-.54-2.61-1.27-3-2.35-.12-.35-.5-.81-.39-1.16a4.66,4.66,0,0,1,1.42-2.11c.61-.43,2.49-1.54,7-2.43,2.18-.44,5.14-.77,7.36-1,1.3-.14,3-.2,4.35-.28l1.53-.07c-12.66.57-20.25,3.22-17.59,6.56,3.16,4,19.62,7.44,36.69,7.74s28.38-2.69,25.22-6.66c-1.87-2.34-8.35-4.51-16.86-6,6.12,1,8.84,1.76,9.53,2,1.89.54,4.38,1.37,6.23,2a18.58,18.58,0,0,1,2.28,1.13c.91.51,2.4,1.33,2.56,2.36.06.35.32.84.16,1.15a5.88,5.88,0,0,1-1.85,2c-.69.43-2.81,1.5-7.5,2.34a90.2,90.2,0,0,1-12.13,1.16s-3.52-.53-7.16-1.31a2.71,2.71,0,0,0-.41-.09h-.74c-.72,0-3.32-.08-6.52-.29-2.46-.17-4.47-.37-4.69-.4a6.86,6.86,0,0,0-1.11,0C183.15,87,179.64,87.06,179.63,87.06Z"/><path class="c" d="M199.74,89.54c.11,0,.25,0,.36.07,1.88.4,4,.78,6.23,1.15-2.53,0-6.75.14-13.24-.26-6-.38-10.51-1-12.66-1.34,2.23-.08,4.29-.21,6.13-.37l.36,0c.21,0,.49,0,.71.07s2.72.28,5.6.45,5.13.23,5.75.24C199.21,89.53,199.51,89.51,199.74,89.54Z"/><path class="c" d="M177.58,87a146.28,146.28,0,0,0,15.58,1.81,143.47,143.47,0,0,0,16.29.15l-.88,0H208a1.09,1.09,0,0,1-.18,0c-2.55.13-5.31.18-8.24.13a135.6,135.6,0,0,1-20.44-1.89Z"/><path d="M210,75.16l1.81.32c10,1.76,17.58,4.34,19.81,7.13,3.86,4.85-9.93,8.49-30.78,8.12s-40.93-4.59-44.8-9.44c-3.2-4,5.72-7.2,20.71-8,.3,0,.61,0,.92,0l.92,0c-13.44.69-21.43,3.54-18.57,7.14,3.47,4.34,21.48,8.13,40.15,8.46s31.05-2.94,27.59-7.28C225.8,79.05,219,76.74,210,75.16Z"/><path d="M208.2,86.06l-1.85.09c10.63-.56,16.94-2.84,14.66-5.69C218.26,77,203.87,74,189,73.71s-24.78,2.34-22,5.81c1.57,2,6.93,3.81,14,5.07h-.09l-.82-.15-.91-.16c-8.1-1.44-14.23-3.54-16-5.81-3.16-4,8.14-6.94,25.18-6.64S221.8,75.58,225,79.54C227.57,82.81,220.35,85.41,208.2,86.06Z"/><path class="c" d="M209.45,88.93h.23c-2.87.14-6,.2-9.3.14a151.1,151.1,0,0,1-23-2.13l.23,0a146.28,146.28,0,0,0,15.58,1.81A144.23,144.23,0,0,0,209.45,88.93Z"/><path class="c" d="M179.09,73c-2.48.16-5.81.31-8.27.72-1,.17-2.42.33-3.44.58a33.46,33.46,0,0,0-5.24,1.51,10.92,10.92,0,0,0-2.79,1.94c-.25.23-.26.76-.36,1.09-.24.81.89,1.82,1.54,2.35.95.77,3,2,7.33,3.31,1,.32,2.44.73,3.51,1,2.47.55,5.77,1.2,8.26,1.64-.43,0-.86,0-1.29,0-9.71-1.63-17.13-4.09-19.25-6.75-3-3.76,5.54-6.73,19.78-7.38Z"/><path class="c" d="M207.36,88.77c2.57-.13,6-.25,8.54-.63,1.08-.16,2.53-.3,3.59-.53a41,41,0,0,0,5.59-1.45,14.13,14.13,0,0,0,3.18-1.87c.29-.23.41-.75.58-1.07.35-.69-.53-1.8-1.08-2.34-.8-.77-2.63-2-6.78-3.36-1-.33-2.35-.75-3.37-1-2.4-.56-5.62-1.24-8-1.7l.22,0c9.57,1.63,16.87,4.06,19,6.7,3,3.79-5.68,6.78-20.12,7.4Z"/><path class="c" d="M180.73,85.26a67,67,0,0,1-8.61-1.64c-1.12-.24-2.57-.68-3.68-1a31.24,31.24,0,0,1-5.75-2.19c-1.06-.55-2.75-1.29-3.16-2.41-.13-.35-.53-.83-.42-1.19a4.72,4.72,0,0,1,1.48-2.16c.63-.44,2.59-1.57,7.28-2.47,2.28-.44,5.37-.76,7.68-1,1.36-.14,3.18-.18,4.54-.26l1.45-.06c-13.11.5-21.07,3.18-18.35,6.59,3.16,4,19.6,7.43,36.65,7.72s28.34-2.68,25.18-6.64c-1.92-2.41-8.75-4.64-17.64-6.08,3.21.52,5.79,1,5.81,1,1.21.24,2.81.58,4,.91,2,.55,4.59,1.38,6.52,2.08a18.76,18.76,0,0,1,2.39,1.15c1,.53,2.53,1.35,2.7,2.42.06.35.34.86.17,1.18a6.17,6.17,0,0,1-1.93,2.1c-.73.43-3,1.53-7.86,2.36-2.38.4-5.58.69-8,.9-1.4.13-3.27.16-4.67.22,0,0-3.06-.49-6.17-1.14a2.29,2.29,0,0,0-.36-.07c-.22,0-.52,0-.75,0-.94,0-3.45-.08-6.61-.29-2.44-.16-4.39-.36-4.76-.4a6.27,6.27,0,0,0-1.06,0C183.75,85.16,180.74,85.26,180.73,85.26Z"/><path class="c" d="M199.79,87.37a3,3,0,0,1,.41.09c2.15.46,4.56.9,7.16,1.31-2.69.07-7.19.2-14.17-.24-6.49-.4-11.27-1.12-13.56-1.47,2.59-.09,5-.23,7.1-.42.12,0,.28,0,.41,0s.49.05.7.07,2.69.28,5.52.45,5.07.22,5.69.24A6.09,6.09,0,0,1,199.79,87.37Z"/><path class="c" d="M177.5,85a145.69,145.69,0,0,0,15.77,1.85,143.17,143.17,0,0,0,16.5.13l-1.61.09c-2.6.14-5.43.19-8.44.14a135.18,135.18,0,0,1-20.64-1.93Z"/><path d="M210.35,73.24l1.81.32c9.89,1.76,17.36,4.32,19.57,7.09,3.86,4.84-9.92,8.48-30.75,8.11s-40.88-4.59-44.75-9.43c-3.18-4,5.62-7.16,20.46-8h0l1.85-.1c-13.31.71-21.21,3.56-18.36,7.13,3.46,4.34,21.47,8.14,40.14,8.47s31.05-2.94,27.58-7.28C225.93,77.12,219.22,74.82,210.35,73.24Z"/><path d="M209.67,84l-2,.13c9.87-.67,15.61-2.87,13.43-5.61-2.76-3.46-17.13-6.49-32-6.75s-24.75,2.35-22,5.81c1.48,1.85,6.32,3.59,12.79,4.84h0l-2-.38c-7.38-1.43-12.91-3.41-14.6-5.53-3.15-4,8.11-6.93,25.12-6.63s33.4,3.75,36.55,7.7C227.5,80.7,221,83.22,209.67,84Z"/><path class="c" d="M180.09,71c-2.59.15-6.06.28-8.63.69-1.08.17-2.53.32-3.59.57a35.61,35.61,0,0,0-5.48,1.53,11.27,11.27,0,0,0-2.91,2c-.26.24-.27.78-.37,1.12-.25.84.95,1.87,1.64,2.42,1,.78,3.14,2,7.69,3.37,1.1.32,2.56.73,3.68,1,2.57.55,6,1.2,8.61,1.64l-1.3,0c-10.19-1.62-18-4.16-20.23-6.9-3.06-3.84,5.91-6.86,20.69-7.42Z"/><path class="c" d="M206.51,86.85c2.67-.12,6.26-.22,8.91-.59,1.13-.16,2.64-.3,3.75-.53A41.69,41.69,0,0,0,225,84.27a14.31,14.31,0,0,0,3.33-1.91c.3-.23.44-.76.61-1.09.36-.71-.56-1.86-1.14-2.4-.85-.79-2.76-2-7.11-3.43-1.05-.34-2.46-.76-3.53-1-2.5-.57-5.85-1.25-8.37-1.71l.21,0c10,1.62,17.7,4.13,19.87,6.84,3.08,3.88-6.07,6.92-21.1,7.44Z"/><path class="c" d="M183.36,83.66a39.84,39.84,0,0,1-5-.74c-2.61-.51-6.08-1.25-8.67-1.89a46.67,46.67,0,0,1-6.45-2.29,9.18,9.18,0,0,1-3.57-2.55,2.58,2.58,0,0,1-.06-2.47,7.49,7.49,0,0,1,3.29-2.08,43.2,43.2,0,0,1,6.17-1.56,79.61,79.61,0,0,1,8.6-.94c1.52-.12,3.55-.13,5.07-.19l1.19,0c-14.47.26-23.54,3-20.66,6.65,3.16,4,19.6,7.43,36.64,7.72s28.35-2.68,25.19-6.64c-2.09-2.62-9.95-5-19.95-6.43,5.94.84,8.79,1.48,10.49,1.87A43.25,43.25,0,0,1,223,74.26a36.74,36.74,0,0,1,4.69,2.47A7.61,7.61,0,0,1,228.86,78c.48.55.06,1.87-.43,2.42a8.41,8.41,0,0,1-3.71,2c-1.93.54-4.55,1.12-6.53,1.49a41.83,41.83,0,0,1-4.18.51c-3,.21-6.93.54-9.91.47,0,0-1.74-.3-3.6-.67a1.55,1.55,0,0,0-.21,0c-.23,0-.55,0-.78,0-.55,0-2.55,0-5.09-.19-3.29-.18-5.94-.44-6.68-.52-.22,0-.51-.06-.73-.07h-.2C185.05,83.58,183.36,83.66,183.36,83.66Z"/><path class="c" d="M200,85.64c.11,0,.25,0,.36.07,1.85.39,3.93.77,6.17,1.14-2.52.05-6.72.13-13.18-.27-6-.37-10.45-1-12.6-1.32,2.21-.09,4.25-.21,6.07-.37l.35,0c.22,0,.5,0,.71.07s2.73.28,5.61.45,5.14.23,5.76.24C199.46,85.63,199.76,85.61,200,85.64Z"/><path class="c" d="M176.07,82.7c2.24.41,4.56.84,8.24,1.29s7,.72,9.05.85a140.47,140.47,0,0,0,18.07,0l-1.78.13c-3,.2-6.27.28-9.81.21a131,131,0,0,1-22-2.18Z"/><path d="M212,71.54l2,.38c9.05,1.74,15.81,4.17,17.89,6.78,3.86,4.84-9.93,8.48-30.78,8.12s-40.93-4.6-44.8-9.44c-3.06-3.84,5-6.92,18.79-7.86h0l2-.13c-12.42.84-19.63,3.61-16.88,7,3.47,4.35,21.52,8.16,40.24,8.48S231.57,82,228.1,77.63C226.24,75.29,220.16,73.11,212,71.54Z"/><path d="M208,82.21l-1,0-.81,0c10.85-.52,17.35-2.82,15-5.7-2.75-3.46-17.12-6.49-32-6.75s-24.75,2.35-22,5.81c1.6,2,7.14,3.87,14.41,5.13h-.08l-.18,0-.09,0-.18,0-.17,0-.18,0-.88-.15c-8.33-1.44-14.66-3.58-16.5-5.89-3.16-4,8.13-6.94,25.17-6.64s33.48,3.76,36.64,7.72C227.82,79,220.4,81.6,208,82.21Z"/><path class="c" d="M204.1,84.94c3-.08,7-.12,9.91-.47,1.26-.15,2.94-.28,4.18-.51a49.45,49.45,0,0,0,6.53-1.49,15.5,15.5,0,0,0,3.71-2c.33-.24.47-.81.65-1.17.41-.77-.71-2-1.37-2.56-1-.84-3.16-2.14-8.07-3.6a100.29,100.29,0,0,0-13.28-2.73l.14,0c11.25,1.59,20.08,4.28,22.43,7.22,3.26,4.09-7.17,7.25-23.73,7.49Z"/><path class="c" d="M182.78,69c-2.9.11-6.77.18-9.65.57-1.2.17-2.83.31-4,.56a41.91,41.91,0,0,0-6.17,1.56,12.71,12.71,0,0,0-3.29,2.08c-.28.25-.3.83-.42,1.19-.28.91,1.1,2,1.86,2.58.92.68,3.27,2.06,8.64,3.54,2.57.72,6.06,1.38,8.67,1.89,1.48.28,3.47.52,5,.74l-1.09,0c-11.46-1.58-20.49-4.3-22.87-7.28-3.22-4.05,7-7.19,23.23-7.48Z"/><path class="c" d="M180.21,91.1c.45,0,1,.15,1.5.22s5.35.76,11.26,1.13,10.19.33,11.75.29c.48,0,1.11-.06,1.59,0h.08l1.17.18c-2.33.09-4.82.11-7.42.07a154.62,154.62,0,0,1-21.2-1.83l1.18,0Z"/><path class="c" d="M180.43,89.16c.45,0,1,.15,1.49.22s5.31.75,11.17,1.12,10.11.32,11.66.29c.48,0,1.11-.06,1.58,0h.08l1.19.19q-3.48.12-7.34.05a153.52,153.52,0,0,1-21.11-1.81l1.19,0Z"/><path class="c" d="M200.29,84.23l.21,0c1.11.22,2.32.45,3.6.67a152.38,152.38,0,0,1-20.74-1.28c1.69-.08,3-.18,3.45-.22h.2c.22,0,.51,0,.73.07s2.83.29,5.81.47,5.32.23,6,.24C199.74,84.22,200.06,84.2,200.29,84.23Z"/><path class="c" d="M209.14,90.89h.22c-2.81.14-5.86.19-9.1.13a151.53,151.53,0,0,1-22.83-2.09l.22,0A140.64,140.64,0,0,0,193,90.73,141.45,141.45,0,0,0,209.14,90.89Z"/><path class="c" d="M178.26,81.19A142.9,142.9,0,0,0,193.52,83a144.4,144.4,0,0,0,16,.17l-1.58.07c-2.47.12-5.13.16-8,.11a133.66,133.66,0,0,1-20.14-1.84Z"/><path class="c" d="M179.63,87.06c.48,0,1.12.17,1.59.24s5.66.85,12,1.23c6.48.4,11.21.32,12.5.29.5,0,1.17-.08,1.67,0h.08l1.2.19c-2.58.1-5.34.14-8.26.09a154,154,0,0,1-22-2l1.21,0Z"/><path class="c" d="M180.73,85.26c.45,0,1,.15,1.49.21s5.29.75,11.11,1.11,10.06.33,11.61.3c.47,0,1.1-.07,1.57,0h.08l1.2.19q-3.45.12-7.29,0a153.12,153.12,0,0,1-21.07-1.8l1.22,0Z"/><path class="c" d="M209.77,87H210c-2.93.16-6.11.21-9.5.15a150.65,150.65,0,0,1-23.23-2.16l.23,0a145.69,145.69,0,0,0,15.77,1.85A144.39,144.39,0,0,0,209.77,87Z"/><path class="c" d="M183.36,83.66c.37,0,.86.11,1.22.16s4.3.53,8.93.82,8,.31,9.3.3c.39,0,.91,0,1.29,0h.07l1,.18c-1.48,0-3,0-4.59,0a156.64,156.64,0,0,1-18.34-1.41l1,0Z"/><path class="c" d="M211.43,84.88h.22c-3.34.23-7.05.32-11,.25a149,149,0,0,1-24.75-2.46l.21,0c2.24.41,4.56.84,8.24,1.29s7,.72,9.05.85A138.47,138.47,0,0,0,211.43,84.88Z"/><path d="M210.08,69.28l1.76.3C222,71.35,229.76,74,232,76.78c3.86,4.84-9.94,8.48-30.78,8.12s-40.93-4.6-44.8-9.44c-3.22-4,5.85-7.25,21.06-8h0l.9,0,.89-.05c-13.62.66-21.77,3.54-18.88,7.16,3.47,4.34,21.48,8.14,40.16,8.47s31.06-2.94,27.59-7.29C226.14,73.2,219.2,70.86,210.08,69.28Z"/><path class="c" d="M209.49,83.12l.22,0c-2.78.14-5.79.19-9,.13A151.52,151.52,0,0,1,178,81.16l.22,0A142.9,142.9,0,0,0,193.52,83,144.62,144.62,0,0,0,209.49,83.12Z"/><path d="M209.26,92.6l-1.67.07c-2.39.09-4.94.12-7.63.07a149.53,149.53,0,0,1-21-1.83,1,1,0,0,1-.17,0l-.16,0h-.08l-.42-.07-.82-.13a167.49,167.49,0,0,0,23.42,2C203.74,92.74,206.59,92.71,209.26,92.6Z"/><ellipse class="c" cx="194.28" cy="75.13" rx="7.84" ry="35.49" transform="translate(107.36 264.43) rotate(-86.48)"/><path d="M188,67.26c18.68.33,36.69,4.12,40.15,8.46s-8.91,7.61-27.59,7.29-36.69-4.13-40.16-8.47S169.32,66.93,188,67.26Zm12,15.06c17,.3,28.34-2.69,25.18-6.65S205.6,68.25,188.55,68s-28.33,2.68-25.17,6.64S183,82,200,82.32"/><path d="M209.28,90.65l-1.66.07c-2.37.09-4.89.11-7.54.07A149.9,149.9,0,0,1,179.19,89l-1.64-.27a164.77,164.77,0,0,0,23.32,2C203.83,90.78,206.64,90.76,209.28,90.65Z"/><path d="M210.29,88.65l-1.74.08c-2.6.11-5.4.15-8.35.1a147.64,147.64,0,0,1-21.7-2h0l-.86-.15-.85-.14A166,166,0,0,0,201,88.76C204.28,88.82,207.39,88.78,210.29,88.65Z"/><path d="M209.46,86.74l-1.66.07c-2.35.09-4.85.11-7.48.07a149.21,149.21,0,0,1-20.83-1.81h0l-1.63-.27a165.42,165.42,0,0,0,23.25,2C204,86.87,206.84,86.84,209.46,86.74Z"/><path d="M206.76,84.9l-1.33,0c-1.6,0-3.26,0-5,0a151.89,151.89,0,0,1-18.34-1.42h-.07l-.59-.09-.66-.09a169,169,0,0,0,20.43,1.59C203.13,84.93,205,84.93,206.76,84.9Z"/></g><text class="e" transform="translate(157.48 55.6)">Clie<tspan class="f" x="46.53" y="0">n</tspan><tspan class="g" x="63.06" y="0">t</tspan></text><text class="e" transform="translate(543.44 47.14)"><tspan class="h">S</tspan><tspan x="14.97" y="0">e</tspan><tspan class="i" x="30" y="0">r</tspan><tspan class="j" x="40.56" y="0">v</tspan><tspan x="54.69" y="0">er</tspan></text><g class="d"><polygon points="618.57 81.64 596.75 83.84 596.71 69.01 618.54 66.81 618.57 81.64"/><path class="c" d="M592.56,74.27a4,4,0,0,0-3.64-4.11L610.74,68a4,4,0,0,1,3.65,4.11Z"/><path class="c" d="M589.33,78.21a3.8,3.8,0,0,0,3.23-3.94l21.83-2.2A3.81,3.81,0,0,1,611.16,76Z"/><path d="M611,74l-21.83,2.2a1.91,1.91,0,0,0,1.63-2,2,2,0,0,0-1.84-2.07h-.2L610.54,70h.21A2,2,0,0,1,612.58,72,1.91,1.91,0,0,1,611,74Z"/><path class="c" d="M587.1,74.15a1.9,1.9,0,0,1,1.62-2L610.54,70a1.91,1.91,0,0,0-1.62,2A2,2,0,0,0,610.76,74l-21.83,2.2L610.76,74h.2l-21.83,2.2h-.2A2,2,0,0,1,587.1,74.15Z"/><path d="M611.16,76l-21.83,2.2-.39,0a4,4,0,0,1-3.64-4.12,3.79,3.79,0,0,1,3.22-3.93L610.34,68a3.79,3.79,0,0,0-3.22,3.93A4,4,0,0,0,610.76,76Z"/><path class="c" d="M588.92,70.16h-.22L610.52,68h.22l-10.91,1.1-1.43.15-1.43.14-1.41.14-1.39.14-2.7.28C590.7,70,589.69,70.13,588.92,70.16Z"/><path class="c" d="M588.7,70.16l-.18,0L610.34,68h.18l-10.91,1.1-1.43.14-5.6.56-1.33.14C590.48,70,589.47,70.11,588.7,70.16Z"/><polygon points="618.54 66.81 596.71 69.01 542.62 67.89 564.44 65.69 618.54 66.81"/><path class="c" d="M564.44,65.69l54.1,1.12,0,14.83-54.09-1.13ZM610.76,76a3.76,3.76,0,0,0,3.63-4A4,4,0,0,0,610.74,68a3.75,3.75,0,0,0-3.62,4A4,4,0,0,0,610.76,76"/><polygon class="c" points="618.57 81.64 596.75 83.84 542.66 82.71 564.48 80.51 618.57 81.64"/><polygon class="c" points="564.48 80.51 542.66 82.71 542.62 67.89 564.44 65.69 564.48 80.51"/><path d="M562.64,63.64l57.69,1.21,0,18.82-57.68-1.2V80.74Zm55.93,18,0-14.83-54.1-1.12,0,14.82,54.09,1.13"/><path class="c" d="M610.75,70A2,2,0,0,1,612.58,72a1.88,1.88,0,0,1-1.82,2A2,2,0,0,1,608.92,72,1.88,1.88,0,0,1,610.75,70Z"/><path d="M610.74,68a4,4,0,0,1,3.65,4.11,3.76,3.76,0,0,1-3.63,4,4,4,0,0,1-3.64-4.12A3.75,3.75,0,0,1,610.74,68Zm0,6.06a1.88,1.88,0,0,0,1.82-2A2,2,0,0,0,610.75,70a1.88,1.88,0,0,0-1.83,2A2,2,0,0,0,610.76,74"/><polygon points="562.68 80.74 540.86 82.94 540.82 65.84 562.64 63.64 562.68 80.74"/><polygon points="562.69 82.47 540.86 84.67 540.86 82.94 562.68 80.74 562.69 82.47"/><polygon points="620.37 83.67 598.55 85.87 540.86 84.67 562.69 82.47 620.37 83.67"/></g><g class="d"><polygon points="618.61 98.73 596.79 100.94 596.75 86.11 618.58 83.91 618.61 98.73"/><path class="c" d="M592.6,91.36A4,4,0,0,0,589,87.25l21.82-2.2a4,4,0,0,1,3.65,4.11Z"/><path class="c" d="M589.37,95.31a3.8,3.8,0,0,0,3.23-4l21.83-2.2a3.82,3.82,0,0,1-3.23,4Z"/><path d="M611,91.11l-21.83,2.2a1.91,1.91,0,0,0,1.63-2A2,2,0,0,0,589,89.26a1.34,1.34,0,0,0-.2,0l21.82-2.2h.21a2,2,0,0,1,1.83,2.07A1.91,1.91,0,0,1,611,91.11Z"/><path class="c" d="M587.14,91.25a1.91,1.91,0,0,1,1.62-2l21.82-2.19a1.91,1.91,0,0,0-1.62,2,2,2,0,0,0,1.83,2.07L589,93.32l21.83-2.2h.2l-21.83,2.2H589A2,2,0,0,1,587.14,91.25Z"/><path d="M611.2,93.11l-21.83,2.2a2.54,2.54,0,0,1-.39,0,4,4,0,0,1-3.64-4.11,3.8,3.8,0,0,1,3.22-3.94l21.83-2.2A3.8,3.8,0,0,0,607.16,89a4,4,0,0,0,3.64,4.11A2.67,2.67,0,0,0,611.2,93.11Z"/><path class="c" d="M589,87.25h-.22l21.82-2.19h.22l-10.91,1.1-5.66.57-4,.41C589.83,87.16,589.34,87.24,589,87.25Z"/><path class="c" d="M588.74,87.25l-.18,0,21.83-2.2h.17l-10.91,1.09-2.86.29-1.41.14-2.76.28-1.33.14C590.52,87.07,589.5,87.2,588.74,87.25Z"/><path d="M610.78,85.05a4,4,0,0,1,3.65,4.11,3.76,3.76,0,0,1-3.63,4A4,4,0,0,1,607.16,89,3.76,3.76,0,0,1,610.78,85.05Zm0,6.07a1.88,1.88,0,0,0,1.83-2,2,2,0,0,0-1.83-2.07,1.88,1.88,0,0,0-1.83,2,2,2,0,0,0,1.83,2.07"/><polygon points="618.58 83.91 596.75 86.11 542.66 84.98 564.48 82.78 618.58 83.91"/><path class="c" d="M564.48,82.78l54.1,1.13,0,14.83-54.09-1.13ZM610.8,93.12a3.76,3.76,0,0,0,3.63-4,4,4,0,0,0-3.65-4.11,3.76,3.76,0,0,0-3.62,4,4,4,0,0,0,3.64,4.11"/><polygon class="c" points="618.61 98.73 596.79 100.94 542.7 99.81 564.52 97.61 618.61 98.73"/><polygon class="c" points="564.52 97.61 542.7 99.81 542.66 84.98 564.48 82.78 564.52 97.61"/><path d="M562.69,82.47l57.68,1.2,0,17.1-57.68-1.2V97.84Zm55.92,16.27,0-14.83-54.1-1.13,0,14.83,54.09,1.13"/><path class="c" d="M610.79,87.06a2,2,0,0,1,1.83,2.07,1.88,1.88,0,0,1-1.83,2A2,2,0,0,1,609,89.05,1.88,1.88,0,0,1,610.79,87.06Z"/><polygon points="562.72 97.84 540.9 100.04 540.86 84.67 562.69 82.47 562.72 97.84"/><polygon points="562.73 99.57 540.9 101.77 540.9 100.04 562.72 97.84 562.73 99.57"/><polygon points="620.41 100.77 598.59 102.97 540.9 101.77 562.73 99.57 620.41 100.77"/></g><g class="d"><polygon points="618.65 115.83 596.83 118.02 596.79 103.2 618.62 101 618.65 115.83"/><path class="c" d="M592.64,108.46a4,4,0,0,0-3.64-4.11l21.82-2.2a4,4,0,0,1,3.65,4.11Z"/><path class="c" d="M589.41,112.4a3.8,3.8,0,0,0,3.23-3.94l21.83-2.2a3.81,3.81,0,0,1-3.23,3.94Z"/><path d="M611,108.21l-21.83,2.2a1.92,1.92,0,0,0,1.63-2,2,2,0,0,0-1.84-2.07h-.2l21.82-2.2h.21a2,2,0,0,1,1.83,2.07A1.91,1.91,0,0,1,611,108.21Z"/><path class="c" d="M587.18,108.35a1.91,1.91,0,0,1,1.62-2l21.82-2.2a1.92,1.92,0,0,0-1.62,2,2,2,0,0,0,1.83,2.07L589,110.42l21.82-2.2H611l-21.83,2.2H589A2,2,0,0,1,587.18,108.35Z"/><path d="M611.24,110.2l-21.83,2.2a2.54,2.54,0,0,1-.39,0,4,4,0,0,1-3.64-4.1,3.8,3.8,0,0,1,3.22-3.94l21.82-2.2a3.8,3.8,0,0,0-3.22,3.94,4,4,0,0,0,3.64,4.1A2.67,2.67,0,0,0,611.24,110.2Z"/><path class="c" d="M589,104.35h-.22l21.82-2.2h.22l-10.91,1.1-4.27.43-2.76.28-2.63.26C589.87,104.26,589.38,104.33,589,104.35Z"/><path class="c" d="M588.78,104.35l-.18,0,21.83-2.2.17,0-10.91,1.1-2.86.29-5.5.56C590.56,104.17,589.54,104.3,588.78,104.35Z"/><polygon points="618.62 101 596.79 103.2 542.7 102.07 564.52 99.87 618.62 101"/><polygon class="c" points="618.65 115.83 596.83 118.02 542.74 116.9 564.56 114.7 618.65 115.83"/><polygon class="c" points="564.56 114.7 542.74 116.9 542.7 102.07 564.52 99.87 564.56 114.7"/><path d="M562.73,99.57l57.68,1.2,0,17.1-57.68-1.21v-1.72Zm55.92,16.25,0-14.82-54.1-1.13,0,14.83,54.09,1.12"/><path class="c" d="M564.52,99.87l54.1,1.13,0,14.82-54.09-1.12Zm46.32,10.34a3.75,3.75,0,0,0,3.63-3.95,4,4,0,0,0-3.65-4.11,3.76,3.76,0,0,0-3.62,4,4,4,0,0,0,3.64,4.1"/><path class="c" d="M610.83,104.16a2,2,0,0,1,1.83,2.07,1.88,1.88,0,0,1-1.83,2,2,2,0,0,1-1.83-2.07A1.88,1.88,0,0,1,610.83,104.16Z"/><path d="M610.82,102.15a4,4,0,0,1,3.65,4.11,3.75,3.75,0,0,1-3.63,3.95,4,4,0,0,1-3.64-4.1A3.76,3.76,0,0,1,610.82,102.15Zm0,6.07a1.88,1.88,0,0,0,1.83-2,2,2,0,0,0-1.83-2.07,1.88,1.88,0,0,0-1.83,2,2,2,0,0,0,1.83,2.07"/><polygon points="562.76 114.94 540.94 117.14 540.9 101.77 562.73 99.57 562.76 114.94"/><polygon points="562.77 116.66 540.94 118.86 540.94 117.14 562.76 114.94 562.77 116.66"/><polygon points="620.45 117.87 598.63 120.07 540.94 118.86 562.77 116.66 620.45 117.87"/></g><g class="d"><polygon points="618.69 132.92 596.87 135.12 596.83 120.3 618.65 118.1 618.69 132.92"/><path class="c" d="M592.68,125.56a4,4,0,0,0-3.64-4.11l21.82-2.2a4,4,0,0,1,3.65,4.11Z"/><path class="c" d="M589.45,129.5a3.8,3.8,0,0,0,3.23-3.94l21.83-2.2a3.82,3.82,0,0,1-3.23,3.94Z"/><path d="M611.08,125.31l-21.83,2.2a1.92,1.92,0,0,0,1.63-2,2,2,0,0,0-1.84-2.08h-.2l21.82-2.2h.21a2,2,0,0,1,1.83,2.08A1.92,1.92,0,0,1,611.08,125.31Z"/><path class="c" d="M587.22,125.45a1.91,1.91,0,0,1,1.62-2l21.82-2.2a1.93,1.93,0,0,0-1.62,2,2,2,0,0,0,1.83,2.07l-21.82,2.2,21.82-2.2h.21l-21.83,2.2h-.2A2,2,0,0,1,587.22,125.45Z"/><path d="M611.28,127.3l-21.83,2.2a2.54,2.54,0,0,1-.39,0,4,4,0,0,1-3.64-4.1,3.81,3.81,0,0,1,3.22-4l21.82-2.2a3.81,3.81,0,0,0-3.22,3.95,4,4,0,0,0,3.64,4.1A2.67,2.67,0,0,0,611.28,127.3Z"/><path class="c" d="M589,121.45h-.22l21.82-2.2h.22L600,120.35l-1.43.14-5.6.57-2.63.26C589.91,121.36,589.42,121.43,589,121.45Z"/><path class="c" d="M588.82,121.45h-.18l21.82-2.2h.18l-10.91,1.1-5.66.57-1.37.14-1.33.13C590.6,121.27,589.58,121.4,588.82,121.45Z"/><polygon points="618.65 118.1 596.83 120.3 542.74 119.17 564.56 116.97 618.65 118.1"/><path class="c" d="M564.56,117l54.1,1.13,0,14.82L564.6,131.8Zm46.32,10.34a3.75,3.75,0,0,0,3.63-4,4,4,0,0,0-3.65-4.11,3.75,3.75,0,0,0-3.62,4,4,4,0,0,0,3.64,4.1"/><polygon class="c" points="618.69 132.92 596.87 135.12 542.78 134 564.6 131.8 618.69 132.92"/><polygon class="c" points="564.6 131.8 542.78 134 542.74 119.17 564.56 116.97 564.6 131.8"/><path d="M562.77,116.66l57.68,1.21,0,17.1-57.68-1.21Zm55.92,16.26,0-14.82L564.56,117l0,14.83,54.09,1.12"/><path class="c" d="M610.87,121.24a2,2,0,0,1,1.83,2.08,1.89,1.89,0,0,1-1.83,2,2,2,0,0,1-1.83-2.07A1.9,1.9,0,0,1,610.87,121.24Z"/><path d="M610.86,119.25a4,4,0,0,1,3.65,4.11,3.75,3.75,0,0,1-3.63,4,4,4,0,0,1-3.64-4.1A3.75,3.75,0,0,1,610.86,119.25Zm0,6.07a1.89,1.89,0,0,0,1.83-2,2,2,0,0,0-1.83-2.08,1.9,1.9,0,0,0-1.83,2,2,2,0,0,0,1.83,2.07"/><polygon points="562.8 133.76 540.98 135.96 540.94 118.86 562.77 116.66 562.8 133.76"/><polygon points="620.49 134.97 598.67 137.16 540.98 135.96 562.8 133.76 620.49 134.97"/></g><text class="e" transform="translate(958.14 47.14)">API</text><g class="d"><polygon points="1020.19 80.03 1012.28 86.61 1012.47 85.49 1020.38 78.91 1020.19 80.03"/><polygon points="1021.23 80.53 1013.32 87.11 1012.28 86.61 1020.19 80.03 1021.23 80.53"/><path d="M1023.77,94.27l-7.91,6.58a7.84,7.84,0,0,0,3.11-6.29c-.11-3-2.22-5.78-5.66-7.45l7.92-6.58c3.43,1.66,5.54,4.45,5.65,7.44A7.87,7.87,0,0,1,1023.77,94.27Z"/><path d="M1025.69,96.57l-7.91,6.58a13.79,13.79,0,0,1-1.48,1.09l7.91-6.59A15.22,15.22,0,0,0,1025.69,96.57Z"/><path d="M1020.38,78.91l-7.91,6.58a7.83,7.83,0,0,0,.12-1.66c-.2-5.33-5.65-9.59-12.15-9.48a13.11,13.11,0,0,0-7.38,2.32l7.91-6.59a13.27,13.27,0,0,1,7.38-2.32c6.5-.11,11.95,4.15,12.15,9.49A7.26,7.26,0,0,1,1020.38,78.91Z"/><path class="c" d="M1015.86,100.85a12.34,12.34,0,0,1-2.1,1.39l7-5.81.92-.77a11.81,11.81,0,0,0,2.1-1.4Z"/><polygon points="1000.97 70.08 993.06 76.67 992.06 77.38 999.97 70.8 1000.97 70.08"/><polygon points="999.97 70.8 992.06 77.38 991.16 76.5 999.07 69.92 999.97 70.8"/><polygon class="c" points="1021.67 95.66 1013.76 102.24 1012.59 102.87 1020.5 96.28 1021.67 95.66"/><polygon points="1021.02 97.53 1013.11 104.12 1012.59 102.87 1020.5 96.28 1021.02 97.53"/><path d="M1020,105.5l-7.91,6.59a4.17,4.17,0,0,0,.43-.41c1.63-1.74,1.88-4.64.63-7.56l7.91-6.59c1.25,2.93,1,5.83-.63,7.57A4.07,4.07,0,0,1,1020,105.5Z"/><path d="M973.73,75.84l7.91-6.59a13.55,13.55,0,0,1,17.43.67l-7.91,6.58a13.57,13.57,0,0,0-17.43-.66Z"/><path d="M971.81,73.54,979.72,67l-.28.24-7.91,6.59Z"/><polygon class="c" points="980.42 70.4 972.51 76.98 973.06 76.45 980.97 69.86 980.42 70.4"/><polygon points="980.42 70.4 972.51 76.98 971.75 76.83 979.66 70.24 980.42 70.4"/><path class="c" d="M973.73,75.84l7.91-6.59-.67.61-7.91,6.59C973.27,76.24,973.5,76,973.73,75.84Z"/><path class="c" d="M1000.66,110c-.11-.1-.22-.21-.32-.32l7.91-6.59.32.33-7.91,6.58,7.91-6.58a11.35,11.35,0,0,0,7.7,3.36l-7.91,6.58,7.91-6.58a5.85,5.85,0,0,0,3.69-1.27l-7.91,6.59a5.84,5.84,0,0,1-3.69,1.26A11.35,11.35,0,0,1,1000.66,110Z"/><polygon class="c" points="1008.25 103.08 1000.34 109.67 998.71 108.02 1006.63 101.43 1008.25 103.08"/><polygon points="1005.82 103.57 997.9 110.16 998.71 108.02 1006.63 101.43 1005.82 103.57"/><path d="M1021.88,107.8l-7.91,6.59a8.74,8.74,0,0,1-5.48,1.91,14,14,0,0,1-8.66-3.15l7.91-6.58a13.91,13.91,0,0,0,8.66,3.14A8.61,8.61,0,0,0,1021.88,107.8Z"/><path d="M1002,109l-7.91,6.58a12.88,12.88,0,0,0,3.79-5.38l7.91-6.59A13,13,0,0,1,1002,109Z"/><path d="M979.66,70.24l-7.91,6.59a13.94,13.94,0,0,0-3.09-.28,13,13,0,0,0-7.33,2.28l7.91-6.59A13.1,13.1,0,0,1,976.57,70,13.89,13.89,0,0,1,979.66,70.24Z"/><polygon points="969.24 72.24 961.33 78.83 960.42 79.46 968.33 72.88 969.24 72.24"/><polygon points="968.33 72.88 960.42 79.46 959.55 78.74 967.46 72.16 968.33 72.88"/><path d="M949,78.7l7.91-6.59a8.12,8.12,0,0,1,5.07-1.9,8.37,8.37,0,0,1,5.49,2l-7.91,6.58a8.42,8.42,0,0,0-5.49-1.95A8.07,8.07,0,0,0,949,78.7Z"/><polygon class="c" points="984.02 105.71 976.11 112.3 974.85 110.35 982.77 103.77 984.02 105.71"/><path d="M947.12,76.36,955,69.77c-.22.18-.43.37-.64.57l-7.91,6.59C946.69,76.73,946.9,76.54,947.12,76.36Z"/><path class="c" d="M986.83,118.28a12.55,12.55,0,0,1-10.72-6l7.91-6.59a12.54,12.54,0,0,0,10.72,6l-7.91,6.59,7.91-6.59A11.68,11.68,0,0,0,1002,109l-7.91,6.58A11.69,11.69,0,0,1,986.83,118.28Z"/><path class="c" d="M949,78.7l7.91-6.59a9.24,9.24,0,0,0-.9.87l-7.92,6.59A8.25,8.25,0,0,1,949,78.7Z"/><polygon class="c" points="955.4 73.64 947.49 80.23 948.08 79.57 956 72.98 955.4 73.64"/><polygon points="981.53 105.67 973.62 112.26 974.85 110.35 982.77 103.77 981.53 105.67"/><polygon points="955.4 73.64 947.49 80.23 946.62 79.99 954.53 73.41 955.4 73.64"/><path d="M1004,111.26,996,117.85a14.58,14.58,0,0,1-9.1,3.4,15.37,15.37,0,0,1-12.09-5.71l7.91-6.59a15.34,15.34,0,0,0,12.09,5.71A14.52,14.52,0,0,0,1004,111.26Z"/><path d="M979.54,107.89l-7.91,6.59a10.19,10.19,0,0,0,2-2.22l7.91-6.59A9.73,9.73,0,0,1,979.54,107.89Z"/><path d="M937.43,82l7.91-6.58a10,10,0,0,1,6.29-2.32,10.21,10.21,0,0,1,2.9.36L946.62,80a10.65,10.65,0,0,0-2.91-.36A10.06,10.06,0,0,0,937.43,82Z"/><path class="c" d="M963.56,117.33a13.33,13.33,0,0,1-8.51-2.75L963,108a13.35,13.35,0,0,0,8.51,2.76l-7.91,6.58,7.91-6.58a13,13,0,0,0,8.07-2.86l-7.91,6.59A13,13,0,0,1,963.56,117.33Z"/><polygon class="c" points="962.96 107.99 955.05 114.58 954.38 114.04 962.29 107.46 962.96 107.99"/><polygon class="c" points="962.29 107.46 954.38 114.04 953.59 114.34 961.5 107.76 962.29 107.46"/><polygon class="c" points="947.31 92.6 939.4 99.19 938.15 98.28 946.07 91.7 947.31 92.6"/><path d="M981.46,110.19l-7.91,6.59a15.93,15.93,0,0,1-9.88,3.52,16.44,16.44,0,0,1-9.75-2.9l7.91-6.59a16.37,16.37,0,0,0,9.75,2.91A15.93,15.93,0,0,0,981.46,110.19Z"/><path class="c" d="M933.8,90.14A10.15,10.15,0,0,1,937.43,82l7.91-6.58a10.13,10.13,0,0,0-3.63,8.19,10.47,10.47,0,0,0,1.57,5.13l-7.92,6.58A10.5,10.5,0,0,1,933.8,90.14Z"/><path class="c" d="M935.36,95.27l1.12-.92.29-.24.28-.24.28-.23.26-.22.66-.55.71-.58.73-.61.74-.62.75-.62.73-.61.7-.59.67-.55a10.77,10.77,0,0,0,2.79,3l-7.92,6.58A10.79,10.79,0,0,1,935.36,95.27Z"/><polygon class="c" points="946.39 93.81 938.48 100.39 939.4 99.19 947.31 92.6 946.39 93.81"/><path d="M935.52,79.64l7.92-6.59a13,13,0,0,0-4.68,10.56,13.55,13.55,0,0,0,4.46,9.55l-7.91,6.59a13.57,13.57,0,0,1-4.46-9.56A13,13,0,0,1,935.52,79.64Z"/><path class="c" d="M948.87,115.24a13.41,13.41,0,0,1-8.44-2.7l.93-.76,1-.82,1-.85,1-.86,1-.86,1-.85,1-.81.92-.77a13.41,13.41,0,0,0,8.44,2.7,14,14,0,0,0,4.72-.9l-7.91,6.58A13.79,13.79,0,0,1,948.87,115.24Z"/><path class="c" d="M936.72,105.77a8.28,8.28,0,0,1,1.76-5.38l7.91-6.58a8.31,8.31,0,0,0-1.76,5.37,9.12,9.12,0,0,0,3.71,6.78q-3.95,3.3-7.91,6.58A9.07,9.07,0,0,1,936.72,105.77Z"/><path class="c" d="M989.71,66.4a13.1,13.1,0,0,1,9.36,3.52l.9.87,1-.71a13.27,13.27,0,0,1,7.38-2.32c6.5-.11,11.95,4.15,12.15,9.49a7.26,7.26,0,0,1-.12,1.66l-.19,1.12,1,.5c3.43,1.66,5.54,4.45,5.65,7.44s-1.83,5.91-5.21,7.69l-1.17.62.52,1.25c1.25,2.93,1,5.83-.63,7.57a5.65,5.65,0,0,1-4.12,1.67,11.35,11.35,0,0,1-7.7-3.36l-.32-.33-1.63-1.65-.8,2.14a12.15,12.15,0,0,1-11.08,8.12,12.54,12.54,0,0,1-10.72-6l-1.25-1.94-1.24,1.9a12.18,12.18,0,0,1-10.06,5.08A13.35,13.35,0,0,1,963,108l-.67-.53-.79.3a14,14,0,0,1-4.72.9c-6.5.1-11.95-4.14-12.15-9.48a8.31,8.31,0,0,1,1.76-5.37l.92-1.21-1.24-.9a10.57,10.57,0,0,1-4.36-8.14,10.08,10.08,0,0,1,9.92-10.51,10.21,10.21,0,0,1,2.9.36l.87.23L956,73a8.15,8.15,0,0,1,6-2.77,8.37,8.37,0,0,1,5.49,2l.87.72.91-.64A13.1,13.1,0,0,1,976.57,70a13.89,13.89,0,0,1,3.09.28l.76.16.55-.54A12.82,12.82,0,0,1,989.71,66.4Z"/><path d="M961.83,110.81l-7.91,6.59a16.87,16.87,0,0,1-4.94.82c-8.12.14-15-5.44-15.22-12.4a11,11,0,0,1,1.55-6.07l7.91-6.59a11,11,0,0,0-1.54,6.07c.26,7,7.09,12.54,15.21,12.4A16.24,16.24,0,0,0,961.83,110.81Z"/><path d="M1029.84,87.93c.14,3.8-1.94,7.37-5.63,9.72,1.14,3.62.55,7.19-1.65,9.52a8.47,8.47,0,0,1-6.16,2.54,13.91,13.91,0,0,1-8.66-3.14,14.87,14.87,0,0,1-12.89,8.09A15.34,15.34,0,0,1,982.76,109a15.55,15.55,0,0,1-11.18,4.77,16.37,16.37,0,0,1-9.75-2.91,16.24,16.24,0,0,1-4.94.82c-8.12.14-14.95-5.43-15.21-12.4a11,11,0,0,1,1.54-6.07,13.55,13.55,0,0,1-4.46-9.55,13,13,0,0,1,12.75-13.54,12.72,12.72,0,0,1,2.88.27,10.91,10.91,0,0,1,7.47-3.11,11.41,11.41,0,0,1,6.55,2,16.13,16.13,0,0,1,8-2.23,18.63,18.63,0,0,1,3,.21,15.89,15.89,0,0,1,10.16-3.76A16.35,16.35,0,0,1,1000.22,67a16.12,16.12,0,0,1,8-2.21c8.13-.13,15,5.43,15.22,12.41a9.2,9.2,0,0,1,0,1.17C1027.32,80.59,1029.7,84.1,1029.84,87.93Zm-8.17,7.73c3.38-1.78,5.33-4.66,5.21-7.69s-2.22-5.78-5.65-7.44l-1-.5.19-1.12a7.26,7.26,0,0,0,.12-1.66c-.2-5.34-5.65-9.6-12.15-9.49a13.27,13.27,0,0,0-7.38,2.32l-1,.71-.9-.87a13.1,13.1,0,0,0-9.36-3.52A12.82,12.82,0,0,0,981,69.86l-.55.54-.76-.16a13.89,13.89,0,0,0-3.09-.28,13.1,13.1,0,0,0-7.33,2.28l-.91.64-.87-.72a8.37,8.37,0,0,0-5.49-2A8.15,8.15,0,0,0,956,73l-.6.66-.87-.23a10.21,10.21,0,0,0-2.9-.36,10.08,10.08,0,0,0-9.92,10.51,10.57,10.57,0,0,0,4.36,8.14l1.24.9-.92,1.21a8.31,8.31,0,0,0-1.76,5.37c.2,5.34,5.65,9.58,12.15,9.48a14,14,0,0,0,4.72-.9l.79-.3.67.53a13.35,13.35,0,0,0,8.51,2.76,12.18,12.18,0,0,0,10.06-5.08l1.24-1.9,1.25,1.94a12.54,12.54,0,0,0,10.72,6,12.15,12.15,0,0,0,11.08-8.12l.8-2.14,1.63,1.65.32.33a11.35,11.35,0,0,0,7.7,3.36,5.65,5.65,0,0,0,4.12-1.67c1.64-1.74,1.88-4.64.63-7.57l-.52-1.25,1.17-.62"/></g><g class="d"><polygon points="647.22 475.53 639.31 482.11 638.28 481.61 646.19 475.03 647.22 475.53"/><polygon points="646.19 475.03 638.28 481.61 638.48 480.49 646.39 473.91 646.19 475.03"/><path d="M649.76,489.27l-7.91,6.59a7.87,7.87,0,0,0,3.12-6.3c-.12-3-2.23-5.78-5.66-7.45l7.91-6.58c3.43,1.66,5.55,4.45,5.66,7.45A7.85,7.85,0,0,1,649.76,489.27Z"/><path d="M651.7,491.56l-7.91,6.59a14.45,14.45,0,0,1-1.5,1.09l7.92-6.59A13.92,13.92,0,0,0,651.7,491.56Z"/><path d="M646.39,473.91l-7.91,6.58a8.48,8.48,0,0,0,.11-1.66c-.2-5.34-5.66-9.59-12.16-9.48a13.13,13.13,0,0,0-7.37,2.32l7.91-6.59a13.29,13.29,0,0,1,7.38-2.32c6.5-.1,11.95,4.14,12.15,9.49A8.58,8.58,0,0,1,646.39,473.91Z"/><path class="c" d="M641.85,495.86a11.56,11.56,0,0,1-2.08,1.38l7.91-6.58a12.15,12.15,0,0,0,2.08-1.39Z"/><polygon points="626.97 465.08 619.06 471.67 618.06 472.37 625.97 465.79 626.97 465.08"/><polygon points="625.97 465.79 618.06 472.37 617.17 471.5 625.08 464.92 625.97 465.79"/><polygon class="c" points="647.68 490.66 639.77 497.24 638.58 497.86 646.49 491.28 647.68 490.66"/><polygon points="647.03 492.54 639.12 499.12 638.58 497.86 646.49 491.28 647.03 492.54"/><path d="M646,500.51,638,507.09a4.2,4.2,0,0,0,.44-.41c1.64-1.74,1.88-4.63.64-7.56l7.91-6.58c1.24,2.92,1,5.82-.64,7.56A5.76,5.76,0,0,1,646,500.51Z"/><path d="M599.74,470.84l7.91-6.59a13.58,13.58,0,0,1,17.43.67l-7.91,6.58A13.12,13.12,0,0,0,607.8,468,13,13,0,0,0,599.74,470.84Z"/><path d="M597.81,468.54l7.91-6.59-.28.24-7.92,6.59Z"/><polygon class="c" points="606.43 465.4 598.52 471.98 599.06 471.45 606.98 464.86 606.43 465.4"/><polygon points="606.43 465.4 598.52 471.98 597.75 471.83 605.66 465.24 606.43 465.4"/><path class="c" d="M599.74,470.84l7.91-6.59c-.23.2-.46.4-.67.61l-7.92,6.59C599.28,471.24,599.5,471,599.74,470.84Z"/><path class="c" d="M634.36,508.35a11.37,11.37,0,0,1-7.7-3.35l7.91-6.59a11.34,11.34,0,0,0,7.7,3.36l-7.91,6.58,7.91-6.58a5.87,5.87,0,0,0,3.68-1.26L638,507.09A5.75,5.75,0,0,1,634.36,508.35Z"/><path class="c" d="M626.66,505l-.32-.33,7.91-6.58.32.32Z"/><polygon class="c" points="634.25 498.09 626.34 504.67 624.71 503.02 632.62 496.44 634.25 498.09"/><polygon points="631.82 498.57 623.91 505.16 624.71 503.02 632.62 496.44 631.82 498.57"/><path d="M647.89,502.8,640,509.38a8.72,8.72,0,0,1-5.49,1.92,13.91,13.91,0,0,1-8.64-3.15l7.91-6.58a13.86,13.86,0,0,0,8.64,3.14A8.7,8.7,0,0,0,647.89,502.8Z"/><path d="M628,504l-7.91,6.58a12.7,12.7,0,0,0,3.79-5.38l7.91-6.59A12.8,12.8,0,0,1,628,504Z"/><path d="M605.66,465.24l-7.91,6.59a14,14,0,0,0-3.1-.28,13,13,0,0,0-7.32,2.28l7.91-6.58a13,13,0,0,1,7.32-2.29A15.22,15.22,0,0,1,605.66,465.24Z"/><polygon points="595.24 467.25 587.33 473.83 586.43 474.46 594.34 467.88 595.24 467.25"/><polygon points="594.34 467.88 586.43 474.46 585.55 473.74 593.46 467.16 594.34 467.88"/><path d="M575,473.68l7.91-6.58a8.05,8.05,0,0,1,5.05-1.89,8.37,8.37,0,0,1,5.49,2l-7.91,6.58a8.42,8.42,0,0,0-5.49-1.95A8,8,0,0,0,575,473.68Z"/><polygon class="c" points="610.02 500.71 602.11 507.3 600.86 505.35 608.77 498.76 610.02 500.71"/><path d="M573.09,471.37l7.91-6.58c-.21.17-.41.35-.61.54l-7.91,6.59Z"/><path class="c" d="M612.83,513.28a12.55,12.55,0,0,1-10.72-6l7.91-6.59a12.52,12.52,0,0,0,10.72,6l-7.91,6.59,7.91-6.59A11.71,11.71,0,0,0,628,504l-7.92,6.58A11.69,11.69,0,0,1,612.83,513.28Z"/><path class="c" d="M575,473.68l7.91-6.58a9.51,9.51,0,0,0-.92.88l-7.91,6.59A8.58,8.58,0,0,1,575,473.68Z"/><polygon class="c" points="581.4 468.64 573.49 475.23 574.09 474.57 582 467.98 581.4 468.64"/><polygon points="607.53 500.67 599.62 507.26 600.86 505.35 608.77 498.76 607.53 500.67"/><polygon points="581.4 468.64 573.49 475.23 572.61 475 580.52 468.41 581.4 468.64"/><path d="M630,506.26,622,512.85a14.58,14.58,0,0,1-9.1,3.4,15.36,15.36,0,0,1-12.09-5.71l7.91-6.58a15.36,15.36,0,0,0,12.09,5.7A14.5,14.5,0,0,0,630,506.26Z"/><path d="M605.54,502.9l-7.91,6.58a10,10,0,0,0,2-2.22l7.91-6.59A10,10,0,0,1,605.54,502.9Z"/><path d="M563.44,476.94l7.92-6.58a10,10,0,0,1,6.26-2.32,10.13,10.13,0,0,1,2.9.37L572.61,475a10.49,10.49,0,0,0-2.9-.37A10.06,10.06,0,0,0,563.44,476.94Z"/><path class="c" d="M589.55,512.34a13.41,13.41,0,0,1-8.51-2.76L589,503a13.37,13.37,0,0,0,8.51,2.76l-7.91,6.59,7.92-6.59a13,13,0,0,0,8.07-2.85l-7.91,6.58A13.1,13.1,0,0,1,589.55,512.34Z"/><polygon class="c" points="588.96 502.99 581.04 509.58 580.37 509.04 588.29 502.46 588.96 502.99"/><polygon class="c" points="588.29 502.46 580.37 509.04 579.59 509.34 587.5 502.76 588.29 502.46"/><path class="c" d="M559.81,485.14a10.14,10.14,0,0,1,3.63-8.2l7.92-6.58a10.12,10.12,0,0,0-3.64,8.2,10.28,10.28,0,0,0,.36,2.36l-7.91,6.59A10.45,10.45,0,0,1,559.81,485.14Z"/><polygon class="c" points="573.3 487.61 565.39 494.19 564.15 493.28 572.06 486.7 573.3 487.61"/><path class="c" d="M561,489.7a10.1,10.1,0,0,1-.87-2.19l.92-.77,1-.82,1-.84,1-.86,1-.87,1-.84,1-.82.92-.77a10.42,10.42,0,0,0,.87,2.19l-7.9,6.57,7.9-6.57h0Z"/><path d="M607.47,505.18l-7.91,6.59a16.05,16.05,0,0,1-9.89,3.54,16.51,16.51,0,0,1-9.75-2.91l7.91-6.59a16.44,16.44,0,0,0,9.75,2.91A15.91,15.91,0,0,0,607.47,505.18Z"/><path class="c" d="M561.72,490.8a9.57,9.57,0,0,1-.68-1.1l4-3.29,1-.86,1-.85,1-.82.92-.76a10.52,10.52,0,0,0,.68,1.1Z"/><path class="c" d="M562.46,491.74l.42-.35,7.49-6.23a11.29,11.29,0,0,0,1.69,1.54l-7.91,6.58A10.78,10.78,0,0,1,562.46,491.74Z"/><path class="c" d="M562.46,491.74l-.08-.09.92-.77,1-.82,1-.84,1-.86,1-.87,1-.84,1-.82.92-.77.08.1Z"/><path class="c" d="M561.72,490.8l.41-.35.45-.36.46-.39.46-.39.47-.39.46-.38.45-.37.41-.35,2.17-1.8.57-.47.55-.46.54-.45.51-.42a8.69,8.69,0,0,0,.66.84l-7.91,6.59A8.81,8.81,0,0,1,561.72,490.8Z"/><polygon class="c" points="572.39 488.81 564.48 495.39 565.39 494.19 573.3 487.61 572.39 488.81"/><path d="M561.53,474.64l7.91-6.59a13,13,0,0,0-4.68,10.56,13.55,13.55,0,0,0,4.46,9.55l-7.91,6.59a13.51,13.51,0,0,1-4.46-9.56A13,13,0,0,1,561.53,474.64Z"/><path class="c" d="M574.87,510.24a13.37,13.37,0,0,1-8.44-2.7l4-3.29,1-.86,1-.85,1-.81.93-.77a13.41,13.41,0,0,0,8.44,2.7,13.78,13.78,0,0,0,4.71-.9l-7.91,6.58A13.79,13.79,0,0,1,574.87,510.24Z"/><path class="c" d="M562.72,500.76a8.28,8.28,0,0,1,1.76-5.37l7.91-6.58a8.31,8.31,0,0,0-1.76,5.36,9.07,9.07,0,0,0,3.72,6.79l-7.92,6.58A9.08,9.08,0,0,1,562.72,500.76Z"/><path class="c" d="M615.71,461.41a13.1,13.1,0,0,1,9.37,3.51l.89.87,1-.71a13.29,13.29,0,0,1,7.38-2.32c6.5-.1,11.95,4.14,12.15,9.49a8.58,8.58,0,0,1-.11,1.66l-.2,1.12,1,.5c3.43,1.66,5.55,4.45,5.66,7.45s-1.83,5.9-5.2,7.68l-1.19.62.54,1.26c1.24,2.92,1,5.82-.64,7.56a5.65,5.65,0,0,1-4.12,1.67,11.34,11.34,0,0,1-7.7-3.36l-.32-.32-1.63-1.66-.8,2.14a12.13,12.13,0,0,1-11.08,8.12,12.52,12.52,0,0,1-10.72-6l-1.25-1.95-1.24,1.91a12.18,12.18,0,0,1-10.07,5.08A13.37,13.37,0,0,1,589,503l-.66-.53-.79.3a13.78,13.78,0,0,1-4.71.9c-6.5.1-12-4.14-12.16-9.49a8.31,8.31,0,0,1,1.76-5.36l.91-1.2-1.24-.91a10.57,10.57,0,0,1-4.34-8.14,10.09,10.09,0,0,1,12.8-10.15l.88.24.6-.67a8.15,8.15,0,0,1,6-2.77,8.37,8.37,0,0,1,5.49,2l.88.72.9-.63a13,13,0,0,1,7.32-2.29,15.22,15.22,0,0,1,3.1.28l.77.16.55-.54A12.7,12.7,0,0,1,615.71,461.41Z"/><path d="M655.85,482.93c.14,3.81-2,7.38-5.64,9.72,1.14,3.62.55,7.18-1.65,9.51a8.49,8.49,0,0,1-6.17,2.55,13.86,13.86,0,0,1-8.64-3.14,14.89,14.89,0,0,1-12.9,8.09,15.36,15.36,0,0,1-12.09-5.7,15.56,15.56,0,0,1-11.18,4.76,16.44,16.44,0,0,1-9.75-2.91,16.6,16.6,0,0,1-4.93.83c-8.14.13-15-5.44-15.23-12.42a11.13,11.13,0,0,1,1.55-6.06,13.55,13.55,0,0,1-4.46-9.55,13,13,0,0,1,12.75-13.54,13.25,13.25,0,0,1,2.88.26,11,11,0,0,1,7.47-3.1,11.43,11.43,0,0,1,6.55,2,16.16,16.16,0,0,1,8-2.23,18.71,18.71,0,0,1,3,.21,15.78,15.78,0,0,1,10.16-3.75A16.24,16.24,0,0,1,626.21,462a16.21,16.21,0,0,1,8-2.22c8.14-.13,15,5.44,15.23,12.42a11.52,11.52,0,0,1,0,1.17C653.33,475.6,655.7,479.1,655.85,482.93Zm-8.17,7.73c3.37-1.78,5.31-4.66,5.2-7.68s-2.23-5.79-5.66-7.45l-1-.5.2-1.12a8.58,8.58,0,0,0,.11-1.66c-.2-5.35-5.65-9.59-12.15-9.49a13.29,13.29,0,0,0-7.38,2.32l-1,.71-.89-.87a13.1,13.1,0,0,0-9.37-3.51,12.7,12.7,0,0,0-8.73,3.45l-.55.54-.77-.16a15.22,15.22,0,0,0-3.1-.28,13,13,0,0,0-7.32,2.29l-.9.63-.88-.72a8.37,8.37,0,0,0-5.49-2,8.15,8.15,0,0,0-6,2.77l-.6.67-.88-.24a10.09,10.09,0,0,0-12.8,10.15,10.57,10.57,0,0,0,4.34,8.14l1.24.91-.91,1.2a8.31,8.31,0,0,0-1.76,5.36c.2,5.35,5.66,9.59,12.16,9.49a13.78,13.78,0,0,0,4.71-.9l.79-.3.66.53a13.37,13.37,0,0,0,8.51,2.76,12.18,12.18,0,0,0,10.07-5.08l1.24-1.91,1.25,1.95a12.52,12.52,0,0,0,10.72,6,12.13,12.13,0,0,0,11.08-8.12l.8-2.14,1.63,1.66.32.32a11.34,11.34,0,0,0,7.7,3.36,5.65,5.65,0,0,0,4.12-1.67c1.64-1.74,1.88-4.64.64-7.56l-.54-1.26,1.19-.62"/><path d="M587.83,505.81l-7.91,6.59a16.92,16.92,0,0,1-4.93.82c-8.14.14-15-5.44-15.23-12.41a11,11,0,0,1,1.55-6.06l7.91-6.59a11.13,11.13,0,0,0-1.55,6.06c.26,7,7.09,12.55,15.23,12.42A16.6,16.6,0,0,0,587.83,505.81Z"/></g><rect class="c" x="326" y="247.5" width="121" height="27"/><text class="k" transform="translate(501.2 286.81)"><tspan class="l">a</tspan><tspan x="12.24" y="0">ddN</tspan><tspan class="m" x="55.92" y="0">e</tspan><tspan class="n" x="68.16" y="0">wPl</tspan><tspan class="m" x="106.84" y="0">a</tspan><tspan class="o" x="118.78" y="0">y</tspan><tspan x="130.04" y="0">e</tspan><tspan class="p" x="142.48" y="0">r</tspan><tspan x="150.68" y="0">()</tspan></text><text class="k" transform="translate(483.7 420.31)">So<tspan class="q" x="25.48" y="0">c</tspan><tspan class="r" x="37" y="0">k</tspan><tspan x="49.28" y="0">et </tspan><tspan class="s" x="75.72" y="0">C</tspan><tspan x="89.86" y="0">on</tspan><tspan class="l" x="116.46" y="0">n</tspan><tspan x="130.26" y="0">e</tspan><tspan class="t" x="142.7" y="0">c</tspan><tspan x="154.46" y="0">tion</tspan></text><text class="u" transform="translate(436.7 617.6)">so<tspan class="v" x="16.74" y="0">c</tspan><tspan class="w" x="25.07" y="0">k</tspan><tspan x="33.77" y="0">et</tspan></text><line class="a" x1="300" y1="275" x2="484.92" y2="275"/><polygon points="481.6 279.09 480.92 278.36 484.53 275 480.92 271.64 481.6 270.91 486 275 481.6 279.09"/><line class="a" x1="189.75" y1="202.75" x2="189.75" y2="242.92"/><polygon points="185.66 239.6 186.39 238.92 189.75 242.53 193.11 238.92 193.84 239.6 189.75 244 185.66 239.6"/><line class="a" x1="682.69" y1="174" x2="885.57" y2="174"/><polygon points="882.26 178.09 881.57 177.36 885.19 174 881.57 170.64 882.26 169.91 886.65 174 882.26 178.09"/><line class="a" x1="887" y1="197" x2="683.08" y2="197"/><polygon points="686.4 192.91 687.08 193.64 683.47 197 687.08 200.36 686.4 201.09 682 197 686.4 192.91"/><text class="k" transform="translate(158.82 184.67)">GET <tspan class="x" x="46.4" y="0">“</tspan><tspan class="y" x="54.52" y="0">/</tspan><tspan x="62.94" y="0">”</tspan></text><text class="k" transform="translate(156.7 282.67)">PO<tspan class="p" x="31.36" y="0">S</tspan><tspan class="n" x="43.74" y="0">T </tspan><tspan class="x" x="61.3" y="0">“</tspan><tspan class="y" x="69.42" y="0">/</tspan><tspan x="77.84" y="0">”</tspan></text><text class="k" transform="translate(112.7 312.67)"><tspan class="l">n</tspan><tspan class="m" x="13.8" y="0">e</tspan><tspan x="26.04" y="0">w Pl</tspan><tspan class="p" x="70.24" y="0">a</tspan><tspan class="o" x="82.18" y="0">y</tspan><tspan class="z" x="93.44" y="0">e</tspan><tspan class="p" x="105.88" y="0">r</tspan><tspan x="114.08" y="0">(x, y)</tspan></text><text class="aa" transform="translate(136.55 585.92)">d<tspan class="ab" x="11.52" y="0">r</tspan><tspan class="ac" x="18.43" y="0">a</tspan><tspan x="28.43" y="0">wPl</tspan><tspan class="ac" x="60.86" y="0">a</tspan><tspan class="ad" x="70.87" y="0">y</tspan><tspan class="ae" x="80.31" y="0">e</tspan><tspan class="ac" x="90.74" y="0">r</tspan><tspan class="af" x="97.61" y="0">()</tspan></text><text class="aa" transform="translate(144.15 612.75)">d<tspan class="ab" x="11.52" y="0">r</tspan><tspan class="ac" x="18.43" y="0">a</tspan><tspan class="ag" x="28.43" y="0">w</tspan><tspan class="ah" x="43.76" y="0">C</tspan><tspan class="af" x="55.61" y="0">oin()</tspan></text><text class="aa" transform="translate(137.44 637.06)"><tspan class="ab">c</tspan><tspan class="af" x="9.61" y="0">olle</tspan><tspan class="ai" x="40.54" y="0">c</tspan><tspan x="50.4" y="0">t</tspan><tspan class="ah" x="57.51" y="0">C</tspan><tspan class="af" x="69.36" y="0">oin()</tspan></text><text class="u" transform="translate(738.83 171.63)"><tspan class="aj">f</tspan><tspan x="4.95" y="0">e</tspan><tspan class="ak" x="14.01" y="0">t</tspan><tspan class="v" x="19.81" y="0">c</tspan><tspan x="28.14" y="0">h data</tspan></text><text class="u" transform="translate(731.83 209.63)">JSON obje<tspan class="h" x="78.19" y="0">c</tspan><tspan x="86.73" y="0">t</tspan></text><text class="u" transform="translate(336.83 272.63)">H<tspan class="al" x="12.2" y="0">T</tspan><tspan x="20.96" y="0">TP </tspan><tspan class="am" x="44.26" y="0">r</tspan><tspan x="50.08" y="0">equest</tspan></text><rect class="c" x="326" y="303.5" width="121" height="27"/><rect class="c" x="283" y="594.5" width="121" height="23"/><line class="a" x1="486" y1="303" x2="301.08" y2="303"/><polygon points="304.4 298.91 305.08 299.64 301.47 303 305.08 306.36 304.4 307.09 300 303 304.4 298.91"/><text class="u" transform="translate(330.23 316.63)">H<tspan class="al" x="12.2" y="0">T</tspan><tspan x="20.96" y="0">TP </tspan><tspan class="am" x="44.26" y="0">r</tspan><tspan x="50.08" y="0">esponse</tspan></text><rect class="c" x="321.82" y="442.31" width="121" height="27" transform="translate(580.77 -105.04) rotate(59.47)"/><text class="u" transform="translate(329.33 365.56) rotate(59.47)">C<tspan class="an" x="10.79" y="0">r</tspan><tspan class="ao" x="16.61" y="0">e</tspan><tspan x="25.44" y="0">a</tspan><tspan class="ak" x="34.29" y="0">t</tspan><tspan x="40.09" y="0">e so</tspan><tspan class="ap" x="69.82" y="0">c</tspan><tspan class="aq" x="78.15" y="0">k</tspan><tspan x="86.85" y="0">et </tspan><tspan class="aj" x="105.93" y="0">c</tspan><tspan x="114.24" y="0">on</tspan><tspan class="ar" x="133.8" y="0">n</tspan><tspan x="143.98" y="0">e</tspan><tspan class="h" x="153.04" y="0">c</tspan><tspan x="161.58" y="0">tion</tspan></text><rect class="c" x="326" y="143.5" width="121" height="27"/><line class="a" x1="300" y1="171" x2="484.92" y2="171"/><polygon points="481.6 175.09 480.92 174.36 484.53 171 480.92 167.64 481.6 166.91 486 171 481.6 175.09"/><text class="u" transform="translate(336.83 168.63)">H<tspan class="al" x="12.2" y="0">T</tspan><tspan x="20.96" y="0">TP </tspan><tspan class="am" x="44.26" y="0">r</tspan><tspan x="50.08" y="0">equest</tspan></text><rect class="c" x="326" y="199.5" width="121" height="27"/><line class="a" x1="486" y1="199" x2="301.08" y2="199"/><polygon points="304.4 194.91 305.08 195.64 301.47 199 305.08 202.36 304.4 203.09 300 199 304.4 194.91"/><text class="u" transform="translate(330.23 212.63)">H<tspan class="al" x="12.2" y="0">T</tspan><tspan x="20.96" y="0">TP </tspan><tspan class="am" x="44.26" y="0">r</tspan><tspan x="50.08" y="0">esponse</tspan></text><line class="a" x1="547.73" y1="499.77" x2="466" y2="581.5"/><polygon points="542.5 499.22 542.53 500.22 547.46 500.04 547.28 504.97 548.28 505 548.5 499 542.5 499.22"/><line class="a" x1="611.5" y1="525" x2="611.5" y2="613"/><rect class="a" x="426.5" y="592" width="70" height="40" rx="9.5"/><text class="u" transform="translate(540.7 674.6)">so<tspan class="v" x="16.74" y="0">c</tspan><tspan class="w" x="25.07" y="0">k</tspan><tspan x="33.77" y="0">et</tspan></text><rect class="a" x="530.5" y="649" width="70" height="40" rx="9.5"/><text class="u" transform="translate(630.7 674.6)">so<tspan class="v" x="16.74" y="0">c</tspan><tspan class="w" x="25.07" y="0">k</tspan><tspan x="33.77" y="0">et</tspan></text><rect class="a" x="620.5" y="649" width="70" height="40" rx="9.5"/><line class="as" x1="300.5" y1="331" x2="451.95" y2="588.07"/><polygon points="446.74 587.29 447.03 586.33 451.75 587.74 452.81 582.92 453.79 583.13 452.5 589 446.74 587.29"/><line class="a" x1="277.5" y1="571" x2="277.5" y2="645.5"/><line class="a" x1="277.5" y1="571" x2="266" y2="571"/><line class="a" x1="277.53" y1="645" x2="266" y2="645"/><text class="u" transform="translate(282.83 610.63)">upda<tspan class="ak" x="39.28" y="0">t</tspan><tspan x="45.09" y="0">e position</tspan></text><line class="a" x1="277.57" y1="614" x2="414.42" y2="614"/><polygon points="411.1 618.09 410.42 617.36 414.03 614 410.42 610.64 411.1 609.91 415.5 614 411.1 618.09"/><text class="at" transform="translate(487.49 555.57) rotate(-45)"><tspan class="v">c</tspan><tspan x="5.55" y="0">ha</tspan><tspan class="au" x="18.22" y="0">n</tspan><tspan x="25.01" y="0">ges</tspan></text><line class="a" x1="502.58" y1="613" x2="655.5" y2="613"/><polygon points="505.9 617.09 506.58 616.36 502.97 613 506.58 609.64 505.9 608.91 501.5 613 505.9 617.09"/><line class="a" x1="566.5" y1="612.5" x2="566.5" y2="643.42"/><polygon points="562.41 640.1 563.14 639.42 566.5 643.03 569.86 639.42 570.59 640.1 566.5 644.5 562.41 640.1"/><line class="a" x1="655.5" y1="612.5" x2="655.5" y2="643.42"/><polygon points="651.41 640.1 652.14 639.42 655.5 643.03 658.86 639.42 659.59 640.1 655.5 644.5 651.41 640.1"/><rect class="c" x="583" y="570.5" width="59" height="17"/><text class="at" transform="translate(592.23 581.92)">upda<tspan class="av" x="26.19" y="0">t</tspan><tspan x="30.06" y="0">e</tspan></text></svg>