<svg xmlns="http://www.w3.org/2000/svg" viewBox="0 0 1366 768"><defs><style>.a{fill:#eaeaea;}.b,.i{fill:#fff;}.b,.j{stroke:#000;}.ab,.ad,.b,.j{stroke-miterlimit:10;}.b{stroke-width:2px;}.c,.k{font-size:30px;}.c,.e,.k,.o{font-family:MyriadPro-Regular, Myriad Pro;}.c{letter-spacing:-0.03em;}.d{letter-spacing:0em;}.e{font-size:25px;}.f{letter-spacing:0em;}.g{letter-spacing:-0.01em;}.h{isolation:isolate;}.ab,.ad,.j{fill:none;}.l{letter-spacing:0.01em;}.m{letter-spacing:0.02em;}.n{letter-spacing:-0.01em;}.o{font-size:11px;fill:#3f3f3f;}.p{letter-spacing:0em;}.q{letter-spacing:-0.01em;}.r{letter-spacing:0em;}.s{letter-spacing:0em;}.t{letter-spacing:-0.01em;}.u{letter-spacing:-0.01em;}.v{letter-spacing:0em;}.w{letter-spacing:0em;}.x{letter-spacing:-0.01em;}.y{letter-spacing:-0.01em;}.z{letter-spacing:-0.01em;}.aa{letter-spacing:0em;}.ab{stroke:#516bff;}.ac{fill:#516bff;}.ad{stroke:#d63eff;}.ae{fill:#d63eff;}</style></defs><rect class="a" width="1366" height="768"/><rect class="b" x="94" y="126" width="279" height="57"/><rect class="b" x="94" y="184" width="279" height="114"/><text class="c" transform="translate(168.1 163.31)">P<tspan class="d" x="15.21" y="0">okemons</tspan></text><text class="e" transform="translate(106.61 218.84)">name</text><text class="e" transform="translate(106.61 263.84)">sp<tspan class="f" x="24.12" y="0">r</tspan><tspan x="32.4" y="0">i</tspan><tspan class="g" x="38.25" y="0">t</tspan><tspan x="46.37" y="0">es</tspan></text><g class="h"><polygon points="694.58 175.69 678.85 192.77 678.92 191.71 694.66 174.63 694.58 175.69"/><polygon points="695.61 176.17 679.87 193.25 678.85 192.77 694.58 175.69 695.61 176.17"/><path d="M707.09,210.17l-15.73,17.08a18,18,0,0,0,4.89-14.78c-1.06-7.78-7.18-15-16.38-19.22l15.74-17.08c9.19,4.27,15.31,11.45,16.37,19.22A17.91,17.91,0,0,1,707.09,210.17Z"/><path d="M694.66,174.63l-15.74,17.08a20,20,0,0,0-.12-4.31C677,173.82,662.12,163,645.74,163.2a30.1,30.1,0,0,0-17.9,5.75l15.73-17.07a30.06,30.06,0,0,1,17.9-5.76c16.38-.23,31.22,10.63,33.07,24.21A20.57,20.57,0,0,1,694.66,174.63Z"/><polygon points="643.57 151.88 627.84 168.95 626.94 169.62 642.68 152.54 643.57 151.88"/><polygon points="642.68 152.54 626.94 169.62 626.01 168.78 641.74 151.71 642.68 152.54"/><path d="M709.31,212.2l-15.74,17.08a27.44,27.44,0,0,1-6,4.86l15.73-17.08A27.45,27.45,0,0,0,709.31,212.2Z"/><path class="i" d="M707.09,210.17l-15.73,17.08a25.47,25.47,0,0,1-6.47,5l15.74-17.07A25.27,25.27,0,0,0,707.09,210.17Z"/><polygon class="i" points="700.63 215.15 684.89 232.22 683.82 232.82 699.55 215.74 700.63 215.15"/><polygon points="700.18 216.93 684.45 234 683.82 232.82 699.55 215.74 700.18 216.93"/><path d="M700,237.11l-15.74,17.07.3-.34c4-4.63,3.93-12.23-.06-19.84l15.73-17.07c4,7.6,4,15.2.07,19.84Z"/><path class="i" d="M684.21,254.18a11.36,11.36,0,0,1-1.76,1.56l1.84-2,2-2.12,2-2.19,2.06-2.24,7.86-8.53a11.91,11.91,0,0,0,1.77-1.56Z"/><path class="i" d="M679.17,257.44l15.74-17.08a12.66,12.66,0,0,0,3.27-1.69l-15.73,17.07A12.75,12.75,0,0,1,679.17,257.44Z"/><path d="M641.74,151.71,626,168.78A36.27,36.27,0,0,0,601.64,160c-8.46.12-16.13,3.25-21.06,8.58l15.74-17.07c4.93-5.33,12.6-8.46,21.06-8.59A36.21,36.21,0,0,1,641.74,151.71Z"/><polygon points="596.32 151.46 580.58 168.53 580.11 169.04 595.84 151.97 596.32 151.46"/><polygon points="595.84 151.97 580.11 169.04 579.37 168.9 595.1 151.83 595.84 151.97"/><path class="i" d="M654.85,251l.63-.68.67-.73.69-.75.71-.77.7-.76.69-.75.67-.73.63-.68,2.49-2.7,1.33-1.44,1.35-1.47,1.36-1.47,1.33-1.44,1.28-1.39,1.21-1.32a32.71,32.71,0,0,0,16.09,7.13,22.8,22.8,0,0,0,2.93.16,16.81,16.81,0,0,0,5.3-.89l-15.74,17.08a16.47,16.47,0,0,1-5.29.88,21,21,0,0,1-2.93-.16A32.72,32.72,0,0,1,654.85,251Z"/><polygon class="i" points="668.3 232.02 652.57 249.09 650.86 247.52 666.6 230.44 668.3 232.02"/><path class="i" d="M653.46,249.89c-.31-.26-.6-.53-.89-.8L668.3,232l.89.79c.46.4.93.78,1.4,1.15L654.85,251C654.38,250.67,653.92,250.28,653.46,249.89Z"/><polygon class="i" points="626.14 209.37 610.41 226.44 607.82 207.44 623.56 190.36 626.14 209.37"/><polygon points="623.69 209.4 607.96 226.48 605.37 207.47 621.1 190.4 623.69 209.4"/><polygon class="i" points="623.56 190.36 607.82 207.44 605.37 207.47 621.1 190.4 623.56 190.36"/><polygon points="666.03 232.47 650.3 249.55 650.86 247.52 666.6 230.44 666.03 232.47"/><path d="M702.15,239.15l-15.73,17.07c-2.91,3.15-7.13,4.86-12.15,4.93A25.26,25.26,0,0,1,671,261a36.39,36.39,0,0,1-18.5-8.45l15.74-17.08a36.34,36.34,0,0,0,18.49,8.46,25.21,25.21,0,0,0,3.32.17C695,244,699.25,242.3,702.15,239.15Z"/><path class="i" d="M602.8,212.93a5.82,5.82,0,0,0-2.21-4l15.74-17.07a5.86,5.86,0,0,1,2.21,4Z"/><path class="i" d="M602.8,212.94h0q3.94-4.26,7.87-8.54l7.87-8.53h0Z"/><path class="i" d="M601.89,217a5.07,5.07,0,0,0,.91-4.07l1.84-2,2-2.11,2-2.2,2.06-2.23,2.06-2.24,2-2.19,3.79-4.11a5.12,5.12,0,0,1-.91,4.08Z"/><path class="i" d="M601.89,217c.26-.3.63-.68.9-1l14.84-16.09-.21.25-15.74,17.07Z"/><path class="i" d="M595.05,207.49a27.19,27.19,0,0,0-4.66.43l15.73-17.08a27.33,27.33,0,0,1,4.67-.43l-15.73,17.07,15.73-17.07a8.63,8.63,0,0,1,5.54,1.5L600.59,209A8.53,8.53,0,0,0,595.05,207.49Z"/><path d="M615.36,198.91,599.62,216a3.44,3.44,0,0,0,.74-2.91c-.34-2.5-2.28-3.69-5-3.65a10,10,0,0,0-2.28.23l15.73-17.08a10.4,10.4,0,0,1,2.29-.22c2.7,0,4.65,1.14,5,3.64A3.42,3.42,0,0,1,615.36,198.91Z"/><path d="M595.1,151.83,579.37,168.9a37.43,37.43,0,0,0-7.79-.73,30.27,30.27,0,0,0-17.77,5.65l15.74-17.07a30.18,30.18,0,0,1,17.77-5.65A36,36,0,0,1,595.1,151.83Z"/><polygon points="569.55 156.75 553.81 173.82 553 174.42 568.74 157.34 569.55 156.75"/><polygon points="568.74 157.34 553 174.42 552.1 173.75 567.83 156.67 568.74 157.34"/><polygon points="623.56 190.36 626.14 209.37 623.69 209.4 621.1 190.4 623.56 190.36"/><polygon points="626.14 209.37 610.41 226.44 607.96 226.48 623.69 209.4 626.14 209.37"/><path d="M659.64,244.09l-15.73,17.08a28.23,28.23,0,0,0,6.39-11.62L666,232.48A28.19,28.19,0,0,1,659.64,244.09Z"/><path class="i" d="M599.62,216a4.64,4.64,0,0,1-3.47,1.23l1.84-2,2-2.11,2-2.2,2.06-2.23,2.06-2.23,2-2.2,1.95-2.11,1.84-2a4.67,4.67,0,0,0,3.47-1.22Z"/><polygon class="i" points="611.14 209.59 595.4 226.66 594.37 219.05 610.1 201.97 611.14 209.59"/><path class="i" d="M594.49,217.12l3.59-3.89,12.15-13.18a10.41,10.41,0,0,0,1.66.08h0l-15.74,17.08h0A9.32,9.32,0,0,1,594.49,217.12Z"/><polygon class="i" points="609.83 199.97 594.09 217.04 593.09 209.66 608.82 192.59 609.83 199.97"/><path d="M617.42,200.19l-15.74,17.07a7.26,7.26,0,0,1-5.32,1.93,9.46,9.46,0,0,1-2-.14L610.1,202a9,9,0,0,0,2,.14A7.32,7.32,0,0,0,617.42,200.19Z"/><polygon points="608.68 209.62 592.95 226.7 590.39 207.92 606.13 190.84 608.68 209.62"/><path class="i" d="M594.49,217.12l-.4-.08L609.83,200l.4.08Z"/><polygon class="i" points="596.81 190.75 581.07 207.82 578.11 207.87 593.85 190.79 596.81 190.75"/><polygon class="i" points="605.89 209.66 590.15 226.74 581.07 207.82 596.81 190.75 605.89 209.66"/><polygon points="595.58 192.95 579.85 210.02 579.79 210.02 595.53 192.95 595.58 192.95"/><polygon points="599.65 201.84 583.91 218.91 581.31 213.47 597.04 196.4 599.65 201.84"/><polygon class="i" points="593.92 201.92 578.18 219 579.3 213.48 595.03 196.4 593.92 201.92"/><path d="M597,196.4l-15.73,17.07c-.59-1.23-1-2.35-1.46-3.45L595.58,193C596,194,596.45,195.16,597,196.4Z"/><path class="i" d="M579.3,213.48c.21-1.17.36-2.33.49-3.46L595.53,193h0l-15.66,17,15.66-17c-.14,1.13-.28,2.29-.5,3.44Z"/><polygon points="611.14 209.59 595.4 226.66 592.95 226.7 608.68 209.62 611.14 209.59"/><polygon points="605.89 209.66 590.15 226.74 587.53 226.77 603.26 209.7 605.89 209.66"/><polygon points="603.26 209.7 587.53 226.77 584.68 220.82 600.42 203.75 603.26 209.7"/><polygon class="i" points="599.65 201.84 583.91 218.91 578.18 219 593.92 201.92 599.65 201.84"/><polygon points="600.42 203.75 584.68 220.82 577.94 220.92 593.67 203.85 600.42 203.75"/><path d="M523.38,174.82l15.74-17.07a19.05,19.05,0,0,1,14-6.15,23.87,23.87,0,0,1,14.74,5.07L552.1,173.75a23.91,23.91,0,0,0-14.75-5.08A19.09,19.09,0,0,0,523.38,174.82Z"/><path d="M521.2,172.77l15.73-17.07-.44.49-15.73,17.07C520.9,173.09,521.05,172.93,521.2,172.77Z"/><polygon class="i" points="537.77 159.34 522.04 176.42 522.55 175.79 538.28 158.72 537.77 159.34"/><polygon points="537.77 159.34 522.04 176.42 521.18 176.19 536.92 159.12 537.77 159.34"/><path class="i" d="M523.38,174.82l15.74-17.07c-.29.31-.57.63-.84,1l-15.73,17.07C522.82,175.46,523.1,175.14,523.38,174.82Z"/><polygon class="i" points="592.51 209.86 576.78 226.93 577.94 220.92 593.67 203.85 592.51 209.86"/><polygon points="589.98 209.89 574.24 226.97 578.11 207.87 593.85 190.79 589.98 209.89"/><polygon points="592.51 209.86 576.78 226.93 574.24 226.97 589.98 209.89 592.51 209.86"/><polygon class="i" points="611.67 237.69 595.94 254.76 594.56 252.91 610.29 235.84 611.67 237.69"/><path class="i" d="M598.1,257.43q-1.12-1.28-2.16-2.67l15.73-17.07c.69.93,1.42,1.81,2.17,2.66Z"/><path class="i" d="M598.1,257.43l15.74-17.08c7,7.91,16.6,12.46,26.29,12.32a26.79,26.79,0,0,0,19.52-8.58l-15.74,17.08a26.73,26.73,0,0,1-19.52,8.57C614.71,269.88,605.1,265.33,598.1,257.43Z"/><polygon points="609.29 237.64 593.56 254.71 594.56 252.91 610.29 235.84 609.29 237.64"/><path d="M661.85,246.13,646.12,263.2a29.3,29.3,0,0,1-21.34,9.36c-11.06.16-22-5.26-29.72-14.59L610.8,240.9c7.69,9.33,18.66,14.74,29.71,14.58A29.24,29.24,0,0,0,661.85,246.13Z"/><path d="M606.33,241.72,590.6,258.79a21.45,21.45,0,0,0,3-4.08l15.73-17.07A21.33,21.33,0,0,1,606.33,241.72Z"/><path d="M496.78,182.55l15.73-17.07a23.14,23.14,0,0,1,16.92-7.31,27.15,27.15,0,0,1,7.49,1l-15.73,17.07a28.06,28.06,0,0,0-7.5-.95A23.12,23.12,0,0,0,496.78,182.55Z"/><path class="i" d="M569.51,267.42a36.53,36.53,0,0,1-22-6.94l15.74-17.07a36.43,36.43,0,0,0,22,6.93c8.55-.12,16.21-3.33,21.08-8.63L590.6,258.79C585.72,264.08,578.06,267.29,569.51,267.42Z"/><polygon class="i" points="563.24 243.41 547.5 260.48 546.81 259.98 562.55 242.9 563.24 243.41"/><path class="i" d="M491.05,201.81a23.37,23.37,0,0,1,5.72-19.25l15.74-17.08a23.36,23.36,0,0,0-5.73,19.26,28.62,28.62,0,0,0,3.32,9.94l-15.74,17.08A28.65,28.65,0,0,1,491.05,201.81Z"/><polygon class="i" points="562.55 242.9 546.81 259.98 546.09 260.27 561.83 243.19 562.55 242.9"/><polygon class="i" points="521.16 206.24 505.43 223.31 504.15 222.45 519.89 205.38 521.16 206.24"/><path class="i" d="M494.36,211.76l15.74-17.08a31.13,31.13,0,0,0,9.79,10.7l-15.74,17.07A31.3,31.3,0,0,1,494.36,211.76Z"/><path d="M608.55,243.74l-15.74,17.07c-5.33,5.79-13.65,9.29-22.91,9.43a39.63,39.63,0,0,1-23.21-7.07l15.73-17.07a39.71,39.71,0,0,0,23.21,7.06C594.89,253,603.22,249.52,608.55,243.74Z"/><polygon class="i" points="520.4 207.38 504.66 224.45 505.43 223.31 521.16 206.24 520.4 207.38"/><path d="M494.58,180.52l15.73-17.07A25.88,25.88,0,0,0,504,184.78a33.19,33.19,0,0,0,13.29,22l-15.73,17.08a33.16,33.16,0,0,1-13.29-22A25.89,25.89,0,0,1,494.58,180.52Z"/><path class="i" d="M516.54,258.07l2.57-2.79L532.28,241a36.8,36.8,0,0,0,18,4.4,32.49,32.49,0,0,0,11.54-2.2l-15.73,17.08a32.77,32.77,0,0,1-11.55,2.2A37,37,0,0,1,516.54,258.07Z"/><path class="i" d="M501.47,238.27a19.75,19.75,0,0,1,3.19-13.82l15.74-17.07a19.68,19.68,0,0,0-3.19,13.82c1.12,8.21,7,15.43,15.07,19.79l-15.74,17.08C508.46,253.7,502.59,246.48,501.47,238.27Z"/><path d="M714.81,195.35C716,204,711.68,212,703.27,217.06c3.94,8.26,3.69,16.47-.75,21.67-2.92,3.42-7.28,5.27-12.52,5.34a25.21,25.21,0,0,1-3.32-.17,36.34,36.34,0,0,1-18.49-8.46,29.23,29.23,0,0,1-27.68,20c-11,.16-22-5.25-29.71-14.58-5,7.46-14.48,12.11-25.17,12.26a39.71,39.71,0,0,1-23.21-7.06,35.24,35.24,0,0,1-11.76,2.12c-17.94.26-34.21-11.84-36.27-27a22.28,22.28,0,0,1,2.86-14.48,33.19,33.19,0,0,1-13.29-22c-2.18-16,9.08-29.19,25.08-29.43a30.1,30.1,0,0,1,7.45.84,21.5,21.5,0,0,1,16.21-7.41,26.75,26.75,0,0,1,15.77,5.06,33.06,33.06,0,0,1,18.46-5.56,39.62,39.62,0,0,1,7.66.64c5.39-5.51,13.51-8.73,22.4-8.86a39.54,39.54,0,0,1,25.58,8.86,32.86,32.86,0,0,1,18.52-5.61c17.93-.26,34.21,11.84,36.27,27a24.52,24.52,0,0,1,.2,3.84C707.22,178.93,713.64,186.79,714.81,195.35Zm-14.18,19.8c8.18-4.5,12.42-11.89,11.35-19.76s-7.18-14.95-16.37-19.22l-1-.48.08-1.06a20.57,20.57,0,0,0-.12-4.3c-1.85-13.58-16.69-24.44-33.07-24.21a30.06,30.06,0,0,0-17.9,5.76l-.89.66-.94-.83a36.21,36.21,0,0,0-24.36-8.84c-8.46.13-16.13,3.26-21.06,8.59l-.48.51-.74-.14a36,36,0,0,0-7.78-.73,30.18,30.18,0,0,0-17.77,5.65l-.81.59-.91-.67a23.87,23.87,0,0,0-14.74-5.07,19.05,19.05,0,0,0-14.81,7.12l-.51.63-.85-.23a27.15,27.15,0,0,0-7.49-1c-14.46.21-24.62,12.13-22.65,26.57a30.17,30.17,0,0,0,13.11,20.64l1.27.86-.76,1.14a19.69,19.69,0,0,0-3.19,13.82c1.85,13.58,16.68,24.43,33.07,24.19a32.49,32.49,0,0,0,11.54-2.2l.73-.29.69.51a36.43,36.43,0,0,0,22,6.93c10.56-.15,19.77-5,24-12.7l1-1.8,1.38,1.85c7.1,9.53,17.73,15.13,28.46,15,12.36-.18,22.53-8.11,25.9-20.19l.57-2,1.7,1.58.89.79c5.35,4.64,11.56,7.58,17.49,8.28a22.8,22.8,0,0,0,2.93.16c4.48-.07,8.19-1.61,10.64-4.48,4-4.64,3.93-12.24-.07-19.84l-.63-1.19,1.08-.59"/><path d="M596.81,190.75l9.08,18.91-2.62,0-2.85-5.95-6.75.1-1.16,6-2.53,0,3.87-19.1Zm-2.89,11.17,5.73-.08L597,196.4c-.59-1.24-1-2.36-1.46-3.45h-.05c-.14,1.13-.28,2.29-.5,3.45l-1.11,5.52"/><path class="i" d="M712,195.39c1.07,7.87-3.17,15.26-11.35,19.76l-1.07.59.62,1.19c4,7.6,4,15.2.07,19.84-2.45,2.87-6.16,4.41-10.64,4.48a22.8,22.8,0,0,1-2.93-.16c-5.93-.7-12.14-3.64-17.49-8.28l-.89-.79-1.7-1.58-.57,2c-3.37,12.08-13.54,20-25.9,20.19-10.73.15-21.36-5.45-28.46-15l-1.38-1.85-1,1.8c-4.27,7.68-13.48,12.55-24,12.7a36.43,36.43,0,0,1-22-6.93l-.69-.51-.73.29a32.49,32.49,0,0,1-11.54,2.2c-16.39.24-31.22-10.61-33.07-24.19a19.68,19.68,0,0,1,3.19-13.82l.76-1.14-1.27-.86a30.15,30.15,0,0,1-13.11-20.64c-2-14.44,8.19-26.36,22.65-26.57a27.15,27.15,0,0,1,7.49,1l.85.23.51-.63a19.05,19.05,0,0,1,14.81-7.12,23.89,23.89,0,0,1,14.74,5.07l.91.67.81-.59a30.18,30.18,0,0,1,17.77-5.65,36,36,0,0,1,7.78.73l.74.14.48-.51c4.93-5.33,12.6-8.46,21.06-8.59a36.21,36.21,0,0,1,24.36,8.84l.94.83.89-.66a30.06,30.06,0,0,1,17.9-5.76c16.38-.23,31.22,10.63,33.07,24.21a20.57,20.57,0,0,1,.12,4.3l-.08,1.06,1,.48C704.8,180.44,710.92,187.62,712,195.39ZM603.27,209.7l2.62,0-9.08-18.91-3,0L590,209.89l2.54,0,1.15-6,6.75-.1,2.85,5.95m14.36-9.76a5.12,5.12,0,0,0,.91-4.08,5.86,5.86,0,0,0-2.21-4,8.63,8.63,0,0,0-5.54-1.5,27.33,27.33,0,0,0-4.67.43l2.56,18.78,2.46,0-1-7.62a9,9,0,0,0,2,.14c2.4,0,4.42-.77,5.53-2.17m8.52,9.43-2.59-19-2.46,0,2.59,19,2.46,0"/><path d="M616.33,191.91a8.63,8.63,0,0,0-5.54-1.5,27.33,27.33,0,0,0-4.67.43l2.56,18.78,2.46,0-1-7.62a9,9,0,0,0,2,.14c2.4,0,4.42-.77,5.53-2.17a5.12,5.12,0,0,0,.91-4.08A5.86,5.86,0,0,0,616.33,191.91Zm-4.44,8.22a8.27,8.27,0,0,1-2.06-.16l-1-7.38a9.66,9.66,0,0,1,2.29-.23c2.7,0,4.65,1.14,5,3.64s-1.25,4.09-4.21,4.13"/><path class="i" d="M611.11,192.36c2.7,0,4.65,1.14,5,3.64s-1.25,4.09-4.21,4.13a8.27,8.27,0,0,1-2.06-.16l-1-7.39A10.4,10.4,0,0,1,611.11,192.36Z"/><path class="i" d="M595.58,193c.44,1.09.87,2.21,1.46,3.45l2.61,5.44-5.73.08L595,196.4c.22-1.16.36-2.32.5-3.45Z"/><path d="M562.42,246.1l-15.73,17.07a35.33,35.33,0,0,1-11.76,2.12c-17.95.26-34.21-11.84-36.27-27a22.19,22.19,0,0,1,2.86-14.47l15.73-17.08a22.28,22.28,0,0,0-2.86,14.48c2.06,15.14,18.33,27.24,36.27,27A35.24,35.24,0,0,0,562.42,246.1Z"/></g><line class="j" x1="374" y1="214.5" x2="505" y2="214.5"/><line class="j" x1="456.5" y1="220.5" x2="462.5" y2="214.5"/><line class="j" x1="456.5" y1="208.5" x2="462.5" y2="214.5"/><line class="j" x1="596.5" y1="251" x2="596.5" y2="533"/><line class="j" x1="590.5" y1="428.6" x2="596.5" y2="441.51"/><line class="j" x1="602.5" y1="428.6" x2="596.5" y2="441.51"/><text class="k" transform="translate(553.84 677.85)"><tspan class="l">S</tspan><tspan x="14.97" y="0">e</tspan><tspan class="m" x="30" y="0">r</tspan><tspan class="n" x="40.56" y="0">v</tspan><tspan x="54.69" y="0">er</tspan></text><g class="h"><polygon points="646.08 558.13 624.26 560.33 624.2 536.07 646.02 533.87 646.08 558.13"/><path class="i" d="M616.72,544.81c0-3.16-2.34-5.78-5.18-5.84l21.82-2.2c2.84.06,5.17,2.68,5.18,5.84Z"/><path class="i" d="M612.13,550.42a5.41,5.41,0,0,0,4.59-5.61l21.82-2.2a5.4,5.4,0,0,1-4.59,5.61Z"/><path d="M633.75,546.23l-21.82,2.2a3.51,3.51,0,0,0,3-3.65,3.66,3.66,0,0,0-3.37-3.81,2.29,2.29,0,0,0-.37,0l21.82-2.2a2.32,2.32,0,0,1,.37,0,3.67,3.67,0,0,1,3.37,3.81A3.51,3.51,0,0,1,633.75,546.23Z"/><path class="i" d="M608.18,544.64a3.53,3.53,0,0,1,3-3.66l21.82-2.2a3.54,3.54,0,0,0-3,3.66l-21.82,2.2,21.82-2.2a3.68,3.68,0,0,0,3.38,3.81l-21.82,2.2,21.82-2.2.37,0-21.82,2.2-.37,0A3.69,3.69,0,0,1,608.18,544.64Z"/><path d="M634,548.22l-21.82,2.2a3.58,3.58,0,0,1-.57,0c-2.85-.06-5.17-2.68-5.18-5.84A5.42,5.42,0,0,1,611,539l21.82-2.2a5.4,5.4,0,0,0-4.58,5.61,5.63,5.63,0,0,0,5.18,5.84A3.46,3.46,0,0,0,634,548.22Z"/><path class="i" d="M611.54,539a5.43,5.43,0,0,0-.57,0l21.82-2.2a5.43,5.43,0,0,1,.57,0l-10.91,1.1-8.36.84C613.32,538.79,612.31,538.94,611.54,539Z"/><polygon points="646.02 533.87 624.2 536.07 538.73 534.29 560.56 532.09 646.02 533.87"/><polygon class="i" points="646.08 558.13 624.26 560.33 538.79 558.55 560.61 556.35 646.08 558.13"/><polygon class="i" points="560.61 556.35 538.79 558.55 538.73 534.29 560.56 532.09 560.61 556.35"/><path d="M558.75,530.05l89.07,1.85.06,28.28-89.07-1.86v-1.57Zm87.33,28.08L646,533.87l-85.47-1.78.05,24.26,85.47,1.78"/><path class="i" d="M633.36,538.77a3.67,3.67,0,0,1,3.37,3.81,3.47,3.47,0,0,1-3.35,3.67,3.68,3.68,0,0,1-3.38-3.81A3.48,3.48,0,0,1,633.36,538.77Z"/><path class="i" d="M560.56,532.09,646,533.87l.05,24.26-85.47-1.78Zm72.83,16.15a5.33,5.33,0,0,0,5.15-5.63c0-3.16-2.34-5.78-5.18-5.84s-5.16,2.46-5.15,5.63a5.63,5.63,0,0,0,5.18,5.84"/><path d="M633.36,536.77c2.84.06,5.17,2.68,5.18,5.84a5.33,5.33,0,0,1-5.15,5.63,5.63,5.63,0,0,1-5.18-5.84C628.2,539.23,630.51,536.71,633.36,536.77Zm0,9.48a3.47,3.47,0,0,0,3.35-3.67,3.67,3.67,0,0,0-3.37-3.81,3.48,3.48,0,0,0-3.36,3.67,3.69,3.69,0,0,0,3.38,3.81"/><polygon points="558.81 556.75 536.99 558.95 536.92 532.25 558.75 530.05 558.81 556.75"/><polygon points="558.81 558.32 536.99 560.52 536.99 558.95 558.81 556.75 558.81 558.32"/><polygon points="647.88 560.18 626.06 562.38 536.99 560.52 558.81 558.32 647.88 560.18"/></g><g class="h"><polygon points="646.14 584.83 624.32 587.03 624.26 562.76 646.09 560.56 646.14 584.83"/><path class="i" d="M616.78,571.51c0-3.16-2.34-5.78-5.18-5.84l21.82-2.2c2.84.06,5.17,2.68,5.18,5.84Z"/><path class="i" d="M612.19,577.12a5.4,5.4,0,0,0,4.59-5.61l21.82-2.2a5.4,5.4,0,0,1-4.59,5.61Z"/><path d="M633.81,572.93,612,575.13a3.51,3.51,0,0,0,3-3.65,3.66,3.66,0,0,0-3.37-3.81,2.32,2.32,0,0,0-.37,0l21.83-2.2a2.26,2.26,0,0,1,.37,0,3.67,3.67,0,0,1,3.37,3.81A3.53,3.53,0,0,1,633.81,572.93Z"/><path class="i" d="M608.24,571.34a3.53,3.53,0,0,1,3-3.66l21.83-2.2a3.52,3.52,0,0,0-3,3.66l-21.82,2.2,21.82-2.2a3.67,3.67,0,0,0,3.37,3.81l-21.82,2.19L633.44,573l.37,0L612,575.13l-.37,0A3.69,3.69,0,0,1,608.24,571.34Z"/><path d="M634,574.92l-21.82,2.2a5.15,5.15,0,0,1-.56,0,5.63,5.63,0,0,1-5.18-5.84,5.4,5.4,0,0,1,4.58-5.61l21.83-2.2a5.4,5.4,0,0,0-4.59,5.61c0,3.16,2.33,5.78,5.18,5.84A3.46,3.46,0,0,0,634,574.92Z"/><path class="i" d="M611.6,565.67a5.43,5.43,0,0,0-.57,0l21.83-2.2a5.15,5.15,0,0,1,.56,0l-10.91,1.1-4.27.43-2.76.28-2.63.26C612.48,565.58,612,565.65,611.6,565.67Z"/><path class="i" d="M633.43,565.47a3.67,3.67,0,0,1,3.37,3.81,3.49,3.49,0,0,1-3.36,3.67,3.67,3.67,0,0,1-3.37-3.81A3.46,3.46,0,0,1,633.43,565.47Z"/><path d="M633.42,563.47c2.84.06,5.17,2.68,5.18,5.84a5.33,5.33,0,0,1-5.15,5.63c-2.85-.06-5.17-2.68-5.18-5.84S630.57,563.41,633.42,563.47Zm0,9.48a3.49,3.49,0,0,0,3.36-3.67,3.67,3.67,0,0,0-3.37-3.81,3.46,3.46,0,0,0-3.36,3.67,3.67,3.67,0,0,0,3.37,3.81"/><polygon points="646.09 560.56 624.26 562.76 538.8 560.98 560.62 558.78 646.09 560.56"/><path class="i" d="M560.62,558.78l85.47,1.78,0,24.27-85.47-1.78Zm72.83,16.16a5.33,5.33,0,0,0,5.15-5.63c0-3.16-2.34-5.78-5.18-5.84s-5.16,2.46-5.15,5.63,2.33,5.78,5.18,5.84"/><polygon class="i" points="646.14 584.83 624.32 587.03 538.85 585.25 560.67 583.05 646.14 584.83"/><polygon class="i" points="560.67 583.05 538.85 585.25 538.8 560.98 560.62 558.78 560.67 583.05"/><polygon points="558.87 583.45 537.05 585.64 536.99 560.52 558.81 558.32 558.87 583.45"/><polygon points="558.87 585.01 537.05 587.21 537.05 585.64 558.87 583.45 558.87 585.01"/><polygon points="647.95 586.87 626.12 589.07 537.05 587.21 558.87 585.01 647.95 586.87"/><path d="M558.81,558.32l89.07,1.86.07,26.69L558.87,585v-1.56Zm87.33,26.51,0-24.27-85.47-1.78,0,24.27,85.47,1.78"/></g><g class="h"><polygon points="646.21 611.53 624.38 613.73 624.33 589.46 646.15 587.26 646.21 611.53"/><path class="i" d="M616.84,598.21c0-3.16-2.34-5.78-5.18-5.84l21.82-2.2a5.63,5.63,0,0,1,5.18,5.84Z"/><path class="i" d="M612.25,603.82a5.41,5.41,0,0,0,4.59-5.61l21.82-2.2a5.4,5.4,0,0,1-4.58,5.61Z"/><path d="M633.87,599.63l-21.82,2.2a3.53,3.53,0,0,0,3-3.66,3.67,3.67,0,0,0-3.37-3.8,2.26,2.26,0,0,0-.37,0l21.82-2.2a2.26,2.26,0,0,1,.37,0,3.67,3.67,0,0,1,3.37,3.81A3.52,3.52,0,0,1,633.87,599.63Z"/><path class="i" d="M608.31,598a3.51,3.51,0,0,1,3-3.65l21.82-2.2a3.51,3.51,0,0,0-3,3.66L608.31,598l21.82-2.19a3.67,3.67,0,0,0,3.38,3.81l-21.82,2.19,21.82-2.19.36,0-21.82,2.2a2.26,2.26,0,0,1-.37,0A3.66,3.66,0,0,1,608.31,598Z"/><path d="M634.08,601.62l-21.83,2.2a5.15,5.15,0,0,1-.56,0c-2.85-.06-5.17-2.68-5.18-5.84a5.4,5.4,0,0,1,4.58-5.61l21.83-2.2a5.4,5.4,0,0,0-4.59,5.61c0,3.16,2.33,5.78,5.18,5.84A5.43,5.43,0,0,0,634.08,601.62Z"/><path class="i" d="M611.66,592.37a5.43,5.43,0,0,0-.57,0l21.83-2.2a5.15,5.15,0,0,1,.56,0l-10.91,1.1-5.66.57-2.7.27C613.45,592.19,612.43,592.34,611.66,592.37Z"/><path class="i" d="M633.49,592.17a3.67,3.67,0,0,1,3.37,3.81,3.49,3.49,0,0,1-3.35,3.67,3.67,3.67,0,0,1-3.38-3.81A3.47,3.47,0,0,1,633.49,592.17Z"/><polygon points="646.15 587.26 624.33 589.46 538.86 587.68 560.68 585.48 646.15 587.26"/><path class="i" d="M560.68,585.48l85.47,1.78.06,24.27-85.47-1.78Zm72.83,16.16a5.33,5.33,0,0,0,5.15-5.63,5.63,5.63,0,0,0-5.18-5.84c-2.85-.06-5.16,2.46-5.15,5.63s2.33,5.78,5.18,5.84"/><polygon class="i" points="646.21 611.53 624.38 613.73 538.91 611.95 560.74 609.75 646.21 611.53"/><polygon class="i" points="560.74 609.75 538.91 611.95 538.86 587.68 560.68 585.48 560.74 609.75"/><path d="M558.87,585,648,586.87l.06,26.7-89.07-1.86v-1.56Zm87.34,26.52-.06-24.27-85.47-1.78.06,24.27,85.47,1.78"/><path d="M633.51,601.64a5.33,5.33,0,0,0,5.15-5.63,5.63,5.63,0,0,0-5.18-5.84c-2.85-.06-5.16,2.46-5.15,5.63S630.66,601.58,633.51,601.64Zm0-9.47a3.67,3.67,0,0,1,3.37,3.81,3.49,3.49,0,0,1-3.35,3.67,3.67,3.67,0,0,1-3.38-3.81,3.47,3.47,0,0,1,3.36-3.67"/><polygon points="558.93 610.14 537.11 612.35 537.05 587.21 558.87 585.01 558.93 610.14"/><polygon points="558.94 611.71 537.11 613.91 537.11 612.35 558.93 610.14 558.94 611.71"/><polygon points="648.01 613.57 626.19 615.76 537.11 613.91 558.94 611.71 648.01 613.57"/></g><g class="h"><polygon points="646.27 638.23 624.45 640.43 624.39 616.16 646.21 613.96 646.27 638.23"/><path class="i" d="M616.9,624.91a5.63,5.63,0,0,0-5.18-5.84l21.83-2.2c2.84.06,5.17,2.68,5.18,5.84Z"/><path class="i" d="M612.32,630.52a5.41,5.41,0,0,0,4.58-5.61l21.83-2.2a5.42,5.42,0,0,1-4.59,5.61Z"/><path d="M633.94,626.33l-21.83,2.2a3.53,3.53,0,0,0,3-3.66,3.69,3.69,0,0,0-3.37-3.81l-.37,0,21.82-2.2a2.29,2.29,0,0,1,.37,0,3.66,3.66,0,0,1,3.37,3.8A3.52,3.52,0,0,1,633.94,626.33Z"/><path class="i" d="M608.37,624.73a3.51,3.51,0,0,1,3-3.65l21.82-2.2a3.52,3.52,0,0,0-3,3.65,3.67,3.67,0,0,0,3.38,3.81l-21.82,2.2,21.82-2.2a2.29,2.29,0,0,0,.37,0l-21.83,2.2a2.17,2.17,0,0,1-.36,0A3.66,3.66,0,0,1,608.37,624.73Z"/><path d="M634.14,628.32l-21.82,2.2a5.43,5.43,0,0,1-.57,0c-2.85-.06-5.17-2.68-5.18-5.84a5.4,5.4,0,0,1,4.59-5.61l21.82-2.2a5.42,5.42,0,0,0-4.59,5.61c0,3.16,2.33,5.78,5.18,5.84A5.43,5.43,0,0,0,634.14,628.32Z"/><path class="i" d="M611.72,619.07a3.46,3.46,0,0,0-.56,0l21.82-2.2a5.43,5.43,0,0,1,.57,0L622.64,618l-2.86.29-1.41.14-2.76.28-2.63.26C612.6,619,612.1,619.05,611.72,619.07Z"/><polygon points="646.21 613.96 624.39 616.16 538.92 614.38 560.74 612.18 646.21 613.96"/><polygon class="i" points="646.27 638.23 624.45 640.43 538.98 638.65 560.8 636.45 646.27 638.23"/><polygon class="i" points="560.8 636.45 538.98 638.65 538.92 614.38 560.74 612.18 560.8 636.45"/><path d="M558.94,611.71,648,613.57l.06,26.7L559,638.41Zm87.33,26.52L646.21,614l-85.47-1.78.06,24.27,85.47,1.78"/><path class="i" d="M560.74,612.18,646.21,614l.06,24.27-85.47-1.78Zm72.83,16.16c2.85.06,5.16-2.46,5.16-5.63s-2.34-5.78-5.18-5.84-5.16,2.46-5.16,5.63,2.33,5.78,5.18,5.84"/><path class="i" d="M633.55,618.87a3.66,3.66,0,0,1,3.37,3.8,3.47,3.47,0,0,1-3.35,3.67,3.67,3.67,0,0,1-3.38-3.81A3.47,3.47,0,0,1,633.55,618.87Z"/><path d="M633.55,616.87c2.84.06,5.17,2.68,5.18,5.84s-2.31,5.69-5.16,5.63-5.17-2.68-5.18-5.84S630.7,616.81,633.55,616.87Zm0,9.47a3.47,3.47,0,0,0,3.35-3.67,3.66,3.66,0,0,0-3.37-3.8,3.47,3.47,0,0,0-3.36,3.66,3.67,3.67,0,0,0,3.38,3.81"/><polygon points="559 638.41 537.18 640.61 537.11 613.91 558.94 611.71 559 638.41"/><polygon points="648.07 640.27 626.25 642.47 537.18 640.61 559 638.41 648.07 640.27"/></g><text class="o" transform="translate(696.88 492.96) rotate(-44.84)">d<tspan class="p" x="6.21" y="0">r</tspan><tspan class="q" x="9.75" y="0">a</tspan><tspan class="r" x="14.97" y="0">w eleme</tspan><tspan class="s" x="53.71" y="0">n</tspan><tspan class="r" x="59.78" y="0">ts on ca</tspan><tspan class="t" x="94.83" y="0">n</tspan><tspan class="s" x="100.79" y="0">v</tspan><tspan x="106.04" y="0">as</tspan></text><text class="o" transform="matrix(0.71, -0.7, 0.7, 0.71, 711.11, 512.76)">pl<tspan class="q" x="8.86" y="0">a</tspan><tspan class="u" x="14.07" y="0">y</tspan><tspan class="v" x="19.15" y="0">er st</tspan><tspan class="w" x="38.59" y="0">a</tspan><tspan class="x" x="43.85" y="0">t</tspan><tspan x="47.43" y="0">e chang</tspan><tspan class="y" x="83.88" y="0">e</tspan><tspan x="89.26" y="0">, </tspan><tspan class="x" x="93.87" y="0">c</tspan><tspan x="98.73" y="0">oins gene</tspan><tspan class="z" x="143.43" y="0">r</tspan><tspan class="w" x="146.98" y="0">a</tspan><tspan class="x" x="152.24" y="0">t</tspan><tspan class="v" x="155.81" y="0">ed</tspan></text><g class="h"><path d="M896,345.59l1.64.27a134.86,134.86,0,0,0-19.14-1.68c-2.44,0-4.77,0-7,.07l.84,0,.83,0q2.87-.12,6.08-.06A117.32,117.32,0,0,1,896,345.59Z"/><path d="M896,343.62l1.63.27a135.55,135.55,0,0,0-19.06-1.66c-2.41,0-4.71,0-6.88.06l1.67-.06c1.88-.07,3.89-.09,6-.06A120.87,120.87,0,0,1,896,343.62Z"/><path d="M894.31,337.48l1.31.18A137.39,137.39,0,0,0,879,336.37c-1.56,0-3.06,0-4.51,0l1.33,0c1.27,0,2.59,0,4,0A120.45,120.45,0,0,1,894.31,337.48Z"/><path d="M896.8,341.76l1.72.3a134.08,134.08,0,0,0-19.81-1.79c-2.69,0-5.24,0-7.61.1.29,0,.58,0,.87,0l.87,0c2.07-.1,4.3-.13,6.65-.08A118.33,118.33,0,0,1,896.8,341.76Z"/><path d="M896.21,339.7l1.63.27a134.87,134.87,0,0,0-19-1.65c-2.4-.05-4.68,0-6.83.06.28,0,.56,0,.83,0l.83,0q2.82-.1,6-.06A118.78,118.78,0,0,1,896.21,339.7Z"/><path class="i" d="M870.74,357.6a68,68,0,0,1-8.56-1.63c-1.1-.24-2.55-.68-3.65-1a29.88,29.88,0,0,1-5.71-2.18c-1.05-.55-2.73-1.28-3.13-2.4-.13-.35-.53-.83-.42-1.19a4.64,4.64,0,0,1,1.47-2.14c.62-.45,2.57-1.57,7.22-2.47,2.27-.44,5.33-.76,7.63-1,1.35-.14,3.16-.19,4.51-.27l1.47-.06c-13,.51-20.93,3.19-18.22,6.58,3.16,4,19.6,7.43,36.64,7.73s28.35-2.69,25.19-6.65c-1.91-2.4-8.68-4.61-17.5-6.05,3.25.53,5.77,1,5.79,1,1.2.24,2.79.58,4,.91,2,.54,4.55,1.38,6.47,2.08a19.11,19.11,0,0,1,2.37,1.14c.94.53,2.5,1.35,2.67,2.42.06.35.33.85.17,1.16a6.07,6.07,0,0,1-1.93,2.1c-.72.43-2.93,1.53-7.8,2.36-2.36.4-5.55.69-7.93.9-1.39.13-3.26.16-4.65.22,0,0-3.14-.49-6.31-1.16a2.45,2.45,0,0,0-.37-.08h-.75c-.94,0-3.45-.08-6.59-.3-2.5-.16-4.53-.37-4.76-.39a5.35,5.35,0,0,0-1.06,0C873.85,357.5,870.75,357.6,870.74,357.6Z"/><path d="M898.12,356.48l-1.81.09c10.79-.53,17.24-2.82,14.94-5.7-2.75-3.45-17.13-6.48-32-6.74s-24.75,2.34-22,5.8c1.6,2,7.08,3.86,14.31,5.12h-.09l-.8-.14-.54-.1-.27,0-.09,0c-8.27-1.44-14.55-3.57-16.37-5.86-3.16-4,8.13-6.95,25.17-6.65S912.07,346,915.23,350C917.86,353.25,910.48,355.87,898.12,356.48Z"/><path class="i" d="M870.1,343.34c-2.58.15-6,.29-8.58.7-1.06.17-2.5.32-3.56.57a35.13,35.13,0,0,0-5.44,1.53,11.32,11.32,0,0,0-2.88,2c-.26.24-.27.78-.37,1.11-.24.84.94,1.87,1.63,2.41,1,.78,3.11,2,7.63,3.36,1.09.33,2.55.74,3.65,1,2.56.54,6,1.19,8.56,1.63l-1.27,0c-10.12-1.62-17.91-4.14-20.1-6.88-3-3.83,5.84-6.84,20.53-7.41Z"/><path class="i" d="M896.81,359.21c2.66-.12,6.22-.23,8.86-.6,1.11-.15,2.62-.29,3.72-.52a44.09,44.09,0,0,0,5.81-1.46,14.72,14.72,0,0,0,3.31-1.9c.3-.23.43-.76.61-1.1.36-.7-.56-1.84-1.13-2.38-.84-.79-2.74-2-7-3.42-1-.34-2.44-.76-3.5-1-2.49-.57-5.82-1.25-8.32-1.71l.2,0c9.94,1.62,17.56,4.11,19.71,6.82,3.08,3.86-6,6.89-21,7.42Z"/><path class="i" d="M871,355.66a68.42,68.42,0,0,1-8.59-1.63c-1.11-.24-2.57-.68-3.67-1a30.84,30.84,0,0,1-5.74-2.18c-1.05-.55-2.74-1.29-3.15-2.41-.13-.35-.53-.83-.42-1.19a4.67,4.67,0,0,1,1.47-2.15c.63-.45,2.59-1.58,7.26-2.47,2.28-.44,5.36-.76,7.66-1,1.36-.14,3.17-.19,4.53-.27l1.46-.05c-13.08.5-21,3.18-18.3,6.58,3.16,4,19.6,7.43,36.64,7.73S918.46,353,915.3,349c-1.92-2.41-8.72-4.63-17.59-6.07,3.2.52,5.78,1,5.81,1,1.2.24,2.8.58,4,.91,2,.55,4.57,1.38,6.5,2.08a20.85,20.85,0,0,1,2.38,1.15c1,.53,2.52,1.35,2.69,2.42.06.35.33.86.17,1.17a6.17,6.17,0,0,1-1.93,2.1c-.73.43-3,1.53-7.84,2.36-2.38.4-5.58.69-8,.9-1.4.13-3.27.16-4.67.22,0,0-3.08-.49-6.21-1.15-.11,0-.25-.06-.36-.07s-.53,0-.75,0c-.94,0-3.45-.08-6.61-.29-2.49-.16-4.53-.37-4.76-.4a6.23,6.23,0,0,0-1.06,0C874,355.56,871,355.66,871,355.66Z"/><path class="i" d="M890.13,358a2.45,2.45,0,0,1,.37.08c1.9.4,4,.79,6.31,1.16-2.54.05-6.79.14-13.32-.26-6.07-.38-10.58-1-12.75-1.35,2.26-.08,4.36-.21,6.23-.37.1,0,.25,0,.36,0s.49.05.7.08,2.68.27,5.6.45,5.13.22,5.75.24A6.26,6.26,0,0,1,890.13,358Z"/><path class="i" d="M868.17,355.45a143.29,143.29,0,0,0,15.39,1.78,140.92,140.92,0,0,0,16.1.16l-1.6.08c-2.5.13-5.2.17-8.07.12a135.09,135.09,0,0,1-20.26-1.86Z"/><path d="M900.24,343.58l1.78.31c10.11,1.77,17.79,4.37,20,7.17,3.86,4.85-9.94,8.49-30.78,8.13s-40.93-4.6-44.8-9.45c-3.21-4,5.8-7.23,20.92-8h0l1.81-.09c-13.55.68-21.63,3.54-18.75,7.15,3.46,4.35,21.48,8.14,40.15,8.47s31-2.94,27.59-7.28C916.19,347.49,909.3,345.16,900.24,343.58Z"/><path d="M898.41,354.52l-1.84.09c10.71-.55,17.09-2.83,14.8-5.69-2.75-3.46-17.13-6.49-32-6.75s-24.75,2.35-22,5.81c1.59,2,7,3.83,14.16,5.09h0l-1.81-.32c-8.19-1.44-14.39-3.55-16.21-5.83-3.16-4,8.14-6.95,25.18-6.65S912.2,344,915.36,348C918,351.28,910.67,353.89,898.41,354.52Z"/><path class="i" d="M870.31,341.38c-2.58.15-6,.29-8.61.69-1.07.17-2.52.33-3.58.58a35.06,35.06,0,0,0-5.46,1.53,11.26,11.26,0,0,0-2.9,2c-.26.25-.27.78-.37,1.12-.25.84,1,1.87,1.64,2.42,1,.78,3.13,2,7.67,3.36,1.09.33,2.56.74,3.67,1,2.57.54,6,1.19,8.59,1.63l-1.28,0c-10.17-1.63-18-4.16-20.19-6.9-3-3.84,5.88-6.85,20.62-7.42Z"/><path class="i" d="M896.83,357.26c2.67-.12,6.25-.22,8.9-.59,1.12-.16,2.63-.3,3.74-.53a43.22,43.22,0,0,0,5.83-1.46,14.31,14.31,0,0,0,3.33-1.91c.3-.22.43-.76.61-1.09.36-.71-.56-1.85-1.14-2.39-.84-.79-2.75-2-7.09-3.43-1-.34-2.44-.75-3.51-1-2.5-.57-5.84-1.25-8.35-1.71l.2,0c10,1.62,17.64,4.12,19.81,6.83,3.08,3.88-6.06,6.91-21.06,7.44Z"/><path class="i" d="M870.17,353.56a65,65,0,0,1-8.27-1.63c-1.07-.24-2.46-.68-3.51-1a28.84,28.84,0,0,1-5.49-2.15c-1-.54-2.62-1.27-3-2.35-.12-.35-.5-.81-.39-1.16a4.66,4.66,0,0,1,1.42-2.11c.6-.43,2.48-1.54,7-2.44,2.18-.43,5.14-.76,7.35-1,1.31-.14,3.06-.2,4.36-.28l1.53-.07c-12.66.57-20.25,3.22-17.59,6.56,3.16,4,19.62,7.44,36.69,7.73S918.62,351,915.46,347c-1.87-2.34-8.36-4.51-16.87-5.95,6.13,1,8.85,1.76,9.54,1.95,1.89.54,4.38,1.37,6.23,2.06a16.6,16.6,0,0,1,2.28,1.12c.91.51,2.4,1.33,2.56,2.37.06.34.32.83.16,1.14a5.88,5.88,0,0,1-1.85,2c-.7.43-2.82,1.5-7.51,2.34a90.31,90.31,0,0,1-12.14,1.16s-3.51-.53-7.14-1.31a2.71,2.71,0,0,0-.41-.09h-.74c-.72,0-3.32-.07-6.52-.29-2.46-.16-4.48-.37-4.7-.39a5.79,5.79,0,0,0-1.1,0C873.68,353.47,870.18,353.56,870.17,353.56Z"/><path class="i" d="M890.26,356c.11,0,.25,0,.36.07,1.87.4,4,.78,6.21,1.15-2.52.05-6.74.13-13.22-.26-6-.38-10.5-1-12.65-1.34,2.22-.08,4.28-.21,6.12-.37l.36,0c.21,0,.49.05.7.07s2.73.28,5.61.46,5.13.22,5.76.23C889.73,356,890,356,890.26,356Z"/><path class="i" d="M868.1,353.47a146.28,146.28,0,0,0,15.58,1.81,143.28,143.28,0,0,0,16.28.15l-1.61.08c-2.54.13-5.3.18-8.24.13a134.12,134.12,0,0,1-20.43-1.9Z"/><path d="M900.54,341.66l1.81.32c10,1.76,17.59,4.34,19.82,7.13,3.86,4.84-9.94,8.49-30.78,8.12s-40.93-4.59-44.8-9.44c-3.19-4,5.72-7.2,20.71-8l1.84-.1c-13.44.7-21.43,3.55-18.57,7.15,3.47,4.34,21.48,8.14,40.15,8.46s31-2.94,27.59-7.28C916.32,345.55,909.51,343.24,900.54,341.66Z"/><path d="M898.71,352.56l-1.84.09c10.62-.56,16.94-2.84,14.66-5.69-2.75-3.46-17.15-6.5-32-6.75s-24.78,2.34-22,5.81c1.57,2,6.93,3.81,14,5.07,0,0-.07,0-.09,0l-.82-.14-.91-.16c-8.1-1.44-14.23-3.54-16-5.81-3.16-4,8.13-6.94,25.18-6.64s33.49,3.76,36.65,7.72C918.09,349.31,910.87,351.91,898.71,352.56Z"/><path class="i" d="M900,355.43h.23c-2.87.14-6,.2-9.29.14a152.39,152.39,0,0,1-23-2.13l.23,0a146.28,146.28,0,0,0,15.58,1.81A144,144,0,0,0,900,355.43Z"/><path class="i" d="M869.61,339.46c-2.48.16-5.82.31-8.28.72-1,.17-2.42.33-3.43.57a35.07,35.07,0,0,0-5.25,1.52,10.69,10.69,0,0,0-2.78,1.94c-.25.24-.26.76-.36,1.09-.24.81.89,1.82,1.55,2.36.94.76,3,2,7.33,3.3,1,.33,2.44.73,3.51,1,2.47.54,5.78,1.19,8.27,1.63l-1.3,0c-9.71-1.63-17.14-4.09-19.27-6.75-3-3.76,5.55-6.74,19.79-7.38Z"/><path class="i" d="M897.86,355.27c2.57-.13,6-.25,8.55-.63,1.07-.16,2.52-.3,3.59-.53a41.34,41.34,0,0,0,5.59-1.45,14.19,14.19,0,0,0,3.19-1.87c.28-.23.41-.75.58-1.07.35-.69-.53-1.8-1.08-2.34-.8-.77-2.63-2-6.78-3.36a86.29,86.29,0,0,0-11.41-2.69l.22,0c9.57,1.63,16.87,4.06,19,6.7,3,3.79-5.69,6.78-20.14,7.4Z"/><path class="i" d="M871.27,351.76a66.82,66.82,0,0,1-8.62-1.64c-1.12-.23-2.57-.68-3.68-1a30.63,30.63,0,0,1-5.76-2.19c-1.05-.55-2.75-1.29-3.16-2.41-.13-.35-.53-.83-.42-1.19a4.72,4.72,0,0,1,1.48-2.16c.62-.44,2.59-1.57,7.28-2.47,2.28-.44,5.37-.76,7.68-1,1.36-.14,3.18-.18,4.54-.26l1.45-.06c-13.11.5-21.07,3.18-18.35,6.59,3.16,4,19.6,7.43,36.65,7.72s28.34-2.68,25.18-6.64c-1.92-2.41-8.75-4.64-17.64-6.08,3.15.51,5.79,1,5.81,1,1.21.24,2.81.58,4,.91,2,.55,4.59,1.38,6.52,2.08a18.76,18.76,0,0,1,2.39,1.15c1,.53,2.53,1.35,2.7,2.43.06.35.34.86.17,1.17a6.1,6.1,0,0,1-1.94,2.1c-.73.43-3,1.53-7.86,2.36-2.38.41-5.59.69-8,.9-1.39.13-3.27.16-4.67.22,0,0-3-.48-6.15-1.14-.11,0-.25-.06-.36-.07h-.75c-.94,0-3.45-.09-6.61-.3-2.5-.16-4.54-.37-4.76-.4a6.27,6.27,0,0,0-1.06,0C874.27,351.66,871.28,351.76,871.27,351.76Z"/><path class="i" d="M890.31,353.87l.41.09c2.15.46,4.55.9,7.14,1.31-2.68.07-7.18.19-14.16-.24-6.47-.4-11.24-1.12-13.53-1.47,2.58-.08,5-.23,7.08-.42.12,0,.28,0,.4,0s.49.06.7.08,2.7.27,5.53.44,5.07.23,5.69.24C889.79,353.86,890.09,353.85,890.31,353.87Z"/><path class="i" d="M868,351.48a143.9,143.9,0,0,0,15.77,1.84,141.36,141.36,0,0,0,16.49.14l-1.61.09c-2.6.14-5.42.19-8.43.13a134,134,0,0,1-20.64-1.92Z"/><path d="M900.86,339.74l1.82.32c9.88,1.76,17.36,4.33,19.57,7.09,3.86,4.84-9.93,8.48-30.75,8.12s-40.89-4.6-44.75-9.44c-3.18-4,5.62-7.16,20.47-7.95l1.84-.1c-13.31.71-21.21,3.56-18.36,7.13,3.46,4.34,21.47,8.14,40.14,8.47s31-2.94,27.58-7.29C916.45,343.62,909.73,341.32,900.86,339.74Z"/><path d="M900.18,350.48l-2,.14c9.88-.67,15.62-2.87,13.43-5.61-2.75-3.46-17.13-6.49-32-6.75s-24.75,2.35-22,5.81c1.48,1.85,6.32,3.59,12.79,4.84l-2-.38c-7.39-1.43-12.91-3.41-14.6-5.53-3.16-4,8.11-6.93,25.12-6.63s33.4,3.75,36.55,7.7C918,347.2,911.46,349.72,900.18,350.48Z"/><path class="i" d="M870.61,337.47c-2.59.15-6.07.28-8.63.69-1.08.17-2.53.32-3.59.57a35.42,35.42,0,0,0-5.49,1.53,11.39,11.39,0,0,0-2.9,2c-.26.24-.27.78-.37,1.12-.25.84,1,1.87,1.64,2.42,1,.78,3.15,2,7.7,3.37,1.1.33,2.56.74,3.68,1,2.57.55,6,1.2,8.62,1.64l-1.3,0c-10.2-1.62-18.05-4.15-20.25-6.9-3.06-3.84,5.91-6.86,20.69-7.43Z"/><path class="i" d="M897,353.35c2.67-.12,6.26-.22,8.91-.59,1.13-.16,2.64-.3,3.76-.53a43.09,43.09,0,0,0,5.85-1.45,15,15,0,0,0,3.34-1.92c.3-.22.43-.76.61-1.09.36-.71-.56-1.85-1.14-2.4-.85-.79-2.76-2-7.11-3.43a90.25,90.25,0,0,0-11.9-2.71l.2,0c10,1.63,17.71,4.14,19.88,6.85,3.08,3.88-6.09,6.92-21.11,7.44Z"/><path class="i" d="M873.9,350.17a39.74,39.74,0,0,1-5-.75c-2.61-.5-6.08-1.25-8.67-1.88a49.58,49.58,0,0,1-6.46-2.29,9.17,9.17,0,0,1-3.57-2.56,2.58,2.58,0,0,1-.06-2.47,7.43,7.43,0,0,1,3.29-2.08,43.2,43.2,0,0,1,6.17-1.56,79.61,79.61,0,0,1,8.6-.94c1.51-.12,3.54-.13,5.06-.19l1.2,0c-14.47.25-23.54,3.05-20.66,6.65,3.16,4,19.6,7.43,36.64,7.72s28.35-2.68,25.19-6.64c-2.09-2.62-9.95-5-19.95-6.43,5.94.84,8.78,1.48,10.49,1.87a43.25,43.25,0,0,1,7.34,2.16,36.74,36.74,0,0,1,4.69,2.47,7.61,7.61,0,0,1,1.15,1.31c.48.56.06,1.87-.43,2.42a8.48,8.48,0,0,1-3.71,2c-1.94.53-4.56,1.11-6.54,1.48a41.83,41.83,0,0,1-4.18.51c-3,.21-6.94.54-9.91.47,0,0-1.74-.3-3.59-.67l-.21,0c-.23,0-.55,0-.78,0-.39,0-2.48-.05-5.09-.2-3.29-.18-5.94-.44-6.68-.51-.22,0-.51-.07-.73-.08l-.2,0C875.57,350.08,873.9,350.17,873.9,350.17Z"/><path class="i" d="M890.5,352.14c.11,0,.25.05.36.07,1.85.39,3.92.77,6.15,1.14-2.51,0-6.71.13-13.16-.27-6-.37-10.44-1-12.58-1.32,2.2-.09,4.23-.21,6.05-.37l.35,0c.21,0,.5.05.71.07s2.73.28,5.61.46,5.14.22,5.76.24A6.23,6.23,0,0,1,890.5,352.14Z"/><path class="i" d="M866.59,349.2c2.24.41,4.56.84,8.24,1.29s7,.72,9,.85a140.5,140.5,0,0,0,18.07,0l-.49,0h-.4l-.9.06c-3,.21-6.26.29-9.8.22a131,131,0,0,1-22-2.18Z"/><path d="M902.55,338l2,.38c9,1.74,15.82,4.17,17.9,6.78,3.86,4.84-9.94,8.48-30.78,8.12s-40.93-4.6-44.8-9.44c-3.06-3.84,5-6.92,18.79-7.86l2-.13c-12.42.84-19.64,3.61-16.89,7.05,3.47,4.35,21.52,8.16,40.24,8.49s31.11-2.95,27.64-7.3C916.76,341.79,910.68,339.61,902.55,338Z"/><path d="M898.48,348.71l-1.8.08c10.86-.52,17.36-2.82,15.05-5.7-2.75-3.46-17.13-6.49-32-6.75s-24.75,2.35-22,5.8c1.6,2,7.14,3.88,14.41,5.14l-1.76-.3c-8.33-1.45-14.66-3.58-16.5-5.89-3.16-4,8.13-6.94,25.17-6.64s33.48,3.76,36.64,7.72C918.34,345.48,910.91,348.1,898.48,348.71Z"/><path class="i" d="M894.61,351.44c3-.08,6.95-.12,9.91-.47,1.25-.15,2.94-.28,4.18-.51a51.6,51.6,0,0,0,6.54-1.48,16.31,16.31,0,0,0,3.71-2c.32-.24.47-.81.65-1.17.4-.77-.71-2-1.37-2.56-1-.84-3.16-2.14-8.07-3.6-2.49-.74-5.88-1.43-8.42-1.95-1.44-.3-3.4-.55-4.86-.78H897c11.25,1.6,20.08,4.29,22.43,7.23,3.26,4.09-7.18,7.25-23.75,7.48Z"/><path class="i" d="M873.29,335.45c-2.89.11-6.77.18-9.64.57-1.21.17-2.83.31-4,.56a41.59,41.59,0,0,0-6.17,1.56,12.55,12.55,0,0,0-3.29,2.08c-.28.25-.3.83-.42,1.19-.28.91,1.1,2,1.86,2.58.93.69,3.28,2.06,8.65,3.55,2.57.71,6.06,1.38,8.67,1.88,1.48.29,3.48.52,5,.75-.37,0-.73.05-1.1.05-11.46-1.59-20.5-4.31-22.88-7.29-3.23-4.05,7-7.19,23.23-7.48Z"/><path class="i" d="M870.74,357.6c.46,0,1.06.16,1.51.22s5.34.76,11.24,1.13,10.17.32,11.74.29c.47,0,1.11-.06,1.58,0h.08c.39.06.78.13,1.18.18q-3.51.14-7.41.06a153.11,153.11,0,0,1-21.19-1.82l1.19,0Z"/><path class="i" d="M871,355.66c.45,0,1,.16,1.5.22s5.3.75,11.15,1.12,10.1.32,11.65.29c.47,0,1.1-.06,1.57,0h.08l1.19.19c-2.31.08-4.76.1-7.32.05a155,155,0,0,1-21.1-1.8l1.2,0Z"/><path class="i" d="M890.81,350.73l.21,0c.75.15,2,.39,3.59.67a153.46,153.46,0,0,1-20.71-1.27c1.23-.07,2.38-.14,3.43-.22l.2,0a6,6,0,0,1,.73.08c.28,0,2.83.28,5.8.46s5.33.23,6,.25C890.26,350.72,890.58,350.71,890.81,350.73Z"/><path class="i" d="M899.66,357.39h.22c-2.82.14-5.87.19-9.1.13A151.53,151.53,0,0,1,868,355.42l.22,0a143.29,143.29,0,0,0,15.39,1.78A141.45,141.45,0,0,0,899.66,357.39Z"/><path class="i" d="M868.78,347.69A142.9,142.9,0,0,0,884,349.45a140.91,140.91,0,0,0,16,.16l-1.57.08c-2.47.12-5.14.16-8,.11A133.66,133.66,0,0,1,870.33,348Z"/><path class="i" d="M870.17,353.56c.48,0,1.11.17,1.59.24s5.65.85,11.94,1.23c6.48.4,11.2.32,12.49.29.5,0,1.17-.08,1.67-.05h.08l1.2.19c-2.58.1-5.33.14-8.24.09a153.83,153.83,0,0,1-22-2l1.21,0Z"/><path class="i" d="M871.27,351.76c.45,0,1,.15,1.49.22s5.27.74,11.09,1.1,10,.33,11.59.3c.47,0,1.1-.07,1.57,0h.08l1.21.19q-3.45.12-7.28.05a152.82,152.82,0,0,1-21-1.8l1.21,0Z"/><path class="i" d="M900.28,353.46h.24c-2.93.16-6.11.21-9.5.15a150.65,150.65,0,0,1-23.23-2.16l.23,0a143.9,143.9,0,0,0,15.77,1.84A142.43,142.43,0,0,0,900.28,353.46Z"/><path class="i" d="M873.9,350.17c.36,0,.85.1,1.21.15s4.29.53,8.92.82,8,.31,9.29.3c.38,0,.9,0,1.29,0h.07l1,.17c-1.47,0-3,0-4.57,0a158.89,158.89,0,0,1-18.33-1.4l1-.05Z"/><path class="i" d="M902,351.38h.21c-3.34.23-7,.31-11,.25a149,149,0,0,1-24.75-2.46l.21,0c2.24.41,4.56.84,8.24,1.29s7,.72,9,.85A138.49,138.49,0,0,0,902,351.38Z"/><path d="M900.59,335.78l1.77.3c10.18,1.77,17.92,4.38,20.17,7.2,3.86,4.84-9.94,8.48-30.78,8.12S850.82,346.8,847,342c-3.22-4,5.85-7.25,21.06-8l1.8-.09c-13.63.66-21.78,3.54-18.89,7.16,3.47,4.34,21.48,8.14,40.16,8.47s31.06-2.94,27.59-7.29C916.66,339.7,909.72,337.36,900.59,335.78Z"/><path class="i" d="M900,349.61h.22c-2.78.14-5.78.19-9,.13a152.85,152.85,0,0,1-22.7-2.07l.22,0A142.9,142.9,0,0,0,884,349.45,141.38,141.38,0,0,0,900,349.61Z"/><path d="M899.78,359.1l-1.67.07c-2.39.09-4.94.12-7.63.07a149.53,149.53,0,0,1-21-1.83l-1.64-.27a167.34,167.34,0,0,0,23.41,2.05C894.26,359.24,897.11,359.21,899.78,359.1Z"/><path d="M878.52,333.76c18.67.33,36.69,4.12,40.15,8.46s-8.91,7.61-27.59,7.29-36.69-4.13-40.16-8.47S859.84,333.43,878.52,333.76Zm12,15.06c17,.29,28.34-2.69,25.18-6.65s-19.6-7.42-36.64-7.72-28.33,2.68-25.17,6.64,19.59,7.43,36.63,7.73"/><path d="M899.8,357.16l-1.66.06c-2.37.09-4.89.12-7.54.07a148.25,148.25,0,0,1-20.88-1.82h0l-1.64-.26a166.17,166.17,0,0,0,23.31,2C894.34,357.29,897.16,357.26,899.8,357.16Z"/><path d="M900.81,355.15l-1.75.08c-2.59.12-5.39.15-8.34.1A147.5,147.5,0,0,1,869,353.38h0l-1.72-.29a164.66,164.66,0,0,0,24.19,2.18C894.79,355.32,897.91,355.28,900.81,355.15Z"/><path class="i" d="M878.35,333.54c19.2.33,37.72,4.23,41.28,8.7s-9.16,7.82-28.37,7.49S853.54,345.49,850,341,859.13,333.2,878.35,333.54Z"/><path d="M900,353.25l-1.65.06c-2.35.09-4.85.11-7.48.07A149.06,149.06,0,0,1,870,351.57h0l-1.63-.27a165.28,165.28,0,0,0,23.24,2C894.56,353.37,897.35,353.34,900,353.25Z"/><path d="M897.28,351.4l-1.34,0c-1.59,0-3.25,0-5,0A153.72,153.72,0,0,1,872.65,350h0l-1.32-.19a168.71,168.71,0,0,0,20.42,1.59C893.65,351.43,895.5,351.43,897.28,351.4Z"/></g><text class="k" transform="translate(848 322.1)">Clie<tspan class="aa" x="46.53" y="0">n</tspan><tspan class="d" x="63.06" y="0">t</tspan></text><line class="ab" x1="660.5" y1="533.5" x2="840.73" y2="354.26"/><polygon class="ac" points="841.27 359.5 840.26 359.46 840.46 354.54 835.53 354.7 835.5 353.7 841.5 353.5 841.27 359.5"/><line class="ad" x1="851.5" y1="362.5" x2="664.27" y2="546.74"/><polygon class="ae" points="663.77 541.5 664.77 541.54 664.55 546.47 669.48 546.33 669.5 547.33 663.5 547.5 663.77 541.5"/><text class="o" transform="translate(747.19 538.3) rotate(-23.67)">d<tspan class="p" x="6.21" y="0">r</tspan><tspan class="q" x="9.75" y="0">a</tspan><tspan class="r" x="14.97" y="0">w eleme</tspan><tspan class="s" x="53.71" y="0">n</tspan><tspan class="r" x="59.78" y="0">ts on ca</tspan><tspan class="t" x="94.83" y="0">n</tspan><tspan class="s" x="100.79" y="0">v</tspan><tspan x="106.04" y="0">as</tspan></text><text class="o" transform="translate(739.72 570.04) rotate(-23.67)">pl<tspan class="q" x="8.86" y="0">a</tspan><tspan class="u" x="14.07" y="0">y</tspan><tspan class="v" x="19.15" y="0">er st</tspan><tspan class="w" x="38.59" y="0">a</tspan><tspan class="x" x="43.85" y="0">t</tspan><tspan x="47.43" y="0">e chang</tspan><tspan class="y" x="83.88" y="0">e</tspan><tspan x="89.26" y="0">, </tspan><tspan class="x" x="93.87" y="0">c</tspan><tspan x="98.73" y="0">oins gene</tspan><tspan class="z" x="143.43" y="0">r</tspan><tspan class="w" x="146.98" y="0">a</tspan><tspan class="x" x="152.24" y="0">t</tspan><tspan class="v" x="155.81" y="0">ed</tspan></text><g class="h"><path d="M999,454.59l1.64.27a134.86,134.86,0,0,0-19.14-1.68c-2.44,0-4.77,0-7,.07l.84,0,.83,0q2.87-.12,6.08-.06A117.32,117.32,0,0,1,999,454.59Z"/><path d="M999,452.62l1.63.27a135.55,135.55,0,0,0-19.06-1.66c-2.41,0-4.71,0-6.88.06l1.67-.06c1.88-.07,3.89-.09,6-.06A120.87,120.87,0,0,1,999,452.62Z"/><path d="M997.31,446.48l1.31.18A137.39,137.39,0,0,0,982,445.37c-1.56,0-3.06,0-4.51,0l1.33,0c1.27,0,2.59,0,4,0A120.45,120.45,0,0,1,997.31,446.48Z"/><path d="M999.8,450.76l1.72.3a134.08,134.08,0,0,0-19.81-1.79c-2.69,0-5.24,0-7.61.1.29,0,.58,0,.87,0l.87,0c2.07-.1,4.3-.13,6.65-.08A118.33,118.33,0,0,1,999.8,450.76Z"/><path d="M999.21,448.7l1.63.27a134.87,134.87,0,0,0-19-1.65c-2.4-.05-4.68,0-6.83.06.28,0,.56,0,.83,0l.83,0q2.82-.1,6-.06A118.78,118.78,0,0,1,999.21,448.7Z"/><path class="i" d="M973.74,466.6a68,68,0,0,1-8.56-1.63c-1.1-.24-2.55-.68-3.65-1a29.88,29.88,0,0,1-5.71-2.18c-1.05-.55-2.73-1.28-3.13-2.4-.13-.35-.53-.83-.42-1.19a4.64,4.64,0,0,1,1.47-2.14c.62-.45,2.57-1.57,7.22-2.47,2.27-.44,5.33-.76,7.63-1,1.35-.14,3.16-.19,4.51-.27l1.47-.06c-13,.51-20.93,3.19-18.22,6.58,3.16,4,19.6,7.43,36.64,7.73s28.35-2.69,25.19-6.65c-1.91-2.4-8.68-4.61-17.5-6.05,3.25.53,5.77,1,5.79,1,1.2.24,2.79.58,4,.91,2,.54,4.55,1.38,6.47,2.08a19.11,19.11,0,0,1,2.37,1.14c.94.53,2.5,1.35,2.67,2.42.06.35.33.85.17,1.16a6.07,6.07,0,0,1-1.93,2.1c-.72.43-2.93,1.53-7.8,2.36-2.36.4-5.55.69-7.93.9-1.39.13-3.26.16-4.65.22,0,0-3.14-.49-6.31-1.16a2.45,2.45,0,0,0-.37-.08h-.75c-.94,0-3.45-.08-6.59-.3-2.5-.16-4.53-.37-4.76-.39a5.35,5.35,0,0,0-1.06,0C976.85,466.5,973.75,466.6,973.74,466.6Z"/><path d="M1001.12,465.48l-1.81.09c10.79-.53,17.24-2.82,14.94-5.7-2.75-3.45-17.13-6.48-32-6.74s-24.75,2.34-22,5.8c1.6,2,7.08,3.86,14.31,5.12h-.09l-.8-.14-.54-.1-.27,0-.09,0c-8.27-1.44-14.55-3.57-16.37-5.86-3.16-4,8.13-6.95,25.17-6.65s33.48,3.76,36.64,7.72C1020.86,462.25,1013.48,464.87,1001.12,465.48Z"/><path class="i" d="M973.1,452.34c-2.58.15-6,.29-8.58.7-1.06.17-2.5.32-3.56.57a35.13,35.13,0,0,0-5.44,1.53,11.32,11.32,0,0,0-2.88,2c-.26.24-.27.78-.37,1.11-.24.84.94,1.87,1.63,2.41,1,.78,3.11,2,7.63,3.36,1.09.33,2.55.74,3.65,1,2.56.54,6,1.19,8.56,1.63l-1.27,0c-10.12-1.62-17.91-4.14-20.1-6.88-3-3.83,5.84-6.84,20.53-7.41Z"/><path class="i" d="M999.81,468.21c2.66-.12,6.22-.23,8.86-.6,1.11-.15,2.62-.29,3.72-.52a44.09,44.09,0,0,0,5.81-1.46,14.72,14.72,0,0,0,3.31-1.9c.3-.23.43-.76.61-1.1.36-.7-.56-1.84-1.13-2.38-.84-.79-2.74-2-7-3.42-1-.34-2.44-.76-3.5-1-2.49-.57-5.82-1.25-8.32-1.71l.2,0c9.94,1.62,17.56,4.11,19.71,6.82,3.08,3.86-6,6.89-21,7.42Z"/><path class="i" d="M974,464.66a68.42,68.42,0,0,1-8.59-1.63c-1.11-.24-2.57-.68-3.67-1a30.84,30.84,0,0,1-5.74-2.18c-1.05-.55-2.74-1.29-3.15-2.41-.13-.35-.53-.83-.42-1.19a4.67,4.67,0,0,1,1.47-2.15c.63-.45,2.59-1.58,7.26-2.47,2.28-.44,5.36-.76,7.66-1,1.36-.14,3.17-.19,4.53-.27l1.46-.05c-13.08.5-21,3.18-18.3,6.58,3.16,4,19.6,7.43,36.64,7.73s28.35-2.69,25.19-6.65c-1.92-2.41-8.72-4.63-17.59-6.07,3.2.52,5.78,1,5.81,1,1.2.24,2.8.58,4,.91,2,.55,4.57,1.38,6.5,2.08a20.85,20.85,0,0,1,2.38,1.15c1,.53,2.52,1.35,2.69,2.42.06.35.33.86.17,1.17a6.17,6.17,0,0,1-1.93,2.1c-.73.43-3,1.53-7.84,2.36-2.38.4-5.58.69-8,.9-1.4.13-3.27.16-4.67.22,0,0-3.08-.49-6.21-1.15-.11,0-.25-.06-.36-.07s-.53,0-.75,0c-.94,0-3.45-.08-6.61-.29-2.49-.16-4.53-.37-4.76-.4a6.23,6.23,0,0,0-1.06,0C977,464.56,974,464.66,974,464.66Z"/><path class="i" d="M993.13,467a2.45,2.45,0,0,1,.37.08c1.9.4,4,.79,6.31,1.16-2.54.05-6.79.14-13.32-.26-6.07-.38-10.58-1-12.75-1.35,2.26-.08,4.36-.21,6.23-.37.1,0,.25,0,.36,0s.49.05.7.08,2.68.27,5.6.45,5.13.22,5.75.24A6.26,6.26,0,0,1,993.13,467Z"/><path class="i" d="M971.17,464.45a143.29,143.29,0,0,0,15.39,1.78,140.92,140.92,0,0,0,16.1.16l-1.6.08c-2.5.13-5.2.17-8.07.12a135.09,135.09,0,0,1-20.26-1.86Z"/><path d="M1003.24,452.58l1.78.31c10.11,1.77,17.79,4.37,20,7.17,3.86,4.85-9.94,8.49-30.78,8.13s-40.93-4.6-44.8-9.45c-3.21-4,5.8-7.23,20.92-8h0l1.81-.09c-13.55.68-21.63,3.54-18.75,7.15,3.46,4.35,21.48,8.14,40.15,8.47s31.05-2.94,27.59-7.28C1019.19,456.49,1012.3,454.16,1003.24,452.58Z"/><path d="M1001.41,463.52l-1.84.09c10.71-.55,17.09-2.83,14.8-5.69-2.75-3.46-17.13-6.49-32-6.75s-24.75,2.35-22,5.81c1.59,2,7,3.83,14.16,5.09h0l-1.81-.32c-8.19-1.44-14.39-3.55-16.21-5.83-3.16-4,8.14-6.95,25.18-6.65s33.49,3.77,36.65,7.73C1021,460.28,1013.67,462.89,1001.41,463.52Z"/><path class="i" d="M973.31,450.38c-2.58.15-6,.29-8.61.69-1.07.17-2.52.33-3.58.58a35.06,35.06,0,0,0-5.46,1.53,11.26,11.26,0,0,0-2.9,2c-.26.25-.27.78-.37,1.12-.25.84,1,1.87,1.64,2.42,1,.78,3.13,2,7.67,3.36,1.09.33,2.56.74,3.67,1,2.57.54,6,1.19,8.59,1.63l-1.28,0c-10.17-1.63-18-4.16-20.19-6.9-3-3.84,5.88-6.85,20.62-7.42Z"/><path class="i" d="M999.83,466.26c2.67-.12,6.25-.22,8.9-.59,1.12-.16,2.63-.3,3.74-.53a43.22,43.22,0,0,0,5.83-1.46,14.31,14.31,0,0,0,3.33-1.91c.3-.22.43-.76.61-1.09.36-.71-.56-1.85-1.14-2.39-.84-.79-2.75-2-7.09-3.43-1-.34-2.44-.75-3.51-1-2.5-.57-5.84-1.25-8.35-1.71l.2,0c10,1.62,17.64,4.12,19.81,6.83,3.08,3.88-6.06,6.91-21.06,7.44Z"/><path class="i" d="M973.17,462.56a65,65,0,0,1-8.27-1.63c-1.07-.24-2.46-.68-3.51-1a28.84,28.84,0,0,1-5.49-2.15c-1-.54-2.62-1.27-3-2.35-.12-.35-.5-.81-.39-1.16a4.66,4.66,0,0,1,1.42-2.11c.6-.43,2.48-1.54,7-2.44,2.18-.43,5.14-.76,7.35-1,1.31-.14,3.06-.2,4.36-.28l1.53-.07c-12.66.57-20.25,3.22-17.59,6.56,3.16,4,19.62,7.44,36.69,7.73s28.38-2.68,25.22-6.65c-1.87-2.34-8.36-4.51-16.87-5.95,6.13,1,8.85,1.76,9.54,1.95,1.89.54,4.38,1.37,6.23,2.06a16.6,16.6,0,0,1,2.28,1.12c.91.51,2.4,1.33,2.56,2.37.06.34.32.83.16,1.14a5.88,5.88,0,0,1-1.85,2c-.7.43-2.82,1.5-7.51,2.34a90.31,90.31,0,0,1-12.14,1.16s-3.51-.53-7.14-1.31a2.71,2.71,0,0,0-.41-.09h-.74c-.72,0-3.32-.07-6.52-.29-2.46-.16-4.48-.37-4.7-.39a5.79,5.79,0,0,0-1.1,0C976.68,462.47,973.18,462.56,973.17,462.56Z"/><path class="i" d="M993.26,465c.11,0,.25,0,.36.07,1.87.4,4,.78,6.21,1.15-2.52.05-6.74.13-13.22-.26-6-.38-10.5-1-12.65-1.34,2.22-.08,4.28-.21,6.12-.37l.36,0c.21,0,.49.05.7.07s2.73.28,5.61.46,5.13.22,5.76.23C992.73,465,993,465,993.26,465Z"/><path class="i" d="M971.1,462.47a146.28,146.28,0,0,0,15.58,1.81,143.28,143.28,0,0,0,16.28.15l-1.61.08c-2.54.13-5.3.18-8.24.13a134.12,134.12,0,0,1-20.43-1.9Z"/><path d="M1003.54,450.66l1.81.32c10,1.76,17.59,4.34,19.82,7.13,3.86,4.84-9.94,8.49-30.78,8.12s-40.93-4.59-44.8-9.44c-3.19-4,5.72-7.2,20.71-8l1.84-.1c-13.44.7-21.43,3.55-18.57,7.15,3.47,4.34,21.48,8.14,40.15,8.46s31-2.94,27.59-7.28C1019.32,454.55,1012.51,452.24,1003.54,450.66Z"/><path d="M1001.71,461.56l-1.84.09c10.62-.56,16.94-2.84,14.66-5.69-2.75-3.46-17.15-6.5-32-6.75s-24.78,2.34-22,5.81c1.57,2,6.93,3.81,14,5.07,0,0-.07,0-.09,0l-.82-.14-.91-.16c-8.1-1.44-14.23-3.54-16-5.81-3.16-4,8.13-6.94,25.18-6.64s33.49,3.76,36.65,7.72C1021.09,458.31,1013.87,460.91,1001.71,461.56Z"/><path class="i" d="M1003,464.43h.23c-2.87.14-6,.2-9.29.14a152.39,152.39,0,0,1-23-2.13l.23,0a146.28,146.28,0,0,0,15.58,1.81A144,144,0,0,0,1003,464.43Z"/><path class="i" d="M972.61,448.46c-2.48.16-5.82.31-8.28.72-1,.17-2.42.33-3.43.57a35.07,35.07,0,0,0-5.25,1.52,10.69,10.69,0,0,0-2.78,1.94c-.25.24-.26.76-.36,1.09-.24.81.89,1.82,1.55,2.36.94.76,3,2,7.33,3.3,1,.33,2.44.73,3.51,1,2.47.54,5.78,1.19,8.27,1.63l-1.3,0c-9.71-1.63-17.14-4.09-19.27-6.75-3-3.76,5.55-6.74,19.79-7.38Z"/><path class="i" d="M1000.86,464.27c2.57-.13,6-.25,8.55-.63,1.07-.16,2.52-.3,3.59-.53a41.34,41.34,0,0,0,5.59-1.45,14.19,14.19,0,0,0,3.19-1.87c.28-.23.41-.75.58-1.07.35-.69-.53-1.8-1.08-2.34-.8-.77-2.63-2-6.78-3.36a86.29,86.29,0,0,0-11.41-2.69l.22,0c9.57,1.63,16.87,4.06,19,6.7,3,3.79-5.69,6.78-20.14,7.4Z"/><path class="i" d="M974.27,460.76a66.82,66.82,0,0,1-8.62-1.64c-1.12-.23-2.57-.68-3.68-1a30.63,30.63,0,0,1-5.76-2.19c-1.05-.55-2.75-1.29-3.16-2.41-.13-.35-.53-.83-.42-1.19a4.72,4.72,0,0,1,1.48-2.16c.62-.44,2.59-1.57,7.28-2.47,2.28-.44,5.37-.76,7.68-1,1.36-.14,3.18-.18,4.54-.26l1.45-.06c-13.11.5-21.07,3.18-18.35,6.59,3.16,4,19.6,7.43,36.65,7.72s28.34-2.68,25.18-6.64c-1.92-2.41-8.75-4.64-17.64-6.08,3.15.51,5.79,1,5.81,1,1.21.24,2.81.58,4,.91,2,.55,4.59,1.38,6.52,2.08a18.76,18.76,0,0,1,2.39,1.15c1,.53,2.53,1.35,2.7,2.43.06.35.34.86.17,1.17a6.1,6.1,0,0,1-1.94,2.1c-.73.43-3,1.53-7.86,2.36-2.38.41-5.59.69-8,.9-1.39.13-3.27.16-4.67.22,0,0-3-.48-6.15-1.14-.11,0-.25-.06-.36-.07h-.75c-.94,0-3.45-.09-6.61-.3-2.5-.16-4.54-.37-4.76-.4a6.27,6.27,0,0,0-1.06,0C977.27,460.66,974.28,460.76,974.27,460.76Z"/><path class="i" d="M993.31,462.87l.41.09c2.15.46,4.55.9,7.14,1.31-2.68.07-7.18.19-14.16-.24-6.47-.4-11.24-1.12-13.53-1.47,2.58-.08,5-.23,7.08-.42.12,0,.28,0,.4,0s.49.06.7.08,2.7.27,5.53.44,5.07.23,5.69.24C992.79,462.86,993.09,462.85,993.31,462.87Z"/><path class="i" d="M971,460.48a143.9,143.9,0,0,0,15.77,1.84,141.36,141.36,0,0,0,16.49.14l-1.61.09c-2.6.14-5.42.19-8.43.13a134,134,0,0,1-20.64-1.92Z"/><path d="M1003.86,448.74l1.82.32c9.88,1.76,17.36,4.33,19.57,7.09,3.86,4.84-9.93,8.48-30.75,8.12s-40.89-4.6-44.75-9.44c-3.18-4,5.62-7.16,20.47-7.95l1.84-.1c-13.31.71-21.21,3.56-18.36,7.13,3.46,4.34,21.47,8.14,40.14,8.47s31-2.94,27.58-7.29C1019.45,452.62,1012.73,450.32,1003.86,448.74Z"/><path d="M1003.18,459.48l-2,.14c9.88-.67,15.62-2.87,13.43-5.61-2.75-3.46-17.13-6.49-32-6.75s-24.75,2.35-22,5.81c1.48,1.85,6.32,3.59,12.79,4.84l-2-.38c-7.39-1.43-12.91-3.41-14.6-5.53-3.16-4,8.11-6.93,25.12-6.63s33.4,3.75,36.55,7.7C1021,456.2,1014.46,458.72,1003.18,459.48Z"/><path class="i" d="M973.61,446.47c-2.59.15-6.07.28-8.63.69-1.08.17-2.53.32-3.59.57a35.42,35.42,0,0,0-5.49,1.53,11.39,11.39,0,0,0-2.9,2c-.26.24-.27.78-.37,1.12-.25.84,1,1.87,1.64,2.42,1,.78,3.15,2,7.7,3.37,1.1.33,2.56.74,3.68,1,2.57.55,6,1.2,8.62,1.64l-1.3,0c-10.2-1.62-18.05-4.15-20.25-6.9-3.06-3.84,5.91-6.86,20.69-7.43Z"/><path class="i" d="M1000,462.35c2.67-.12,6.26-.22,8.91-.59,1.13-.16,2.64-.3,3.76-.53a43.09,43.09,0,0,0,5.85-1.45,15,15,0,0,0,3.34-1.92c.3-.22.43-.76.61-1.09.36-.71-.56-1.85-1.14-2.4-.85-.79-2.76-2-7.11-3.43a90.25,90.25,0,0,0-11.9-2.71l.2,0c10,1.63,17.71,4.14,19.88,6.85,3.08,3.88-6.09,6.92-21.11,7.44Z"/><path class="i" d="M976.9,459.17a39.74,39.74,0,0,1-5-.75c-2.61-.5-6.08-1.25-8.67-1.88a49.58,49.58,0,0,1-6.46-2.29,9.17,9.17,0,0,1-3.57-2.56,2.58,2.58,0,0,1-.06-2.47,7.43,7.43,0,0,1,3.29-2.08,43.2,43.2,0,0,1,6.17-1.56,79.61,79.61,0,0,1,8.6-.94c1.51-.12,3.54-.13,5.06-.19l1.2,0c-14.47.25-23.54,3.05-20.66,6.65,3.16,4,19.6,7.43,36.64,7.72s28.35-2.68,25.19-6.64c-2.09-2.62-9.95-5-19.95-6.43,5.94.84,8.78,1.48,10.49,1.87a43.25,43.25,0,0,1,7.34,2.16,36.74,36.74,0,0,1,4.69,2.47,7.61,7.61,0,0,1,1.15,1.31c.48.56.06,1.87-.43,2.42a8.48,8.48,0,0,1-3.71,2c-1.94.53-4.56,1.11-6.54,1.48a41.83,41.83,0,0,1-4.18.51c-3,.21-6.94.54-9.91.47,0,0-1.74-.3-3.59-.67l-.21,0c-.23,0-.55,0-.78,0-.39,0-2.48-.05-5.09-.2-3.29-.18-5.94-.44-6.68-.51-.22,0-.51-.07-.73-.08l-.2,0C978.57,459.08,976.9,459.17,976.9,459.17Z"/><path class="i" d="M993.5,461.14c.11,0,.25.05.36.07,1.85.39,3.92.77,6.15,1.14-2.51,0-6.71.13-13.16-.27-6-.37-10.44-1-12.58-1.32,2.2-.09,4.23-.21,6.05-.37l.35,0c.21,0,.5.05.71.07s2.73.28,5.61.46,5.14.22,5.76.24A6.23,6.23,0,0,1,993.5,461.14Z"/><path class="i" d="M969.59,458.2c2.24.41,4.56.84,8.24,1.29s7,.72,9,.85a140.5,140.5,0,0,0,18.07,0l-.49,0h-.4l-.9.06c-3,.21-6.26.29-9.8.22a131,131,0,0,1-22-2.18Z"/><path d="M1005.55,447l2,.38c9,1.74,15.82,4.17,17.9,6.78,3.86,4.84-9.94,8.48-30.78,8.12s-40.93-4.6-44.8-9.44c-3.06-3.84,5-6.92,18.79-7.86l2-.13c-12.42.84-19.64,3.61-16.89,7.05,3.47,4.35,21.52,8.16,40.24,8.49s31.11-2.95,27.64-7.3C1019.76,450.79,1013.68,448.61,1005.55,447Z"/><path d="M1001.48,457.71l-1.8.08c10.86-.52,17.36-2.82,15.05-5.7-2.75-3.46-17.13-6.49-32-6.75s-24.75,2.35-22,5.8c1.6,2,7.14,3.88,14.41,5.14l-1.76-.3c-8.33-1.45-14.66-3.58-16.5-5.89-3.16-4,8.13-6.94,25.17-6.64s33.48,3.76,36.64,7.72C1021.34,454.48,1013.91,457.1,1001.48,457.71Z"/><path class="i" d="M997.61,460.44c3-.08,6.95-.12,9.91-.47,1.25-.15,2.94-.28,4.18-.51a51.6,51.6,0,0,0,6.54-1.48,16.31,16.31,0,0,0,3.71-2c.32-.24.47-.81.65-1.17.4-.77-.71-2-1.37-2.56-1-.84-3.16-2.14-8.07-3.6-2.49-.74-5.88-1.43-8.42-1.95-1.44-.3-3.4-.55-4.86-.78h.14c11.25,1.6,20.08,4.29,22.43,7.23,3.26,4.09-7.18,7.25-23.75,7.48Z"/><path class="i" d="M976.29,444.45c-2.89.11-6.77.18-9.64.57-1.21.17-2.83.31-4,.56a41.59,41.59,0,0,0-6.17,1.56,12.55,12.55,0,0,0-3.29,2.08c-.28.25-.3.83-.42,1.19-.28.91,1.1,2,1.86,2.58.93.69,3.28,2.06,8.65,3.55,2.57.71,6.06,1.38,8.67,1.88,1.48.29,3.48.52,5,.75-.37,0-.73.05-1.1.05-11.46-1.59-20.5-4.31-22.88-7.29-3.23-4.05,7-7.19,23.23-7.48Z"/><path class="i" d="M973.74,466.6c.46,0,1.06.16,1.51.22s5.34.76,11.24,1.13,10.17.32,11.74.29c.47,0,1.11-.06,1.58,0h.08c.39.06.78.13,1.18.18q-3.51.14-7.41.06a153.11,153.11,0,0,1-21.19-1.82l1.19,0Z"/><path class="i" d="M974,464.66c.45,0,1,.16,1.5.22s5.3.75,11.15,1.12,10.1.32,11.65.29c.47,0,1.1-.06,1.57,0h.08l1.19.19c-2.31.08-4.76.1-7.32.05a155,155,0,0,1-21.1-1.8l1.2,0Z"/><path class="i" d="M993.81,459.73l.21,0c.75.15,2,.39,3.59.67a153.46,153.46,0,0,1-20.71-1.27c1.23-.07,2.38-.14,3.43-.22l.2,0a6,6,0,0,1,.73.08c.28,0,2.83.28,5.8.46s5.33.23,6,.25C993.26,459.72,993.58,459.71,993.81,459.73Z"/><path class="i" d="M1002.66,466.39h.22c-2.82.14-5.87.19-9.1.13A151.53,151.53,0,0,1,971,464.42l.22,0a143.29,143.29,0,0,0,15.39,1.78A141.45,141.45,0,0,0,1002.66,466.39Z"/><path class="i" d="M971.78,456.69A142.9,142.9,0,0,0,987,458.45a140.91,140.91,0,0,0,16,.16l-1.57.08c-2.47.12-5.14.16-8,.11A133.66,133.66,0,0,1,973.33,457Z"/><path class="i" d="M973.17,462.56c.48,0,1.11.17,1.59.24s5.65.85,11.94,1.23c6.48.4,11.2.32,12.49.29.5,0,1.17-.08,1.67-.05h.08l1.2.19c-2.58.1-5.33.14-8.24.09a153.83,153.83,0,0,1-22-2l1.21,0Z"/><path class="i" d="M974.27,460.76c.45,0,1,.15,1.49.22s5.27.74,11.09,1.1,10,.33,11.59.3c.47,0,1.1-.07,1.57,0h.08l1.21.19q-3.45.12-7.28.05a152.82,152.82,0,0,1-21-1.8l1.21,0Z"/><path class="i" d="M1003.28,462.46h.24c-2.93.16-6.11.21-9.5.15a150.65,150.65,0,0,1-23.23-2.16l.23,0a143.9,143.9,0,0,0,15.77,1.84A142.43,142.43,0,0,0,1003.28,462.46Z"/><path class="i" d="M976.9,459.17c.36,0,.85.1,1.21.15s4.29.53,8.92.82,8,.31,9.29.3c.38,0,.9,0,1.29,0h.07l1,.17c-1.47,0-3,0-4.57,0a158.89,158.89,0,0,1-18.33-1.4l1-.05Z"/><path class="i" d="M1005,460.38h.21c-3.34.23-7,.31-11,.25a149,149,0,0,1-24.75-2.46l.21,0c2.24.41,4.56.84,8.24,1.29s7,.72,9,.85A138.49,138.49,0,0,0,1005,460.38Z"/><path d="M1003.59,444.78l1.77.3c10.18,1.77,17.92,4.38,20.17,7.2,3.86,4.84-9.94,8.48-30.78,8.12S953.82,455.8,950,451c-3.22-4,5.85-7.25,21.06-8l1.8-.09c-13.63.66-21.78,3.54-18.89,7.16,3.47,4.34,21.48,8.14,40.16,8.47s31.06-2.94,27.59-7.29C1019.66,448.7,1012.72,446.36,1003.59,444.78Z"/><path class="i" d="M1003,458.61h.22c-2.78.14-5.78.19-9,.13a152.85,152.85,0,0,1-22.7-2.07l.22,0A142.9,142.9,0,0,0,987,458.45,141.38,141.38,0,0,0,1003,458.61Z"/><path d="M1002.78,468.1l-1.67.07c-2.39.09-4.94.12-7.63.07a149.53,149.53,0,0,1-21-1.83l-1.64-.27a167.34,167.34,0,0,0,23.41,2.05C997.26,468.24,1000.11,468.21,1002.78,468.1Z"/><path d="M981.52,442.76c18.67.33,36.69,4.12,40.15,8.46s-8.91,7.61-27.59,7.29-36.69-4.13-40.16-8.47S962.84,442.43,981.52,442.76Zm12,15.06c17,.29,28.34-2.69,25.18-6.65s-19.6-7.42-36.64-7.72-28.33,2.68-25.17,6.64,19.59,7.43,36.63,7.73"/><path d="M1002.8,466.16l-1.66.06c-2.37.09-4.89.12-7.54.07a148.25,148.25,0,0,1-20.88-1.82h0l-1.64-.26a166.17,166.17,0,0,0,23.31,2C997.34,466.29,1000.16,466.26,1002.8,466.16Z"/><path d="M1003.81,464.15l-1.75.08c-2.59.12-5.39.15-8.34.1A147.5,147.5,0,0,1,972,462.38h0l-1.72-.29a164.66,164.66,0,0,0,24.19,2.18C997.79,464.32,1000.91,464.28,1003.81,464.15Z"/><path class="i" d="M981.35,442.54c19.2.33,37.72,4.23,41.28,8.7s-9.16,7.82-28.37,7.49S956.54,454.49,953,450,962.13,442.2,981.35,442.54Z"/><path d="M1003,462.25l-1.65.06c-2.35.09-4.85.11-7.48.07A149.06,149.06,0,0,1,973,460.57h0l-1.63-.27a165.28,165.28,0,0,0,23.24,2C997.56,462.37,1000.35,462.34,1003,462.25Z"/><path d="M1000.28,460.4l-1.34,0c-1.59,0-3.25,0-5,0A153.72,153.72,0,0,1,975.65,459h0l-1.32-.19a168.71,168.71,0,0,0,20.42,1.59C996.65,460.43,998.5,460.43,1000.28,460.4Z"/></g><text class="k" transform="translate(951 431.1)">Clie<tspan class="aa" x="46.53" y="0">n</tspan><tspan class="d" x="63.06" y="0">t</tspan></text><line class="ab" x1="665.5" y1="578.5" x2="937.01" y2="457.44"/><polygon class="ac" points="935.65 462.53 934.73 462.13 936.66 457.6 931.99 456 932.32 455.06 938 457 935.65 462.53"/><line class="ad" x1="943.5" y1="470.5" x2="668.49" y2="591.06"/><polygon class="ae" points="669.89 585.99 670.8 586.38 668.84 590.91 673.5 592.53 673.17 593.48 667.5 591.5 669.89 585.99"/><text class="o" transform="translate(751.03 619.4)">d<tspan class="p" x="6.21" y="0">r</tspan><tspan class="q" x="9.75" y="0">a</tspan><tspan class="r" x="14.97" y="0">w eleme</tspan><tspan class="s" x="53.71" y="0">n</tspan><tspan class="r" x="59.78" y="0">ts on ca</tspan><tspan class="t" x="94.83" y="0">n</tspan><tspan class="s" x="100.79" y="0">v</tspan><tspan x="106.04" y="0">as</tspan></text><text class="o" transform="matrix(1, -0.01, 0.01, 1, 753.69, 647.75)">pl<tspan class="q" x="8.86" y="0">a</tspan><tspan class="u" x="14.07" y="0">y</tspan><tspan class="v" x="19.15" y="0">er st</tspan><tspan class="w" x="38.59" y="0">a</tspan><tspan class="x" x="43.85" y="0">t</tspan><tspan x="47.43" y="0">e chang</tspan><tspan class="y" x="83.88" y="0">e</tspan><tspan x="89.26" y="0">, </tspan><tspan class="x" x="93.87" y="0">c</tspan><tspan x="98.73" y="0">oins gene</tspan><tspan class="z" x="143.43" y="0">r</tspan><tspan class="w" x="146.98" y="0">a</tspan><tspan class="x" x="152.24" y="0">t</tspan><tspan class="v" x="155.81" y="0">ed</tspan></text><g class="h"><path d="M1019,627.59l1.64.27a134.86,134.86,0,0,0-19.14-1.68c-2.44,0-4.77,0-7,.07l.84,0,.83,0q2.87-.12,6.08-.06A117.32,117.32,0,0,1,1019,627.59Z"/><path d="M1019,625.62l1.63.27a135.55,135.55,0,0,0-19.06-1.66c-2.41,0-4.71,0-6.88.06l1.67-.06c1.88-.07,3.89-.09,6-.06A120.87,120.87,0,0,1,1019,625.62Z"/><path d="M1017.31,619.48l1.31.18a137.39,137.39,0,0,0-16.65-1.29c-1.56,0-3.06,0-4.51,0l1.33,0c1.27,0,2.59,0,4,0A120.45,120.45,0,0,1,1017.31,619.48Z"/><path d="M1019.8,623.76l1.72.3a134.08,134.08,0,0,0-19.81-1.79c-2.69,0-5.24,0-7.61.1.29,0,.58,0,.87,0l.87,0c2.07-.1,4.3-.13,6.65-.08A118.33,118.33,0,0,1,1019.8,623.76Z"/><path d="M1019.21,621.7l1.63.27a134.87,134.87,0,0,0-19-1.65c-2.4-.05-4.68,0-6.83.06.28,0,.56,0,.83,0l.83,0q2.82-.11,6-.06A118.78,118.78,0,0,1,1019.21,621.7Z"/><path class="i" d="M993.74,639.6a68,68,0,0,1-8.56-1.63c-1.1-.24-2.55-.68-3.65-1a29.88,29.88,0,0,1-5.71-2.18c-1.05-.55-2.73-1.28-3.13-2.4-.13-.35-.53-.83-.42-1.19a4.64,4.64,0,0,1,1.47-2.14c.62-.45,2.57-1.57,7.22-2.47,2.27-.44,5.33-.76,7.63-1,1.35-.14,3.16-.19,4.51-.27l1.47-.06c-13,.51-20.93,3.19-18.22,6.58,3.16,4,19.6,7.43,36.64,7.73s28.35-2.69,25.19-6.65c-1.91-2.4-8.68-4.61-17.5-6.05,3.25.53,5.77,1,5.79,1,1.2.24,2.79.58,4,.91,2,.54,4.55,1.38,6.47,2.08a19.11,19.11,0,0,1,2.37,1.14c.94.53,2.5,1.35,2.67,2.42.06.35.33.85.17,1.16a6.07,6.07,0,0,1-1.93,2.1c-.72.43-2.93,1.53-7.8,2.36-2.36.4-5.55.69-7.93.9-1.39.13-3.26.16-4.65.22,0,0-3.14-.49-6.31-1.16a2.45,2.45,0,0,0-.37-.08h-.75c-.94,0-3.45-.08-6.59-.3-2.5-.16-4.53-.37-4.76-.39a5.35,5.35,0,0,0-1.06,0C996.85,639.5,993.75,639.6,993.74,639.6Z"/><path d="M1021.12,638.48l-1.81.09c10.79-.53,17.24-2.82,14.94-5.7-2.75-3.45-17.13-6.48-32-6.74s-24.75,2.34-22,5.8c1.6,2,7.08,3.86,14.31,5.12h-.09l-.8-.14-.54-.1-.27,0-.09,0c-8.27-1.44-14.55-3.57-16.37-5.86-3.16-4,8.13-7,25.17-6.65s33.48,3.76,36.64,7.72C1040.86,635.25,1033.48,637.87,1021.12,638.48Z"/><path class="i" d="M993.1,625.34c-2.58.15-6,.29-8.58.7-1.06.17-2.5.32-3.56.57a35.13,35.13,0,0,0-5.44,1.53,11.32,11.32,0,0,0-2.88,2c-.26.24-.27.78-.37,1.11-.24.84.94,1.87,1.63,2.41,1,.78,3.11,2,7.63,3.36,1.09.33,2.55.74,3.65,1,2.56.54,6,1.19,8.56,1.63l-1.27,0c-10.12-1.62-17.91-4.14-20.1-6.88-3-3.83,5.84-6.84,20.53-7.41Z"/><path class="i" d="M1019.81,641.21c2.66-.12,6.22-.23,8.86-.6,1.11-.15,2.62-.29,3.72-.52a44.09,44.09,0,0,0,5.81-1.46,14.72,14.72,0,0,0,3.31-1.9c.3-.23.43-.76.61-1.1.36-.7-.56-1.84-1.13-2.38-.84-.79-2.74-2-7-3.42-1-.34-2.44-.76-3.5-1-2.49-.57-5.82-1.25-8.32-1.71l.2,0c9.94,1.62,17.56,4.11,19.71,6.82,3.08,3.86-6,6.89-21,7.42Z"/><path class="i" d="M994,637.66a68.42,68.42,0,0,1-8.59-1.63c-1.11-.24-2.57-.68-3.67-1a30.84,30.84,0,0,1-5.74-2.18c-1.05-.55-2.74-1.29-3.15-2.41-.13-.35-.53-.83-.42-1.19a4.67,4.67,0,0,1,1.47-2.15c.63-.45,2.59-1.58,7.26-2.47,2.28-.44,5.36-.76,7.66-1,1.36-.14,3.17-.19,4.53-.27l1.46,0c-13.08.5-21,3.18-18.3,6.58,3.16,4,19.6,7.43,36.64,7.73s28.35-2.69,25.19-6.65c-1.92-2.41-8.72-4.63-17.59-6.07,3.2.52,5.78,1,5.81,1,1.2.24,2.8.58,4,.91,2,.55,4.57,1.38,6.5,2.08a20.85,20.85,0,0,1,2.38,1.15c.95.53,2.52,1.35,2.69,2.42.06.35.33.86.17,1.17a6.17,6.17,0,0,1-1.93,2.1c-.73.43-3,1.53-7.84,2.36-2.38.4-5.58.69-8,.9-1.4.13-3.27.16-4.67.22,0,0-3.08-.49-6.21-1.15-.11,0-.25-.06-.36-.07s-.53,0-.75,0c-.94,0-3.45-.08-6.61-.29-2.49-.16-4.53-.37-4.76-.4a6.23,6.23,0,0,0-1.06,0C997,637.56,994,637.66,994,637.66Z"/><path class="i" d="M1013.13,640a2.45,2.45,0,0,1,.37.08c1.9.4,4,.79,6.31,1.16-2.54,0-6.79.14-13.32-.26-6.07-.38-10.58-1-12.75-1.35,2.26-.08,4.36-.21,6.23-.37.1,0,.25,0,.36,0s.49,0,.7.08,2.68.27,5.6.45,5.13.22,5.75.24A6.26,6.26,0,0,1,1013.13,640Z"/><path class="i" d="M991.17,637.45a143.29,143.29,0,0,0,15.39,1.78,140.92,140.92,0,0,0,16.1.16l-1.6.08c-2.5.13-5.2.17-8.07.12a135.09,135.09,0,0,1-20.26-1.86Z"/><path d="M1023.24,625.58l1.78.31c10.11,1.77,17.79,4.37,20,7.17,3.86,4.85-9.94,8.49-30.78,8.13s-40.93-4.6-44.8-9.45c-3.21-4,5.8-7.23,20.92-8h0l1.81-.09c-13.55.68-21.63,3.54-18.75,7.15,3.46,4.35,21.48,8.14,40.15,8.47s31.05-2.94,27.59-7.28C1039.19,629.49,1032.3,627.16,1023.24,625.58Z"/><path d="M1021.41,636.52l-1.84.09c10.71-.55,17.09-2.83,14.8-5.69-2.75-3.46-17.13-6.49-32-6.75s-24.75,2.35-22,5.81c1.59,2,7,3.83,14.16,5.09h0l-1.81-.32c-8.19-1.44-14.39-3.55-16.21-5.83-3.16-4,8.14-6.95,25.18-6.65s33.49,3.77,36.65,7.73C1041,633.28,1033.67,635.89,1021.41,636.52Z"/><path class="i" d="M993.31,623.38c-2.58.15-6,.29-8.61.69-1.07.17-2.52.33-3.58.58a35.06,35.06,0,0,0-5.46,1.53,11.26,11.26,0,0,0-2.9,2c-.26.25-.27.78-.37,1.12-.25.84,1,1.87,1.64,2.42,1,.78,3.13,2,7.67,3.36,1.09.33,2.56.74,3.67,1,2.57.54,6,1.19,8.59,1.63l-1.28.05c-10.17-1.63-18-4.16-20.19-6.9-3-3.84,5.88-6.85,20.62-7.42Z"/><path class="i" d="M1019.83,639.26c2.67-.12,6.25-.22,8.9-.59,1.12-.16,2.63-.3,3.74-.53a43.22,43.22,0,0,0,5.83-1.46,14.31,14.31,0,0,0,3.33-1.91c.3-.22.43-.76.61-1.09.36-.71-.56-1.85-1.14-2.39-.84-.79-2.75-2-7.09-3.43-1-.34-2.44-.75-3.51-1-2.5-.57-5.84-1.25-8.35-1.71l.2,0c10,1.62,17.64,4.12,19.81,6.83,3.08,3.88-6.06,6.91-21.06,7.44Z"/><path class="i" d="M993.17,635.56a65,65,0,0,1-8.27-1.63c-1.07-.24-2.46-.68-3.51-1a28.84,28.84,0,0,1-5.49-2.15c-1-.54-2.62-1.27-3-2.35-.12-.35-.5-.81-.39-1.16a4.66,4.66,0,0,1,1.42-2.11c.6-.43,2.48-1.54,7-2.44,2.18-.43,5.14-.76,7.35-1,1.31-.14,3.06-.2,4.36-.28l1.53-.07c-12.66.57-20.25,3.22-17.59,6.56,3.16,4,19.62,7.44,36.69,7.73s28.38-2.68,25.22-6.65c-1.87-2.34-8.36-4.51-16.87-5.95,6.13,1,8.85,1.76,9.54,1.95,1.89.54,4.38,1.37,6.23,2.06a16.6,16.6,0,0,1,2.28,1.12c.91.51,2.4,1.33,2.56,2.37.06.34.32.83.16,1.14a5.88,5.88,0,0,1-1.85,2c-.7.43-2.82,1.5-7.51,2.34a90.31,90.31,0,0,1-12.14,1.16s-3.51-.53-7.14-1.31a2.71,2.71,0,0,0-.41-.09h-.74c-.72,0-3.32-.07-6.52-.29-2.46-.16-4.48-.37-4.7-.39a5.79,5.79,0,0,0-1.1,0C996.68,635.47,993.18,635.56,993.17,635.56Z"/><path class="i" d="M1013.26,638c.11,0,.25.05.36.07,1.87.4,4,.78,6.21,1.15-2.52,0-6.74.13-13.22-.26-6-.38-10.5-1-12.65-1.34,2.22-.08,4.28-.21,6.12-.37l.36,0c.21,0,.49,0,.7.07s2.73.28,5.61.46,5.13.22,5.76.23C1012.73,638,1013,638,1013.26,638Z"/><path class="i" d="M991.1,635.47a146.28,146.28,0,0,0,15.58,1.81,143.28,143.28,0,0,0,16.28.15l-1.61.08c-2.54.13-5.3.18-8.24.13a134.12,134.12,0,0,1-20.43-1.9Z"/><path d="M1023.54,623.66l1.81.32c10,1.76,17.59,4.34,19.82,7.13,3.86,4.84-9.94,8.49-30.78,8.12s-40.93-4.59-44.8-9.44c-3.19-4,5.72-7.2,20.71-8l1.84-.1c-13.44.7-21.43,3.55-18.57,7.15,3.47,4.34,21.48,8.14,40.15,8.46s31-2.94,27.59-7.28C1039.32,627.55,1032.51,625.24,1023.54,623.66Z"/><path d="M1021.71,634.56l-1.84.09c10.62-.56,16.94-2.84,14.66-5.69-2.75-3.46-17.15-6.5-32-6.75s-24.78,2.34-22,5.81c1.57,2,6.93,3.81,14,5.07,0,0-.07,0-.09,0l-.82-.14-.91-.16c-8.1-1.44-14.23-3.54-16-5.81-3.16-4,8.13-6.94,25.18-6.64s33.49,3.76,36.65,7.72C1041.09,631.31,1033.87,633.91,1021.71,634.56Z"/><path class="i" d="M1023,637.43h.23c-2.87.14-6,.2-9.29.14a152.39,152.39,0,0,1-23-2.13l.23,0a146.28,146.28,0,0,0,15.58,1.81A144,144,0,0,0,1023,637.43Z"/><path class="i" d="M992.61,621.46c-2.48.16-5.82.31-8.28.72-1,.17-2.42.33-3.43.57a35.07,35.07,0,0,0-5.25,1.52,10.69,10.69,0,0,0-2.78,1.94c-.25.24-.26.76-.36,1.09-.24.81.89,1.82,1.55,2.36.94.76,3,2,7.33,3.3,1,.33,2.44.73,3.51,1,2.47.54,5.78,1.19,8.27,1.63l-1.3,0c-9.71-1.63-17.14-4.09-19.27-6.75-3-3.76,5.55-6.74,19.79-7.38Z"/><path class="i" d="M1020.86,637.27c2.57-.13,6-.25,8.55-.63,1.07-.16,2.52-.3,3.59-.53a41.34,41.34,0,0,0,5.59-1.45,14.19,14.19,0,0,0,3.19-1.87c.28-.23.41-.75.58-1.07.35-.69-.53-1.8-1.08-2.34-.8-.77-2.63-2-6.78-3.36a86.29,86.29,0,0,0-11.41-2.69l.22,0c9.57,1.63,16.87,4.06,19,6.7,3,3.79-5.69,6.78-20.14,7.4Z"/><path class="i" d="M994.27,633.76a66.82,66.82,0,0,1-8.62-1.64c-1.12-.23-2.57-.68-3.68-1a30.63,30.63,0,0,1-5.76-2.19c-1.05-.55-2.75-1.29-3.16-2.41-.13-.35-.53-.83-.42-1.19a4.72,4.72,0,0,1,1.48-2.16c.62-.44,2.59-1.57,7.28-2.47,2.28-.44,5.37-.76,7.68-1,1.36-.14,3.18-.18,4.54-.26l1.45-.06c-13.11.5-21.07,3.18-18.35,6.59,3.16,4,19.6,7.43,36.65,7.72s28.34-2.68,25.18-6.64c-1.92-2.41-8.75-4.64-17.64-6.08,3.15.51,5.79,1,5.81,1,1.21.24,2.81.58,4,.91,2,.55,4.59,1.38,6.52,2.08a18.76,18.76,0,0,1,2.39,1.15c1,.53,2.53,1.35,2.7,2.43.06.35.34.86.17,1.17a6.1,6.1,0,0,1-1.94,2.1c-.73.43-3,1.53-7.86,2.36-2.38.41-5.59.69-8,.9-1.39.13-3.27.16-4.67.22,0,0-3-.48-6.15-1.14-.11,0-.25-.06-.36-.07h-.75c-.94,0-3.45-.09-6.61-.3-2.5-.16-4.54-.37-4.76-.4a6.27,6.27,0,0,0-1.06,0C997.27,633.66,994.28,633.76,994.27,633.76Z"/><path class="i" d="M1013.31,635.87l.41.09c2.15.46,4.55.9,7.14,1.31-2.68.07-7.18.19-14.16-.24-6.47-.4-11.24-1.12-13.53-1.47,2.58-.08,5-.23,7.08-.42.12,0,.28,0,.4,0s.49.06.7.08,2.7.27,5.53.44,5.07.23,5.69.24C1012.79,635.86,1013.09,635.85,1013.31,635.87Z"/><path class="i" d="M991,633.48a143.9,143.9,0,0,0,15.77,1.84,141.36,141.36,0,0,0,16.49.14l-1.61.09c-2.6.14-5.42.19-8.43.13a134,134,0,0,1-20.64-1.92Z"/><path d="M1023.86,621.74l1.82.32c9.88,1.76,17.36,4.33,19.57,7.09,3.86,4.84-9.93,8.48-30.75,8.12s-40.89-4.6-44.75-9.44c-3.18-4,5.62-7.16,20.47-8l1.84-.1c-13.31.71-21.21,3.56-18.36,7.13,3.46,4.34,21.47,8.14,40.14,8.47s31-2.94,27.58-7.29C1039.45,625.62,1032.73,623.32,1023.86,621.74Z"/><path d="M1023.18,632.48l-2,.14c9.88-.67,15.62-2.87,13.43-5.61-2.75-3.46-17.13-6.49-32-6.75s-24.75,2.35-22,5.81c1.48,1.85,6.32,3.59,12.79,4.84l-2-.38c-7.39-1.43-12.91-3.41-14.6-5.53-3.16-4,8.11-6.93,25.12-6.63s33.4,3.75,36.55,7.7C1041,629.2,1034.46,631.72,1023.18,632.48Z"/><path class="i" d="M993.61,619.47c-2.59.15-6.07.28-8.63.69-1.08.17-2.53.32-3.59.57a35.42,35.42,0,0,0-5.49,1.53,11.39,11.39,0,0,0-2.9,2c-.26.24-.27.78-.37,1.12-.25.84,1,1.87,1.64,2.42,1,.78,3.15,2,7.7,3.37,1.1.33,2.56.74,3.68,1,2.57.55,6,1.2,8.62,1.64l-1.3,0c-10.2-1.62-18.05-4.15-20.25-6.9-3.06-3.84,5.91-6.86,20.69-7.43Z"/><path class="i" d="M1020,635.35c2.67-.12,6.26-.22,8.91-.59,1.13-.16,2.64-.3,3.76-.53a43.09,43.09,0,0,0,5.85-1.45,15,15,0,0,0,3.34-1.92c.3-.22.43-.76.61-1.09.36-.71-.56-1.85-1.14-2.4-.85-.79-2.76-2-7.11-3.43a90.25,90.25,0,0,0-11.9-2.71l.2,0c10,1.63,17.71,4.14,19.88,6.85,3.08,3.88-6.09,6.92-21.11,7.44Z"/><path class="i" d="M996.9,632.17a39.74,39.74,0,0,1-5-.75c-2.61-.5-6.08-1.25-8.67-1.88a49.58,49.58,0,0,1-6.46-2.29,9.17,9.17,0,0,1-3.57-2.56,2.58,2.58,0,0,1-.06-2.47,7.43,7.43,0,0,1,3.29-2.08,43.2,43.2,0,0,1,6.17-1.56,79.61,79.61,0,0,1,8.6-.94c1.51-.12,3.54-.13,5.06-.19l1.2,0c-14.47.25-23.54,3.05-20.66,6.65,3.16,4,19.6,7.43,36.64,7.72s28.35-2.68,25.19-6.64c-2.09-2.62-10-5-20-6.43,5.94.84,8.78,1.48,10.49,1.87a43.25,43.25,0,0,1,7.34,2.16,36.74,36.74,0,0,1,4.69,2.47,7.61,7.61,0,0,1,1.15,1.31c.48.56.06,1.87-.43,2.42a8.48,8.48,0,0,1-3.71,2c-1.94.53-4.56,1.11-6.54,1.48a41.83,41.83,0,0,1-4.18.51c-3,.21-6.94.54-9.91.47,0,0-1.74-.3-3.59-.67l-.21,0c-.23,0-.55,0-.78,0-.39,0-2.48-.05-5.09-.2-3.29-.18-5.94-.44-6.68-.51-.22,0-.51-.07-.73-.08l-.2,0C998.57,632.08,996.9,632.17,996.9,632.17Z"/><path class="i" d="M1013.5,634.14c.11,0,.25.05.36.07,1.85.39,3.92.77,6.15,1.14-2.51,0-6.71.13-13.16-.27-6-.37-10.44-1-12.58-1.32,2.2-.09,4.23-.21,6.05-.37l.35,0c.21,0,.5,0,.71.07s2.73.28,5.61.46,5.14.22,5.76.24A6.23,6.23,0,0,1,1013.5,634.14Z"/><path class="i" d="M989.59,631.2c2.24.41,4.56.84,8.24,1.29s7,.72,9,.85a140.5,140.5,0,0,0,18.07,0l-.49,0h-.4l-.9.06c-3,.21-6.26.29-9.8.22a131,131,0,0,1-22-2.18Z"/><path d="M1025.55,620l2,.38c9,1.74,15.82,4.17,17.9,6.78,3.86,4.84-9.94,8.48-30.78,8.12s-40.93-4.6-44.8-9.44c-3.06-3.84,5-6.92,18.79-7.86l2-.13c-12.42.84-19.64,3.61-16.89,7.05,3.47,4.35,21.52,8.16,40.24,8.49s31.11-2.95,27.64-7.3C1039.76,623.79,1033.68,621.61,1025.55,620Z"/><path d="M1021.48,630.71l-1.8.08c10.86-.52,17.36-2.82,15.05-5.7-2.75-3.46-17.13-6.49-32-6.75s-24.75,2.35-22,5.8c1.6,2,7.14,3.88,14.41,5.14l-1.76-.3c-8.33-1.45-14.66-3.58-16.5-5.89-3.16-4,8.13-6.94,25.17-6.64s33.48,3.76,36.64,7.72C1041.34,627.48,1033.91,630.1,1021.48,630.71Z"/><path class="i" d="M1017.61,633.44c3-.08,6.95-.12,9.91-.47,1.25-.15,2.94-.28,4.18-.51a51.6,51.6,0,0,0,6.54-1.48,16.31,16.31,0,0,0,3.71-2c.32-.24.47-.81.65-1.17.4-.77-.71-2-1.37-2.56-1-.84-3.16-2.14-8.07-3.6-2.49-.74-5.88-1.43-8.42-2-1.44-.3-3.4-.55-4.86-.78h.14c11.25,1.6,20.08,4.29,22.43,7.23,3.26,4.09-7.18,7.25-23.75,7.48Z"/><path class="i" d="M996.29,617.45c-2.89.11-6.77.18-9.64.57-1.21.17-2.83.31-4,.56a41.59,41.59,0,0,0-6.17,1.56,12.55,12.55,0,0,0-3.29,2.08c-.28.25-.3.83-.42,1.19-.28.91,1.1,2,1.86,2.58.93.69,3.28,2.06,8.65,3.55,2.57.71,6.06,1.38,8.67,1.88,1.48.29,3.48.52,5,.75-.37,0-.73.05-1.1.05-11.46-1.59-20.5-4.31-22.88-7.29-3.23-4,7-7.19,23.23-7.48Z"/><path class="i" d="M993.74,639.6c.46,0,1.06.16,1.51.22s5.34.76,11.24,1.13,10.17.32,11.74.29c.47,0,1.11-.06,1.58,0h.08c.39.06.78.13,1.18.18q-3.51.14-7.41.06a153.11,153.11,0,0,1-21.19-1.82l1.19,0Z"/><path class="i" d="M994,637.66c.45,0,1,.16,1.5.22s5.3.75,11.15,1.12,10.1.32,11.65.29c.47,0,1.1-.06,1.57,0h.08l1.19.19c-2.31.08-4.76.1-7.32,0a155,155,0,0,1-21.1-1.8l1.2,0Z"/><path class="i" d="M1013.81,632.73l.21,0c.75.15,2,.39,3.59.67a153.46,153.46,0,0,1-20.71-1.27c1.23-.07,2.38-.14,3.43-.22l.2,0a6,6,0,0,1,.73.08c.28,0,2.83.28,5.8.46s5.33.23,6,.25C1013.26,632.72,1013.58,632.71,1013.81,632.73Z"/><path class="i" d="M1022.66,639.39h.22c-2.82.14-5.87.19-9.1.13A151.53,151.53,0,0,1,991,637.42l.22,0a143.29,143.29,0,0,0,15.39,1.78A141.45,141.45,0,0,0,1022.66,639.39Z"/><path class="i" d="M991.78,629.69a142.9,142.9,0,0,0,15.26,1.76,140.91,140.91,0,0,0,16,.16l-1.57.08c-2.47.12-5.14.16-8,.11A133.66,133.66,0,0,1,993.33,630Z"/><path class="i" d="M993.17,635.56c.48,0,1.11.17,1.59.24s5.65.85,11.94,1.23c6.48.4,11.2.32,12.49.29.5,0,1.17-.08,1.67-.05h.08l1.2.19c-2.58.1-5.33.14-8.24.09a153.83,153.83,0,0,1-22-2l1.21,0Z"/><path class="i" d="M994.27,633.76c.45,0,1,.15,1.49.22s5.27.74,11.09,1.1,10,.33,11.59.3c.47,0,1.1-.07,1.57,0h.08l1.21.19q-3.45.12-7.28.05a152.82,152.82,0,0,1-21-1.8l1.21,0Z"/><path class="i" d="M1023.28,635.46h.24c-2.93.16-6.11.21-9.5.15a150.65,150.65,0,0,1-23.23-2.16l.23,0a143.9,143.9,0,0,0,15.77,1.84A142.43,142.43,0,0,0,1023.28,635.46Z"/><path class="i" d="M996.9,632.17c.36,0,.85.1,1.21.15s4.29.53,8.92.82,8,.31,9.29.3c.38,0,.9,0,1.29,0h.07l1,.17c-1.47,0-3,0-4.57,0a158.89,158.89,0,0,1-18.33-1.4l1-.05Z"/><path class="i" d="M1025,633.38h.21c-3.34.23-7,.31-11,.25a149,149,0,0,1-24.75-2.46l.21,0c2.24.41,4.56.84,8.24,1.29s7,.72,9,.85A138.49,138.49,0,0,0,1025,633.38Z"/><path d="M1023.59,617.78l1.77.3c10.18,1.77,17.92,4.38,20.17,7.2,3.86,4.84-9.94,8.48-30.78,8.12S973.82,628.8,970,624c-3.22-4.05,5.85-7.25,21.06-8l1.8-.09c-13.63.66-21.78,3.54-18.89,7.16,3.47,4.34,21.48,8.14,40.16,8.47s31.06-2.94,27.59-7.29C1039.66,621.7,1032.72,619.36,1023.59,617.78Z"/><path class="i" d="M1023,631.61h.22c-2.78.14-5.78.19-9,.13a152.85,152.85,0,0,1-22.7-2.07l.22,0a142.9,142.9,0,0,0,15.26,1.76A141.38,141.38,0,0,0,1023,631.61Z"/><path d="M1022.78,641.1l-1.67.07c-2.39.09-4.94.12-7.63.07a149.53,149.53,0,0,1-21-1.83l-1.64-.27a167.34,167.34,0,0,0,23.41,2.05C1017.26,641.24,1020.11,641.21,1022.78,641.1Z"/><path d="M1001.52,615.76c18.67.33,36.69,4.12,40.15,8.46s-8.91,7.61-27.59,7.29-36.69-4.13-40.16-8.47S982.84,615.43,1001.52,615.76Zm12,15.06c17,.29,28.34-2.69,25.18-6.65s-19.6-7.42-36.64-7.72-28.33,2.68-25.17,6.64,19.59,7.43,36.63,7.73"/><path d="M1022.8,639.16l-1.66.06c-2.37.09-4.89.12-7.54.07a148.25,148.25,0,0,1-20.88-1.82h0l-1.64-.26a166.17,166.17,0,0,0,23.31,2C1017.34,639.29,1020.16,639.26,1022.8,639.16Z"/><path d="M1023.81,637.15l-1.75.08c-2.59.12-5.39.15-8.34.1a147.5,147.5,0,0,1-21.69-2h0l-1.72-.29a164.66,164.66,0,0,0,24.19,2.18C1017.79,637.32,1020.91,637.28,1023.81,637.15Z"/><path class="i" d="M1001.35,615.54c19.2.33,37.72,4.23,41.28,8.7s-9.16,7.82-28.37,7.49S976.54,627.49,973,623,982.13,615.2,1001.35,615.54Z"/><path d="M1023,635.25l-1.65.06c-2.35.09-4.85.11-7.48.07A149.06,149.06,0,0,1,993,633.57h0l-1.63-.27a165.28,165.28,0,0,0,23.24,2C1017.56,635.37,1020.35,635.34,1023,635.25Z"/><path d="M1020.28,633.4l-1.34,0c-1.59,0-3.25,0-5,0A153.72,153.72,0,0,1,995.65,632h0l-1.32-.19a168.71,168.71,0,0,0,20.42,1.59C1016.65,633.43,1018.5,633.43,1020.28,633.4Z"/></g><text class="k" transform="translate(971 604.1)">Clie<tspan class="aa" x="46.53" y="0">n</tspan><tspan class="d" x="63.06" y="0">t</tspan></text><line class="ab" x1="666.5" y1="623.5" x2="954.92" y2="621.01"/><polygon class="ac" points="951.64 625.13 950.95 624.4 954.53 621.01 950.89 617.69 951.57 616.95 956 621 951.64 625.13"/><line class="ad" x1="954.5" y1="634.5" x2="668.58" y2="636.49"/><polygon class="ae" points="671.87 632.38 672.56 633.11 668.97 636.49 672.6 639.82 671.93 640.56 667.5 636.5 671.87 632.38"/></svg>