<svg xmlns="http://www.w3.org/2000/svg" viewBox="0 0 1366 768"><defs><style>.a{fill:#dbdbdb;}.b,.i{fill:#fff;}.b,.j{stroke:#000;stroke-miterlimit:10;}.b{stroke-width:2px;}.c,.k{font-size:30px;}.c,.e,.k,.p{font-family:MyriadPro-Regular, Myriad Pro;}.c{letter-spacing:-0.03em;}.d{letter-spacing:0em;}.e{font-size:25px;}.f{letter-spacing:0em;}.g{letter-spacing:-0.01em;}.h{isolation:isolate;}.j{fill:none;}.l{letter-spacing:0.01em;}.m{letter-spacing:0.02em;}.n{letter-spacing:-0.01em;}.o{letter-spacing:0em;}.p{font-size:11px;fill:#3f3f3f;}.q{letter-spacing:0em;}.r{letter-spacing:-0.01em;}</style></defs><rect class="a" width="1366" height="768"/><rect class="b" x="94" y="126" width="279" height="57"/><rect class="b" x="94" y="184" width="279" height="114"/><text class="c" transform="translate(168.1 163.31)">P<tspan class="d" x="15.21" y="0">okemons</tspan></text><text class="e" transform="translate(106.61 218.84)">name</text><text class="e" transform="translate(106.61 263.84)">sp<tspan class="f" x="24.12" y="0">r</tspan><tspan x="32.4" y="0">i</tspan><tspan class="g" x="38.25" y="0">t</tspan><tspan x="46.37" y="0">es</tspan></text><g class="h"><polygon points="694.58 175.69 678.85 192.77 678.92 191.71 694.66 174.63 694.58 175.69"/><polygon points="695.61 176.17 679.87 193.25 678.85 192.77 694.58 175.69 695.61 176.17"/><path d="M707.09,210.17l-15.73,17.08a18,18,0,0,0,4.89-14.78c-1.06-7.78-7.18-15-16.38-19.22l15.74-17.08c9.19,4.27,15.31,11.45,16.37,19.22A17.91,17.91,0,0,1,707.09,210.17Z"/><path d="M694.66,174.63l-15.74,17.08a20,20,0,0,0-.12-4.31C677,173.82,662.12,163,645.74,163.2a30.1,30.1,0,0,0-17.9,5.75l15.73-17.07a30.06,30.06,0,0,1,17.9-5.76c16.38-.23,31.22,10.63,33.07,24.21A20.57,20.57,0,0,1,694.66,174.63Z"/><polygon points="643.57 151.88 627.84 168.95 626.94 169.62 642.68 152.54 643.57 151.88"/><polygon points="642.68 152.54 626.94 169.62 626.01 168.78 641.74 151.71 642.68 152.54"/><path d="M709.31,212.2l-15.74,17.08a27.44,27.44,0,0,1-6,4.86l15.73-17.08A27.45,27.45,0,0,0,709.31,212.2Z"/><path class="i" d="M707.09,210.17l-15.73,17.08a25.47,25.47,0,0,1-6.47,5l15.74-17.07A25.27,25.27,0,0,0,707.09,210.17Z"/><polygon class="i" points="700.63 215.15 684.89 232.22 683.82 232.82 699.55 215.74 700.63 215.15"/><polygon points="700.18 216.93 684.45 234 683.82 232.82 699.55 215.74 700.18 216.93"/><path d="M700,237.11l-15.74,17.07.3-.34c4-4.63,3.93-12.23-.06-19.84l15.73-17.07c4,7.6,4,15.2.07,19.84Z"/><path class="i" d="M684.21,254.18a11.36,11.36,0,0,1-1.76,1.56l1.84-2,2-2.12,2-2.19,2.06-2.24,7.86-8.53a11.91,11.91,0,0,0,1.77-1.56Z"/><path class="i" d="M679.17,257.44l15.74-17.08a12.66,12.66,0,0,0,3.27-1.69l-15.73,17.07A12.75,12.75,0,0,1,679.17,257.44Z"/><path d="M641.74,151.71,626,168.78A36.27,36.27,0,0,0,601.64,160c-8.46.12-16.13,3.25-21.06,8.58l15.74-17.07c4.93-5.33,12.6-8.46,21.06-8.59A36.21,36.21,0,0,1,641.74,151.71Z"/><polygon points="596.32 151.46 580.58 168.53 580.11 169.04 595.84 151.97 596.32 151.46"/><polygon points="595.84 151.97 580.11 169.04 579.37 168.9 595.1 151.83 595.84 151.97"/><path class="i" d="M654.85,251l.63-.68.67-.73.69-.75.71-.77.7-.76.69-.75.67-.73.63-.68,2.49-2.7,1.33-1.44,1.35-1.47,1.36-1.47,1.33-1.44,1.28-1.39,1.21-1.32a32.71,32.71,0,0,0,16.09,7.13,22.8,22.8,0,0,0,2.93.16,16.81,16.81,0,0,0,5.3-.89l-15.74,17.08a16.47,16.47,0,0,1-5.29.88,21,21,0,0,1-2.93-.16A32.72,32.72,0,0,1,654.85,251Z"/><path class="i" d="M653.46,249.89c-.31-.26-.6-.53-.89-.8L668.3,232l.89.79c.46.4.93.78,1.4,1.15L654.85,251C654.38,250.67,653.92,250.28,653.46,249.89Z"/><polygon class="i" points="668.3 232.02 652.57 249.09 650.86 247.52 666.6 230.44 668.3 232.02"/><polygon class="i" points="626.14 209.37 610.41 226.44 607.82 207.44 623.56 190.36 626.14 209.37"/><polygon points="623.69 209.4 607.96 226.48 605.37 207.47 621.1 190.4 623.69 209.4"/><polygon class="i" points="623.56 190.36 607.82 207.44 605.37 207.47 621.1 190.4 623.56 190.36"/><polygon points="666.03 232.47 650.3 249.55 650.86 247.52 666.6 230.44 666.03 232.47"/><path d="M702.15,239.15l-15.73,17.07c-2.91,3.15-7.13,4.86-12.15,4.93A25.26,25.26,0,0,1,671,261a36.39,36.39,0,0,1-18.5-8.45l15.74-17.08a36.34,36.34,0,0,0,18.49,8.46,25.21,25.21,0,0,0,3.32.17C695,244,699.25,242.3,702.15,239.15Z"/><path class="i" d="M602.8,212.93a5.82,5.82,0,0,0-2.21-4l15.74-17.07a5.86,5.86,0,0,1,2.21,4Z"/><path class="i" d="M602.8,212.94h0q3.94-4.26,7.87-8.54l7.87-8.53h0Z"/><path class="i" d="M601.89,217a5.07,5.07,0,0,0,.91-4.07l1.84-2,2-2.11,2-2.2,2.06-2.23,2.06-2.24,2-2.19,3.79-4.11a5.12,5.12,0,0,1-.91,4.08Z"/><path class="i" d="M601.89,217c.26-.3.63-.68.9-1l14.84-16.09-.21.25-15.74,17.07Z"/><path class="i" d="M595.05,207.49a27.19,27.19,0,0,0-4.66.43l15.73-17.08a27.33,27.33,0,0,1,4.67-.43l-15.73,17.07,15.73-17.07a8.63,8.63,0,0,1,5.54,1.5L600.59,209A8.53,8.53,0,0,0,595.05,207.49Z"/><path d="M615.36,198.91,599.62,216a3.44,3.44,0,0,0,.74-2.91c-.34-2.5-2.28-3.69-5-3.65a10,10,0,0,0-2.28.23l15.73-17.08a10.4,10.4,0,0,1,2.29-.22c2.7,0,4.65,1.14,5,3.64A3.42,3.42,0,0,1,615.36,198.91Z"/><path d="M595.1,151.83,579.37,168.9a37.43,37.43,0,0,0-7.79-.73,30.27,30.27,0,0,0-17.77,5.65l15.74-17.07a30.18,30.18,0,0,1,17.77-5.65A36,36,0,0,1,595.1,151.83Z"/><polygon points="569.55 156.75 553.81 173.82 553 174.42 568.74 157.34 569.55 156.75"/><polygon points="568.74 157.34 553 174.42 552.1 173.75 567.83 156.67 568.74 157.34"/><polygon points="626.14 209.37 610.41 226.44 607.96 226.48 623.69 209.4 626.14 209.37"/><polygon points="623.56 190.36 626.14 209.37 623.69 209.4 621.1 190.4 623.56 190.36"/><path d="M659.64,244.09l-15.73,17.08a28.23,28.23,0,0,0,6.39-11.62L666,232.48A28.19,28.19,0,0,1,659.64,244.09Z"/><path class="i" d="M599.62,216a4.64,4.64,0,0,1-3.47,1.23l1.84-2,2-2.11,2-2.2,2.06-2.23,2.06-2.23,2-2.2,1.95-2.11,1.84-2a4.67,4.67,0,0,0,3.47-1.22Z"/><polygon class="i" points="611.14 209.59 595.4 226.66 594.37 219.05 610.1 201.97 611.14 209.59"/><path class="i" d="M594.49,217.12l3.59-3.89,12.15-13.18a10.41,10.41,0,0,0,1.66.08h0l-15.74,17.08h0A9.32,9.32,0,0,1,594.49,217.12Z"/><polygon class="i" points="609.83 199.97 594.09 217.04 593.09 209.66 608.82 192.59 609.83 199.97"/><path d="M617.42,200.19l-15.74,17.07a7.26,7.26,0,0,1-5.32,1.93,9.46,9.46,0,0,1-2-.14L610.1,202a9,9,0,0,0,2,.14A7.32,7.32,0,0,0,617.42,200.19Z"/><polygon points="608.68 209.62 592.95 226.7 590.39 207.92 606.13 190.84 608.68 209.62"/><path class="i" d="M594.49,217.12l-.4-.08L609.83,200l.4.08Z"/><path class="i" d="M611.11,192.36c2.7,0,4.65,1.14,5,3.64s-1.25,4.09-4.21,4.13a8.27,8.27,0,0,1-2.06-.16l-1-7.39A10.4,10.4,0,0,1,611.11,192.36Z"/><polygon class="i" points="596.81 190.75 581.07 207.82 578.11 207.87 593.85 190.79 596.81 190.75"/><polygon class="i" points="605.89 209.66 590.15 226.74 581.07 207.82 596.81 190.75 605.89 209.66"/><polygon points="595.58 192.95 579.85 210.02 579.79 210.02 595.53 192.95 595.58 192.95"/><polygon points="599.65 201.84 583.91 218.91 581.31 213.47 597.04 196.4 599.65 201.84"/><polygon class="i" points="593.92 201.92 578.18 219 579.3 213.48 595.03 196.4 593.92 201.92"/><path d="M597,196.4l-15.73,17.07c-.59-1.23-1-2.35-1.46-3.45L595.58,193C596,194,596.45,195.16,597,196.4Z"/><path class="i" d="M579.3,213.48c.21-1.17.36-2.33.49-3.46L595.53,193h0l-15.66,17,15.66-17c-.14,1.13-.28,2.29-.5,3.44Z"/><polygon points="611.14 209.59 595.4 226.66 592.95 226.7 608.68 209.62 611.14 209.59"/><path d="M616.33,191.91a5.86,5.86,0,0,1,2.21,4,5.12,5.12,0,0,1-.91,4.08c-1.11,1.4-3.13,2.14-5.53,2.17a9,9,0,0,1-2-.14l1,7.62-2.46,0-2.56-18.78a27.33,27.33,0,0,1,4.67-.43A8.63,8.63,0,0,1,616.33,191.91Zm-4.44,8.22c3,0,4.56-1.5,4.21-4.13s-2.29-3.68-5-3.64a10.4,10.4,0,0,0-2.29.22l1,7.39a8.27,8.27,0,0,0,2.06.16"/><polygon points="605.89 209.66 590.15 226.74 587.53 226.77 603.26 209.7 605.89 209.66"/><polygon points="603.26 209.7 587.53 226.77 584.68 220.82 600.42 203.75 603.26 209.7"/><polygon class="i" points="599.65 201.84 583.91 218.91 578.18 219 593.92 201.92 599.65 201.84"/><path class="i" d="M595.58,193c.44,1.09.87,2.21,1.46,3.45l2.61,5.44-5.73.08L595,196.4c.22-1.16.36-2.32.5-3.45Z"/><polygon points="600.42 203.75 584.68 220.82 577.94 220.92 593.67 203.85 600.42 203.75"/><path d="M523.38,174.82l15.74-17.07a19.05,19.05,0,0,1,14-6.15,23.87,23.87,0,0,1,14.74,5.07L552.1,173.75a23.91,23.91,0,0,0-14.75-5.08A19.09,19.09,0,0,0,523.38,174.82Z"/><path d="M521.2,172.77l15.73-17.07-.44.49-15.73,17.07C520.9,173.09,521.05,172.93,521.2,172.77Z"/><polygon class="i" points="537.77 159.34 522.04 176.42 522.55 175.79 538.28 158.72 537.77 159.34"/><polygon points="537.77 159.34 522.04 176.42 521.18 176.19 536.92 159.12 537.77 159.34"/><path class="i" d="M523.38,174.82l15.74-17.07c-.29.31-.57.63-.84,1l-15.73,17.07C522.82,175.46,523.1,175.14,523.38,174.82Z"/><polygon class="i" points="592.51 209.86 576.78 226.93 577.94 220.92 593.67 203.85 592.51 209.86"/><polygon points="589.98 209.89 574.24 226.97 578.11 207.87 593.85 190.79 589.98 209.89"/><path d="M596.81,190.75l9.08,18.91-2.62,0-2.85-5.95-6.75.1-1.16,6-2.53,0,3.87-19.1Zm-2.89,11.17,5.73-.08L597,196.4c-.59-1.24-1-2.36-1.46-3.45h-.05c-.14,1.13-.28,2.29-.5,3.45l-1.11,5.52"/><polygon points="592.51 209.86 576.78 226.93 574.24 226.97 589.98 209.89 592.51 209.86"/><polygon class="i" points="611.67 237.69 595.94 254.76 594.56 252.91 610.29 235.84 611.67 237.69"/><path class="i" d="M598.1,257.43q-1.12-1.28-2.16-2.67l15.73-17.07c.69.93,1.42,1.81,2.17,2.66Z"/><path class="i" d="M598.1,257.43l15.74-17.08c7,7.91,16.6,12.46,26.29,12.32a26.79,26.79,0,0,0,19.52-8.58l-15.74,17.08a26.73,26.73,0,0,1-19.52,8.57C614.71,269.88,605.1,265.33,598.1,257.43Z"/><polygon points="609.29 237.64 593.56 254.71 594.56 252.91 610.29 235.84 609.29 237.64"/><path d="M661.85,246.13,646.12,263.2a29.3,29.3,0,0,1-21.34,9.36c-11.06.16-22-5.26-29.72-14.59L610.8,240.9c7.69,9.33,18.66,14.74,29.71,14.58A29.24,29.24,0,0,0,661.85,246.13Z"/><path d="M606.33,241.72,590.6,258.79a21.45,21.45,0,0,0,3-4.08l15.73-17.07A21.33,21.33,0,0,1,606.33,241.72Z"/><path class="i" d="M590.6,258.79l-.06.07,1.83-2,2-2.11,2-2.2,2.06-2.23,2.06-2.23,2-2.2,1.95-2.11,1.84-2,.06-.07Z"/><path d="M496.78,182.55l15.73-17.07a23.14,23.14,0,0,1,16.92-7.31,27.15,27.15,0,0,1,7.49,1l-15.73,17.07a28.06,28.06,0,0,0-7.5-.95A23.12,23.12,0,0,0,496.78,182.55Z"/><path class="i" d="M569.51,267.42a36.53,36.53,0,0,1-22-6.94l15.74-17.07a36.43,36.43,0,0,0,22,6.93c8.51-.12,16.14-3.31,21-8.56q-7.86,8.55-15.73,17.08C585.66,264.11,578,267.3,569.51,267.42Z"/><polygon class="i" points="563.24 243.41 547.5 260.48 546.81 259.98 562.55 242.9 563.24 243.41"/><path class="i" d="M491.05,201.81a23.37,23.37,0,0,1,5.72-19.25l15.74-17.08a23.36,23.36,0,0,0-5.73,19.26,28.62,28.62,0,0,0,3.32,9.94l-15.74,17.08A28.65,28.65,0,0,1,491.05,201.81Z"/><polygon class="i" points="562.55 242.9 546.81 259.98 546.09 260.27 561.83 243.19 562.55 242.9"/><polygon class="i" points="521.16 206.24 505.43 223.31 504.15 222.45 519.89 205.38 521.16 206.24"/><path class="i" d="M494.36,211.76l15.74-17.08a31.13,31.13,0,0,0,9.79,10.7l-15.74,17.07A31.3,31.3,0,0,1,494.36,211.76Z"/><path d="M608.55,243.74l-15.74,17.07c-5.33,5.79-13.65,9.29-22.91,9.43a39.63,39.63,0,0,1-23.21-7.07l15.73-17.07a39.71,39.71,0,0,0,23.21,7.06C594.89,253,603.22,249.52,608.55,243.74Z"/><polygon class="i" points="520.4 207.38 504.66 224.45 505.43 223.31 521.16 206.24 520.4 207.38"/><path d="M494.58,180.52l15.73-17.07A25.88,25.88,0,0,0,504,184.78a33.19,33.19,0,0,0,13.29,22l-15.73,17.08a33.16,33.16,0,0,1-13.29-22A25.89,25.89,0,0,1,494.58,180.52Z"/><path class="i" d="M516.54,258.07l2.57-2.79L532.28,241a36.8,36.8,0,0,0,18,4.4,32.49,32.49,0,0,0,11.54-2.2l-15.73,17.08a32.77,32.77,0,0,1-11.55,2.2A37,37,0,0,1,516.54,258.07Z"/><path class="i" d="M501.47,238.27a19.75,19.75,0,0,1,3.19-13.82l15.74-17.07a19.68,19.68,0,0,0-3.19,13.82c1.12,8.21,7,15.43,15.07,19.79l-15.74,17.08C508.46,253.7,502.59,246.48,501.47,238.27Z"/><path class="i" d="M712,195.39c1.07,7.87-3.17,15.26-11.35,19.76l-1.07.59.62,1.19c4,7.6,4,15.2.07,19.84-2.45,2.87-6.16,4.41-10.64,4.48a22.8,22.8,0,0,1-2.93-.16c-5.93-.7-12.14-3.64-17.49-8.28l-.89-.79-1.7-1.58-.57,2c-3.37,12.08-13.54,20-25.9,20.19-10.73.15-21.36-5.45-28.46-15l-1.38-1.85-1,1.8c-4.27,7.68-13.48,12.55-24,12.7a36.43,36.43,0,0,1-22-6.93l-.69-.51-.73.29a32.49,32.49,0,0,1-11.54,2.2c-16.39.24-31.22-10.61-33.07-24.19a19.68,19.68,0,0,1,3.19-13.82l.76-1.14-1.27-.86a30.15,30.15,0,0,1-13.11-20.64c-2-14.44,8.19-26.36,22.65-26.57a27.15,27.15,0,0,1,7.49,1l.85.23.51-.63a19.05,19.05,0,0,1,14.81-7.12,23.89,23.89,0,0,1,14.74,5.07l.91.67.81-.59a30.18,30.18,0,0,1,17.77-5.65,36,36,0,0,1,7.78.73l.74.14.48-.51c4.93-5.33,12.6-8.46,21.06-8.59a36.21,36.21,0,0,1,24.36,8.84l.94.83.89-.66a30.06,30.06,0,0,1,17.9-5.76c16.38-.23,31.22,10.63,33.07,24.21a20.57,20.57,0,0,1,.12,4.3l-.08,1.06,1,.48C704.8,180.44,710.92,187.62,712,195.39ZM603.27,209.7l2.62,0-9.08-18.91-3,0L590,209.89l2.54,0,1.15-6,6.75-.1,2.85,5.95m14.36-9.76a5.12,5.12,0,0,0,.91-4.08,5.86,5.86,0,0,0-2.21-4,8.63,8.63,0,0,0-5.54-1.5,27.33,27.33,0,0,0-4.67.43l2.56,18.78,2.46,0-1-7.62a9,9,0,0,0,2,.14c2.4,0,4.42-.77,5.53-2.17m8.52,9.43-2.59-19-2.46,0,2.59,19,2.46,0"/><path d="M562.42,246.1l-15.73,17.07a35.33,35.33,0,0,1-11.76,2.12c-17.95.26-34.21-11.84-36.27-27a22.19,22.19,0,0,1,2.86-14.47l15.73-17.08a22.28,22.28,0,0,0-2.86,14.48c2.06,15.14,18.33,27.24,36.27,27A35.24,35.24,0,0,0,562.42,246.1Z"/><path d="M714.81,195.35C716,204,711.68,212,703.27,217.06c3.94,8.26,3.69,16.47-.75,21.67-2.92,3.42-7.28,5.27-12.52,5.34a25.21,25.21,0,0,1-3.32-.17,36.34,36.34,0,0,1-18.49-8.46,29.23,29.23,0,0,1-27.68,20c-11,.16-22-5.25-29.71-14.58-5,7.46-14.48,12.11-25.17,12.26a39.71,39.71,0,0,1-23.21-7.06,35.24,35.24,0,0,1-11.76,2.12c-17.94.26-34.21-11.84-36.27-27a22.28,22.28,0,0,1,2.86-14.48,33.19,33.19,0,0,1-13.29-22c-2.18-16,9.08-29.19,25.08-29.43a30.1,30.1,0,0,1,7.45.84,21.5,21.5,0,0,1,16.21-7.41,26.75,26.75,0,0,1,15.77,5.06,33.06,33.06,0,0,1,18.46-5.56,39.62,39.62,0,0,1,7.66.64c5.39-5.51,13.51-8.73,22.4-8.86a39.54,39.54,0,0,1,25.58,8.86,32.86,32.86,0,0,1,18.52-5.61c17.93-.26,34.21,11.84,36.27,27a24.52,24.52,0,0,1,.2,3.84C707.22,178.93,713.64,186.79,714.81,195.35Zm-14.18,19.8c8.18-4.5,12.42-11.89,11.35-19.76s-7.18-14.95-16.37-19.22l-1-.48.08-1.06a20.57,20.57,0,0,0-.12-4.3c-1.85-13.58-16.69-24.44-33.07-24.21a30.06,30.06,0,0,0-17.9,5.76l-.89.66-.94-.83a36.21,36.21,0,0,0-24.36-8.84c-8.46.13-16.13,3.26-21.06,8.59l-.48.51-.74-.14a36,36,0,0,0-7.78-.73,30.18,30.18,0,0,0-17.77,5.65l-.81.59-.91-.67a23.87,23.87,0,0,0-14.74-5.07,19.05,19.05,0,0,0-14.81,7.12l-.51.63-.85-.23a27.15,27.15,0,0,0-7.49-1c-14.46.21-24.62,12.13-22.65,26.57a30.17,30.17,0,0,0,13.11,20.64l1.27.86-.76,1.14a19.69,19.69,0,0,0-3.19,13.82c1.85,13.58,16.68,24.43,33.07,24.19a32.49,32.49,0,0,0,11.54-2.2l.73-.29.69.51a36.43,36.43,0,0,0,22,6.93c10.56-.15,19.77-5,24-12.7l1-1.8,1.38,1.85c7.1,9.53,17.73,15.13,28.46,15,12.36-.18,22.53-8.11,25.9-20.19l.57-2,1.7,1.58.89.79c5.35,4.64,11.56,7.58,17.49,8.28a22.8,22.8,0,0,0,2.93.16c4.48-.07,8.19-1.61,10.64-4.48,4-4.64,3.93-12.24-.07-19.84l-.63-1.19,1.08-.59"/></g><line class="j" x1="374" y1="214.5" x2="505" y2="214.5"/><line class="j" x1="456.5" y1="220.5" x2="462.5" y2="214.5"/><line class="j" x1="456.5" y1="208.5" x2="462.5" y2="214.5"/><line class="j" x1="596.5" y1="251" x2="596.5" y2="533"/><line class="j" x1="590.5" y1="428.6" x2="596.5" y2="441.51"/><line class="j" x1="602.5" y1="428.6" x2="596.5" y2="441.51"/><text class="k" transform="translate(553.84 677.85)"><tspan class="l">S</tspan><tspan x="14.97" y="0">e</tspan><tspan class="m" x="30" y="0">r</tspan><tspan class="n" x="40.56" y="0">v</tspan><tspan x="54.69" y="0">er</tspan></text><g class="h"><polygon points="646.08 558.13 624.26 560.33 624.2 536.07 646.02 533.87 646.08 558.13"/><path class="i" d="M616.72,544.81c0-3.16-2.34-5.78-5.18-5.84l21.82-2.2c2.84.06,5.17,2.68,5.18,5.84Z"/><path class="i" d="M612.13,550.42a5.41,5.41,0,0,0,4.59-5.61l21.82-2.2a5.4,5.4,0,0,1-4.59,5.61Z"/><path d="M633.75,546.23l-21.82,2.2a3.51,3.51,0,0,0,3-3.65,3.66,3.66,0,0,0-3.37-3.81,2.29,2.29,0,0,0-.37,0l21.82-2.2a2.32,2.32,0,0,1,.37,0,3.67,3.67,0,0,1,3.37,3.81A3.51,3.51,0,0,1,633.75,546.23Z"/><path class="i" d="M608.18,544.64a3.53,3.53,0,0,1,3-3.66l21.82-2.2a3.54,3.54,0,0,0-3,3.66l-21.82,2.2,21.82-2.2a3.68,3.68,0,0,0,3.38,3.81l-21.82,2.2,21.82-2.2.37,0-21.82,2.2-.37,0A3.69,3.69,0,0,1,608.18,544.64Z"/><path d="M634,548.22l-21.82,2.2a3.58,3.58,0,0,1-.57,0c-2.85-.06-5.17-2.68-5.18-5.84A5.42,5.42,0,0,1,611,539l21.82-2.2a5.4,5.4,0,0,0-4.58,5.61,5.63,5.63,0,0,0,5.18,5.84A3.46,3.46,0,0,0,634,548.22Z"/><path class="i" d="M611.54,539a5.43,5.43,0,0,0-.57,0l21.82-2.2a5.43,5.43,0,0,1,.57,0l-10.91,1.1-8.36.84C613.32,538.79,612.31,538.94,611.54,539Z"/><polygon points="646.02 533.87 624.2 536.07 538.73 534.29 560.56 532.09 646.02 533.87"/><polygon class="i" points="646.08 558.13 624.26 560.33 538.79 558.55 560.61 556.35 646.08 558.13"/><polygon class="i" points="560.61 556.35 538.79 558.55 538.73 534.29 560.56 532.09 560.61 556.35"/><path d="M558.75,530.05l89.07,1.85.06,28.28-89.07-1.86v-1.57Zm87.33,28.08L646,533.87l-85.47-1.78.05,24.26,85.47,1.78"/><path class="i" d="M633.36,538.77a3.67,3.67,0,0,1,3.37,3.81,3.47,3.47,0,0,1-3.35,3.67,3.68,3.68,0,0,1-3.38-3.81A3.48,3.48,0,0,1,633.36,538.77Z"/><path class="i" d="M560.56,532.09,646,533.87l.05,24.26-85.47-1.78Zm72.83,16.15a5.33,5.33,0,0,0,5.15-5.63c0-3.16-2.34-5.78-5.18-5.84s-5.16,2.46-5.15,5.63a5.63,5.63,0,0,0,5.18,5.84"/><path d="M633.36,536.77c2.84.06,5.17,2.68,5.18,5.84a5.33,5.33,0,0,1-5.15,5.63,5.63,5.63,0,0,1-5.18-5.84C628.2,539.23,630.51,536.71,633.36,536.77Zm0,9.48a3.47,3.47,0,0,0,3.35-3.67,3.67,3.67,0,0,0-3.37-3.81,3.48,3.48,0,0,0-3.36,3.67,3.69,3.69,0,0,0,3.38,3.81"/><polygon points="558.81 556.75 536.99 558.95 536.92 532.25 558.75 530.05 558.81 556.75"/><polygon points="558.81 558.32 536.99 560.52 536.99 558.95 558.81 556.75 558.81 558.32"/><polygon points="647.88 560.18 626.06 562.38 536.99 560.52 558.81 558.32 647.88 560.18"/></g><g class="h"><polygon points="646.14 584.83 624.32 587.03 624.26 562.76 646.09 560.56 646.14 584.83"/><path class="i" d="M616.78,571.51c0-3.16-2.34-5.78-5.18-5.84l21.82-2.2c2.84.06,5.17,2.68,5.18,5.84Z"/><path class="i" d="M612.19,577.12a5.4,5.4,0,0,0,4.59-5.61l21.82-2.2a5.4,5.4,0,0,1-4.59,5.61Z"/><path d="M633.81,572.93,612,575.13a3.51,3.51,0,0,0,3-3.65,3.66,3.66,0,0,0-3.37-3.81,2.32,2.32,0,0,0-.37,0l21.83-2.2a2.26,2.26,0,0,1,.37,0,3.67,3.67,0,0,1,3.37,3.81A3.53,3.53,0,0,1,633.81,572.93Z"/><path class="i" d="M608.24,571.34a3.53,3.53,0,0,1,3-3.66l21.83-2.2a3.52,3.52,0,0,0-3,3.66l-21.82,2.2,21.82-2.2a3.67,3.67,0,0,0,3.37,3.81l-21.82,2.19L633.44,573l.37,0L612,575.13l-.37,0A3.69,3.69,0,0,1,608.24,571.34Z"/><path d="M634,574.92l-21.82,2.2a5.15,5.15,0,0,1-.56,0,5.63,5.63,0,0,1-5.18-5.84,5.4,5.4,0,0,1,4.58-5.61l21.83-2.2a5.4,5.4,0,0,0-4.59,5.61c0,3.16,2.33,5.78,5.18,5.84A3.46,3.46,0,0,0,634,574.92Z"/><path class="i" d="M611.6,565.67a5.43,5.43,0,0,0-.57,0l21.83-2.2a5.15,5.15,0,0,1,.56,0l-10.91,1.1-4.27.43-2.76.28-2.63.26C612.48,565.58,612,565.65,611.6,565.67Z"/><path class="i" d="M633.43,565.47a3.67,3.67,0,0,1,3.37,3.81,3.49,3.49,0,0,1-3.36,3.67,3.67,3.67,0,0,1-3.37-3.81A3.46,3.46,0,0,1,633.43,565.47Z"/><path d="M633.42,563.47c2.84.06,5.17,2.68,5.18,5.84a5.33,5.33,0,0,1-5.15,5.63c-2.85-.06-5.17-2.68-5.18-5.84S630.57,563.41,633.42,563.47Zm0,9.48a3.49,3.49,0,0,0,3.36-3.67,3.67,3.67,0,0,0-3.37-3.81,3.46,3.46,0,0,0-3.36,3.67,3.67,3.67,0,0,0,3.37,3.81"/><polygon points="646.09 560.56 624.26 562.76 538.8 560.98 560.62 558.78 646.09 560.56"/><path class="i" d="M560.62,558.78l85.47,1.78,0,24.27-85.47-1.78Zm72.83,16.16a5.33,5.33,0,0,0,5.15-5.63c0-3.16-2.34-5.78-5.18-5.84s-5.16,2.46-5.15,5.63,2.33,5.78,5.18,5.84"/><polygon class="i" points="646.14 584.83 624.32 587.03 538.85 585.25 560.67 583.05 646.14 584.83"/><polygon class="i" points="560.67 583.05 538.85 585.25 538.8 560.98 560.62 558.78 560.67 583.05"/><polygon points="558.87 583.45 537.05 585.64 536.99 560.52 558.81 558.32 558.87 583.45"/><polygon points="558.87 585.01 537.05 587.21 537.05 585.64 558.87 583.45 558.87 585.01"/><polygon points="647.95 586.87 626.12 589.07 537.05 587.21 558.87 585.01 647.95 586.87"/><path d="M558.81,558.32l89.07,1.86.07,26.69L558.87,585v-1.56Zm87.33,26.51,0-24.27-85.47-1.78,0,24.27,85.47,1.78"/></g><g class="h"><polygon points="646.21 611.53 624.38 613.73 624.33 589.46 646.15 587.26 646.21 611.53"/><path class="i" d="M616.84,598.21c0-3.16-2.34-5.78-5.18-5.84l21.82-2.2a5.63,5.63,0,0,1,5.18,5.84Z"/><path class="i" d="M612.25,603.82a5.41,5.41,0,0,0,4.59-5.61l21.82-2.2a5.4,5.4,0,0,1-4.58,5.61Z"/><path d="M633.87,599.63l-21.82,2.2a3.53,3.53,0,0,0,3-3.66,3.67,3.67,0,0,0-3.37-3.8,2.26,2.26,0,0,0-.37,0l21.82-2.2a2.26,2.26,0,0,1,.37,0,3.67,3.67,0,0,1,3.37,3.81A3.52,3.52,0,0,1,633.87,599.63Z"/><path class="i" d="M608.31,598a3.51,3.51,0,0,1,3-3.65l21.82-2.2a3.51,3.51,0,0,0-3,3.66L608.31,598l21.82-2.19a3.67,3.67,0,0,0,3.38,3.81l-21.82,2.19,21.82-2.19.36,0-21.82,2.2a2.26,2.26,0,0,1-.37,0A3.66,3.66,0,0,1,608.31,598Z"/><path d="M634.08,601.62l-21.83,2.2a5.15,5.15,0,0,1-.56,0c-2.85-.06-5.17-2.68-5.18-5.84a5.4,5.4,0,0,1,4.58-5.61l21.83-2.2a5.4,5.4,0,0,0-4.59,5.61c0,3.16,2.33,5.78,5.18,5.84A5.43,5.43,0,0,0,634.08,601.62Z"/><path class="i" d="M611.66,592.37a5.43,5.43,0,0,0-.57,0l21.83-2.2a5.15,5.15,0,0,1,.56,0l-10.91,1.1-5.66.57-2.7.27C613.45,592.19,612.43,592.34,611.66,592.37Z"/><path class="i" d="M633.49,592.17a3.67,3.67,0,0,1,3.37,3.81,3.49,3.49,0,0,1-3.35,3.67,3.67,3.67,0,0,1-3.38-3.81A3.47,3.47,0,0,1,633.49,592.17Z"/><polygon points="646.15 587.26 624.33 589.46 538.86 587.68 560.68 585.48 646.15 587.26"/><path class="i" d="M560.68,585.48l85.47,1.78.06,24.27-85.47-1.78Zm72.83,16.16a5.33,5.33,0,0,0,5.15-5.63,5.63,5.63,0,0,0-5.18-5.84c-2.85-.06-5.16,2.46-5.15,5.63s2.33,5.78,5.18,5.84"/><polygon class="i" points="646.21 611.53 624.38 613.73 538.91 611.95 560.74 609.75 646.21 611.53"/><polygon class="i" points="560.74 609.75 538.91 611.95 538.86 587.68 560.68 585.48 560.74 609.75"/><path d="M558.87,585,648,586.87l.06,26.7-89.07-1.86v-1.56Zm87.34,26.52-.06-24.27-85.47-1.78.06,24.27,85.47,1.78"/><path d="M633.51,601.64a5.33,5.33,0,0,0,5.15-5.63,5.63,5.63,0,0,0-5.18-5.84c-2.85-.06-5.16,2.46-5.15,5.63S630.66,601.58,633.51,601.64Zm0-9.47a3.67,3.67,0,0,1,3.37,3.81,3.49,3.49,0,0,1-3.35,3.67,3.67,3.67,0,0,1-3.38-3.81,3.47,3.47,0,0,1,3.36-3.67"/><polygon points="558.93 610.14 537.11 612.35 537.05 587.21 558.87 585.01 558.93 610.14"/><polygon points="558.94 611.71 537.11 613.91 537.11 612.35 558.93 610.14 558.94 611.71"/><polygon points="648.01 613.57 626.19 615.76 537.11 613.91 558.94 611.71 648.01 613.57"/></g><g class="h"><polygon points="646.27 638.23 624.45 640.43 624.39 616.16 646.21 613.96 646.27 638.23"/><path class="i" d="M616.9,624.91a5.63,5.63,0,0,0-5.18-5.84l21.83-2.2c2.84.06,5.17,2.68,5.18,5.84Z"/><path class="i" d="M612.32,630.52a5.41,5.41,0,0,0,4.58-5.61l21.83-2.2a5.42,5.42,0,0,1-4.59,5.61Z"/><path d="M633.94,626.33l-21.83,2.2a3.53,3.53,0,0,0,3-3.66,3.69,3.69,0,0,0-3.37-3.81l-.37,0,21.82-2.2a2.29,2.29,0,0,1,.37,0,3.66,3.66,0,0,1,3.37,3.8A3.52,3.52,0,0,1,633.94,626.33Z"/><path class="i" d="M608.37,624.73a3.51,3.51,0,0,1,3-3.65l21.82-2.2a3.52,3.52,0,0,0-3,3.65,3.67,3.67,0,0,0,3.38,3.81l-21.82,2.2,21.82-2.2a2.29,2.29,0,0,0,.37,0l-21.83,2.2a2.17,2.17,0,0,1-.36,0A3.66,3.66,0,0,1,608.37,624.73Z"/><path d="M634.14,628.32l-21.82,2.2a5.43,5.43,0,0,1-.57,0c-2.85-.06-5.17-2.68-5.18-5.84a5.4,5.4,0,0,1,4.59-5.61l21.82-2.2a5.42,5.42,0,0,0-4.59,5.61c0,3.16,2.33,5.78,5.18,5.84A5.43,5.43,0,0,0,634.14,628.32Z"/><path class="i" d="M611.72,619.07a3.46,3.46,0,0,0-.56,0l21.82-2.2a5.43,5.43,0,0,1,.57,0L622.64,618l-2.86.29-1.41.14-2.76.28-2.63.26C612.6,619,612.1,619.05,611.72,619.07Z"/><polygon points="646.21 613.96 624.39 616.16 538.92 614.38 560.74 612.18 646.21 613.96"/><polygon class="i" points="646.27 638.23 624.45 640.43 538.98 638.65 560.8 636.45 646.27 638.23"/><polygon class="i" points="560.8 636.45 538.98 638.65 538.92 614.38 560.74 612.18 560.8 636.45"/><path d="M558.94,611.71,648,613.57l.06,26.7L559,638.41Zm87.33,26.52L646.21,614l-85.47-1.78.06,24.27,85.47,1.78"/><path class="i" d="M560.74,612.18,646.21,614l.06,24.27-85.47-1.78Zm72.83,16.16c2.85.06,5.16-2.46,5.16-5.63s-2.34-5.78-5.18-5.84-5.16,2.46-5.16,5.63,2.33,5.78,5.18,5.84"/><path class="i" d="M633.55,618.87a3.66,3.66,0,0,1,3.37,3.8,3.47,3.47,0,0,1-3.35,3.67,3.67,3.67,0,0,1-3.38-3.81A3.47,3.47,0,0,1,633.55,618.87Z"/><path d="M633.55,616.87c2.84.06,5.17,2.68,5.18,5.84s-2.31,5.69-5.16,5.63-5.17-2.68-5.18-5.84S630.7,616.81,633.55,616.87Zm0,9.47a3.47,3.47,0,0,0,3.35-3.67,3.66,3.66,0,0,0-3.37-3.8,3.47,3.47,0,0,0-3.36,3.66,3.67,3.67,0,0,0,3.38,3.81"/><polygon points="559 638.41 537.18 640.61 537.11 613.91 558.94 611.71 559 638.41"/><polygon points="648.07 640.27 626.25 642.47 537.18 640.61 559 638.41 648.07 640.27"/></g><g class="h"><path d="M983,350.59l1.64.27a134.86,134.86,0,0,0-19.14-1.68c-2.45,0-4.77,0-7,.07h0l1.67-.06q2.87-.12,6.08-.06A117.32,117.32,0,0,1,983,350.59Z"/><path d="M983,348.62l1.64.27a135.68,135.68,0,0,0-19.06-1.66c-2.42,0-4.72,0-6.88.06l1.66-.06c1.89-.07,3.9-.09,6-.06A120.58,120.58,0,0,1,983,348.62Z"/><path d="M981.31,342.48l1.31.18a139.38,139.38,0,0,0-16.65-1.3c-1.56,0-3.07,0-4.52,0h0l1.34,0c1.27,0,2.59,0,4,0A120.45,120.45,0,0,1,981.31,342.48Z"/><path d="M983.8,346.76l1.71.29a135.23,135.23,0,0,0-19.8-1.78c-2.69,0-5.25,0-7.62.1h0l1.74-.08c2.08-.1,4.31-.13,6.66-.09A118.28,118.28,0,0,1,983.8,346.76Z"/><path d="M983.21,344.7l1.63.27a134.87,134.87,0,0,0-19-1.65c-2.4-.05-4.68,0-6.83.06h0l1.66-.06c1.87-.08,3.87-.1,6-.06A118.78,118.78,0,0,1,983.21,344.7Z"/><path class="i" d="M957.73,362.6a66.25,66.25,0,0,1-8.56-1.64c-1.1-.23-2.55-.68-3.65-1a30.83,30.83,0,0,1-5.71-2.18c-1-.55-2.72-1.29-3.13-2.4-.13-.35-.52-.83-.41-1.19a4.7,4.7,0,0,1,1.46-2.15c.63-.44,2.58-1.57,7.23-2.46,2.27-.44,5.33-.76,7.62-1,1.35-.14,3.16-.19,4.52-.27l1.46-.06c-13,.51-20.92,3.19-18.22,6.58,3.16,4,19.6,7.43,36.65,7.73s28.35-2.69,25.19-6.65c-1.92-2.4-8.68-4.61-17.5-6.05,3.25.53,5.77,1,5.79,1,1.2.24,2.79.58,4,.91,2,.54,4.56,1.38,6.47,2.08a19.11,19.11,0,0,1,2.37,1.14c1,.53,2.51,1.35,2.68,2.41.06.35.33.86.16,1.17a6,6,0,0,1-1.91,2.1c-.73.43-2.94,1.52-7.8,2.35-2.36.41-5.54.7-7.93.91-1.39.13-3.25.16-4.64.22,0,0-3.16-.5-6.34-1.17a2.29,2.29,0,0,0-.36-.07c-.23,0-.53,0-.76,0-.93,0-3.44-.08-6.59-.29-2.49-.17-4.53-.37-4.75-.4a6.39,6.39,0,0,0-1.07,0C960.84,362.5,957.74,362.6,957.73,362.6Z"/><path d="M985.12,361.48l-1.81.09c10.79-.53,17.24-2.82,14.94-5.7-2.75-3.46-17.12-6.48-32-6.74s-24.75,2.34-22,5.8c1.59,2,7.08,3.86,14.31,5.12l-1.79-.31c-8.27-1.44-14.55-3.57-16.38-5.86-3.16-4,8.14-6.95,25.18-6.65s33.48,3.76,36.64,7.72C1004.86,358.25,997.49,360.87,985.12,361.48Z"/><path class="i" d="M957.1,348.34c-2.58.15-6,.29-8.58.69-1.07.17-2.51.33-3.56.58a35.13,35.13,0,0,0-5.44,1.53,11.13,11.13,0,0,0-2.89,2c-.25.24-.26.77-.36,1.11-.25.84.94,1.87,1.62,2.41,1,.78,3.12,2,7.63,3.36,1.09.33,2.55.74,3.65,1,2.56.55,6,1.2,8.56,1.64l-1.27,0c-10.12-1.62-17.91-4.15-20.09-6.88-3-3.83,5.84-6.84,20.52-7.41Z"/><path class="i" d="M983.83,364.21c2.65-.13,6.21-.23,8.85-.6,1.12-.15,2.62-.3,3.72-.53a42.54,42.54,0,0,0,5.81-1.45,14.12,14.12,0,0,0,3.3-1.91c.3-.22.43-.76.6-1.09.37-.7-.55-1.84-1.13-2.38-.83-.79-2.73-2-7.05-3.42-1-.34-2.43-.76-3.5-1-2.48-.57-5.81-1.25-8.31-1.71l.2,0c9.93,1.62,17.55,4.11,19.71,6.82,3.08,3.86-6,6.89-20.95,7.42Z"/><path class="i" d="M958,360.66a68.08,68.08,0,0,1-8.59-1.63c-1.11-.24-2.57-.69-3.67-1a30.84,30.84,0,0,1-5.74-2.18c-1.05-.56-2.74-1.29-3.14-2.41-.13-.35-.53-.83-.42-1.19a4.55,4.55,0,0,1,1.47-2.15c.63-.45,2.59-1.58,7.26-2.47,2.27-.44,5.35-.76,7.66-1,1.35-.14,3.17-.19,4.53-.27l1.46-.05c-13.08.5-21,3.18-18.31,6.58,3.16,4,19.6,7.43,36.65,7.73s28.35-2.69,25.19-6.65c-1.92-2.41-8.73-4.63-17.59-6.07,3.2.52,5.78,1,5.81,1,1.2.24,2.8.58,4,.91,2,.55,4.57,1.38,6.49,2.08a18.09,18.09,0,0,1,2.39,1.15c1,.52,2.51,1.35,2.69,2.42,0,.35.33.86.16,1.17a6,6,0,0,1-1.92,2.1c-.73.43-2.95,1.53-7.83,2.36-2.38.4-5.58.69-8,.9-1.4.13-3.27.16-4.67.22,0,0-3.09-.49-6.23-1.15-.1,0-.25-.07-.36-.08h-.75c-.93,0-3.45-.08-6.6-.29-2.5-.17-4.53-.38-4.76-.4a6.27,6.27,0,0,0-1.06,0C961,360.56,958,360.66,958,360.66Z"/><path class="i" d="M977.13,363c.11,0,.25,0,.36.07,1.91.41,4,.8,6.34,1.17-2.55.05-6.8.14-13.34-.26-6.08-.38-10.59-1-12.76-1.35,2.26-.09,4.36-.21,6.23-.38l.36,0c.22,0,.5.05.71.07s2.72.28,5.59.46,5.13.22,5.75.23C976.6,363,976.9,362.94,977.13,363Z"/><path class="i" d="M955.16,360.45a143.59,143.59,0,0,0,15.4,1.78,140.92,140.92,0,0,0,16.1.16l-.87,0c-.24,0-.48,0-.72,0-2.51.13-5.21.17-8.08.12a134.84,134.84,0,0,1-20.26-1.86Z"/><path d="M987.24,348.58l1.79.31c10.1,1.77,17.77,4.36,20,7.17,3.86,4.85-9.93,8.49-30.78,8.12s-40.91-4.59-44.78-9.44c-3.22-4,5.79-7.23,20.9-8l1.82-.09c-13.55.68-21.63,3.54-18.75,7.15,3.47,4.35,21.47,8.14,40.15,8.47s31-2.94,27.59-7.28C1003.18,352.49,996.3,350.16,987.24,348.58Z"/><path d="M985.41,359.52l-1.84.09c10.71-.55,17.09-2.83,14.8-5.69-2.75-3.46-17.12-6.49-32-6.75s-24.75,2.35-22,5.81c1.58,2,7,3.83,14.16,5.09h0l-.91-.16-.9-.16c-8.19-1.44-14.4-3.55-16.21-5.83-3.16-4,8.13-6.95,25.18-6.65s33.48,3.76,36.64,7.73C1005,356.28,997.68,358.89,985.41,359.52Z"/><path class="i" d="M957.31,346.38c-2.59.15-6,.29-8.61.69-1.08.17-2.52.33-3.58.58a35.49,35.49,0,0,0-5.47,1.53,11.38,11.38,0,0,0-2.89,2c-.26.24-.27.78-.37,1.12-.25.84,1,1.87,1.63,2.41,1,.79,3.13,2,7.67,3.37,1.09.33,2.56.74,3.67,1,2.56.54,6,1.19,8.59,1.63l-.73,0h-.55c-10.17-1.62-18-4.15-20.18-6.89-3.06-3.84,5.88-6.85,20.62-7.42Z"/><path class="i" d="M983.84,362.26c2.67-.13,6.25-.22,8.9-.59,1.12-.16,2.63-.3,3.74-.53a43.22,43.22,0,0,0,5.83-1.46,14.25,14.25,0,0,0,3.32-1.91c.3-.23.43-.76.6-1.09.37-.71-.56-1.85-1.13-2.39-.84-.79-2.75-2-7.09-3.43-1-.34-2.45-.76-3.51-1-2.5-.57-5.84-1.25-8.35-1.71l.2,0c10,1.62,17.64,4.12,19.8,6.83,3.09,3.87-6,6.91-21,7.44Z"/><path class="i" d="M957.15,358.56a63.5,63.5,0,0,1-8.26-1.64c-1.07-.23-2.46-.67-3.51-1a29.1,29.1,0,0,1-5.49-2.15c-1-.54-2.62-1.27-3-2.35-.12-.35-.5-.81-.39-1.16a4.58,4.58,0,0,1,1.42-2.11c.6-.43,2.48-1.54,7-2.44,2.18-.43,5.14-.76,7.35-1,1.3-.14,3-.2,4.36-.28l1.52-.07c-12.65.57-20.25,3.22-17.58,6.56,3.16,4,19.62,7.44,36.69,7.73s28.38-2.68,25.22-6.65c-1.87-2.34-8.36-4.51-16.87-5.95,6.12,1,8.84,1.76,9.53,1.95,1.9.54,4.39,1.37,6.23,2.05a18,18,0,0,1,2.29,1.13c.91.51,2.4,1.33,2.56,2.36,0,.34.32.84.16,1.15a5.88,5.88,0,0,1-1.85,2c-.7.42-2.82,1.5-7.5,2.34a90.2,90.2,0,0,1-12.13,1.16s-3.53-.53-7.16-1.31a3.15,3.15,0,0,0-.42-.09h-.74c-.92,0-3.4-.08-6.51-.29-2.41-.16-4.34-.36-4.7-.4a6.83,6.83,0,0,0-1.11,0C960.67,358.46,957.17,358.56,957.15,358.56Z"/><path class="i" d="M977.25,361l.36.08c1.88.39,4,.78,6.23,1.15-2.52.05-6.75.13-13.23-.27-6-.37-10.51-1-12.66-1.33,2.22-.08,4.29-.21,6.13-.37l.35,0c.22,0,.5.05.71.07s2.73.28,5.6.45,5.14.23,5.76.24C976.73,361,977,361,977.25,361Z"/><path class="i" d="M955.09,358.47a146.64,146.64,0,0,0,15.58,1.81,143.46,143.46,0,0,0,16.29.15l-1.61.08c-2.54.13-5.31.18-8.24.13a134.12,134.12,0,0,1-20.43-1.9Z"/><path d="M987.55,346.66l1.8.32c10,1.76,17.59,4.34,19.81,7.13,3.86,4.84-9.93,8.48-30.77,8.12s-40.92-4.59-44.79-9.44c-3.2-4,5.7-7.2,20.69-8h0l1.84-.1c-13.43.7-21.42,3.55-18.55,7.15,3.46,4.34,21.46,8.13,40.14,8.46s31-2.94,27.58-7.28C1003.31,350.55,996.51,348.24,987.55,346.66Z"/><path d="M985.71,357.56l-1.84.09c10.63-.56,16.94-2.84,14.66-5.69-2.76-3.46-17.15-6.5-32-6.76s-24.78,2.35-22,5.82c1.58,2,6.94,3.81,14,5.07l-1.81-.32c-8.1-1.44-14.23-3.54-16-5.81-3.16-4,8.14-6.94,25.19-6.64s33.49,3.76,36.65,7.72C1005.08,354.31,997.87,356.91,985.71,357.56Z"/><path class="i" d="M987,360.43h.23c-2.87.14-6,.19-9.29.14a152.39,152.39,0,0,1-23-2.13l.22,0a146.64,146.64,0,0,0,15.58,1.81A144.22,144.22,0,0,0,987,360.43Z"/><path class="i" d="M956.61,344.46c-2.49.16-5.82.31-8.28.72-1,.17-2.42.33-3.43.57a34.73,34.73,0,0,0-5.25,1.52,10.9,10.9,0,0,0-2.78,1.93c-.25.24-.26.77-.36,1.1-.24.81.88,1.82,1.54,2.35.94.77,3,2,7.33,3.31,1,.32,2.44.73,3.51,1,2.47.55,5.78,1.2,8.26,1.64l-1.29,0c-9.71-1.63-17.13-4.09-19.26-6.75-3-3.76,5.55-6.74,19.79-7.38Z"/><path class="i" d="M984.88,360.27c2.56-.14,6-.25,8.54-.63,1.08-.16,2.52-.3,3.59-.53a41.34,41.34,0,0,0,5.59-1.45,13.8,13.8,0,0,0,3.18-1.88c.28-.22.41-.74.58-1.06.34-.69-.53-1.81-1.09-2.34-.8-.77-2.62-2-6.77-3.36-1-.33-2.35-.75-3.38-1-2.39-.56-5.61-1.24-8-1.7l.22,0c9.57,1.62,16.87,4.06,19,6.7,3,3.79-5.68,6.78-20.13,7.39Z"/><path class="i" d="M958.25,356.76a67,67,0,0,1-8.61-1.64c-1.12-.24-2.57-.68-3.68-1a31,31,0,0,1-5.75-2.19c-1.06-.55-2.75-1.29-3.16-2.41-.13-.36-.53-.83-.42-1.19a4.72,4.72,0,0,1,1.47-2.16c.63-.44,2.6-1.57,7.28-2.47,2.29-.44,5.37-.76,7.68-1,1.36-.14,3.19-.18,4.55-.26l1.45-.06c-13.11.5-21.07,3.18-18.36,6.59,3.17,4,19.6,7.43,36.65,7.72s28.35-2.68,25.19-6.64c-1.92-2.41-8.75-4.64-17.64-6.08,3.2.52,5.79,1,5.81,1,1.2.24,2.81.58,4,.91,2,.54,4.59,1.38,6.52,2.08a18.09,18.09,0,0,1,2.39,1.15c.95.53,2.52,1.35,2.7,2.42.06.35.33.86.17,1.17a6,6,0,0,1-1.94,2.11c-.73.43-2.95,1.53-7.85,2.36-2.38.4-5.59.69-8,.9-1.4.13-3.28.16-4.68.22,0,0-3.06-.49-6.16-1.14a2.29,2.29,0,0,0-.36-.07c-.23,0-.53,0-.75,0-.94,0-3.46-.08-6.61-.29-2.5-.17-4.54-.38-4.76-.4a6.31,6.31,0,0,0-1.06,0C961.27,356.66,958.26,356.76,958.25,356.76Z"/><path class="i" d="M977.3,358.87a3.15,3.15,0,0,1,.42.09c2.15.46,4.56.9,7.16,1.31-2.69.07-7.19.19-14.18-.24-6.48-.4-11.25-1.12-13.55-1.47,2.59-.09,5-.23,7.09-.42.13,0,.29,0,.41,0s.49,0,.7.07,2.69.28,5.53.45,5.07.22,5.68.24A6.06,6.06,0,0,1,977.3,358.87Z"/><path class="i" d="M955,356.48a143.9,143.9,0,0,0,15.77,1.84,141.38,141.38,0,0,0,16.49.14l-1.61.09c-2.6.14-5.43.19-8.43.13a133.86,133.86,0,0,1-20.64-1.92Z"/><path d="M987.86,344.74l1.82.32c9.88,1.76,17.36,4.32,19.57,7.09,3.85,4.84-9.93,8.48-30.75,8.11s-40.88-4.59-44.75-9.43c-3.17-4,5.62-7.16,20.46-7.95l1.85-.1c-13.31.71-21.21,3.56-18.36,7.13,3.47,4.34,21.46,8.14,40.14,8.46s31-2.93,27.58-7.28C1003.44,348.62,996.73,346.32,987.86,344.74Z"/><path d="M987.18,355.48l-2,.14c9.88-.67,15.62-2.87,13.43-5.61-2.75-3.46-17.12-6.49-32-6.75s-24.75,2.35-22,5.8c1.48,1.86,6.32,3.6,12.79,4.85h0l-1.09-.21-.88-.17c-7.39-1.43-12.91-3.41-14.61-5.53-3.15-4,8.12-6.93,25.13-6.64s33.4,3.76,36.55,7.71C1005,352.2,998.47,354.72,987.18,355.48Z"/><path class="i" d="M957.61,342.47c-2.6.15-6.07.28-8.64.69-1.07.17-2.52.32-3.59.57a35.61,35.61,0,0,0-5.48,1.53,11,11,0,0,0-2.9,2c-.26.24-.27.78-.37,1.12-.25.84,1,1.87,1.64,2.42,1,.78,3.14,2,7.69,3.37,1.1.32,2.56.73,3.68,1,2.57.55,6,1.2,8.61,1.64l-1.3,0c-10.19-1.62-18-4.16-20.23-6.9-3.06-3.84,5.9-6.86,20.68-7.43Z"/><path class="i" d="M984,358.35c2.68-.13,6.26-.22,8.92-.59,1.12-.16,2.63-.3,3.75-.53a43.5,43.5,0,0,0,5.85-1.46,14.52,14.52,0,0,0,3.33-1.91c.3-.23.43-.76.61-1.1.36-.7-.57-1.85-1.15-2.39-.84-.79-2.76-2-7.11-3.43a88.14,88.14,0,0,0-11.89-2.71l.2,0c10,1.63,17.71,4.14,19.87,6.85,3.09,3.88-6.07,6.92-21.09,7.44Z"/><path class="i" d="M960.88,355.16a39.84,39.84,0,0,1-5-.74c-2.61-.51-6.08-1.25-8.67-1.89a48.15,48.15,0,0,1-6.46-2.29,9.22,9.22,0,0,1-3.56-2.55,2.53,2.53,0,0,1-.06-2.47,7.37,7.37,0,0,1,3.28-2.08,43.34,43.34,0,0,1,6.18-1.56,77.17,77.17,0,0,1,8.6-.94c1.51-.12,3.54-.13,5.06-.19l1.19,0c-14.47.25-23.53,3-20.66,6.65,3.16,4,19.6,7.42,36.65,7.72s28.35-2.68,25.19-6.64c-2.09-2.62-9.95-5-19.95-6.43,5.93.84,8.78,1.48,10.48,1.87a43.25,43.25,0,0,1,7.34,2.16,37.55,37.55,0,0,1,4.7,2.47,7.15,7.15,0,0,1,1.14,1.31c.49.55.07,1.87-.42,2.42a8.51,8.51,0,0,1-3.71,2c-1.94.54-4.56,1.12-6.53,1.49a41.83,41.83,0,0,1-4.18.51c-3,.21-6.94.54-9.91.47,0,0-1.74-.3-3.6-.67a1.91,1.91,0,0,0-.21,0c-.24,0-.55,0-.78,0-.4,0-2.49,0-5.09-.19-3.3-.18-6-.44-6.68-.52-.22,0-.51-.07-.73-.07h-.21C962.56,355.08,960.89,355.16,960.88,355.16Z"/><path class="i" d="M977.5,357.14c.11,0,.25.05.36.07,1.85.39,3.92.77,6.16,1.14-2.51,0-6.72.13-13.17-.27-6-.37-10.45-1-12.6-1.32,2.21-.09,4.25-.21,6.07-.37l.35,0c.21,0,.49.05.71.07s2.73.28,5.6.45,5.14.23,5.77.24C977,357.13,977.27,357.11,977.5,357.14Z"/><path class="i" d="M953.59,354.2c2.24.41,4.55.84,8.23,1.29s7,.72,9,.85a140.64,140.64,0,0,0,18.08,0l-1,.07c-.26,0-.53.05-.8.05-3,.2-6.26.28-9.81.22a131,131,0,0,1-22-2.18Z"/><path d="M989.55,343l1.08.21.89.17c9,1.74,15.8,4.17,17.88,6.78,3.87,4.84-9.93,8.48-30.77,8.12s-40.92-4.6-44.79-9.44c-3.06-3.84,5-6.92,18.78-7.86l.3,0,.7-.05,1-.07c-12.42.85-19.62,3.61-16.87,7.06,3.47,4.35,21.51,8.16,40.22,8.48s31.12-2.94,27.65-7.29C1003.75,346.79,997.68,344.61,989.55,343Z"/><path d="M985.48,353.71l-1.8.08c10.86-.53,17.35-2.82,15.05-5.7-2.75-3.46-17.12-6.49-32-6.75s-24.75,2.35-22,5.8c1.6,2,7.13,3.88,14.41,5.14l-1.77-.3c-8.33-1.45-14.66-3.58-16.49-5.89-3.16-4,8.13-6.94,25.17-6.64s33.47,3.76,36.63,7.72C1005.34,350.48,997.91,353.1,985.48,353.71Z"/><path class="i" d="M981.62,356.44c3-.08,7-.12,9.91-.47,1.25-.15,2.94-.28,4.18-.51a50.18,50.18,0,0,0,6.53-1.49,15.86,15.86,0,0,0,3.71-2c.32-.24.46-.81.65-1.17.4-.77-.71-2-1.37-2.56-1-.84-3.17-2.14-8.08-3.6a100.81,100.81,0,0,0-13.27-2.74l.14,0c11.25,1.59,20.08,4.29,22.43,7.23,3.26,4.09-7.17,7.25-23.73,7.48Z"/><path class="i" d="M960.29,340.45c-2.89.11-6.77.18-9.64.57-1.21.17-2.83.31-4,.56a42,42,0,0,0-6.18,1.56,12.66,12.66,0,0,0-3.28,2.08c-.29.25-.31.83-.42,1.19-.29.91,1.09,2,1.86,2.58s3.27,2.06,8.64,3.54c2.57.71,6.06,1.38,8.67,1.89,1.48.28,3.47.52,5,.74l-1.09,0c-11.46-1.58-20.49-4.3-22.87-7.28-3.23-4.05,7-7.19,23.23-7.48Z"/><path class="i" d="M957.73,362.6c.45,0,1,.15,1.51.22s5.34.76,11.25,1.13,10.18.32,11.75.29c.48,0,1.11-.06,1.59,0h.08l1.17.18c-2.34.09-4.82.11-7.42.06a153.12,153.12,0,0,1-21.2-1.82l1.19,0Z"/><path class="i" d="M958,360.66c.45,0,1,.15,1.5.22s5.3.75,11.16,1.11,10.1.33,11.66.3c.47,0,1.1-.07,1.57,0h.09l1.18.19c-2.31.08-4.76.1-7.33.05a153.39,153.39,0,0,1-21.11-1.81l1.2,0Z"/><path class="i" d="M977.81,355.73a1.91,1.91,0,0,1,.21,0c1.66.33,3.12.59,3.6.67a152.38,152.38,0,0,1-20.74-1.28c1.69-.08,3-.18,3.44-.22h.21c.22,0,.51.05.73.07s2.83.29,5.8.47,5.32.23,6,.24C977.26,355.72,977.57,355.7,977.81,355.73Z"/><path class="i" d="M986.66,362.39h.22c-2.82.14-5.87.19-9.1.13a151.79,151.79,0,0,1-22.84-2.09l.22,0a143.59,143.59,0,0,0,15.4,1.78A141.45,141.45,0,0,0,986.66,362.39Z"/><path class="i" d="M955.78,352.69A142.9,142.9,0,0,0,971,354.45a140.91,140.91,0,0,0,16,.16l-1.57.08c-2.47.12-5.14.16-8,.11A133.66,133.66,0,0,1,957.33,353Z"/><path class="i" d="M957.15,358.56c.49,0,1.12.17,1.59.24s5.66.85,12,1.23c6.49.4,11.21.32,12.51.29.5,0,1.17-.08,1.67-.05H985c.4.07.79.13,1.19.18-2.58.11-5.34.15-8.25.1a153.84,153.84,0,0,1-22-2l1.21,0Z"/><path class="i" d="M958.25,356.76c.45,0,1,.15,1.49.21s5.28.75,11.11,1.11,10,.33,11.6.3c.47,0,1.1-.07,1.57,0h.08l1.21.19c-2.3.08-4.74.1-7.29.05A153.12,153.12,0,0,1,957,356.8l1.22,0Z"/><path class="i" d="M987.28,358.46h.24c-2.93.16-6.11.21-9.5.15a150.65,150.65,0,0,1-23.23-2.16l.23,0a143.9,143.9,0,0,0,15.77,1.84A142.43,142.43,0,0,0,987.28,358.46Z"/><path class="i" d="M960.88,355.16c.37,0,.86.11,1.22.16s4.3.53,8.93.82,8,.31,9.3.3c.38,0,.9,0,1.29,0h.07l1,.17c-1.49,0-3,0-4.59,0a156.64,156.64,0,0,1-18.34-1.41l1,0Z"/><path class="i" d="M989,356.38h.21c-3.34.22-7,.31-11,.25a149,149,0,0,1-24.75-2.46l.21,0c2.24.41,4.55.84,8.23,1.29s7,.72,9,.85A140.47,140.47,0,0,0,989,356.38Z"/><path d="M987.59,340.78l1.77.3c10.18,1.76,17.91,4.38,20.16,7.19,3.86,4.85-9.93,8.49-30.78,8.13S937.82,351.8,934,347c-3.23-4,5.84-7.25,21-8l1.79-.09c-13.62.66-21.76,3.54-18.87,7.16,3.46,4.34,21.47,8.14,40.15,8.47s31-2.94,27.59-7.29C1003.66,344.7,996.72,342.36,987.59,340.78Z"/><path class="i" d="M987,354.61h.22c-2.78.14-5.78.18-9,.13a152.85,152.85,0,0,1-22.7-2.07l.22,0A149.5,149.5,0,0,0,987,354.61Z"/><path d="M986.78,364.1l-1.67.07c-2.39.09-5,.12-7.63.07a149.53,149.53,0,0,1-21-1.83h0l-1.64-.27a165.62,165.62,0,0,0,23.4,2C981.26,364.24,984.11,364.21,986.78,364.1Z"/><path d="M965.52,338.76c18.68.32,36.69,4.12,40.15,8.46s-8.91,7.61-27.59,7.29-36.69-4.13-40.15-8.47S946.84,338.43,965.52,338.76Zm12,15.06c17,.29,28.33-2.69,25.17-6.65s-19.59-7.42-36.63-7.72-28.33,2.68-25.17,6.64,19.59,7.43,36.63,7.73"/><path d="M986.8,362.15l-1.66.07c-2.37.09-4.89.11-7.54.07a149.9,149.9,0,0,1-20.89-1.82h0l-1.63-.27a164.5,164.5,0,0,0,23.31,2C981.34,362.28,984.16,362.25,986.8,362.15Z"/><path d="M987.81,360.15l-1.74.08c-2.6.11-5.4.15-8.35.1a147.51,147.51,0,0,1-21.7-1.95l-.08,0-.26,0-.17,0-.17,0-.17,0-.86-.14a166,166,0,0,0,24.19,2.17C981.79,360.32,984.91,360.28,987.81,360.15Z"/><ellipse class="i" cx="971.8" cy="346.63" rx="7.84" ry="35.49" transform="translate(566.12 1295.3) rotate(-86.48)"/><path d="M987,358.24l-1.66.07c-2.35.08-4.85.11-7.48.06a149.12,149.12,0,0,1-20.82-1.8l-.09,0-.73-.12-.82-.13a165.42,165.42,0,0,0,23.25,2C981.56,358.37,984.35,358.34,987,358.24Z"/><path d="M984.28,356.4l-1.34,0c-1.6,0-3.25,0-5,0A151.88,151.88,0,0,1,959.64,355l-1.31-.19a170.76,170.76,0,0,0,20.41,1.59C980.65,356.43,982.5,356.43,984.28,356.4Z"/></g><text class="k" transform="translate(934.5 396.6)">Clie<tspan class="o" x="46.53" y="0">n</tspan><tspan class="d" x="63.06" y="0">t</tspan></text><g class="h"><path d="M1083,461.59l1.64.27a134.86,134.86,0,0,0-19.14-1.68c-2.45,0-4.77,0-7,.07h0l1.67-.06q2.86-.12,6.08-.06A117.32,117.32,0,0,1,1083,461.59Z"/><path d="M1083,459.62l1.64.27a135.68,135.68,0,0,0-19.06-1.66c-2.42,0-4.72,0-6.88.06l1.66-.06c1.89-.07,3.9-.09,6-.06A120.58,120.58,0,0,1,1083,459.62Z"/><path d="M1081.31,453.48l1.31.18a139.38,139.38,0,0,0-16.65-1.3c-1.56,0-3.07,0-4.52,0h0l1.34,0c1.27,0,2.59,0,4,0A120.45,120.45,0,0,1,1081.31,453.48Z"/><path d="M1083.8,457.76l1.71.29a135.23,135.23,0,0,0-19.8-1.78c-2.69,0-5.25,0-7.62.1h0l1.74-.08c2.08-.1,4.31-.13,6.66-.09A118.28,118.28,0,0,1,1083.8,457.76Z"/><path d="M1083.21,455.7l1.63.27a134.87,134.87,0,0,0-19-1.65c-2.4-.05-4.68,0-6.83.06h0l1.66-.06c1.87-.08,3.87-.1,6-.06A118.78,118.78,0,0,1,1083.21,455.7Z"/><path class="i" d="M1057.73,473.6a66.25,66.25,0,0,1-8.56-1.64c-1.1-.23-2.55-.68-3.65-1a30.83,30.83,0,0,1-5.71-2.18c-1-.55-2.72-1.29-3.13-2.4-.13-.35-.52-.83-.41-1.19a4.7,4.7,0,0,1,1.46-2.15c.63-.44,2.58-1.57,7.23-2.46,2.27-.44,5.33-.76,7.62-1,1.35-.14,3.16-.19,4.52-.27l1.46-.06c-13,.51-20.92,3.19-18.22,6.58,3.16,4,19.6,7.43,36.65,7.73s28.35-2.69,25.19-6.65c-1.92-2.4-8.68-4.61-17.5-6.05,3.25.53,5.77,1,5.79,1,1.2.24,2.79.58,4,.91,2,.54,4.56,1.38,6.47,2.08a19.11,19.11,0,0,1,2.37,1.14c1,.53,2.51,1.35,2.68,2.41.06.35.33.86.16,1.17a6,6,0,0,1-1.91,2.1c-.73.43-2.94,1.52-7.8,2.35-2.36.41-5.54.7-7.93.91-1.39.13-3.25.16-4.64.22,0,0-3.16-.5-6.34-1.17a2.29,2.29,0,0,0-.36-.07c-.23,0-.53,0-.76,0-.93,0-3.44-.08-6.59-.29-2.49-.17-4.53-.37-4.75-.4a6.39,6.39,0,0,0-1.07,0C1060.84,473.5,1057.74,473.6,1057.73,473.6Z"/><path d="M1085.12,472.48l-1.81.09c10.79-.53,17.24-2.82,14.94-5.7-2.75-3.46-17.12-6.48-32-6.74s-24.75,2.34-22,5.8c1.59,2,7.08,3.86,14.31,5.12l-1.79-.31c-8.27-1.44-14.55-3.57-16.38-5.86-3.16-4,8.14-6.95,25.18-6.65s33.48,3.76,36.64,7.72C1104.86,469.25,1097.49,471.87,1085.12,472.48Z"/><path class="i" d="M1057.1,459.34c-2.58.15-6,.29-8.58.69-1.07.17-2.51.33-3.56.58a35.13,35.13,0,0,0-5.44,1.53,11.13,11.13,0,0,0-2.89,2c-.25.24-.26.77-.36,1.11-.25.84.94,1.87,1.62,2.41,1,.78,3.12,2,7.63,3.36,1.09.33,2.55.74,3.65,1,2.56.55,6,1.2,8.56,1.64l-1.27,0c-10.12-1.62-17.91-4.15-20.09-6.88-3-3.83,5.84-6.84,20.52-7.41Z"/><path class="i" d="M1083.83,475.21c2.65-.13,6.21-.23,8.85-.6,1.12-.15,2.62-.3,3.72-.53a42.54,42.54,0,0,0,5.81-1.45,14.12,14.12,0,0,0,3.3-1.91c.3-.22.43-.76.6-1.09.37-.7-.55-1.84-1.13-2.38-.83-.79-2.73-2-7-3.42-1-.34-2.43-.76-3.5-1-2.48-.57-5.81-1.25-8.31-1.71l.2,0c9.93,1.62,17.55,4.11,19.71,6.82,3.08,3.86-6,6.89-21,7.42Z"/><path class="i" d="M1058,471.66a68.08,68.08,0,0,1-8.59-1.63c-1.11-.24-2.57-.69-3.67-1a30.84,30.84,0,0,1-5.74-2.18c-1-.56-2.74-1.29-3.14-2.41-.13-.35-.53-.83-.42-1.19a4.55,4.55,0,0,1,1.47-2.15c.63-.45,2.59-1.58,7.26-2.47,2.27-.44,5.35-.76,7.66-1,1.35-.14,3.17-.19,4.53-.27l1.46-.05c-13.08.5-21,3.18-18.31,6.58,3.16,4,19.6,7.43,36.65,7.73s28.35-2.69,25.19-6.65c-1.92-2.41-8.73-4.63-17.59-6.07,3.2.52,5.78,1,5.81,1,1.2.24,2.8.58,4,.91,2,.55,4.57,1.38,6.49,2.08a18.09,18.09,0,0,1,2.39,1.15c.95.52,2.51,1.35,2.69,2.42,0,.35.33.86.16,1.17a6,6,0,0,1-1.92,2.1c-.73.43-3,1.53-7.83,2.36-2.38.4-5.58.69-8,.9-1.4.13-3.27.16-4.67.22,0,0-3.09-.49-6.23-1.15-.1,0-.25-.07-.36-.08h-.75c-.93,0-3.45-.08-6.6-.29-2.5-.17-4.53-.38-4.76-.4a6.27,6.27,0,0,0-1.06,0C1061,471.56,1058,471.66,1058,471.66Z"/><path class="i" d="M1077.13,474c.11,0,.25,0,.36.07,1.91.41,4,.8,6.34,1.17-2.55.05-6.8.14-13.34-.26-6.08-.38-10.59-1-12.76-1.35,2.26-.09,4.36-.21,6.23-.38l.36,0c.22,0,.5.05.71.07s2.72.28,5.59.46,5.13.22,5.75.23C1076.6,474,1076.9,473.94,1077.13,474Z"/><path class="i" d="M1055.16,471.45a143.59,143.59,0,0,0,15.4,1.78,140.92,140.92,0,0,0,16.1.16l-.87,0c-.24,0-.48,0-.72,0-2.51.13-5.21.17-8.08.12a134.84,134.84,0,0,1-20.26-1.86Z"/><path d="M1087.24,459.58l1.79.31c10.1,1.77,17.77,4.36,20,7.17,3.86,4.85-9.93,8.49-30.78,8.12s-40.91-4.59-44.78-9.44c-3.22-4,5.79-7.23,20.9-8l1.82-.09c-13.55.68-21.63,3.54-18.75,7.15,3.47,4.35,21.47,8.14,40.15,8.47s31.05-2.94,27.59-7.28C1103.18,463.49,1096.3,461.16,1087.24,459.58Z"/><path d="M1085.41,470.52l-1.84.09c10.71-.55,17.09-2.83,14.8-5.69-2.75-3.46-17.12-6.49-32-6.75s-24.75,2.35-22,5.81c1.58,2,7,3.83,14.16,5.09h0l-.91-.16-.9-.16c-8.19-1.44-14.4-3.55-16.21-5.83-3.16-4,8.13-6.95,25.18-6.65s33.48,3.76,36.64,7.73C1105,467.28,1097.68,469.89,1085.41,470.52Z"/><path class="i" d="M1057.31,457.38c-2.59.15-6,.29-8.61.69-1.08.17-2.52.33-3.58.58a35.49,35.49,0,0,0-5.47,1.53,11.38,11.38,0,0,0-2.89,2c-.26.24-.27.78-.37,1.12-.25.84.95,1.87,1.63,2.41,1,.79,3.13,2,7.67,3.37,1.09.33,2.56.74,3.67,1,2.56.54,6,1.19,8.59,1.63l-.73,0h-.55c-10.17-1.62-18-4.15-20.18-6.89-3.06-3.84,5.88-6.85,20.62-7.42Z"/><path class="i" d="M1083.84,473.26c2.67-.13,6.25-.22,8.9-.59,1.12-.16,2.63-.3,3.74-.53a43.22,43.22,0,0,0,5.83-1.46,14.25,14.25,0,0,0,3.32-1.91c.3-.23.43-.76.6-1.09.37-.71-.56-1.85-1.13-2.39-.84-.79-2.75-2-7.09-3.43-1-.34-2.45-.76-3.51-1-2.5-.57-5.84-1.25-8.35-1.71l.2,0c10,1.62,17.64,4.12,19.8,6.83,3.09,3.87-6.05,6.91-21,7.44Z"/><path class="i" d="M1057.15,469.56a63.5,63.5,0,0,1-8.26-1.64c-1.07-.23-2.46-.67-3.51-1a29.1,29.1,0,0,1-5.49-2.15c-1-.54-2.62-1.27-3-2.35-.12-.35-.5-.81-.39-1.16a4.58,4.58,0,0,1,1.42-2.11c.6-.43,2.48-1.54,7-2.44,2.18-.43,5.14-.76,7.35-1,1.3-.14,3-.2,4.36-.28l1.52-.07c-12.65.57-20.25,3.22-17.58,6.56,3.16,4,19.62,7.44,36.69,7.73s28.38-2.68,25.22-6.65c-1.87-2.34-8.36-4.51-16.87-5.95,6.12,1,8.84,1.76,9.53,1.95,1.9.54,4.39,1.37,6.23,2.05a18,18,0,0,1,2.29,1.13c.91.51,2.4,1.33,2.56,2.36,0,.34.32.84.16,1.15a5.88,5.88,0,0,1-1.85,2c-.7.42-2.82,1.5-7.5,2.34a90.2,90.2,0,0,1-12.13,1.16s-3.53-.53-7.16-1.31a3.15,3.15,0,0,0-.42-.09h-.74c-.92,0-3.4-.08-6.51-.29-2.41-.16-4.34-.36-4.7-.4a6.83,6.83,0,0,0-1.11,0C1060.67,469.46,1057.17,469.56,1057.15,469.56Z"/><path class="i" d="M1077.25,472l.36.08c1.88.39,4,.78,6.23,1.15-2.52.05-6.75.13-13.23-.27-6-.37-10.51-1-12.66-1.33,2.22-.08,4.29-.21,6.13-.37l.35,0c.22,0,.5.05.71.07s2.73.28,5.6.45,5.14.23,5.76.24C1076.73,472,1077,472,1077.25,472Z"/><path class="i" d="M1055.09,469.47a146.64,146.64,0,0,0,15.58,1.81,143.46,143.46,0,0,0,16.29.15l-1.61.08c-2.54.13-5.31.18-8.24.13a134.12,134.12,0,0,1-20.43-1.9Z"/><path d="M1087.55,457.66l1.8.32c10,1.76,17.59,4.34,19.81,7.13,3.86,4.84-9.93,8.48-30.77,8.12s-40.92-4.59-44.79-9.44c-3.2-4,5.7-7.2,20.69-8h0l1.84-.1c-13.43.7-21.42,3.55-18.55,7.15,3.46,4.34,21.46,8.13,40.14,8.46s31-2.94,27.58-7.28C1103.31,461.55,1096.51,459.24,1087.55,457.66Z"/><path d="M1085.71,468.56l-1.84.09c10.63-.56,16.94-2.84,14.66-5.69-2.76-3.46-17.15-6.5-32-6.76s-24.78,2.35-22,5.82c1.58,2,6.94,3.81,14,5.07l-1.81-.32c-8.1-1.44-14.23-3.54-16-5.81-3.16-4,8.14-6.94,25.19-6.64s33.49,3.76,36.65,7.72C1105.08,465.31,1097.87,467.91,1085.71,468.56Z"/><path class="i" d="M1087,471.43h.23c-2.87.14-6,.19-9.29.14a152.39,152.39,0,0,1-23-2.13l.22,0a146.64,146.64,0,0,0,15.58,1.81A144.22,144.22,0,0,0,1087,471.43Z"/><path class="i" d="M1056.61,455.46c-2.49.16-5.82.31-8.28.72-1,.17-2.42.33-3.43.57a34.73,34.73,0,0,0-5.25,1.52,10.9,10.9,0,0,0-2.78,1.93c-.25.24-.26.77-.36,1.1-.24.81.88,1.82,1.54,2.35.94.77,3,2,7.33,3.31,1,.32,2.44.73,3.51,1,2.47.55,5.78,1.2,8.26,1.64l-1.29,0c-9.71-1.63-17.13-4.09-19.26-6.75-3-3.76,5.55-6.74,19.79-7.38Z"/><path class="i" d="M1084.88,471.27c2.56-.14,6-.25,8.54-.63,1.08-.16,2.52-.3,3.59-.53a41.34,41.34,0,0,0,5.59-1.45,13.8,13.8,0,0,0,3.18-1.88c.28-.22.41-.74.58-1.06.34-.69-.53-1.81-1.09-2.34-.8-.77-2.62-2-6.77-3.36-1-.33-2.35-.75-3.38-1-2.39-.56-5.61-1.24-8-1.7l.22,0c9.57,1.62,16.87,4.06,19,6.7,3,3.79-5.68,6.78-20.13,7.39Z"/><path class="i" d="M1058.25,467.76a67,67,0,0,1-8.61-1.64c-1.12-.24-2.57-.68-3.68-1a31,31,0,0,1-5.75-2.19c-1.06-.55-2.75-1.29-3.16-2.41-.13-.36-.53-.83-.42-1.19a4.72,4.72,0,0,1,1.47-2.16c.63-.44,2.6-1.57,7.28-2.47,2.29-.44,5.37-.76,7.68-1,1.36-.14,3.19-.18,4.55-.26l1.45-.06c-13.11.5-21.07,3.18-18.36,6.59,3.17,4,19.6,7.43,36.65,7.72s28.35-2.68,25.19-6.64c-1.92-2.41-8.75-4.64-17.64-6.08,3.2.52,5.79,1,5.81,1,1.2.24,2.81.58,4,.91,2,.54,4.59,1.38,6.52,2.08a18.09,18.09,0,0,1,2.39,1.15c1,.53,2.52,1.35,2.7,2.42.06.35.33.86.17,1.17a6,6,0,0,1-1.94,2.11c-.73.43-3,1.53-7.85,2.36-2.38.4-5.59.69-8,.9-1.4.13-3.28.16-4.68.22,0,0-3.06-.49-6.16-1.14a2.29,2.29,0,0,0-.36-.07c-.23,0-.53,0-.75,0-.94,0-3.46-.08-6.61-.29-2.5-.17-4.54-.38-4.76-.4a6.31,6.31,0,0,0-1.06,0C1061.27,467.66,1058.26,467.76,1058.25,467.76Z"/><path class="i" d="M1077.3,469.87a3.15,3.15,0,0,1,.42.09c2.15.46,4.56.9,7.16,1.31-2.69.07-7.19.19-14.18-.24-6.48-.4-11.25-1.12-13.55-1.47,2.59-.09,5-.23,7.09-.42.13,0,.29,0,.41,0s.49,0,.7.07,2.69.28,5.53.45,5.07.22,5.68.24A6.06,6.06,0,0,1,1077.3,469.87Z"/><path class="i" d="M1055,467.48a143.9,143.9,0,0,0,15.77,1.84,141.38,141.38,0,0,0,16.49.14l-1.61.09c-2.6.14-5.43.19-8.43.13a133.86,133.86,0,0,1-20.64-1.92Z"/><path d="M1087.86,455.74l1.82.32c9.88,1.76,17.36,4.32,19.57,7.09,3.85,4.84-9.93,8.48-30.75,8.11s-40.88-4.59-44.75-9.43c-3.17-4,5.62-7.16,20.46-7.95l1.85-.1c-13.31.71-21.21,3.56-18.36,7.13,3.47,4.34,21.46,8.14,40.14,8.46s31-2.93,27.58-7.28C1103.44,459.62,1096.73,457.32,1087.86,455.74Z"/><path d="M1087.18,466.48l-2,.14c9.88-.67,15.62-2.87,13.43-5.61-2.75-3.46-17.12-6.49-32-6.75s-24.75,2.35-22,5.8c1.48,1.86,6.32,3.6,12.79,4.85h0l-1.09-.21-.88-.17c-7.39-1.43-12.91-3.41-14.61-5.53-3.15-4,8.12-6.93,25.13-6.64s33.4,3.76,36.55,7.71C1105,463.2,1098.47,465.72,1087.18,466.48Z"/><path class="i" d="M1057.61,453.47c-2.6.15-6.07.28-8.64.69-1.07.17-2.52.32-3.59.57a35.61,35.61,0,0,0-5.48,1.53,11,11,0,0,0-2.9,2c-.26.24-.27.78-.37,1.12-.25.84.95,1.87,1.64,2.42,1,.78,3.14,2,7.69,3.37,1.1.32,2.56.73,3.68,1,2.57.55,6,1.2,8.61,1.64l-1.3,0c-10.19-1.62-18-4.16-20.23-6.9-3.06-3.84,5.9-6.86,20.68-7.43Z"/><path class="i" d="M1084,469.35c2.68-.13,6.26-.22,8.92-.59,1.12-.16,2.63-.3,3.75-.53a43.5,43.5,0,0,0,5.85-1.46,14.52,14.52,0,0,0,3.33-1.91c.3-.23.43-.76.61-1.1.36-.7-.57-1.85-1.15-2.39-.84-.79-2.76-2-7.11-3.43a88.14,88.14,0,0,0-11.89-2.71l.2,0c10,1.63,17.71,4.14,19.87,6.85,3.09,3.88-6.07,6.92-21.09,7.44Z"/><path class="i" d="M1060.88,466.16a39.84,39.84,0,0,1-5-.74c-2.61-.51-6.08-1.25-8.67-1.89a48.15,48.15,0,0,1-6.46-2.29,9.22,9.22,0,0,1-3.56-2.55,2.53,2.53,0,0,1-.06-2.47,7.37,7.37,0,0,1,3.28-2.08,43.34,43.34,0,0,1,6.18-1.56,77.17,77.17,0,0,1,8.6-.94c1.51-.12,3.54-.13,5.06-.19l1.19,0c-14.47.25-23.53,3-20.66,6.65,3.16,4,19.6,7.42,36.65,7.72s28.35-2.68,25.19-6.64c-2.09-2.62-10-5-20-6.43,5.93.84,8.78,1.48,10.48,1.87a43.25,43.25,0,0,1,7.34,2.16,37.55,37.55,0,0,1,4.7,2.47,7.15,7.15,0,0,1,1.14,1.31c.49.55.07,1.87-.42,2.42a8.51,8.51,0,0,1-3.71,2c-1.94.54-4.56,1.12-6.53,1.49a41.83,41.83,0,0,1-4.18.51c-3,.21-6.94.54-9.91.47,0,0-1.74-.3-3.6-.67a1.91,1.91,0,0,0-.21,0c-.24,0-.55,0-.78,0-.4,0-2.49,0-5.09-.19-3.3-.18-6-.44-6.68-.52-.22,0-.51-.07-.73-.07h-.21C1062.56,466.08,1060.89,466.16,1060.88,466.16Z"/><path class="i" d="M1077.5,468.14c.11,0,.25.05.36.07,1.85.39,3.92.77,6.16,1.14-2.51,0-6.72.13-13.17-.27-6-.37-10.45-1-12.6-1.32,2.21-.09,4.25-.21,6.07-.37l.35,0c.21,0,.49.05.71.07s2.73.28,5.6.45,5.14.23,5.77.24C1077,468.13,1077.27,468.11,1077.5,468.14Z"/><path class="i" d="M1053.59,465.2c2.24.41,4.55.84,8.23,1.29,3.83.47,7,.72,9,.85a140.64,140.64,0,0,0,18.08,0l-1,.07c-.26,0-.53.05-.8.05-3,.2-6.26.28-9.81.22a131,131,0,0,1-22-2.18Z"/><path d="M1089.55,454l1.08.21.89.17c9,1.74,15.8,4.17,17.88,6.78,3.87,4.84-9.93,8.48-30.77,8.12s-40.92-4.6-44.79-9.44c-3.06-3.84,5-6.92,18.78-7.86l.3,0,.7-.05,1-.07c-12.42.85-19.62,3.61-16.87,7.06,3.47,4.35,21.51,8.16,40.22,8.48s31.12-2.94,27.65-7.29C1103.75,457.79,1097.68,455.61,1089.55,454Z"/><path d="M1085.48,464.71l-1.8.08c10.86-.53,17.35-2.82,15-5.7-2.75-3.46-17.12-6.49-32-6.75s-24.75,2.35-22,5.8c1.6,2,7.13,3.88,14.41,5.14l-1.77-.3c-8.33-1.45-14.66-3.58-16.49-5.89-3.16-4,8.13-6.94,25.17-6.64s33.47,3.76,36.63,7.72C1105.34,461.48,1097.91,464.1,1085.48,464.71Z"/><path class="i" d="M1081.62,467.44c3-.08,7-.12,9.91-.47,1.25-.15,2.94-.28,4.18-.51a50.18,50.18,0,0,0,6.53-1.49,15.86,15.86,0,0,0,3.71-2c.32-.24.46-.81.65-1.17.4-.77-.71-2-1.37-2.56-1-.84-3.17-2.14-8.08-3.6a100.81,100.81,0,0,0-13.27-2.74l.14,0c11.25,1.59,20.08,4.29,22.43,7.23,3.26,4.09-7.17,7.25-23.73,7.48Z"/><path class="i" d="M1060.29,451.45c-2.89.11-6.77.18-9.64.57-1.21.17-2.83.31-4,.56a42,42,0,0,0-6.18,1.56,12.66,12.66,0,0,0-3.28,2.08c-.29.25-.31.83-.42,1.19-.29.91,1.09,2,1.86,2.58.92.68,3.27,2.06,8.64,3.54,2.57.71,6.06,1.38,8.67,1.89,1.48.28,3.47.52,5,.74l-1.09,0c-11.46-1.58-20.49-4.3-22.87-7.28-3.23-4.05,6.95-7.19,23.23-7.48Z"/><path class="i" d="M1057.73,473.6c.45,0,1,.15,1.51.22s5.34.76,11.25,1.13,10.18.32,11.75.29c.48,0,1.11-.06,1.59,0h.08l1.17.18c-2.34.09-4.82.11-7.42.06a153.12,153.12,0,0,1-21.2-1.82l1.19,0Z"/><path class="i" d="M1058,471.66c.45,0,1,.15,1.5.22s5.3.75,11.16,1.11,10.1.33,11.66.3c.47,0,1.1-.07,1.57,0h.09l1.18.19c-2.31.08-4.76.1-7.33.05a153.39,153.39,0,0,1-21.11-1.81l1.2,0Z"/><path class="i" d="M1077.81,466.73a1.91,1.91,0,0,1,.21,0c1.66.33,3.12.59,3.6.67a152.38,152.38,0,0,1-20.74-1.28c1.69-.08,3-.18,3.44-.22h.21c.22,0,.51.05.73.07s2.83.29,5.8.47,5.32.23,6,.24C1077.26,466.72,1077.57,466.7,1077.81,466.73Z"/><path class="i" d="M1086.66,473.39h.22c-2.82.14-5.87.19-9.1.13a151.79,151.79,0,0,1-22.84-2.09l.22,0a143.59,143.59,0,0,0,15.4,1.78A141.45,141.45,0,0,0,1086.66,473.39Z"/><path class="i" d="M1055.78,463.69a142.9,142.9,0,0,0,15.26,1.76,140.91,140.91,0,0,0,16,.16l-1.57.08c-2.47.12-5.14.16-8,.11a133.66,133.66,0,0,1-20.14-1.84Z"/><path class="i" d="M1057.15,469.56c.49,0,1.12.17,1.59.24s5.66.85,12,1.23c6.49.4,11.21.32,12.51.29.5,0,1.17-.08,1.67-.05h.08c.4.07.79.13,1.19.18-2.58.11-5.34.15-8.25.1a153.84,153.84,0,0,1-22-2l1.21,0Z"/><path class="i" d="M1058.25,467.76c.45,0,1,.15,1.49.21s5.28.75,11.11,1.11,10.05.33,11.6.3c.47,0,1.1-.07,1.57,0h.08l1.21.19c-2.3.08-4.74.1-7.29.05a153.12,153.12,0,0,1-21.07-1.8l1.22,0Z"/><path class="i" d="M1087.28,469.46h.24c-2.93.16-6.11.21-9.5.15a150.65,150.65,0,0,1-23.23-2.16l.23,0a143.9,143.9,0,0,0,15.77,1.84A142.43,142.43,0,0,0,1087.28,469.46Z"/><path class="i" d="M1060.88,466.16c.37,0,.86.11,1.22.16s4.3.53,8.93.82,8,.31,9.3.3c.38,0,.9,0,1.29,0h.07l1,.17c-1.49,0-3,0-4.59,0a156.64,156.64,0,0,1-18.34-1.41l1,0Z"/><path class="i" d="M1089,467.38h.21c-3.34.22-7,.31-11,.25a149,149,0,0,1-24.75-2.46l.21,0c2.24.41,4.55.84,8.23,1.29,3.83.47,7,.72,9,.85A140.47,140.47,0,0,0,1089,467.38Z"/><path d="M1087.59,451.78l1.77.3c10.18,1.76,17.91,4.38,20.16,7.19,3.86,4.85-9.93,8.49-30.78,8.13s-40.92-4.6-44.78-9.44c-3.23-4,5.84-7.25,21-8l1.79-.09c-13.62.66-21.76,3.54-18.87,7.16,3.46,4.34,21.47,8.14,40.15,8.47s31.05-2.94,27.59-7.29C1103.66,455.7,1096.72,453.36,1087.59,451.78Z"/><path class="i" d="M1087,465.61h.22c-2.78.14-5.78.18-9,.13a152.85,152.85,0,0,1-22.7-2.07l.22,0a149.5,149.5,0,0,0,31.22,1.92Z"/><path d="M1086.78,475.1l-1.67.07c-2.39.09-4.95.12-7.63.07a149.53,149.53,0,0,1-21-1.83h0l-1.64-.27a165.62,165.62,0,0,0,23.4,2C1081.26,475.24,1084.11,475.21,1086.78,475.1Z"/><path d="M1065.52,449.76c18.68.32,36.69,4.12,40.15,8.46s-8.91,7.61-27.59,7.29-36.69-4.13-40.15-8.47S1046.84,449.43,1065.52,449.76Zm12,15.06c17,.29,28.33-2.69,25.17-6.65s-19.59-7.42-36.63-7.72-28.33,2.68-25.17,6.64,19.59,7.43,36.63,7.73"/><path d="M1086.8,473.15l-1.66.07c-2.37.09-4.89.11-7.54.07a149.9,149.9,0,0,1-20.89-1.82h0l-1.63-.27a164.5,164.5,0,0,0,23.31,2C1081.34,473.28,1084.16,473.25,1086.8,473.15Z"/><path d="M1087.81,471.15l-1.74.08c-2.6.11-5.4.15-8.35.1a147.51,147.51,0,0,1-21.7-1.95l-.08,0-.26,0-.17,0-.17,0-.17,0-.86-.14a166,166,0,0,0,24.19,2.17C1081.79,471.32,1084.91,471.28,1087.81,471.15Z"/><ellipse class="i" cx="1071.8" cy="457.63" rx="7.84" ry="35.49" transform="translate(549.18 1499.29) rotate(-86.48)"/><path d="M1087,469.24l-1.66.07c-2.35.08-4.85.11-7.48.06a149.12,149.12,0,0,1-20.82-1.8l-.09,0-.73-.12-.82-.13a165.42,165.42,0,0,0,23.25,2C1081.56,469.37,1084.35,469.34,1087,469.24Z"/><path d="M1084.28,467.4l-1.34,0c-1.6,0-3.25,0-5,0a151.88,151.88,0,0,1-18.33-1.42l-1.31-.19a170.76,170.76,0,0,0,20.41,1.59C1080.65,467.43,1082.5,467.43,1084.28,467.4Z"/></g><text class="k" transform="translate(1034.5 507.6)">Clie<tspan class="o" x="46.53" y="0">n</tspan><tspan class="d" x="63.06" y="0">t</tspan></text><g class="h"><path d="M1001,589.59l1.64.27a134.86,134.86,0,0,0-19.14-1.68c-2.45,0-4.77,0-7,.07h0l1.67-.06q2.87-.12,6.08-.06A117.32,117.32,0,0,1,1001,589.59Z"/><path d="M1001,587.62l1.64.27a135.68,135.68,0,0,0-19.06-1.66c-2.42,0-4.72,0-6.88.06l1.66-.06c1.89-.07,3.9-.09,6-.06A120.58,120.58,0,0,1,1001,587.62Z"/><path d="M999.31,581.48l1.31.18a139.38,139.38,0,0,0-16.65-1.3c-1.56,0-3.07,0-4.52,0h0l1.34,0c1.27,0,2.59,0,4,0A120.45,120.45,0,0,1,999.31,581.48Z"/><path d="M1001.8,585.76l1.71.29a135.23,135.23,0,0,0-19.8-1.78c-2.69,0-5.25,0-7.62.1h0l1.74-.08c2.08-.1,4.31-.13,6.66-.09A118.28,118.28,0,0,1,1001.8,585.76Z"/><path d="M1001.21,583.7l1.63.27a134.87,134.87,0,0,0-19-1.65c-2.4-.05-4.68,0-6.83.06h0l1.66-.06c1.87-.08,3.87-.1,6-.06A118.78,118.78,0,0,1,1001.21,583.7Z"/><path class="i" d="M975.73,601.6a66.25,66.25,0,0,1-8.56-1.64c-1.1-.23-2.55-.68-3.65-1a30.83,30.83,0,0,1-5.71-2.18c-1-.55-2.72-1.29-3.13-2.4-.13-.35-.52-.83-.41-1.19a4.7,4.7,0,0,1,1.46-2.15c.63-.44,2.58-1.57,7.23-2.46,2.27-.44,5.33-.76,7.62-1,1.35-.14,3.16-.19,4.52-.27l1.46-.06c-13,.51-20.92,3.19-18.22,6.58,3.16,4,19.6,7.43,36.65,7.73s28.35-2.69,25.19-6.65c-1.92-2.4-8.68-4.61-17.5-6.05,3.25.53,5.77,1,5.79,1,1.2.24,2.79.58,4,.91,2,.54,4.56,1.38,6.47,2.08a19.11,19.11,0,0,1,2.37,1.14c1,.53,2.51,1.35,2.68,2.41.06.35.33.86.16,1.17a6,6,0,0,1-1.91,2.1c-.73.43-2.94,1.52-7.8,2.35-2.36.41-5.54.7-7.93.91-1.39.13-3.25.16-4.64.22,0,0-3.16-.5-6.34-1.17a2.29,2.29,0,0,0-.36-.07c-.23,0-.53,0-.76,0-.93,0-3.44-.08-6.59-.29-2.49-.17-4.53-.37-4.75-.4a6.39,6.39,0,0,0-1.07,0C978.84,601.5,975.74,601.6,975.73,601.6Z"/><path d="M1003.12,600.48l-1.81.09c10.79-.53,17.24-2.82,14.94-5.7-2.75-3.46-17.12-6.48-32-6.74s-24.75,2.34-22,5.8c1.59,2,7.08,3.86,14.31,5.12l-1.79-.31c-8.27-1.44-14.55-3.57-16.38-5.86-3.16-4,8.14-7,25.18-6.65s33.48,3.76,36.64,7.72C1022.86,597.25,1015.49,599.87,1003.12,600.48Z"/><path class="i" d="M975.1,587.34c-2.58.15-6,.29-8.58.69-1.07.17-2.51.33-3.56.58a35.13,35.13,0,0,0-5.44,1.53,11.13,11.13,0,0,0-2.89,2c-.25.24-.26.77-.36,1.11-.25.84.94,1.87,1.62,2.41,1,.78,3.12,2,7.63,3.36,1.09.33,2.55.74,3.65,1,2.56.55,6,1.2,8.56,1.64l-1.27,0c-10.12-1.62-17.91-4.15-20.09-6.88-3-3.83,5.84-6.84,20.52-7.41Z"/><path class="i" d="M1001.83,603.21c2.65-.13,6.21-.23,8.85-.6,1.12-.15,2.62-.3,3.72-.53a42.54,42.54,0,0,0,5.81-1.45,14.12,14.12,0,0,0,3.3-1.91c.3-.22.43-.76.6-1.09.37-.7-.55-1.84-1.13-2.38-.83-.79-2.73-2-7.05-3.42-1-.34-2.43-.76-3.5-1-2.48-.57-5.81-1.25-8.31-1.71l.2,0c9.93,1.62,17.55,4.11,19.71,6.82,3.08,3.86-6,6.89-20.95,7.42Z"/><path class="i" d="M976,599.66a68.08,68.08,0,0,1-8.59-1.63c-1.11-.24-2.57-.69-3.67-1a30.84,30.84,0,0,1-5.74-2.18c-1.05-.56-2.74-1.29-3.14-2.41-.13-.35-.53-.83-.42-1.19a4.55,4.55,0,0,1,1.47-2.15c.63-.45,2.59-1.58,7.26-2.47,2.27-.44,5.35-.76,7.66-1,1.35-.14,3.17-.19,4.53-.27l1.46,0c-13.08.5-21,3.18-18.31,6.58,3.16,4,19.6,7.43,36.65,7.73s28.35-2.69,25.19-6.65c-1.92-2.41-8.73-4.63-17.59-6.07,3.2.52,5.78,1,5.81,1,1.2.24,2.8.58,4,.91,2,.55,4.57,1.38,6.49,2.08a18.09,18.09,0,0,1,2.39,1.15c1,.52,2.51,1.35,2.69,2.42,0,.35.33.86.16,1.17a6,6,0,0,1-1.92,2.1c-.73.43-2.95,1.53-7.83,2.36-2.38.4-5.58.69-8,.9-1.4.13-3.27.16-4.67.22,0,0-3.09-.49-6.23-1.15-.1,0-.25-.07-.36-.08h-.75c-.93,0-3.45-.08-6.6-.29-2.5-.17-4.53-.38-4.76-.4a6.27,6.27,0,0,0-1.06,0C979,599.56,976,599.66,976,599.66Z"/><path class="i" d="M995.13,602c.11,0,.25,0,.36.07,1.91.41,4,.8,6.34,1.17-2.55,0-6.8.14-13.34-.26-6.08-.38-10.59-1-12.76-1.35,2.26-.09,4.36-.21,6.23-.38l.36,0c.22,0,.5,0,.71.07s2.72.28,5.59.46,5.13.22,5.75.23C994.6,602,994.9,601.94,995.13,602Z"/><path class="i" d="M973.16,599.45a143.59,143.59,0,0,0,15.4,1.78,140.92,140.92,0,0,0,16.1.16l-.87,0c-.24,0-.48,0-.72,0-2.51.13-5.21.17-8.08.12a134.84,134.84,0,0,1-20.26-1.86Z"/><path d="M1005.24,587.58l1.79.31c10.1,1.77,17.77,4.36,20,7.17,3.86,4.85-9.93,8.49-30.78,8.12s-40.91-4.59-44.78-9.44c-3.22-4,5.79-7.23,20.9-8l1.82-.09c-13.55.68-21.63,3.54-18.75,7.15,3.47,4.35,21.47,8.14,40.15,8.47s31.05-2.94,27.59-7.28C1021.18,591.49,1014.3,589.16,1005.24,587.58Z"/><path d="M1003.41,598.52l-1.84.09c10.71-.55,17.09-2.83,14.8-5.69-2.75-3.46-17.12-6.49-32-6.75s-24.75,2.35-22,5.81c1.58,2,7,3.83,14.16,5.09h0l-.91-.16-.9-.16c-8.19-1.44-14.4-3.55-16.21-5.83-3.16-4,8.13-6.95,25.18-6.65s33.48,3.76,36.64,7.73C1023,595.28,1015.68,597.89,1003.41,598.52Z"/><path class="i" d="M975.31,585.38c-2.59.15-6,.29-8.61.69-1.08.17-2.52.33-3.58.58a35.49,35.49,0,0,0-5.47,1.53,11.38,11.38,0,0,0-2.89,2c-.26.24-.27.78-.37,1.12-.25.84,1,1.87,1.63,2.41,1,.79,3.13,2,7.67,3.37,1.09.33,2.56.74,3.67,1,2.56.54,6,1.19,8.59,1.63l-.73,0h-.55c-10.17-1.62-18-4.15-20.18-6.89-3.06-3.84,5.88-6.85,20.62-7.42Z"/><path class="i" d="M1001.84,601.26c2.67-.13,6.25-.22,8.9-.59,1.12-.16,2.63-.3,3.74-.53a43.22,43.22,0,0,0,5.83-1.46,14.25,14.25,0,0,0,3.32-1.91c.3-.23.43-.76.6-1.09.37-.71-.56-1.85-1.13-2.39-.84-.79-2.75-2-7.09-3.43-1-.34-2.45-.76-3.51-1-2.5-.57-5.84-1.25-8.35-1.71l.2,0c10,1.62,17.64,4.12,19.8,6.83,3.09,3.87-6.05,6.91-21,7.44Z"/><path class="i" d="M975.15,597.56a63.5,63.5,0,0,1-8.26-1.64c-1.07-.23-2.46-.67-3.51-1a29.1,29.1,0,0,1-5.49-2.15c-1-.54-2.62-1.27-3-2.35-.12-.35-.5-.81-.39-1.16a4.58,4.58,0,0,1,1.42-2.11c.6-.43,2.48-1.54,7-2.44,2.18-.43,5.14-.76,7.35-1,1.3-.14,3-.2,4.36-.28l1.52-.07c-12.65.57-20.25,3.22-17.58,6.56,3.16,4,19.62,7.44,36.69,7.73s28.38-2.68,25.22-6.65c-1.87-2.34-8.36-4.51-16.87-5.95,6.12,1,8.84,1.76,9.53,1.95,1.9.54,4.39,1.37,6.23,2.05a18,18,0,0,1,2.29,1.13c.91.51,2.4,1.33,2.56,2.36,0,.34.32.84.16,1.15a5.88,5.88,0,0,1-1.85,2c-.7.42-2.82,1.5-7.5,2.34a90.2,90.2,0,0,1-12.13,1.16s-3.53-.53-7.16-1.31a3.15,3.15,0,0,0-.42-.09h-.74c-.92,0-3.4-.08-6.51-.29-2.41-.16-4.34-.36-4.7-.4a6.83,6.83,0,0,0-1.11,0C978.67,597.46,975.17,597.56,975.15,597.56Z"/><path class="i" d="M995.25,600l.36.08c1.88.39,4,.78,6.23,1.15-2.52,0-6.75.13-13.23-.27-6-.37-10.51-1-12.66-1.33,2.22-.08,4.29-.21,6.13-.37l.35,0c.22,0,.5,0,.71.07s2.73.28,5.6.45,5.14.23,5.76.24C994.73,600,995,600,995.25,600Z"/><path class="i" d="M973.09,597.47a146.64,146.64,0,0,0,15.58,1.81,143.46,143.46,0,0,0,16.29.15l-1.61.08c-2.54.13-5.31.18-8.24.13a134.12,134.12,0,0,1-20.43-1.9Z"/><path d="M1005.55,585.66l1.8.32c10,1.76,17.59,4.34,19.81,7.13,3.86,4.84-9.93,8.48-30.77,8.12s-40.92-4.59-44.79-9.44c-3.2-4,5.7-7.2,20.69-8h0l1.84-.1c-13.43.7-21.42,3.55-18.55,7.15,3.46,4.34,21.46,8.13,40.14,8.46s31-2.94,27.58-7.28C1021.31,589.55,1014.51,587.24,1005.55,585.66Z"/><path d="M1003.71,596.56l-1.84.09c10.63-.56,16.94-2.84,14.66-5.69-2.76-3.46-17.15-6.5-32-6.76s-24.78,2.35-22,5.82c1.58,2,6.94,3.81,14,5.07l-1.81-.32c-8.1-1.44-14.23-3.54-16-5.81-3.16-4,8.14-6.94,25.19-6.64s33.49,3.76,36.65,7.72C1023.08,593.31,1015.87,595.91,1003.71,596.56Z"/><path class="i" d="M1005,599.43h.23c-2.87.14-6,.19-9.29.14a152.39,152.39,0,0,1-23-2.13l.22,0a146.64,146.64,0,0,0,15.58,1.81A144.22,144.22,0,0,0,1005,599.43Z"/><path class="i" d="M974.61,583.46c-2.49.16-5.82.31-8.28.72-1,.17-2.42.33-3.43.57a34.73,34.73,0,0,0-5.25,1.52,10.9,10.9,0,0,0-2.78,1.93c-.25.24-.26.77-.36,1.1-.24.81.88,1.82,1.54,2.35.94.77,3,2,7.33,3.31,1,.32,2.44.73,3.51,1,2.47.55,5.78,1.2,8.26,1.64l-1.29,0c-9.71-1.63-17.13-4.09-19.26-6.75-3-3.76,5.55-6.74,19.79-7.38Z"/><path class="i" d="M1002.88,599.27c2.56-.14,6-.25,8.54-.63,1.08-.16,2.52-.3,3.59-.53a41.34,41.34,0,0,0,5.59-1.45,13.8,13.8,0,0,0,3.18-1.88c.28-.22.41-.74.58-1.06.34-.69-.53-1.81-1.09-2.34-.8-.77-2.62-2-6.77-3.36-1-.33-2.35-.75-3.38-1-2.39-.56-5.61-1.24-8-1.7l.22,0c9.57,1.62,16.87,4.06,19,6.7,3,3.79-5.68,6.78-20.13,7.39Z"/><path class="i" d="M976.25,595.76a67,67,0,0,1-8.61-1.64c-1.12-.24-2.57-.68-3.68-1a31,31,0,0,1-5.75-2.19c-1.06-.55-2.75-1.29-3.16-2.41-.13-.36-.53-.83-.42-1.19a4.72,4.72,0,0,1,1.47-2.16c.63-.44,2.6-1.57,7.28-2.47,2.29-.44,5.37-.76,7.68-1,1.36-.14,3.19-.18,4.55-.26l1.45-.06c-13.11.5-21.07,3.18-18.36,6.59,3.17,4,19.6,7.43,36.65,7.72s28.35-2.68,25.19-6.64c-1.92-2.41-8.75-4.64-17.64-6.08,3.2.52,5.79,1,5.81,1,1.2.24,2.81.58,4,.91,2,.54,4.59,1.38,6.52,2.08a18.09,18.09,0,0,1,2.39,1.15c.95.53,2.52,1.35,2.7,2.42.06.35.33.86.17,1.17a6,6,0,0,1-1.94,2.11c-.73.43-2.95,1.53-7.85,2.36-2.38.4-5.59.69-8,.9-1.4.13-3.28.16-4.68.22,0,0-3.06-.49-6.16-1.14a2.29,2.29,0,0,0-.36-.07c-.23,0-.53,0-.75,0-.94,0-3.46-.08-6.61-.29-2.5-.17-4.54-.38-4.76-.4a6.31,6.31,0,0,0-1.06,0C979.27,595.66,976.26,595.76,976.25,595.76Z"/><path class="i" d="M995.3,597.87a3.15,3.15,0,0,1,.42.09c2.15.46,4.56.9,7.16,1.31-2.69.07-7.19.19-14.18-.24-6.48-.4-11.25-1.12-13.55-1.47,2.59-.09,5-.23,7.09-.42.13,0,.29,0,.41,0s.49,0,.7.07,2.69.28,5.53.45,5.07.22,5.68.24A6.06,6.06,0,0,1,995.3,597.87Z"/><path class="i" d="M973,595.48a143.9,143.9,0,0,0,15.77,1.84,141.38,141.38,0,0,0,16.49.14l-1.61.09c-2.6.14-5.43.19-8.43.13a133.86,133.86,0,0,1-20.64-1.92Z"/><path d="M1005.86,583.74l1.82.32c9.88,1.76,17.36,4.32,19.57,7.09,3.85,4.84-9.93,8.48-30.75,8.11s-40.88-4.59-44.75-9.43c-3.17-4,5.62-7.16,20.46-8l1.85-.1c-13.31.71-21.21,3.56-18.36,7.13,3.47,4.34,21.46,8.14,40.14,8.46s31-2.93,27.58-7.28C1021.44,587.62,1014.73,585.32,1005.86,583.74Z"/><path d="M1005.18,594.48l-2,.14c9.88-.67,15.62-2.87,13.43-5.61-2.75-3.46-17.12-6.49-32-6.75s-24.75,2.35-22,5.8c1.48,1.86,6.32,3.6,12.79,4.85h0l-1.09-.21-.88-.17c-7.39-1.43-12.91-3.41-14.61-5.53-3.15-4,8.12-6.93,25.13-6.64s33.4,3.76,36.55,7.71C1023,591.2,1016.47,593.72,1005.18,594.48Z"/><path class="i" d="M975.61,581.47c-2.6.15-6.07.28-8.64.69-1.07.17-2.52.32-3.59.57a35.61,35.61,0,0,0-5.48,1.53,11,11,0,0,0-2.9,2c-.26.24-.27.78-.37,1.12-.25.84,1,1.87,1.64,2.42,1,.78,3.14,2,7.69,3.37,1.1.32,2.56.73,3.68,1,2.57.55,6,1.2,8.61,1.64l-1.3,0c-10.19-1.62-18-4.16-20.23-6.9-3.06-3.84,5.9-6.86,20.68-7.43Z"/><path class="i" d="M1002,597.35c2.68-.13,6.26-.22,8.92-.59,1.12-.16,2.63-.3,3.75-.53a43.5,43.5,0,0,0,5.85-1.46,14.52,14.52,0,0,0,3.33-1.91c.3-.23.43-.76.61-1.1.36-.7-.57-1.85-1.15-2.39-.84-.79-2.76-2-7.11-3.43a88.14,88.14,0,0,0-11.89-2.71l.2,0c10,1.63,17.71,4.14,19.87,6.85,3.09,3.88-6.07,6.92-21.09,7.44Z"/><path class="i" d="M978.88,594.16a39.84,39.84,0,0,1-5-.74c-2.61-.51-6.08-1.25-8.67-1.89a48.15,48.15,0,0,1-6.46-2.29,9.22,9.22,0,0,1-3.56-2.55,2.53,2.53,0,0,1-.06-2.47,7.37,7.37,0,0,1,3.28-2.08,43.34,43.34,0,0,1,6.18-1.56,77.17,77.17,0,0,1,8.6-.94c1.51-.12,3.54-.13,5.06-.19l1.19,0c-14.47.25-23.53,3-20.66,6.65,3.16,4,19.6,7.42,36.65,7.72s28.35-2.68,25.19-6.64c-2.09-2.62-9.95-5-19.95-6.43,5.93.84,8.78,1.48,10.48,1.87a43.25,43.25,0,0,1,7.34,2.16,37.55,37.55,0,0,1,4.7,2.47,7.15,7.15,0,0,1,1.14,1.31c.49.55.07,1.87-.42,2.42a8.51,8.51,0,0,1-3.71,2c-1.94.54-4.56,1.12-6.53,1.49a41.83,41.83,0,0,1-4.18.51c-3,.21-6.94.54-9.91.47,0,0-1.74-.3-3.6-.67a1.91,1.91,0,0,0-.21,0c-.24,0-.55,0-.78,0-.4,0-2.49-.05-5.09-.19-3.3-.18-6-.44-6.68-.52-.22,0-.51-.07-.73-.07h-.21C980.56,594.08,978.89,594.16,978.88,594.16Z"/><path class="i" d="M995.5,596.14c.11,0,.25.05.36.07,1.85.39,3.92.77,6.16,1.14-2.51,0-6.72.13-13.17-.27-6-.37-10.45-1-12.6-1.32,2.21-.09,4.25-.21,6.07-.37l.35,0c.21,0,.49,0,.71.07s2.73.28,5.6.45,5.14.23,5.77.24C995,596.13,995.27,596.11,995.5,596.14Z"/><path class="i" d="M971.59,593.2c2.24.41,4.55.84,8.23,1.29s7,.72,9,.85a140.64,140.64,0,0,0,18.08,0l-1,.07c-.26,0-.53,0-.8,0-3,.2-6.26.28-9.81.22a131,131,0,0,1-22-2.18Z"/><path d="M1007.55,582l1.08.21.89.17c9,1.74,15.8,4.17,17.88,6.78,3.87,4.84-9.93,8.48-30.77,8.12s-40.92-4.6-44.79-9.44c-3.06-3.84,5-6.92,18.78-7.86l.3,0,.7,0,1-.07c-12.42.85-19.62,3.61-16.87,7.06,3.47,4.35,21.51,8.16,40.22,8.48s31.12-2.94,27.65-7.29C1021.75,585.79,1015.68,583.61,1007.55,582Z"/><path d="M1003.48,592.71l-1.8.08c10.86-.53,17.35-2.82,15.05-5.7-2.75-3.46-17.12-6.49-32-6.75s-24.75,2.35-22,5.8c1.6,2,7.13,3.88,14.41,5.14l-1.77-.3c-8.33-1.45-14.66-3.58-16.49-5.89-3.16-4,8.13-6.94,25.17-6.64s33.47,3.76,36.63,7.72C1023.34,589.48,1015.91,592.1,1003.48,592.71Z"/><path class="i" d="M999.62,595.44c3-.08,7-.12,9.91-.47,1.25-.15,2.94-.28,4.18-.51a50.18,50.18,0,0,0,6.53-1.49,15.86,15.86,0,0,0,3.71-2c.32-.24.46-.81.65-1.17.4-.77-.71-2-1.37-2.56-1-.84-3.17-2.14-8.08-3.6a100.81,100.81,0,0,0-13.27-2.74l.14,0c11.25,1.59,20.08,4.29,22.43,7.23,3.26,4.09-7.17,7.25-23.73,7.48Z"/><path class="i" d="M978.29,579.45c-2.89.11-6.77.18-9.64.57-1.21.17-2.83.31-4,.56a42,42,0,0,0-6.18,1.56,12.66,12.66,0,0,0-3.28,2.08c-.29.25-.31.83-.42,1.19-.29.91,1.09,2,1.86,2.58s3.27,2.06,8.64,3.54c2.57.71,6.06,1.38,8.67,1.89,1.48.28,3.47.52,5,.74l-1.09.05c-11.46-1.58-20.49-4.3-22.87-7.28-3.23-4,7-7.19,23.23-7.48Z"/><path class="i" d="M975.73,601.6c.45,0,1,.15,1.51.22s5.34.76,11.25,1.13,10.18.32,11.75.29c.48,0,1.11-.06,1.59,0h.08l1.17.18c-2.34.09-4.82.11-7.42.06a153.12,153.12,0,0,1-21.2-1.82l1.19,0Z"/><path class="i" d="M976,599.66c.45,0,1,.15,1.5.22s5.3.75,11.16,1.11,10.1.33,11.66.3c.47,0,1.1-.07,1.57,0h.09l1.18.19c-2.31.08-4.76.1-7.33,0a153.39,153.39,0,0,1-21.11-1.81l1.2,0Z"/><path class="i" d="M995.81,594.73a1.91,1.91,0,0,1,.21,0c1.66.33,3.12.59,3.6.67a152.38,152.38,0,0,1-20.74-1.28c1.69-.08,3-.18,3.44-.22h.21c.22,0,.51.05.73.07s2.83.29,5.8.47,5.32.23,6,.24C995.26,594.72,995.57,594.7,995.81,594.73Z"/><path class="i" d="M1004.66,601.39h.22c-2.82.14-5.87.19-9.1.13a151.79,151.79,0,0,1-22.84-2.09l.22,0a143.59,143.59,0,0,0,15.4,1.78A141.45,141.45,0,0,0,1004.66,601.39Z"/><path class="i" d="M973.78,591.69A142.9,142.9,0,0,0,989,593.45a140.91,140.91,0,0,0,16,.16l-1.57.08c-2.47.12-5.14.16-8,.11A133.66,133.66,0,0,1,975.33,592Z"/><path class="i" d="M975.15,597.56c.49,0,1.12.17,1.59.24s5.66.85,12,1.23c6.49.4,11.21.32,12.51.29.5,0,1.17-.08,1.67-.05h.08c.4.07.79.13,1.19.18-2.58.11-5.34.15-8.25.1a153.84,153.84,0,0,1-22-2l1.21,0Z"/><path class="i" d="M976.25,595.76c.45,0,1,.15,1.49.21s5.28.75,11.11,1.11,10,.33,11.6.3c.47,0,1.1-.07,1.57,0h.08l1.21.19c-2.3.08-4.74.1-7.29.05A153.12,153.12,0,0,1,975,595.8l1.22,0Z"/><path class="i" d="M1005.28,597.46h.24c-2.93.16-6.11.21-9.5.15a150.65,150.65,0,0,1-23.23-2.16l.23,0a143.9,143.9,0,0,0,15.77,1.84A142.43,142.43,0,0,0,1005.28,597.46Z"/><path class="i" d="M978.88,594.16c.37,0,.86.11,1.22.16s4.3.53,8.93.82,8,.31,9.3.3c.38,0,.9,0,1.29,0h.07l1,.17c-1.49,0-3,0-4.59,0a156.64,156.64,0,0,1-18.34-1.41l1,0Z"/><path class="i" d="M1007,595.38h.21c-3.34.22-7,.31-11,.25a149,149,0,0,1-24.75-2.46l.21,0c2.24.41,4.55.84,8.23,1.29s7,.72,9,.85A140.47,140.47,0,0,0,1007,595.38Z"/><path d="M1005.59,579.78l1.77.3c10.18,1.76,17.91,4.38,20.16,7.19,3.86,4.85-9.93,8.49-30.78,8.13S955.82,590.8,952,586c-3.23-4.05,5.84-7.25,21-8l1.79-.09c-13.62.66-21.76,3.54-18.87,7.16,3.46,4.34,21.47,8.14,40.15,8.47s31.05-2.94,27.59-7.29C1021.66,583.7,1014.72,581.36,1005.59,579.78Z"/><path class="i" d="M1005,593.61h.22c-2.78.14-5.78.18-9,.13a152.85,152.85,0,0,1-22.7-2.07l.22,0a149.5,149.5,0,0,0,31.22,1.92Z"/><path d="M1004.78,603.1l-1.67.07c-2.39.09-5,.12-7.63.07a149.53,149.53,0,0,1-21-1.83h0l-1.64-.27a165.62,165.62,0,0,0,23.4,2C999.26,603.24,1002.11,603.21,1004.78,603.1Z"/><path d="M983.52,577.76c18.68.32,36.69,4.12,40.15,8.46s-8.91,7.61-27.59,7.29-36.69-4.13-40.15-8.47S964.84,577.43,983.52,577.76Zm12,15.06c17,.29,28.33-2.69,25.17-6.65s-19.59-7.42-36.63-7.72-28.33,2.68-25.17,6.64,19.59,7.43,36.63,7.73"/><path d="M1004.8,601.15l-1.66.07c-2.37.09-4.89.11-7.54.07a149.9,149.9,0,0,1-20.89-1.82h0l-1.63-.27a164.5,164.5,0,0,0,23.31,2C999.34,601.28,1002.16,601.25,1004.8,601.15Z"/><path d="M1005.81,599.15l-1.74.08c-2.6.11-5.4.15-8.35.1a147.51,147.51,0,0,1-21.7-2l-.08,0-.26,0-.17,0-.17,0-.17,0-.86-.14a166,166,0,0,0,24.19,2.17C999.79,599.32,1002.91,599.28,1005.81,599.15Z"/><ellipse class="i" cx="989.8" cy="585.63" rx="7.84" ry="35.49" transform="translate(344.46 1537.58) rotate(-86.48)"/><path d="M1005,597.24l-1.66.07c-2.35.08-4.85.11-7.48.06a149.12,149.12,0,0,1-20.82-1.8l-.09,0-.73-.12-.82-.13a165.42,165.42,0,0,0,23.25,2C999.56,597.37,1002.35,597.34,1005,597.24Z"/><path d="M1002.28,595.4l-1.34,0c-1.6,0-3.25,0-5,0A151.88,151.88,0,0,1,977.64,594l-1.31-.19a170.76,170.76,0,0,0,20.41,1.59C998.65,595.43,1000.5,595.43,1002.28,595.4Z"/></g><text class="k" transform="translate(952.5 635.6)">Clie<tspan class="o" x="46.53" y="0">n</tspan><tspan class="d" x="63.06" y="0">t</tspan></text><text class="p" transform="matrix(0.95, -0.3, 0.3, 0.95, 843.46, 543.76)">st<tspan class="q" x="8" y="0">a</tspan><tspan class="r" x="13.26" y="0">t</tspan><tspan x="16.84" y="0">e change</tspan></text><text class="p" transform="translate(798.63 513.6) rotate(-32.86)">st<tspan class="q" x="8" y="0">a</tspan><tspan class="r" x="13.26" y="0">t</tspan><tspan x="16.84" y="0">e change</tspan></text><text class="p" transform="translate(708.64 537.53) rotate(-57.8)">st<tspan class="q" x="8" y="0">a</tspan><tspan class="r" x="13.26" y="0">t</tspan><tspan x="16.84" y="0">e change</tspan></text><text class="p" transform="translate(773.77 604.73) rotate(2.8)">st<tspan class="q" x="8" y="0">a</tspan><tspan class="r" x="13.26" y="0">t</tspan><tspan x="16.84" y="0">e change</tspan></text><g class="h"><path d="M808,389.59l1.64.27a134.86,134.86,0,0,0-19.14-1.68c-2.45,0-4.77,0-7,.07h0l1.67-.06q2.87-.12,6.08-.06A117.32,117.32,0,0,1,808,389.59Z"/><path d="M808,387.62l1.64.27a135.68,135.68,0,0,0-19.06-1.66c-2.42,0-4.72,0-6.88.06l1.66-.06c1.89-.07,3.9-.09,6-.06A120.58,120.58,0,0,1,808,387.62Z"/><path d="M806.31,381.48l1.31.18a139.38,139.38,0,0,0-16.65-1.3c-1.56,0-3.07,0-4.52,0h0l1.34,0c1.27,0,2.59,0,4,0A120.45,120.45,0,0,1,806.31,381.48Z"/><path d="M808.8,385.76l1.71.29a135.23,135.23,0,0,0-19.8-1.78c-2.69,0-5.25,0-7.62.1h0l1.74-.08c2.08-.1,4.31-.13,6.66-.09A118.28,118.28,0,0,1,808.8,385.76Z"/><path d="M808.21,383.7l1.63.27a134.87,134.87,0,0,0-19-1.65c-2.4-.05-4.68,0-6.83.06h0l1.66-.06c1.87-.08,3.87-.1,6-.06A118.78,118.78,0,0,1,808.21,383.7Z"/><path class="i" d="M782.73,401.6a66.25,66.25,0,0,1-8.56-1.64c-1.1-.23-2.55-.68-3.65-1a30.83,30.83,0,0,1-5.71-2.18c-1-.55-2.72-1.29-3.13-2.4-.13-.35-.52-.83-.41-1.19a4.7,4.7,0,0,1,1.46-2.15c.63-.44,2.58-1.57,7.23-2.46,2.27-.44,5.33-.76,7.62-1,1.35-.14,3.16-.19,4.52-.27l1.46-.06c-13,.51-20.92,3.19-18.22,6.58,3.16,4,19.6,7.43,36.65,7.73s28.35-2.69,25.19-6.65c-1.92-2.4-8.68-4.61-17.5-6.05,3.25.53,5.77,1,5.79,1,1.2.24,2.79.58,4,.91,2,.54,4.56,1.38,6.47,2.08a19.11,19.11,0,0,1,2.37,1.14c1,.53,2.51,1.35,2.68,2.41.06.35.33.86.16,1.17a6,6,0,0,1-1.91,2.1c-.73.43-2.94,1.52-7.8,2.35-2.36.41-5.54.7-7.93.91-1.39.13-3.25.16-4.64.22,0,0-3.16-.5-6.34-1.17a2.29,2.29,0,0,0-.36-.07c-.23,0-.53,0-.76,0-.93,0-3.44-.08-6.59-.29-2.49-.17-4.53-.37-4.75-.4a6.39,6.39,0,0,0-1.07,0C785.84,401.5,782.74,401.6,782.73,401.6Z"/><path d="M810.12,400.48l-1.81.09c10.79-.53,17.24-2.82,14.94-5.7-2.75-3.46-17.12-6.48-32-6.74s-24.75,2.34-22,5.8c1.59,2,7.08,3.86,14.31,5.12l-1.79-.31c-8.27-1.44-14.55-3.57-16.38-5.86-3.16-4,8.14-6.95,25.18-6.65S824.07,390,827.23,394C829.86,397.25,822.49,399.87,810.12,400.48Z"/><path class="i" d="M782.1,387.34c-2.58.15-6,.29-8.58.69-1.07.17-2.51.33-3.56.58a35.13,35.13,0,0,0-5.44,1.53,11.13,11.13,0,0,0-2.89,2c-.25.24-.26.77-.36,1.11-.25.84.94,1.87,1.62,2.41,1,.78,3.12,2,7.63,3.36,1.09.33,2.55.74,3.65,1,2.56.55,6,1.2,8.56,1.64l-1.27,0c-10.12-1.62-17.91-4.15-20.09-6.88-3-3.83,5.84-6.84,20.52-7.41Z"/><path class="i" d="M808.83,403.21c2.65-.13,6.21-.23,8.85-.6,1.12-.15,2.62-.3,3.72-.53a42.54,42.54,0,0,0,5.81-1.45,14.12,14.12,0,0,0,3.3-1.91c.3-.22.43-.76.6-1.09.37-.7-.55-1.84-1.13-2.38-.83-.79-2.73-2-7.05-3.42-1-.34-2.43-.76-3.5-1-2.48-.57-5.81-1.25-8.31-1.71l.2,0c9.93,1.62,17.55,4.11,19.71,6.82,3.08,3.86-6,6.89-20.95,7.42Z"/><path class="i" d="M783,399.66a68.08,68.08,0,0,1-8.59-1.63c-1.11-.24-2.57-.69-3.67-1a30.84,30.84,0,0,1-5.74-2.18c-1.05-.56-2.74-1.29-3.14-2.41-.13-.35-.53-.83-.42-1.19a4.55,4.55,0,0,1,1.47-2.15c.63-.45,2.59-1.58,7.26-2.47,2.27-.44,5.35-.76,7.66-1,1.35-.14,3.17-.19,4.53-.27l1.46-.05c-13.08.5-21,3.18-18.31,6.58,3.16,4,19.6,7.43,36.65,7.73S830.46,397,827.3,393c-1.92-2.41-8.73-4.63-17.59-6.07,3.2.52,5.78,1,5.81,1,1.2.24,2.8.58,4,.91,2,.55,4.57,1.38,6.49,2.08a18.09,18.09,0,0,1,2.39,1.15c1,.52,2.51,1.35,2.69,2.42,0,.35.33.86.16,1.17a6,6,0,0,1-1.92,2.1c-.73.43-2.95,1.53-7.83,2.36-2.38.4-5.58.69-8,.9-1.4.13-3.27.16-4.67.22,0,0-3.09-.49-6.23-1.15-.1,0-.25-.07-.36-.08h-.75c-.93,0-3.45-.08-6.6-.29-2.5-.17-4.53-.38-4.76-.4a6.27,6.27,0,0,0-1.06,0C786,399.56,783,399.66,783,399.66Z"/><path class="i" d="M802.13,402c.11,0,.25,0,.36.07,1.91.41,4,.8,6.34,1.17-2.55.05-6.8.14-13.34-.26-6.08-.38-10.59-1-12.76-1.35,2.26-.09,4.36-.21,6.23-.38l.36,0c.22,0,.5.05.71.07s2.72.28,5.59.46,5.13.22,5.75.23C801.6,402,801.9,401.94,802.13,402Z"/><path class="i" d="M780.16,399.45a143.59,143.59,0,0,0,15.4,1.78,140.92,140.92,0,0,0,16.1.16l-.87,0c-.24,0-.48,0-.72,0-2.51.13-5.21.17-8.08.12a134.84,134.84,0,0,1-20.26-1.86Z"/><path d="M812.24,387.58l1.79.31c10.1,1.77,17.77,4.36,20,7.17,3.86,4.85-9.93,8.49-30.78,8.12s-40.91-4.59-44.78-9.44c-3.22-4,5.79-7.23,20.9-8l1.82-.09c-13.55.68-21.63,3.54-18.75,7.15,3.47,4.35,21.47,8.14,40.15,8.47s31-2.94,27.59-7.28C828.18,391.49,821.3,389.16,812.24,387.58Z"/><path d="M810.41,398.52l-1.84.09c10.71-.55,17.09-2.83,14.8-5.69-2.75-3.46-17.12-6.49-32-6.75s-24.75,2.35-22,5.81c1.58,2,7,3.83,14.16,5.09h0l-.91-.16-.9-.16c-8.19-1.44-14.4-3.55-16.21-5.83-3.16-4,8.13-6.95,25.18-6.65S824.19,388,827.35,392C830,395.28,822.68,397.89,810.41,398.52Z"/><path class="i" d="M782.31,385.38c-2.59.15-6,.29-8.61.69-1.08.17-2.52.33-3.58.58a35.49,35.49,0,0,0-5.47,1.53,11.38,11.38,0,0,0-2.89,2c-.26.24-.27.78-.37,1.12-.25.84,1,1.87,1.63,2.41,1,.79,3.13,2,7.67,3.37,1.09.33,2.56.74,3.67,1,2.56.54,6,1.19,8.59,1.63l-.73,0h-.55c-10.17-1.62-18-4.15-20.18-6.89-3.06-3.84,5.88-6.85,20.62-7.42Z"/><path class="i" d="M808.84,401.26c2.67-.13,6.25-.22,8.9-.59,1.12-.16,2.63-.3,3.74-.53a43.22,43.22,0,0,0,5.83-1.46,14.25,14.25,0,0,0,3.32-1.91c.3-.23.43-.76.6-1.09.37-.71-.56-1.85-1.13-2.39-.84-.79-2.75-2-7.09-3.43-1-.34-2.45-.76-3.51-1-2.5-.57-5.84-1.25-8.35-1.71l.2,0c10,1.62,17.64,4.12,19.8,6.83,3.09,3.87-6,6.91-21,7.44Z"/><path class="i" d="M782.15,397.56a63.5,63.5,0,0,1-8.26-1.64c-1.07-.23-2.46-.67-3.51-1a29.1,29.1,0,0,1-5.49-2.15c-1-.54-2.62-1.27-3-2.35-.12-.35-.5-.81-.39-1.16a4.58,4.58,0,0,1,1.42-2.11c.6-.43,2.48-1.54,7-2.44,2.18-.43,5.14-.76,7.35-1,1.3-.14,3-.2,4.36-.28l1.52-.07c-12.65.57-20.25,3.22-17.58,6.56,3.16,4,19.62,7.44,36.69,7.73S830.62,395,827.46,391c-1.87-2.34-8.36-4.51-16.87-5.95,6.12,1,8.84,1.76,9.53,1.95,1.9.54,4.39,1.37,6.23,2.05a18,18,0,0,1,2.29,1.13c.91.51,2.4,1.33,2.56,2.36,0,.34.32.84.16,1.15a5.88,5.88,0,0,1-1.85,2c-.7.42-2.82,1.5-7.5,2.34a90.2,90.2,0,0,1-12.13,1.16s-3.53-.53-7.16-1.31a3.15,3.15,0,0,0-.42-.09h-.74c-.92,0-3.4-.08-6.51-.29-2.41-.16-4.34-.36-4.7-.4a6.83,6.83,0,0,0-1.11,0C785.67,397.46,782.17,397.56,782.15,397.56Z"/><path class="i" d="M802.25,400l.36.08c1.88.39,4,.78,6.23,1.15-2.52.05-6.75.13-13.23-.27-6-.37-10.51-1-12.66-1.33,2.22-.08,4.29-.21,6.13-.37l.35,0c.22,0,.5.05.71.07s2.73.28,5.6.45,5.14.23,5.76.24C801.73,400,802,400,802.25,400Z"/><path class="i" d="M780.09,397.47a146.64,146.64,0,0,0,15.58,1.81,143.46,143.46,0,0,0,16.29.15l-1.61.08c-2.54.13-5.31.18-8.24.13a134.12,134.12,0,0,1-20.43-1.9Z"/><path d="M812.55,385.66l1.8.32c10,1.76,17.59,4.34,19.81,7.13,3.86,4.84-9.93,8.48-30.77,8.12s-40.92-4.59-44.79-9.44c-3.2-4,5.7-7.2,20.69-8h0l1.84-.1c-13.43.7-21.42,3.55-18.55,7.15,3.46,4.34,21.46,8.13,40.14,8.46s31-2.94,27.58-7.28C828.31,389.55,821.51,387.24,812.55,385.66Z"/><path d="M810.71,396.56l-1.84.09c10.63-.56,16.94-2.84,14.66-5.69-2.76-3.46-17.15-6.5-32-6.76s-24.78,2.35-22,5.82c1.58,2,6.94,3.81,14,5.07l-1.81-.32c-8.1-1.44-14.23-3.54-16-5.81-3.16-4,8.14-6.94,25.19-6.64s33.49,3.76,36.65,7.72C830.08,393.31,822.87,395.91,810.71,396.56Z"/><path class="i" d="M812,399.43h.23c-2.87.14-6,.19-9.29.14a152.39,152.39,0,0,1-23-2.13l.22,0a146.64,146.64,0,0,0,15.58,1.81A144.22,144.22,0,0,0,812,399.43Z"/><path class="i" d="M781.61,383.46c-2.49.16-5.82.31-8.28.72-1,.17-2.42.33-3.43.57a34.73,34.73,0,0,0-5.25,1.52,10.9,10.9,0,0,0-2.78,1.93c-.25.24-.26.77-.36,1.1-.24.81.88,1.82,1.54,2.35.94.77,3,2,7.33,3.31,1,.32,2.44.73,3.51,1,2.47.55,5.78,1.2,8.26,1.64l-1.29,0c-9.71-1.63-17.13-4.09-19.26-6.75-3-3.76,5.55-6.74,19.79-7.38Z"/><path class="i" d="M809.88,399.27c2.56-.14,6-.25,8.54-.63,1.08-.16,2.52-.3,3.59-.53a41.34,41.34,0,0,0,5.59-1.45,13.8,13.8,0,0,0,3.18-1.88c.28-.22.41-.74.58-1.06.34-.69-.53-1.81-1.09-2.34-.8-.77-2.62-2-6.77-3.36-1-.33-2.35-.75-3.38-1-2.39-.56-5.61-1.24-8-1.7l.22,0c9.57,1.62,16.87,4.06,19,6.7,3,3.79-5.68,6.78-20.13,7.39Z"/><path class="i" d="M783.25,395.76a67,67,0,0,1-8.61-1.64c-1.12-.24-2.57-.68-3.68-1a31,31,0,0,1-5.75-2.19c-1.06-.55-2.75-1.29-3.16-2.41-.13-.36-.53-.83-.42-1.19a4.72,4.72,0,0,1,1.47-2.16c.63-.44,2.6-1.57,7.28-2.47,2.29-.44,5.37-.76,7.68-1,1.36-.14,3.19-.18,4.55-.26l1.45-.06c-13.11.5-21.07,3.18-18.36,6.59,3.17,4,19.6,7.43,36.65,7.72s28.35-2.68,25.19-6.64c-1.92-2.41-8.75-4.64-17.64-6.08,3.2.52,5.79,1,5.81,1,1.2.24,2.81.58,4,.91,2,.54,4.59,1.38,6.52,2.08a18.09,18.09,0,0,1,2.39,1.15c.95.53,2.52,1.35,2.7,2.42.06.35.33.86.17,1.17a6,6,0,0,1-1.94,2.11c-.73.43-2.95,1.53-7.85,2.36-2.38.4-5.59.69-8,.9-1.4.13-3.28.16-4.68.22,0,0-3.06-.49-6.16-1.14a2.29,2.29,0,0,0-.36-.07c-.23,0-.53,0-.75,0-.94,0-3.46-.08-6.61-.29-2.5-.17-4.54-.38-4.76-.4a6.31,6.31,0,0,0-1.06,0C786.27,395.66,783.26,395.76,783.25,395.76Z"/><path class="i" d="M802.3,397.87a3.15,3.15,0,0,1,.42.09c2.15.46,4.56.9,7.16,1.31-2.69.07-7.19.19-14.18-.24-6.48-.4-11.25-1.12-13.55-1.47,2.59-.09,5-.23,7.09-.42.13,0,.29,0,.41,0s.49,0,.7.07,2.69.28,5.53.45,5.07.22,5.68.24A6.06,6.06,0,0,1,802.3,397.87Z"/><path class="i" d="M780,395.48a143.9,143.9,0,0,0,15.77,1.84,141.38,141.38,0,0,0,16.49.14l-1.61.09c-2.6.14-5.43.19-8.43.13a133.86,133.86,0,0,1-20.64-1.92Z"/><path d="M812.86,383.74l1.82.32c9.88,1.76,17.36,4.32,19.57,7.09,3.85,4.84-9.93,8.48-30.75,8.11s-40.88-4.59-44.75-9.43c-3.17-4,5.62-7.16,20.46-7.95l1.85-.1c-13.31.71-21.21,3.56-18.36,7.13,3.47,4.34,21.46,8.14,40.14,8.46s31-2.93,27.58-7.28C828.44,387.62,821.73,385.32,812.86,383.74Z"/><path d="M812.18,394.48l-2,.14c9.88-.67,15.62-2.87,13.43-5.61-2.75-3.46-17.12-6.49-32-6.75s-24.75,2.35-22,5.8c1.48,1.86,6.32,3.6,12.79,4.85h0l-1.09-.21-.88-.17c-7.39-1.43-12.91-3.41-14.61-5.53-3.15-4,8.12-6.93,25.13-6.64s33.4,3.76,36.55,7.71C830,391.2,823.47,393.72,812.18,394.48Z"/><path class="i" d="M782.61,381.47c-2.6.15-6.07.28-8.64.69-1.07.17-2.52.32-3.59.57a35.61,35.61,0,0,0-5.48,1.53,11,11,0,0,0-2.9,2c-.26.24-.27.78-.37,1.12-.25.84,1,1.87,1.64,2.42,1,.78,3.14,2,7.69,3.37,1.1.32,2.56.73,3.68,1,2.57.55,6,1.2,8.61,1.64l-1.3,0c-10.19-1.62-18-4.16-20.23-6.9-3.06-3.84,5.9-6.86,20.68-7.43Z"/><path class="i" d="M809,397.35c2.68-.13,6.26-.22,8.92-.59,1.12-.16,2.63-.3,3.75-.53a43.5,43.5,0,0,0,5.85-1.46,14.52,14.52,0,0,0,3.33-1.91c.3-.23.43-.76.61-1.1.36-.7-.57-1.85-1.15-2.39-.84-.79-2.76-2-7.11-3.43a88.14,88.14,0,0,0-11.89-2.71l.2,0c10,1.63,17.71,4.14,19.87,6.85,3.09,3.88-6.07,6.92-21.09,7.44Z"/><path class="i" d="M785.88,394.16a39.84,39.84,0,0,1-5-.74c-2.61-.51-6.08-1.25-8.67-1.89a48.15,48.15,0,0,1-6.46-2.29,9.22,9.22,0,0,1-3.56-2.55,2.53,2.53,0,0,1-.06-2.47,7.37,7.37,0,0,1,3.28-2.08,43.34,43.34,0,0,1,6.18-1.56,77.17,77.17,0,0,1,8.6-.94c1.51-.12,3.54-.13,5.06-.19l1.19,0c-14.47.25-23.53,3-20.66,6.65,3.16,4,19.6,7.42,36.65,7.72s28.35-2.68,25.19-6.64c-2.09-2.62-9.95-5-19.95-6.43,5.93.84,8.78,1.48,10.48,1.87a43.25,43.25,0,0,1,7.34,2.16,37.55,37.55,0,0,1,4.7,2.47,7.15,7.15,0,0,1,1.14,1.31c.49.55.07,1.87-.42,2.42a8.51,8.51,0,0,1-3.71,2c-1.94.54-4.56,1.12-6.53,1.49a41.83,41.83,0,0,1-4.18.51c-3,.21-6.94.54-9.91.47,0,0-1.74-.3-3.6-.67a1.91,1.91,0,0,0-.21,0c-.24,0-.55,0-.78,0-.4,0-2.49,0-5.09-.19-3.3-.18-6-.44-6.68-.52-.22,0-.51-.07-.73-.07h-.21C787.56,394.08,785.89,394.16,785.88,394.16Z"/><path class="i" d="M802.5,396.14c.11,0,.25.05.36.07,1.85.39,3.92.77,6.16,1.14-2.51,0-6.72.13-13.17-.27-6-.37-10.45-1-12.6-1.32,2.21-.09,4.25-.21,6.07-.37l.35,0c.21,0,.49.05.71.07s2.73.28,5.6.45,5.14.23,5.77.24C802,396.13,802.27,396.11,802.5,396.14Z"/><path class="i" d="M778.59,393.2c2.24.41,4.55.84,8.23,1.29s7,.72,9,.85a140.64,140.64,0,0,0,18.08,0l-1,.07c-.26,0-.53.05-.8.05-3,.2-6.26.28-9.81.22a131,131,0,0,1-22-2.18Z"/><path d="M814.55,382l1.08.21.89.17c9,1.74,15.8,4.17,17.88,6.78,3.87,4.84-9.93,8.48-30.77,8.12s-40.92-4.6-44.79-9.44c-3.06-3.84,5-6.92,18.78-7.86l.3,0,.7-.05,1-.07c-12.42.85-19.62,3.61-16.87,7.06,3.47,4.35,21.51,8.16,40.22,8.48s31.12-2.94,27.65-7.29C828.75,385.79,822.68,383.61,814.55,382Z"/><path d="M810.48,392.71l-1.8.08c10.86-.53,17.35-2.82,15.05-5.7-2.75-3.46-17.12-6.49-32-6.75s-24.75,2.35-22,5.8c1.6,2,7.13,3.88,14.41,5.14l-1.77-.3c-8.33-1.45-14.66-3.58-16.49-5.89-3.16-4,8.13-6.94,25.17-6.64s33.47,3.76,36.63,7.72C830.34,389.48,822.91,392.1,810.48,392.71Z"/><path class="i" d="M806.62,395.44c3-.08,7-.12,9.91-.47,1.25-.15,2.94-.28,4.18-.51a50.18,50.18,0,0,0,6.53-1.49,15.86,15.86,0,0,0,3.71-2c.32-.24.46-.81.65-1.17.4-.77-.71-2-1.37-2.56-1-.84-3.17-2.14-8.08-3.6a100.81,100.81,0,0,0-13.27-2.74l.14,0c11.25,1.59,20.08,4.29,22.43,7.23,3.26,4.09-7.17,7.25-23.73,7.48Z"/><path class="i" d="M785.29,379.45c-2.89.11-6.77.18-9.64.57-1.21.17-2.83.31-4,.56a42,42,0,0,0-6.18,1.56,12.66,12.66,0,0,0-3.28,2.08c-.29.25-.31.83-.42,1.19-.29.91,1.09,2,1.86,2.58s3.27,2.06,8.64,3.54c2.57.71,6.06,1.38,8.67,1.89,1.48.28,3.47.52,5,.74l-1.09,0c-11.46-1.58-20.49-4.3-22.87-7.28-3.23-4.05,7-7.19,23.23-7.48Z"/><path class="i" d="M782.73,401.6c.45,0,1,.15,1.51.22s5.34.76,11.25,1.13,10.18.32,11.75.29c.48,0,1.11-.06,1.59,0h.08l1.17.18c-2.34.09-4.82.11-7.42.06a153.12,153.12,0,0,1-21.2-1.82l1.19,0Z"/><path class="i" d="M783,399.66c.45,0,1,.15,1.5.22s5.3.75,11.16,1.11,10.1.33,11.66.3c.47,0,1.1-.07,1.57,0h.09l1.18.19c-2.31.08-4.76.1-7.33.05a153.39,153.39,0,0,1-21.11-1.81l1.2,0Z"/><path class="i" d="M802.81,394.73a1.91,1.91,0,0,1,.21,0c1.66.33,3.12.59,3.6.67a152.38,152.38,0,0,1-20.74-1.28c1.69-.08,3-.18,3.44-.22h.21c.22,0,.51.05.73.07s2.83.29,5.8.47,5.32.23,6,.24C802.26,394.72,802.57,394.7,802.81,394.73Z"/><path class="i" d="M811.66,401.39h.22c-2.82.14-5.87.19-9.1.13a151.79,151.79,0,0,1-22.84-2.09l.22,0a143.59,143.59,0,0,0,15.4,1.78A141.45,141.45,0,0,0,811.66,401.39Z"/><path class="i" d="M780.78,391.69A142.9,142.9,0,0,0,796,393.45a140.91,140.91,0,0,0,16,.16l-1.57.08c-2.47.12-5.14.16-8,.11A133.66,133.66,0,0,1,782.33,392Z"/><path class="i" d="M782.15,397.56c.49,0,1.12.17,1.59.24s5.66.85,12,1.23c6.49.4,11.21.32,12.51.29.5,0,1.17-.08,1.67-.05H810c.4.07.79.13,1.19.18-2.58.11-5.34.15-8.25.1a153.84,153.84,0,0,1-22-2l1.21,0Z"/><path class="i" d="M783.25,395.76c.45,0,1,.15,1.49.21s5.28.75,11.11,1.11,10,.33,11.6.3c.47,0,1.1-.07,1.57,0h.08l1.21.19c-2.3.08-4.74.1-7.29.05A153.12,153.12,0,0,1,782,395.8l1.22,0Z"/><path class="i" d="M812.28,397.46h.24c-2.93.16-6.11.21-9.5.15a150.65,150.65,0,0,1-23.23-2.16l.23,0a143.9,143.9,0,0,0,15.77,1.84A142.43,142.43,0,0,0,812.28,397.46Z"/><path class="i" d="M785.88,394.16c.37,0,.86.11,1.22.16s4.3.53,8.93.82,8,.31,9.3.3c.38,0,.9,0,1.29,0h.07l1,.17c-1.49,0-3,0-4.59,0a156.64,156.64,0,0,1-18.34-1.41l1,0Z"/><path class="i" d="M814,395.38h.21c-3.34.22-7,.31-11,.25a149,149,0,0,1-24.75-2.46l.21,0c2.24.41,4.55.84,8.23,1.29s7,.72,9,.85A140.47,140.47,0,0,0,814,395.38Z"/><path d="M812.59,379.78l1.77.3c10.18,1.76,17.91,4.38,20.16,7.19,3.86,4.85-9.93,8.49-30.78,8.13S762.82,390.8,759,386c-3.23-4,5.84-7.25,21-8l1.79-.09c-13.62.66-21.76,3.54-18.87,7.16,3.46,4.34,21.47,8.14,40.15,8.47s31-2.94,27.59-7.29C828.66,383.7,821.72,381.36,812.59,379.78Z"/><path class="i" d="M812,393.61h.22c-2.78.14-5.78.18-9,.13a152.85,152.85,0,0,1-22.7-2.07l.22,0A149.5,149.5,0,0,0,812,393.61Z"/><path d="M811.78,403.1l-1.67.07c-2.39.09-5,.12-7.63.07a149.53,149.53,0,0,1-21-1.83h0l-1.64-.27a165.62,165.62,0,0,0,23.4,2C806.26,403.24,809.11,403.21,811.78,403.1Z"/><path d="M790.52,377.76c18.68.32,36.69,4.12,40.15,8.46s-8.91,7.61-27.59,7.29-36.69-4.13-40.15-8.47S771.84,377.43,790.52,377.76Zm12,15.06c17,.29,28.33-2.69,25.17-6.65s-19.59-7.42-36.63-7.72-28.33,2.68-25.17,6.64,19.59,7.43,36.63,7.73"/><path d="M811.8,401.15l-1.66.07c-2.37.09-4.89.11-7.54.07a149.9,149.9,0,0,1-20.89-1.82h0l-1.63-.27a164.5,164.5,0,0,0,23.31,2C806.34,401.28,809.16,401.25,811.8,401.15Z"/><path d="M812.81,399.15l-1.74.08c-2.6.11-5.4.15-8.35.1a147.51,147.51,0,0,1-21.7-1.95l-.08,0-.26,0-.17,0-.17,0-.17,0-.86-.14a166,166,0,0,0,24.19,2.17C806.79,399.32,809.91,399.28,812.81,399.15Z"/><ellipse class="i" cx="796.8" cy="385.63" rx="7.84" ry="35.49" transform="translate(362.94 1157.23) rotate(-86.48)"/><path d="M812,397.24l-1.66.07c-2.35.08-4.85.11-7.48.06a149.12,149.12,0,0,1-20.82-1.8l-.09,0-.73-.12-.82-.13a165.42,165.42,0,0,0,23.25,2C806.56,397.37,809.35,397.34,812,397.24Z"/><path d="M809.28,395.4l-1.34,0c-1.6,0-3.25,0-5,0A151.88,151.88,0,0,1,784.64,394l-1.31-.19a170.76,170.76,0,0,0,20.41,1.59C805.65,395.43,807.5,395.43,809.28,395.4Z"/></g><text class="k" transform="translate(759.5 435.6)">Clie<tspan class="o" x="46.53" y="0">n</tspan><tspan class="d" x="63.06" y="0">t</tspan></text><line class="j" x1="696.08" y1="533.58" x2="728.92" y2="481.42"/><polygon points="701.3 532.96 701.05 531.99 696.28 533.26 695.37 528.41 694.38 528.6 695.5 534.5 701.3 532.96"/><polygon points="730.62 486.4 729.63 486.59 728.72 481.74 723.95 483.01 723.7 482.04 729.5 480.5 730.62 486.4"/><line class="j" x1="662" y1="587" x2="754.5" y2="440.5"/><line class="j" x1="785.41" y1="506.91" x2="848.59" y2="466.09"/><polygon points="790.41 508.55 790.59 507.56 785.73 506.7 786.95 501.92 785.98 501.68 784.5 507.5 790.41 508.55"/><polygon points="848.03 471.32 847.05 471.08 848.27 466.3 843.41 465.44 843.59 464.45 849.5 465.5 848.03 471.32"/><line class="j" x1="662" y1="587" x2="936" y2="410"/><line class="j" x1="824.54" y1="536.18" x2="903.46" y2="511.82"/><polygon points="828.91 539.11 829.34 538.21 824.9 536.07 827.36 531.79 826.5 531.3 823.5 536.5 828.91 539.11"/><polygon points="901.5 516.71 900.64 516.21 903.1 511.93 898.66 509.79 899.09 508.89 904.5 511.5 901.5 516.71"/><line class="j" x1="662" y1="587" x2="1025" y2="474"/><line class="j" x1="762.58" y1="591.55" x2="843.42" y2="595.45"/><polygon points="765.7 595.8 766.41 595.1 762.97 591.57 766.74 588.39 766.09 587.63 761.5 591.5 765.7 595.8"/><polygon points="839.91 599.37 839.26 598.61 843.03 595.43 839.59 591.9 840.3 591.2 844.5 595.5 839.91 599.37"/><line class="j" x1="662" y1="587" x2="928" y2="600"/></svg>