<svg xmlns="http://www.w3.org/2000/svg" viewBox="0 0 1366 768"><defs><style>.a{fill:#dbdbdb;}.ak,.b,.c{fill:none;stroke:#000;stroke-miterlimit:10;}.c{stroke-dasharray:11.81 11.81;}.d{isolation:isolate;}.e{fill:#fff;}.f{font-size:30px;font-family:MyriadPro-Regular, Myriad Pro;}.g{letter-spacing:0em;}.h{letter-spacing:0em;}.i{letter-spacing:0.01em;}.j{letter-spacing:0.02em;}.k{letter-spacing:-0.01em;}.l{font-size:20px;font-family:Montserrat-SemiBold, Montserrat;font-weight:600;}.m{letter-spacing:0em;}.n{letter-spacing:-0.01em;}.o{letter-spacing:0em;}.p{letter-spacing:-0.01em;}.q{letter-spacing:-0.01em;}.r{letter-spacing:0em;}.s{letter-spacing:-0.02em;}.t{letter-spacing:-0.02em;}.u{letter-spacing:0.01em;}.v{font-size:15px;}.al,.v{font-family:Montserrat-Regular, Montserrat;}.w{letter-spacing:-0.01em;}.x{letter-spacing:-0.02em;}.y{letter-spacing:-0.05em;}.z{letter-spacing:0.05em;}.aa{letter-spacing:0em;}.ab{letter-spacing:-0.01em;}.ac{letter-spacing:-0.02em;}.ad{letter-spacing:0.01em;}.ae{letter-spacing:-0.01em;}.af{letter-spacing:-0.01em;}.ag{letter-spacing:-0.02em;}.ah{letter-spacing:-0.01em;}.ai{letter-spacing:-0.02em;}.aj{letter-spacing:0em;}.ak{stroke-dasharray:12 12;}.al{font-size:10px;}.am{letter-spacing:0em;}.an{letter-spacing:-0.02em;}</style></defs><rect class="a" x="-2" width="1366" height="768"/><rect class="a" x="805" y="192" width="121" height="27"/><rect class="a" x="805" y="238" width="121" height="27"/><line class="b" x1="478.95" y1="45.5" x2="478.95" y2="51.5"/><line class="c" x1="478.95" y1="63.31" x2="478.95" y2="718.6"/><line class="b" x1="478.95" y1="724.5" x2="478.95" y2="730.5"/><line class="b" x1="92.5" y1="46" x2="92.5" y2="52"/><line class="c" x1="92.5" y1="63.81" x2="92.5" y2="719.1"/><line class="b" x1="92.5" y1="725" x2="92.5" y2="731"/><line class="b" x1="871.45" y1="46" x2="871.45" y2="52"/><line class="c" x1="871.45" y1="63.81" x2="871.45" y2="719.1"/><line class="b" x1="871.45" y1="725" x2="871.45" y2="731"/><line class="b" x1="1273.5" y1="46" x2="1273.5" y2="52"/><line class="c" x1="1273.5" y1="63.81" x2="1273.5" y2="719.1"/><line class="b" x1="1273.5" y1="725" x2="1273.5" y2="731"/><g class="d"><path d="M297.45,124.59l1.64.27A134.86,134.86,0,0,0,280,123.18c-2.44,0-4.77,0-7,.07h0l1.68-.06c1.9-.08,3.93-.1,6.07-.06A117.06,117.06,0,0,1,297.45,124.59Z"/><path d="M297.5,122.62l1.63.27a135.41,135.41,0,0,0-19.06-1.66c-2.41,0-4.71,0-6.87.07h0l.91,0,.75,0c1.88-.07,3.89-.09,6,0A119.39,119.39,0,0,1,297.5,122.62Z"/><path d="M295.79,116.48l1.32.18a137.4,137.4,0,0,0-16.66-1.29c-1.56,0-3.06,0-4.51,0h0l1.33,0c1.27,0,2.59,0,4,0A120.45,120.45,0,0,1,295.79,116.48Z"/><path d="M298.29,120.76l1.71.3a134.08,134.08,0,0,0-19.81-1.79c-2.69,0-5.24,0-7.61.1.29,0,.58,0,.87,0l.87,0c2.07-.09,4.3-.13,6.65-.08A118.48,118.48,0,0,1,298.29,120.76Z"/><path d="M297.69,118.7l1.64.27a135.15,135.15,0,0,0-19-1.65c-2.39,0-4.68,0-6.82.06h0l1.65-.06q2.82-.1,6-.06A118.65,118.65,0,0,1,297.69,118.7Z"/><path class="e" d="M272.21,136.6a66.25,66.25,0,0,1-8.56-1.64c-1.1-.23-2.55-.68-3.65-1a30.47,30.47,0,0,1-5.7-2.18c-1.05-.55-2.73-1.29-3.13-2.4-.13-.35-.53-.83-.42-1.19a4.64,4.64,0,0,1,1.47-2.14c.62-.45,2.57-1.58,7.23-2.47,2.26-.44,5.32-.76,7.62-1,1.35-.14,3.16-.19,4.51-.27l1.47-.06c-13,.51-20.93,3.19-18.22,6.58,3.16,4,19.6,7.43,36.65,7.73s28.34-2.69,25.18-6.65c-1.91-2.4-8.68-4.61-17.5-6,3.25.53,5.77,1,5.8,1,1.19.24,2.78.58,4,.91,2,.54,4.55,1.38,6.47,2.08a19.11,19.11,0,0,1,2.37,1.14c.94.53,2.5,1.35,2.67,2.42.06.34.34.85.17,1.16a6.14,6.14,0,0,1-1.92,2.1c-.72.43-2.93,1.52-7.8,2.36-2.36.4-5.54.69-7.93.9-1.39.13-3.25.16-4.64.22,0,0-3.15-.49-6.33-1.17a2.41,2.41,0,0,0-.37-.07c-.23,0-.53,0-.75,0-.94,0-3.45-.08-6.59-.29-2.49-.17-4.53-.37-4.75-.4a6.39,6.39,0,0,0-1.07,0C275.24,136.51,272.22,136.6,272.21,136.6Z"/><path d="M299.61,135.48l-1.82.09c10.8-.53,17.24-2.82,14.94-5.7-2.75-3.45-17.12-6.48-32-6.74s-24.75,2.34-22,5.8c1.6,2,7.09,3.86,14.31,5.12h0l-1.78-.31c-8.28-1.44-14.55-3.57-16.38-5.86-3.16-4,8.13-6.95,25.17-6.65S313.55,125,316.71,129C319.34,132.25,312,134.87,299.61,135.48Z"/><path class="e" d="M271.58,122.34c-2.57.15-6,.29-8.57.7-1.07.17-2.51.32-3.56.57a34.94,34.94,0,0,0-5.45,1.53,11.07,11.07,0,0,0-2.88,2c-.26.24-.27.78-.37,1.11-.25.84.94,1.87,1.62,2.41,1,.78,3.12,2,7.63,3.36,1.09.33,2.55.74,3.65,1,2.56.55,6,1.2,8.56,1.64l-1.27,0c-10.12-1.62-17.9-4.14-20.09-6.88-3-3.82,5.85-6.84,20.53-7.41Z"/><path class="e" d="M298.31,138.21c2.66-.13,6.22-.23,8.85-.6,1.12-.15,2.62-.29,3.72-.52a44.09,44.09,0,0,0,5.81-1.46,14.39,14.39,0,0,0,3.31-1.91c.29-.22.43-.76.6-1.09.36-.7-.56-1.84-1.13-2.38-.84-.79-2.74-2-7.05-3.42a89,89,0,0,0-11.82-2.71l.2,0c9.94,1.62,17.56,4.12,19.71,6.82,3.08,3.86-6,6.89-20.95,7.42Z"/><path class="e" d="M272.43,134.66a68.08,68.08,0,0,1-8.59-1.63c-1.11-.24-2.57-.68-3.67-1a30.75,30.75,0,0,1-5.73-2.18c-1.06-.56-2.74-1.29-3.15-2.41-.13-.35-.53-.83-.42-1.19a4.75,4.75,0,0,1,1.47-2.15c.63-.45,2.59-1.58,7.26-2.47,2.28-.44,5.36-.76,7.66-1,1.36-.14,3.17-.19,4.53-.27l1.46,0c-13.08.5-21,3.18-18.3,6.58,3.16,4,19.6,7.43,36.65,7.73S319.94,132,316.78,128c-1.92-2.41-8.72-4.63-17.58-6.07,3.2.52,5.78,1,5.8,1,1.2.24,2.8.58,4,.91,2,.55,4.57,1.38,6.5,2.08a19.3,19.3,0,0,1,2.38,1.15c.95.53,2.52,1.35,2.69,2.42.06.35.34.86.17,1.17a6.07,6.07,0,0,1-1.93,2.1c-.73.43-3,1.53-7.83,2.36-2.37.4-5.57.69-8,.9-1.39.13-3.26.16-4.66.22,0,0-3.09-.49-6.23-1.15a2.29,2.29,0,0,0-.36-.07c-.23,0-.53,0-.76,0-.72,0-3.36-.07-6.6-.29-2.49-.17-4.53-.37-4.75-.4a6.39,6.39,0,0,0-1.07,0C275.48,134.56,272.44,134.66,272.43,134.66Z"/><path class="e" d="M291.61,137c.11,0,.26.05.37.07,1.91.41,4,.8,6.33,1.17-2.54,0-6.8.14-13.34-.26-6.08-.38-10.6-1-12.76-1.35,2.26-.08,4.36-.21,6.24-.38l.36,0c.21,0,.49.05.71.07s2.72.28,5.59.46,5.13.22,5.75.23C291.08,137,291.39,136.94,291.61,137Z"/><path class="e" d="M269.65,134.45A140.64,140.64,0,0,0,285,136.23a140.91,140.91,0,0,0,16.1.16l-.86.05-.73,0c-2.5.13-5.21.17-8.07.12a135.1,135.1,0,0,1-20.27-1.86Z"/><path d="M301.73,122.58l1.78.31c10.11,1.77,17.78,4.37,20,7.17,3.86,4.85-9.93,8.49-30.78,8.13s-40.93-4.6-44.8-9.45c-3.21-4,5.8-7.23,20.91-8,.31,0,.61,0,.91,0l.91,0c-13.55.68-21.63,3.54-18.75,7.15,3.46,4.35,21.48,8.14,40.15,8.47s31.05-2.94,27.59-7.28C317.67,126.49,310.79,124.16,301.73,122.58Z"/><path d="M299.9,133.52l-1.84.09c10.7-.55,17.08-2.83,14.79-5.69-2.75-3.46-17.12-6.49-32-6.74s-24.75,2.34-22,5.8c1.59,2,7,3.83,14.16,5.09h-.09l-.81-.15-.91-.16c-8.18-1.44-14.39-3.55-16.21-5.83-3.16-4,8.14-6.94,25.18-6.65S313.68,123,316.84,127C319.46,130.28,312.16,132.89,299.9,133.52Z"/><path class="e" d="M271.79,120.38c-2.58.16-6.05.29-8.61.69-1.07.17-2.52.33-3.58.58a35.06,35.06,0,0,0-5.46,1.53,11.26,11.26,0,0,0-2.9,2c-.26.25-.27.78-.37,1.12-.25.84.95,1.87,1.63,2.41,1,.79,3.13,2,7.67,3.37,1.09.33,2.56.74,3.67,1,2.56.54,6,1.19,8.59,1.63l-1.28,0c-10.17-1.62-18-4.15-20.18-6.89-3.05-3.84,5.88-6.85,20.62-7.42Z"/><path class="e" d="M298.33,136.26c2.67-.12,6.24-.22,8.89-.59,1.12-.16,2.63-.3,3.74-.53a42.85,42.85,0,0,0,5.83-1.46,14.52,14.52,0,0,0,3.33-1.91c.29-.22.43-.76.6-1.09.36-.71-.56-1.85-1.14-2.39-.84-.79-2.75-2-7.09-3.43a91.42,91.42,0,0,0-11.86-2.71l.2,0c10,1.62,17.64,4.12,19.81,6.83,3.08,3.87-6.05,6.91-21,7.44Z"/><path class="e" d="M271.63,132.56a63.5,63.5,0,0,1-8.26-1.64c-1.07-.23-2.46-.67-3.51-1a29.1,29.1,0,0,1-5.49-2.15c-1-.54-2.61-1.27-3-2.35-.12-.35-.5-.81-.39-1.16a4.66,4.66,0,0,1,1.42-2.11c.61-.43,2.49-1.54,7-2.43,2.18-.44,5.14-.77,7.36-1,1.3-.14,3.05-.2,4.35-.28l1.53-.07C260,119,252.37,121.61,255,125c3.16,4,19.62,7.44,36.69,7.74S320.1,130,316.94,126c-1.87-2.34-8.35-4.51-16.86-6,6.12,1,8.84,1.76,9.53,2,1.89.54,4.38,1.37,6.23,2a18.58,18.58,0,0,1,2.28,1.13c.91.51,2.4,1.33,2.56,2.36.06.35.32.84.16,1.15a5.88,5.88,0,0,1-1.85,2.05c-.69.43-2.81,1.5-7.5,2.34a90.2,90.2,0,0,1-12.13,1.16s-3.52-.53-7.16-1.31a2.71,2.71,0,0,0-.41-.09h-.74c-.72,0-3.32-.08-6.52-.29-2.46-.17-4.47-.37-4.69-.4a6.86,6.86,0,0,0-1.11,0C275.15,132.47,271.64,132.56,271.63,132.56Z"/><path class="e" d="M291.74,135c.11,0,.25.05.36.07,1.88.4,4,.78,6.23,1.15-2.53.05-6.75.14-13.24-.26-6-.38-10.51-1-12.66-1.34,2.23-.08,4.29-.21,6.13-.37l.36,0c.21,0,.49.05.71.07s2.72.28,5.6.45,5.13.23,5.75.24C291.21,135,291.51,135,291.74,135Z"/><path class="e" d="M269.58,132.47a146.28,146.28,0,0,0,15.58,1.81,143.47,143.47,0,0,0,16.29.15l-.88,0H300a1.09,1.09,0,0,1-.18,0c-2.55.13-5.31.18-8.24.13a135.6,135.6,0,0,1-20.44-1.89Z"/><path d="M302,120.66l1.81.32c10,1.76,17.58,4.34,19.81,7.13,3.86,4.85-9.93,8.49-30.78,8.12s-40.93-4.59-44.8-9.44c-3.2-4,5.72-7.2,20.71-8,.3,0,.61,0,.92,0l.92,0c-13.44.69-21.43,3.54-18.57,7.14,3.47,4.34,21.48,8.13,40.15,8.46s31.05-2.94,27.59-7.28C317.8,124.55,311,122.24,302,120.66Z"/><path d="M300.2,131.56l-1.85.09c10.63-.56,16.94-2.84,14.66-5.69-2.75-3.46-17.14-6.49-32-6.75s-24.78,2.34-22,5.81c1.57,2,6.93,3.81,14,5.07h-.09l-.82-.15-.91-.16c-8.1-1.44-14.23-3.54-16-5.81-3.16-4,8.14-6.94,25.18-6.64S313.8,121.08,317,125C319.57,128.31,312.35,130.91,300.2,131.56Z"/><path class="e" d="M301.45,134.43h.23c-2.87.14-6,.2-9.3.14a151.1,151.1,0,0,1-23-2.13l.23,0a146.28,146.28,0,0,0,15.58,1.81A144.23,144.23,0,0,0,301.45,134.43Z"/><path class="e" d="M271.09,118.46c-2.48.16-5.81.31-8.27.72-1,.17-2.42.33-3.44.58a33.46,33.46,0,0,0-5.24,1.51,10.92,10.92,0,0,0-2.79,1.94c-.25.23-.26.76-.36,1.09-.24.81.89,1.82,1.54,2.35.95.77,3,2,7.33,3.31,1,.32,2.44.73,3.51,1,2.47.55,5.77,1.2,8.26,1.64-.43,0-.86,0-1.29,0-9.71-1.63-17.13-4.09-19.25-6.75-3-3.76,5.54-6.73,19.78-7.38Z"/><path class="e" d="M299.36,134.27c2.57-.13,6-.25,8.54-.63,1.08-.16,2.53-.3,3.59-.53a41,41,0,0,0,5.59-1.45,14.13,14.13,0,0,0,3.18-1.87c.29-.23.41-.75.58-1.07.35-.69-.53-1.8-1.08-2.34-.8-.77-2.63-2-6.78-3.36-1-.33-2.35-.75-3.37-1-2.4-.56-5.62-1.24-8-1.7l.22,0c9.57,1.63,16.87,4.06,19,6.7,3,3.79-5.68,6.78-20.12,7.4Z"/><path class="e" d="M272.73,130.76a67,67,0,0,1-8.61-1.64c-1.12-.24-2.57-.68-3.68-1a31.24,31.24,0,0,1-5.75-2.19c-1.06-.55-2.75-1.29-3.16-2.41-.13-.35-.53-.83-.42-1.19a4.72,4.72,0,0,1,1.48-2.16c.63-.44,2.59-1.57,7.28-2.47,2.28-.44,5.37-.76,7.68-1,1.36-.14,3.18-.18,4.54-.26l1.45-.06c-13.11.5-21.07,3.18-18.35,6.59,3.16,4,19.6,7.43,36.65,7.72S320.18,128,317,124.08c-1.92-2.41-8.75-4.64-17.64-6.08,3.21.52,5.79,1,5.81,1,1.21.24,2.81.58,4,.91,2,.55,4.59,1.38,6.52,2.08a18.76,18.76,0,0,1,2.39,1.15c1,.53,2.53,1.35,2.7,2.42.06.35.34.86.17,1.18a6.17,6.17,0,0,1-1.93,2.1c-.73.43-3,1.53-7.86,2.36-2.38.4-5.58.69-8,.9-1.4.13-3.27.16-4.67.22,0,0-3.06-.49-6.17-1.14a2.29,2.29,0,0,0-.36-.07c-.22,0-.52,0-.75,0-.94,0-3.45-.08-6.61-.29-2.44-.16-4.39-.36-4.76-.4a6.27,6.27,0,0,0-1.06,0C275.75,130.66,272.74,130.76,272.73,130.76Z"/><path class="e" d="M291.79,132.87a3,3,0,0,1,.41.09c2.15.46,4.56.9,7.16,1.31-2.69.07-7.19.2-14.17-.24-6.49-.4-11.27-1.12-13.56-1.47,2.59-.09,5-.23,7.1-.42.12,0,.28,0,.41,0s.49.05.7.07,2.69.28,5.52.45,5.07.22,5.69.24A6.09,6.09,0,0,1,291.79,132.87Z"/><path class="e" d="M269.5,130.48a145.69,145.69,0,0,0,15.77,1.85,143.17,143.17,0,0,0,16.5.13l-1.61.09c-2.6.14-5.43.19-8.44.14a135.18,135.18,0,0,1-20.64-1.93Z"/><path d="M302.35,118.74l1.81.32c9.89,1.76,17.36,4.32,19.57,7.09,3.86,4.84-9.92,8.48-30.75,8.11s-40.88-4.59-44.75-9.43c-3.18-4,5.62-7.16,20.46-8h0l1.85-.1c-13.31.71-21.21,3.56-18.36,7.13,3.46,4.34,21.47,8.14,40.14,8.47s31.05-2.94,27.58-7.28C317.93,122.62,311.22,120.32,302.35,118.74Z"/><path d="M301.67,129.49l-2,.13c9.87-.67,15.61-2.87,13.43-5.61-2.76-3.46-17.13-6.49-32-6.75s-24.75,2.35-22,5.81c1.48,1.85,6.32,3.59,12.79,4.84h0l-2-.38c-7.38-1.43-12.91-3.41-14.6-5.53-3.15-4,8.11-6.93,25.12-6.63s33.4,3.75,36.55,7.7C319.5,126.2,313,128.72,301.67,129.49Z"/><path class="e" d="M272.09,116.47c-2.59.15-6.06.28-8.63.69-1.08.17-2.53.32-3.59.57a35.61,35.61,0,0,0-5.48,1.53,11.27,11.27,0,0,0-2.91,2c-.26.24-.27.78-.37,1.12-.25.84.95,1.87,1.64,2.42,1,.78,3.14,2,7.69,3.37,1.1.32,2.56.73,3.68,1,2.57.55,6,1.2,8.61,1.64l-1.3,0c-10.19-1.62-18-4.16-20.23-6.9-3.06-3.84,5.91-6.86,20.69-7.42Z"/><path class="e" d="M298.51,132.35c2.67-.12,6.26-.22,8.91-.59,1.13-.16,2.64-.3,3.75-.53a41.69,41.69,0,0,0,5.85-1.46,14.31,14.31,0,0,0,3.33-1.91c.3-.23.44-.76.61-1.09.36-.71-.56-1.86-1.14-2.4-.85-.79-2.76-2-7.11-3.43-1-.34-2.46-.76-3.53-1-2.5-.57-5.85-1.25-8.37-1.71l.21,0c10,1.62,17.7,4.13,19.87,6.84,3.08,3.88-6.07,6.92-21.1,7.44Z"/><path class="e" d="M275.36,129.16a39.84,39.84,0,0,1-5-.74c-2.61-.51-6.08-1.25-8.67-1.89a46.67,46.67,0,0,1-6.45-2.29,9.18,9.18,0,0,1-3.57-2.55,2.58,2.58,0,0,1-.06-2.47,7.49,7.49,0,0,1,3.29-2.08,43.2,43.2,0,0,1,6.17-1.56,79.61,79.61,0,0,1,8.6-.94c1.52-.12,3.55-.13,5.07-.19l1.19,0c-14.47.26-23.54,3-20.66,6.65,3.16,4,19.6,7.43,36.64,7.72s28.35-2.68,25.19-6.64c-2.09-2.62-9.95-5-19.95-6.43,5.94.84,8.79,1.48,10.49,1.87a43.25,43.25,0,0,1,7.34,2.16,36.74,36.74,0,0,1,4.69,2.47,7.61,7.61,0,0,1,1.15,1.31c.48.55.06,1.87-.43,2.42a8.41,8.41,0,0,1-3.71,2c-1.93.54-4.55,1.12-6.53,1.49A41.83,41.83,0,0,1,306,130c-3,.21-6.93.54-9.91.47,0,0-1.74-.3-3.6-.67a1.55,1.55,0,0,0-.21,0c-.23,0-.55,0-.78,0-.55,0-2.55-.05-5.09-.19-3.29-.18-5.94-.44-6.68-.52-.22,0-.51-.06-.73-.07h-.2C277.05,129.08,275.36,129.16,275.36,129.16Z"/><path class="e" d="M292,131.14c.11,0,.25.05.36.07,1.85.39,3.93.77,6.17,1.14-2.52.05-6.72.13-13.18-.27-6-.37-10.45-1-12.6-1.32,2.21-.09,4.25-.21,6.07-.37l.35,0c.22,0,.5,0,.71.07s2.73.28,5.61.45,5.14.23,5.76.24C291.46,131.13,291.76,131.11,292,131.14Z"/><path class="e" d="M268.07,128.2c2.24.41,4.56.84,8.24,1.29s7,.72,9.05.85a140.47,140.47,0,0,0,18.07,0l-1.78.13c-3,.2-6.27.28-9.81.21a131,131,0,0,1-22-2.18Z"/><path d="M304,117l2,.38c9.05,1.74,15.81,4.17,17.89,6.78,3.86,4.84-9.93,8.48-30.78,8.12s-40.93-4.6-44.8-9.44c-3.06-3.84,5-6.92,18.79-7.86h0l2-.13c-12.42.84-19.63,3.61-16.88,7,3.47,4.35,21.52,8.16,40.24,8.48s31.11-2.94,27.64-7.29C318.24,120.79,312.16,118.61,304,117Z"/><path d="M300,127.71l-1,0-.81,0c10.85-.52,17.35-2.82,15-5.7-2.75-3.46-17.12-6.49-32-6.75s-24.75,2.35-22,5.81c1.6,2,7.14,3.87,14.41,5.13h-.08l-.18,0-.09,0-.18,0-.17,0-.18,0-.88-.15c-8.33-1.44-14.66-3.58-16.5-5.89-3.16-4,8.13-6.94,25.17-6.64s33.48,3.76,36.64,7.72C319.82,124.48,312.4,127.1,300,127.71Z"/><path class="e" d="M296.1,130.44c3-.08,7-.12,9.91-.47,1.26-.15,2.94-.28,4.18-.51a49.45,49.45,0,0,0,6.53-1.49,15.5,15.5,0,0,0,3.71-2c.33-.24.47-.81.65-1.17.41-.77-.71-2-1.37-2.56-1-.84-3.16-2.14-8.07-3.6a100.29,100.29,0,0,0-13.28-2.73l.14,0c11.25,1.59,20.08,4.28,22.43,7.22,3.26,4.09-7.17,7.25-23.73,7.49Z"/><path class="e" d="M274.78,114.45c-2.9.11-6.77.18-9.65.57-1.2.17-2.83.31-4,.56a41.91,41.91,0,0,0-6.17,1.56,12.71,12.71,0,0,0-3.29,2.08c-.28.25-.3.83-.42,1.19-.28.91,1.1,2,1.86,2.58.92.68,3.27,2.06,8.64,3.54,2.57.72,6.06,1.38,8.67,1.89,1.48.28,3.47.52,5,.74l-1.09.05c-11.46-1.58-20.49-4.3-22.87-7.28-3.22-4.05,7-7.19,23.23-7.48Z"/><path class="e" d="M272.21,136.6c.45,0,1.05.15,1.5.22s5.35.76,11.26,1.13,10.19.33,11.75.29c.48,0,1.11-.06,1.59,0h.08l1.17.18c-2.33.09-4.82.11-7.42.07a154.62,154.62,0,0,1-21.2-1.83l1.18,0Z"/><path class="e" d="M272.43,134.66c.45,0,1,.15,1.49.22s5.31.75,11.17,1.12,10.11.32,11.66.29c.48,0,1.11-.06,1.58,0h.08l1.19.19q-3.48.12-7.34,0a153.52,153.52,0,0,1-21.11-1.81l1.19,0Z"/><path class="e" d="M292.29,129.73l.21,0c1.11.22,2.32.45,3.6.67a152.38,152.38,0,0,1-20.74-1.28c1.69-.08,3-.18,3.45-.22h.2c.22,0,.51,0,.73.07s2.83.29,5.81.47,5.32.23,6,.24C291.74,129.72,292.06,129.7,292.29,129.73Z"/><path class="e" d="M301.14,136.39h.22c-2.81.14-5.86.19-9.1.13a151.53,151.53,0,0,1-22.83-2.09l.22,0A140.64,140.64,0,0,0,285,136.23,141.45,141.45,0,0,0,301.14,136.39Z"/><path class="e" d="M270.26,126.69a142.9,142.9,0,0,0,15.26,1.76,144.4,144.4,0,0,0,16,.17l-1.58.07c-2.47.12-5.13.16-8,.11A133.66,133.66,0,0,1,271.81,127Z"/><path class="e" d="M271.63,132.56c.48,0,1.12.17,1.59.24s5.66.85,12,1.23c6.48.4,11.21.32,12.5.29.5,0,1.17-.08,1.67,0h.08l1.2.19c-2.58.1-5.34.14-8.26.09a154,154,0,0,1-22-2l1.21,0Z"/><path class="e" d="M272.73,130.76c.45,0,1,.15,1.49.21s5.29.75,11.11,1.11,10.06.33,11.61.3c.47,0,1.1-.07,1.57,0h.08l1.2.19q-3.45.12-7.29,0a153.12,153.12,0,0,1-21.07-1.8l1.22,0Z"/><path class="e" d="M301.77,132.46H302c-2.93.16-6.11.21-9.5.15a150.65,150.65,0,0,1-23.23-2.16l.23,0a145.69,145.69,0,0,0,15.77,1.85A144.39,144.39,0,0,0,301.77,132.46Z"/><path class="e" d="M275.36,129.16c.37,0,.86.11,1.22.16s4.3.53,8.93.82,8,.31,9.3.3c.39,0,.91,0,1.29,0h.07l1,.18c-1.48,0-3,0-4.59,0a156.64,156.64,0,0,1-18.34-1.41l1,0Z"/><path class="e" d="M303.43,130.38h.22c-3.34.23-7,.32-11,.25a149,149,0,0,1-24.75-2.46l.21,0c2.24.41,4.56.84,8.24,1.29s7,.72,9.05.85A138.47,138.47,0,0,0,303.43,130.38Z"/><path d="M302.08,114.78l1.76.3c10.18,1.77,17.92,4.38,20.17,7.2,3.86,4.84-9.94,8.48-30.78,8.12s-40.93-4.6-44.8-9.44c-3.22-4,5.85-7.25,21.06-8h0l.9,0,.89-.05c-13.62.66-21.77,3.54-18.88,7.16,3.47,4.34,21.48,8.14,40.16,8.47s31.06-2.94,27.59-7.29C318.14,118.7,311.2,116.36,302.08,114.78Z"/><path class="e" d="M301.49,128.62l.22,0c-2.78.14-5.79.19-9,.13a151.52,151.52,0,0,1-22.7-2.07l.22,0a142.9,142.9,0,0,0,15.26,1.76A144.62,144.62,0,0,0,301.49,128.62Z"/><path d="M301.26,138.1l-1.67.07c-2.39.09-4.94.12-7.63.07a149.53,149.53,0,0,1-21-1.83,1,1,0,0,1-.17,0l-.16,0h-.08l-.42-.07-.82-.13a167.49,167.49,0,0,0,23.42,2.05C295.74,138.24,298.59,138.21,301.26,138.1Z"/><ellipse class="e" cx="286.28" cy="120.63" rx="7.84" ry="35.49" transform="translate(148.29 398.96) rotate(-86.48)"/><path d="M280,112.76c18.68.33,36.69,4.12,40.15,8.46s-8.91,7.61-27.59,7.29-36.69-4.13-40.16-8.47S261.32,112.43,280,112.76Zm12,15.06c17,.3,28.34-2.69,25.18-6.65s-19.59-7.42-36.64-7.72-28.33,2.68-25.17,6.64S275,127.52,292,127.82"/><path d="M301.28,136.15l-1.66.07c-2.37.09-4.89.11-7.54.07a149.9,149.9,0,0,1-20.89-1.82l-1.64-.27a164.77,164.77,0,0,0,23.32,2C295.83,136.28,298.64,136.26,301.28,136.15Z"/><path d="M302.29,134.15l-1.74.08c-2.6.11-5.4.15-8.35.1a147.64,147.64,0,0,1-21.7-2h0l-.86-.15-.85-.14A166,166,0,0,0,293,134.26C296.28,134.32,299.39,134.28,302.29,134.15Z"/><path d="M301.46,132.24l-1.66.07c-2.35.09-4.85.11-7.48.07a149.21,149.21,0,0,1-20.83-1.81h0l-1.63-.27a165.42,165.42,0,0,0,23.25,2C296,132.37,298.84,132.34,301.46,132.24Z"/><path d="M298.76,130.4l-1.33,0c-1.6,0-3.26,0-5,0A151.89,151.89,0,0,1,274.12,129h-.07l-.59-.09-.66-.09a169,169,0,0,0,20.43,1.59C295.13,130.43,297,130.43,298.76,130.4Z"/></g><text class="f" transform="translate(249.48 101.1)">Clie<tspan class="g" x="46.53" y="0">n</tspan><tspan class="h" x="63.06" y="0">t</tspan></text><text class="f" transform="translate(635.44 92.64)"><tspan class="i">S</tspan><tspan x="14.97" y="0">e</tspan><tspan class="j" x="30" y="0">r</tspan><tspan class="k" x="40.56" y="0">v</tspan><tspan x="54.69" y="0">er</tspan></text><g class="d"><polygon points="710.57 127.14 688.75 129.34 688.71 114.51 710.54 112.31 710.57 127.14"/><path class="e" d="M684.56,119.77a4,4,0,0,0-3.64-4.11l21.82-2.2a4,4,0,0,1,3.65,4.11Z"/><path class="e" d="M681.33,123.71a3.8,3.8,0,0,0,3.23-3.94l21.83-2.2a3.81,3.81,0,0,1-3.23,3.94Z"/><path d="M703,119.51l-21.83,2.2a1.91,1.91,0,0,0,1.63-2,2,2,0,0,0-1.84-2.07h-.2l21.82-2.2h.21a2,2,0,0,1,1.83,2.07A1.91,1.91,0,0,1,703,119.51Z"/><path class="e" d="M679.1,119.65a1.9,1.9,0,0,1,1.62-2l21.82-2.2a1.91,1.91,0,0,0-1.62,2,2,2,0,0,0,1.84,2.07l-21.83,2.2,21.83-2.2h.2l-21.83,2.2h-.2A2,2,0,0,1,679.1,119.65Z"/><path d="M703.16,121.51l-21.83,2.2-.39,0a4,4,0,0,1-3.64-4.12,3.79,3.79,0,0,1,3.22-3.93l21.82-2.2a3.79,3.79,0,0,0-3.22,3.93,4,4,0,0,0,3.64,4.12Z"/><path class="e" d="M680.92,115.66h-.22l21.82-2.19h.22l-10.91,1.1-1.43.15-1.43.14-1.41.14-1.39.14-2.7.28C682.7,115.48,681.69,115.63,680.92,115.66Z"/><path class="e" d="M680.7,115.66l-.18,0,21.82-2.2h.18l-10.91,1.1-1.43.14-5.6.56-1.33.14C682.48,115.49,681.47,115.61,680.7,115.66Z"/><polygon points="710.54 112.31 688.71 114.51 634.62 113.39 656.44 111.19 710.54 112.31"/><path class="e" d="M656.44,111.19l54.1,1.12,0,14.83L656.48,126Zm46.32,10.34a3.76,3.76,0,0,0,3.63-4,4,4,0,0,0-3.65-4.11,3.75,3.75,0,0,0-3.62,4,4,4,0,0,0,3.64,4.12"/><polygon class="e" points="710.57 127.14 688.75 129.34 634.66 128.21 656.48 126.01 710.57 127.14"/><polygon class="e" points="656.48 126.01 634.66 128.21 634.62 113.39 656.44 111.19 656.48 126.01"/><path d="M654.64,109.14l57.69,1.21,0,18.82L654.69,128v-1.73Zm55.93,18,0-14.83-54.1-1.12,0,14.82,54.09,1.13"/><path class="e" d="M702.75,115.46a2,2,0,0,1,1.83,2.07,1.88,1.88,0,0,1-1.82,2,2,2,0,0,1-1.84-2.07A1.88,1.88,0,0,1,702.75,115.46Z"/><path d="M702.74,113.46a4,4,0,0,1,3.65,4.11,3.76,3.76,0,0,1-3.63,4,4,4,0,0,1-3.64-4.12A3.75,3.75,0,0,1,702.74,113.46Zm0,6.06a1.88,1.88,0,0,0,1.82-2,2,2,0,0,0-1.83-2.07,1.88,1.88,0,0,0-1.83,2,2,2,0,0,0,1.84,2.07"/><polygon points="654.68 126.24 632.86 128.44 632.82 111.34 654.64 109.14 654.68 126.24"/><polygon points="654.69 127.97 632.86 130.17 632.86 128.44 654.68 126.24 654.69 127.97"/><polygon points="712.37 129.17 690.55 131.37 632.86 130.17 654.69 127.97 712.37 129.17"/></g><g class="d"><polygon points="710.61 144.24 688.79 146.44 688.75 131.61 710.58 129.41 710.61 144.24"/><path class="e" d="M684.6,136.86a4,4,0,0,0-3.64-4.11l21.82-2.2a4,4,0,0,1,3.65,4.11Z"/><path class="e" d="M681.37,140.81a3.8,3.8,0,0,0,3.23-3.95l21.83-2.2a3.82,3.82,0,0,1-3.23,4Z"/><path d="M703,136.61l-21.83,2.2a1.91,1.91,0,0,0,1.63-2,2,2,0,0,0-1.84-2.07h-.2l21.82-2.2h.21a2,2,0,0,1,1.83,2.07A1.91,1.91,0,0,1,703,136.61Z"/><path class="e" d="M679.14,136.75a1.91,1.91,0,0,1,1.62-2l21.82-2.19a1.91,1.91,0,0,0-1.62,2,2,2,0,0,0,1.83,2.07L681,138.82l21.83-2.2h.2l-21.83,2.2H681A2,2,0,0,1,679.14,136.75Z"/><path d="M703.2,138.61l-21.83,2.2a2.54,2.54,0,0,1-.39,0,4,4,0,0,1-3.64-4.11,3.8,3.8,0,0,1,3.22-3.94l21.83-2.2a3.8,3.8,0,0,0-3.23,3.94,4,4,0,0,0,3.64,4.11A2.67,2.67,0,0,0,703.2,138.61Z"/><path class="e" d="M681,132.75h-.22l21.82-2.19h.22l-10.91,1.1-5.66.57-4,.41C681.83,132.66,681.34,132.74,681,132.75Z"/><path class="e" d="M680.74,132.75l-.18,0,21.83-2.2h.17l-10.91,1.09-2.86.29-1.41.14-2.76.28-1.33.14C682.52,132.57,681.5,132.7,680.74,132.75Z"/><path d="M702.78,130.55a4,4,0,0,1,3.65,4.11,3.76,3.76,0,0,1-3.63,4,4,4,0,0,1-3.64-4.11A3.76,3.76,0,0,1,702.78,130.55Zm0,6.07a1.88,1.88,0,0,0,1.83-2,2,2,0,0,0-1.83-2.07,1.88,1.88,0,0,0-1.83,2,2,2,0,0,0,1.83,2.07"/><polygon points="710.58 129.41 688.75 131.61 634.66 130.48 656.48 128.28 710.58 129.41"/><path class="e" d="M656.48,128.28l54.1,1.13,0,14.83-54.09-1.13Zm46.32,10.34a3.76,3.76,0,0,0,3.63-4,4,4,0,0,0-3.65-4.11,3.76,3.76,0,0,0-3.62,4,4,4,0,0,0,3.64,4.11"/><polygon class="e" points="710.61 144.24 688.79 146.44 634.7 145.31 656.52 143.11 710.61 144.24"/><polygon class="e" points="656.52 143.11 634.7 145.31 634.66 130.48 656.48 128.28 656.52 143.11"/><path d="M654.69,128l57.68,1.2,0,17.1-57.68-1.2v-1.73Zm55.92,16.27,0-14.83-54.1-1.13,0,14.83,54.09,1.13"/><path class="e" d="M702.79,132.56a2,2,0,0,1,1.83,2.07,1.88,1.88,0,0,1-1.83,2,2,2,0,0,1-1.83-2.07A1.88,1.88,0,0,1,702.79,132.56Z"/><polygon points="654.72 143.34 632.9 145.54 632.86 130.17 654.69 127.97 654.72 143.34"/><polygon points="654.73 145.07 632.9 147.26 632.9 145.54 654.72 143.34 654.73 145.07"/><polygon points="712.41 146.27 690.59 148.47 632.9 147.26 654.73 145.07 712.41 146.27"/></g><g class="d"><polygon points="710.65 161.32 688.83 163.52 688.79 148.7 710.62 146.5 710.65 161.32"/><path class="e" d="M684.64,154a4,4,0,0,0-3.64-4.11l21.82-2.2a4,4,0,0,1,3.65,4.11Z"/><path class="e" d="M681.41,157.9a3.8,3.8,0,0,0,3.23-3.94l21.83-2.2a3.81,3.81,0,0,1-3.23,3.94Z"/><path d="M703,153.71l-21.83,2.2a1.92,1.92,0,0,0,1.63-2,2,2,0,0,0-1.84-2.07h-.2l21.82-2.2h.21a2,2,0,0,1,1.83,2.07A1.91,1.91,0,0,1,703,153.71Z"/><path class="e" d="M679.18,153.85a1.91,1.91,0,0,1,1.62-2l21.82-2.2a1.92,1.92,0,0,0-1.62,2,2,2,0,0,0,1.83,2.07L681,155.92l21.82-2.2H703l-21.83,2.2H681A2,2,0,0,1,679.18,153.85Z"/><path d="M703.24,155.7l-21.83,2.2a2.54,2.54,0,0,1-.39,0,4,4,0,0,1-3.64-4.1,3.8,3.8,0,0,1,3.22-3.94l21.82-2.2a3.8,3.8,0,0,0-3.22,3.94,4,4,0,0,0,3.64,4.1A2.67,2.67,0,0,0,703.24,155.7Z"/><path class="e" d="M681,149.85h-.22l21.82-2.2h.22l-10.91,1.1-4.27.43-2.76.28-2.63.26C681.87,149.76,681.38,149.83,681,149.85Z"/><path class="e" d="M680.78,149.85l-.18,0,21.83-2.2.17,0-10.91,1.1-2.86.29-5.5.56C682.56,149.67,681.54,149.8,680.78,149.85Z"/><polygon points="710.62 146.5 688.79 148.7 634.7 147.57 656.52 145.37 710.62 146.5"/><polygon class="e" points="710.65 161.32 688.83 163.52 634.74 162.4 656.56 160.2 710.65 161.32"/><polygon class="e" points="656.56 160.2 634.74 162.4 634.7 147.57 656.52 145.37 656.56 160.2"/><path d="M654.73,145.07l57.68,1.2,0,17.1-57.68-1.21v-1.72Zm55.92,16.25,0-14.82-54.1-1.13,0,14.83,54.09,1.12"/><path class="e" d="M656.52,145.37l54.1,1.13,0,14.82-54.09-1.12Zm46.32,10.34a3.75,3.75,0,0,0,3.63-4,4,4,0,0,0-3.65-4.11,3.76,3.76,0,0,0-3.62,4,4,4,0,0,0,3.64,4.1"/><path class="e" d="M702.83,149.66a2,2,0,0,1,1.83,2.07,1.88,1.88,0,0,1-1.83,2,2,2,0,0,1-1.83-2.07A1.88,1.88,0,0,1,702.83,149.66Z"/><path d="M702.82,147.65a4,4,0,0,1,3.65,4.11,3.75,3.75,0,0,1-3.63,4,4,4,0,0,1-3.64-4.1A3.76,3.76,0,0,1,702.82,147.65Zm0,6.07a1.88,1.88,0,0,0,1.83-2,2,2,0,0,0-1.83-2.07,1.88,1.88,0,0,0-1.83,2,2,2,0,0,0,1.83,2.07"/><polygon points="654.76 160.44 632.94 162.64 632.9 147.26 654.73 145.07 654.76 160.44"/><polygon points="654.77 162.16 632.94 164.36 632.94 162.64 654.76 160.44 654.77 162.16"/><polygon points="712.45 163.37 690.63 165.57 632.94 164.36 654.77 162.16 712.45 163.37"/></g><g class="d"><polygon points="710.69 178.42 688.87 180.62 688.83 165.8 710.65 163.6 710.69 178.42"/><path class="e" d="M684.68,171.06A4,4,0,0,0,681,167l21.82-2.2a4,4,0,0,1,3.65,4.11Z"/><path class="e" d="M681.45,175a3.8,3.8,0,0,0,3.23-3.94l21.83-2.2a3.82,3.82,0,0,1-3.23,3.94Z"/><path d="M703.08,170.81,681.25,173a1.92,1.92,0,0,0,1.63-2,2,2,0,0,0-1.84-2.08h-.2l21.82-2.2h.21a2,2,0,0,1,1.83,2.08A1.92,1.92,0,0,1,703.08,170.81Z"/><path class="e" d="M679.22,171a1.91,1.91,0,0,1,1.62-2l21.82-2.2a1.93,1.93,0,0,0-1.62,2,2,2,0,0,0,1.83,2.07L681.05,173l21.82-2.2h.21L681.25,173h-.2A2,2,0,0,1,679.22,171Z"/><path d="M703.28,172.8,681.45,175a2.54,2.54,0,0,1-.39,0,4,4,0,0,1-3.64-4.1,3.81,3.81,0,0,1,3.22-3.95l21.82-2.2a3.81,3.81,0,0,0-3.22,4,4,4,0,0,0,3.64,4.1A2.67,2.67,0,0,0,703.28,172.8Z"/><path class="e" d="M681,167h-.22l21.82-2.2h.22L692,165.85l-1.43.14-5.6.57-2.63.26C681.91,166.86,681.42,166.93,681,167Z"/><path class="e" d="M680.82,167h-.18l21.82-2.2h.18l-10.91,1.1-5.66.57-1.37.14-1.33.13C682.6,166.77,681.58,166.9,680.82,167Z"/><polygon points="710.65 163.6 688.83 165.8 634.74 164.67 656.56 162.47 710.65 163.6"/><path class="e" d="M656.56,162.47l54.1,1.13,0,14.82L656.6,177.3Zm46.32,10.34a3.75,3.75,0,0,0,3.63-3.95,4,4,0,0,0-3.65-4.11,3.75,3.75,0,0,0-3.62,4,4,4,0,0,0,3.64,4.1"/><polygon class="e" points="710.69 178.42 688.87 180.62 634.78 179.5 656.6 177.3 710.69 178.42"/><polygon class="e" points="656.6 177.3 634.78 179.5 634.74 164.67 656.56 162.47 656.6 177.3"/><path d="M654.77,162.16l57.68,1.21,0,17.1-57.68-1.21Zm55.92,16.26,0-14.82-54.1-1.13,0,14.83,54.09,1.12"/><path class="e" d="M702.87,166.74a2,2,0,0,1,1.83,2.08,1.89,1.89,0,0,1-1.83,2,2,2,0,0,1-1.83-2.07A1.9,1.9,0,0,1,702.87,166.74Z"/><path d="M702.86,164.75a4,4,0,0,1,3.65,4.11,3.75,3.75,0,0,1-3.63,3.95,4,4,0,0,1-3.64-4.1A3.75,3.75,0,0,1,702.86,164.75Zm0,6.07a1.89,1.89,0,0,0,1.83-2,2,2,0,0,0-1.83-2.08,1.9,1.9,0,0,0-1.83,2,2,2,0,0,0,1.83,2.07"/><polygon points="654.8 179.26 632.98 181.46 632.94 164.36 654.77 162.16 654.8 179.26"/><polygon points="712.49 180.47 690.67 182.66 632.98 181.46 654.8 179.26 712.49 180.47"/></g><text class="f" transform="translate(1050.14 92.64)">API</text><g class="d"><polygon points="1112.19 125.53 1104.28 132.11 1104.47 130.99 1112.38 124.41 1112.19 125.53"/><polygon points="1113.23 126.03 1105.32 132.61 1104.28 132.11 1112.19 125.53 1113.23 126.03"/><path d="M1115.77,139.77l-7.91,6.58a7.84,7.84,0,0,0,3.11-6.29c-.11-3-2.22-5.78-5.66-7.45l7.92-6.58c3.43,1.66,5.54,4.45,5.65,7.44A7.87,7.87,0,0,1,1115.77,139.77Z"/><path d="M1117.69,142.07l-7.91,6.58a13.79,13.79,0,0,1-1.48,1.09l7.91-6.59A15.22,15.22,0,0,0,1117.69,142.07Z"/><path d="M1112.38,124.41l-7.91,6.58a7.83,7.83,0,0,0,.12-1.66c-.2-5.33-5.65-9.59-12.15-9.48a13.11,13.11,0,0,0-7.38,2.32l7.91-6.59a13.27,13.27,0,0,1,7.38-2.32c6.5-.11,12,4.15,12.15,9.49A7.26,7.26,0,0,1,1112.38,124.41Z"/><path class="e" d="M1107.86,146.35a12.34,12.34,0,0,1-2.1,1.39l7-5.81.92-.77a11.81,11.81,0,0,0,2.1-1.4Z"/><polygon points="1092.97 115.58 1085.06 122.17 1084.06 122.88 1091.97 116.3 1092.97 115.58"/><polygon points="1091.97 116.3 1084.06 122.88 1083.16 122 1091.07 115.42 1091.97 116.3"/><polygon class="e" points="1113.67 141.16 1105.76 147.74 1104.59 148.37 1112.5 141.78 1113.67 141.16"/><polygon points="1113.02 143.03 1105.11 149.62 1104.59 148.37 1112.5 141.78 1113.02 143.03"/><path d="M1112,151l-7.91,6.59a4.17,4.17,0,0,0,.43-.41c1.63-1.74,1.88-4.64.63-7.56L1113,143c1.25,2.93,1,5.83-.63,7.57A4.07,4.07,0,0,1,1112,151Z"/><path d="M1065.73,121.34l7.91-6.59a13.55,13.55,0,0,1,17.43.67l-7.91,6.58a13.57,13.57,0,0,0-17.43-.66Z"/><path d="M1063.81,119l7.91-6.59-.28.24-7.91,6.59Z"/><polygon class="e" points="1072.42 115.9 1064.51 122.48 1065.06 121.95 1072.97 115.36 1072.42 115.9"/><polygon points="1072.42 115.9 1064.51 122.48 1063.75 122.33 1071.66 115.74 1072.42 115.9"/><path class="e" d="M1065.73,121.34l7.91-6.59-.67.61-7.91,6.59C1065.27,121.74,1065.5,121.53,1065.73,121.34Z"/><path class="e" d="M1092.66,155.49c-.11-.1-.22-.21-.32-.32l7.91-6.59.32.33-7.91,6.58,7.91-6.58a11.35,11.35,0,0,0,7.7,3.36l-7.91,6.58,7.91-6.58A5.85,5.85,0,0,0,1112,151l-7.91,6.59a5.84,5.84,0,0,1-3.69,1.26A11.35,11.35,0,0,1,1092.66,155.49Z"/><polygon class="e" points="1100.25 148.59 1092.34 155.17 1090.71 153.52 1098.63 146.93 1100.25 148.59"/><polygon points="1097.82 149.07 1089.9 155.66 1090.71 153.52 1098.63 146.93 1097.82 149.07"/><path d="M1113.88,153.3l-7.91,6.59a8.74,8.74,0,0,1-5.48,1.91,14,14,0,0,1-8.66-3.15l7.91-6.58a13.91,13.91,0,0,0,8.66,3.14A8.61,8.61,0,0,0,1113.88,153.3Z"/><path d="M1094,154.46l-7.91,6.58a12.88,12.88,0,0,0,3.79-5.38l7.91-6.59A13,13,0,0,1,1094,154.46Z"/><path d="M1071.66,115.74l-7.91,6.59a13.94,13.94,0,0,0-3.09-.28,13,13,0,0,0-7.33,2.28l7.91-6.59a13.1,13.1,0,0,1,7.33-2.28A13.89,13.89,0,0,1,1071.66,115.74Z"/><polygon points="1061.24 117.74 1053.33 124.33 1052.42 124.96 1060.33 118.38 1061.24 117.74"/><polygon points="1060.33 118.38 1052.42 124.96 1051.55 124.24 1059.46 117.66 1060.33 118.38"/><path d="M1041,124.2l7.91-6.59a8.12,8.12,0,0,1,5.07-1.9,8.37,8.37,0,0,1,5.49,2l-7.91,6.58a8.42,8.42,0,0,0-5.49-1.95A8.07,8.07,0,0,0,1041,124.2Z"/><polygon class="e" points="1076.02 151.21 1068.11 157.8 1066.85 155.85 1074.77 149.27 1076.02 151.21"/><path d="M1039.12,121.86l7.91-6.59c-.22.18-.43.37-.64.57l-7.91,6.59C1038.69,122.23,1038.9,122,1039.12,121.86Z"/><path class="e" d="M1078.83,163.78a12.55,12.55,0,0,1-10.72-6l7.91-6.59a12.54,12.54,0,0,0,10.72,6l-7.91,6.59,7.91-6.59a11.68,11.68,0,0,0,7.29-2.73l-7.91,6.58A11.69,11.69,0,0,1,1078.83,163.78Z"/><path class="e" d="M1041,124.2l7.91-6.59a9.24,9.24,0,0,0-.9.87l-7.92,6.59A8.25,8.25,0,0,1,1041,124.2Z"/><polygon class="e" points="1047.4 119.14 1039.49 125.73 1040.08 125.07 1047.99 118.48 1047.4 119.14"/><polygon points="1073.53 151.17 1065.62 157.76 1066.85 155.85 1074.77 149.27 1073.53 151.17"/><polygon points="1047.4 119.14 1039.49 125.73 1038.62 125.49 1046.53 118.91 1047.4 119.14"/><path d="M1096,156.76l-7.91,6.59a14.58,14.58,0,0,1-9.1,3.4,15.37,15.37,0,0,1-12.09-5.71l7.91-6.59a15.34,15.34,0,0,0,12.09,5.71A14.52,14.52,0,0,0,1096,156.76Z"/><path d="M1071.54,153.39l-7.91,6.59a10.19,10.19,0,0,0,2-2.22l7.91-6.59A9.73,9.73,0,0,1,1071.54,153.39Z"/><path d="M1029.43,127.45l7.91-6.58a10,10,0,0,1,6.29-2.32,10.21,10.21,0,0,1,2.9.36l-7.91,6.58a10.65,10.65,0,0,0-2.91-.36A10.06,10.06,0,0,0,1029.43,127.45Z"/><path class="e" d="M1055.56,162.83a13.33,13.33,0,0,1-8.51-2.75l7.91-6.59a13.35,13.35,0,0,0,8.51,2.76l-7.91,6.58,7.91-6.58a13,13,0,0,0,8.07-2.86l-7.91,6.59A13,13,0,0,1,1055.56,162.83Z"/><polygon class="e" points="1054.96 153.49 1047.05 160.07 1046.38 159.54 1054.29 152.96 1054.96 153.49"/><polygon class="e" points="1054.29 152.96 1046.38 159.54 1045.59 159.84 1053.5 153.26 1054.29 152.96"/><polygon class="e" points="1039.31 138.1 1031.4 144.69 1030.15 143.78 1038.07 137.2 1039.31 138.1"/><path d="M1073.46,155.69l-7.91,6.59a15.93,15.93,0,0,1-9.88,3.52,16.44,16.44,0,0,1-9.75-2.9l7.91-6.59a16.37,16.37,0,0,0,9.75,2.91A15.93,15.93,0,0,0,1073.46,155.69Z"/><path class="e" d="M1025.8,135.64a10.15,10.15,0,0,1,3.63-8.19l7.91-6.58a10.13,10.13,0,0,0-3.63,8.19,10.47,10.47,0,0,0,1.57,5.13l-7.92,6.58A10.5,10.5,0,0,1,1025.8,135.64Z"/><path class="e" d="M1027.36,140.77l1.12-.92.29-.24.28-.24.28-.23.26-.22.66-.55.71-.58.73-.61.74-.62.75-.62.73-.61.7-.59.67-.55a10.77,10.77,0,0,0,2.79,3l-7.92,6.58A10.79,10.79,0,0,1,1027.36,140.77Z"/><polygon class="e" points="1038.39 139.31 1030.48 145.89 1031.4 144.69 1039.31 138.1 1038.39 139.31"/><path d="M1027.52,125.14l7.92-6.59a13,13,0,0,0-4.68,10.56,13.55,13.55,0,0,0,4.46,9.55l-7.91,6.59a13.57,13.57,0,0,1-4.46-9.56A13,13,0,0,1,1027.52,125.14Z"/><path class="e" d="M1040.87,160.74a13.41,13.41,0,0,1-8.44-2.7l.93-.76,1-.82,1-.85,1-.86,1-.86,1-.85,1-.81.92-.77a13.41,13.41,0,0,0,8.44,2.7,14,14,0,0,0,4.72-.9l-7.91,6.58A13.79,13.79,0,0,1,1040.87,160.74Z"/><path class="e" d="M1028.72,151.27a8.28,8.28,0,0,1,1.76-5.38l7.91-6.58a8.31,8.31,0,0,0-1.76,5.37,9.12,9.12,0,0,0,3.71,6.78q-3.94,3.3-7.91,6.58A9.07,9.07,0,0,1,1028.72,151.27Z"/><path class="e" d="M1081.71,111.9a13.1,13.1,0,0,1,9.36,3.52l.9.87,1-.71a13.27,13.27,0,0,1,7.38-2.32c6.5-.11,12,4.15,12.15,9.49a7.26,7.26,0,0,1-.12,1.66l-.19,1.12,1,.5c3.43,1.66,5.54,4.45,5.65,7.44s-1.83,5.91-5.21,7.69l-1.17.62L1113,143c1.25,2.93,1,5.83-.63,7.57a5.65,5.65,0,0,1-4.12,1.67,11.35,11.35,0,0,1-7.7-3.36l-.32-.33-1.63-1.65-.8,2.14a12.15,12.15,0,0,1-11.08,8.12,12.54,12.54,0,0,1-10.72-6l-1.25-1.94-1.24,1.9a12.18,12.18,0,0,1-10.06,5.08,13.35,13.35,0,0,1-8.51-2.76l-.67-.53-.79.3a14,14,0,0,1-4.72.9c-6.5.1-12-4.14-12.15-9.48a8.31,8.31,0,0,1,1.76-5.37l.92-1.21-1.24-.9a10.57,10.57,0,0,1-4.36-8.14,10.08,10.08,0,0,1,9.92-10.51,10.21,10.21,0,0,1,2.9.36l.87.23.6-.66a8.15,8.15,0,0,1,6-2.77,8.37,8.37,0,0,1,5.49,2l.87.72.91-.64a13.1,13.1,0,0,1,7.33-2.28,13.89,13.89,0,0,1,3.09.28l.76.16.55-.54A12.82,12.82,0,0,1,1081.71,111.9Z"/><path d="M1053.83,156.31l-7.91,6.59a16.87,16.87,0,0,1-4.94.82c-8.12.14-15-5.44-15.22-12.4a11,11,0,0,1,1.55-6.07l7.91-6.59a11,11,0,0,0-1.54,6.07c.26,7,7.09,12.54,15.21,12.4A16.24,16.24,0,0,0,1053.83,156.31Z"/><path d="M1121.84,133.43c.14,3.8-1.94,7.37-5.63,9.72,1.14,3.62.55,7.19-1.65,9.52a8.47,8.47,0,0,1-6.16,2.54,13.91,13.91,0,0,1-8.66-3.14,14.87,14.87,0,0,1-12.89,8.09,15.34,15.34,0,0,1-12.09-5.71,15.55,15.55,0,0,1-11.18,4.77,16.37,16.37,0,0,1-9.75-2.91,16.24,16.24,0,0,1-4.94.82c-8.12.14-15-5.43-15.21-12.4a11,11,0,0,1,1.54-6.07,13.55,13.55,0,0,1-4.46-9.55,13,13,0,0,1,12.75-13.54,12.72,12.72,0,0,1,2.88.27,10.91,10.91,0,0,1,7.47-3.11,11.41,11.41,0,0,1,6.55,2,16.13,16.13,0,0,1,8-2.23,18.63,18.63,0,0,1,3,.21,15.89,15.89,0,0,1,10.16-3.76,16.35,16.35,0,0,1,10.62,3.57,16.12,16.12,0,0,1,8-2.21c8.13-.13,15,5.43,15.22,12.41a9.2,9.2,0,0,1,0,1.17C1119.32,126.09,1121.7,129.6,1121.84,133.43Zm-8.17,7.73c3.38-1.78,5.33-4.66,5.21-7.69s-2.22-5.78-5.65-7.44l-1-.5.19-1.12a7.26,7.26,0,0,0,.12-1.66c-.2-5.34-5.65-9.6-12.15-9.49a13.27,13.27,0,0,0-7.38,2.32l-1,.71-.9-.87a13.1,13.1,0,0,0-9.36-3.52,12.82,12.82,0,0,0-8.74,3.46l-.55.54-.76-.16a13.89,13.89,0,0,0-3.09-.28,13.1,13.1,0,0,0-7.33,2.28l-.91.64-.87-.72a8.37,8.37,0,0,0-5.49-2,8.15,8.15,0,0,0-6,2.77l-.6.66-.87-.23a10.21,10.21,0,0,0-2.9-.36,10.08,10.08,0,0,0-9.92,10.51,10.57,10.57,0,0,0,4.36,8.14l1.24.9-.92,1.21a8.31,8.31,0,0,0-1.76,5.37c.2,5.34,5.65,9.58,12.15,9.48a14,14,0,0,0,4.72-.9l.79-.3.67.53a13.35,13.35,0,0,0,8.51,2.76,12.18,12.18,0,0,0,10.06-5.08l1.24-1.9,1.25,1.94a12.54,12.54,0,0,0,10.72,6,12.15,12.15,0,0,0,11.08-8.12l.8-2.14,1.63,1.65.32.33a11.35,11.35,0,0,0,7.7,3.36,5.65,5.65,0,0,0,4.12-1.67c1.64-1.74,1.88-4.64.63-7.57l-.52-1.25,1.17-.62"/></g><g class="d"><polygon points="734.6 503.2 726.68 509.78 726.88 508.66 734.79 502.08 734.6 503.2"/><polygon points="735.63 503.7 727.72 510.28 726.68 509.78 734.6 503.2 735.63 503.7"/><path d="M739.63,525.62l-7.92,6.59a12.54,12.54,0,0,0,4.95-10.07c-.18-4.78-3.52-9.22-8.94-11.86l7.91-6.58c5.42,2.64,8.76,7.07,8.94,11.85A12.56,12.56,0,0,1,739.63,525.62Z"/><path d="M734.79,502.08l-7.91,6.58a12.64,12.64,0,0,0,.19-2.66c-.32-8.44-8.87-15.16-19.06-15a20.57,20.57,0,0,0-11.51,3.62l7.91-6.59a20.65,20.65,0,0,1,11.51-3.62c10.19-.17,18.74,6.56,19.06,15A12.73,12.73,0,0,1,734.79,502.08Z"/><path d="M741.56,527.92l-7.91,6.58a20.08,20.08,0,0,1-2.66,1.88l7.92-6.58A22.81,22.81,0,0,0,741.56,527.92Z"/><path class="e" d="M731.71,532.21a18.86,18.86,0,0,1-3.26,2.17l7.91-6.59a18.21,18.21,0,0,0,3.27-2.17Z"/><polygon points="704.41 488.04 696.5 494.63 695.49 495.34 703.4 488.76 704.41 488.04"/><polygon points="703.4 488.76 695.49 495.34 694.6 494.46 702.51 487.88 703.4 488.76"/><polygon class="e" points="736.36 527.79 728.45 534.38 727.26 535.01 735.17 528.42 736.36 527.79"/><polygon points="735.7 529.68 727.79 536.26 727.26 535.01 735.17 528.42 735.7 529.68"/><path d="M733.9,542.52,726,549.1a7.31,7.31,0,0,0,.71-.66c2.67-2.84,3.09-7.5,1.09-12.18l7.91-6.58c2,4.67,1.58,9.34-1.09,12.18C734.38,542.09,734.15,542.31,733.9,542.52Z"/><path class="e" d="M726,549.1a9.42,9.42,0,0,1-6,2.07l.92-.77,1-.82,1-.84,1-.87,1-.86,1-.84,1-.82.93-.77a9.48,9.48,0,0,0,6-2.06Z"/><path class="e" d="M720,551.17h0l.93-.77,1-.82,1-.85,1-.86,1-.86,1-.84,1-.82.93-.77h0L720,551.17Z"/><path class="e" d="M718.21,551.07l7.91-6.58a13.67,13.67,0,0,0,1.79.09L720,551.17A13.66,13.66,0,0,1,718.21,551.07Z"/><path class="e" d="M726.12,544.49l-7,5.81,7-5.81Z"/><path d="M667.37,493.42l7.91-6.59a21.17,21.17,0,0,1,27.23,1.05l-7.91,6.58a21.19,21.19,0,0,0-27.23-1Z"/><path d="M665.45,491.12l7.91-6.59-.66.58-7.91,6.58Z"/><path class="e" d="M667.37,493.42l7.91-6.59c-.36.31-.71.62-1,.95l-7.91,6.58C666.66,494,667,493.72,667.37,493.42Z"/><polygon class="e" points="673.69 488.32 665.78 494.91 666.33 494.36 674.24 487.78 673.69 488.32"/><path class="e" d="M718.21,551.07a18.48,18.48,0,0,1-10.34-5.15l.92-.77,1-.82,1-.84,1-.87,3.95-3.29a18.44,18.44,0,0,0,10.34,5.16l-7.91,6.58Z"/><path class="e" d="M707.87,545.92l-.51-.5,7.91-6.59.51.5-7.89,6.57,1.9-1.58,1-.85,1-.86,1-.86,1-.84,1-.81.92-.77h0l-7.91,6.59Z"/><polygon points="673.69 488.32 665.78 494.91 665.01 494.75 672.92 488.17 673.69 488.32"/><polygon class="e" points="715.27 538.83 707.36 545.41 705.74 543.76 713.65 537.18 715.27 538.83"/><polygon points="712.85 539.32 704.94 545.9 705.74 543.76 713.65 537.18 712.85 539.32"/><path d="M735.79,544.85l-7.91,6.58a12.19,12.19,0,0,1-7.74,2.71,16.88,16.88,0,0,1-2.22-.12,21.29,21.29,0,0,1-11.06-5l7.92-6.59a21.24,21.24,0,0,0,11.05,5.06,16.88,16.88,0,0,0,2.22.12A12.25,12.25,0,0,0,735.79,544.85Z"/><path d="M706.93,547.72,699,554.31a20.08,20.08,0,0,0,5.92-8.41l7.91-6.58A20,20,0,0,1,706.93,547.72Z"/><path d="M672.92,488.17,665,494.75a22.18,22.18,0,0,0-4.82-.44,20.38,20.38,0,0,0-11.41,3.56l7.91-6.59a20.46,20.46,0,0,1,11.42-3.56A22.1,22.1,0,0,1,672.92,488.17Z"/><polygon points="656.69 491.29 648.78 497.87 647.87 498.51 655.78 491.93 656.69 491.29"/><polygon points="655.78 491.93 647.87 498.51 646.99 497.79 654.9 491.21 655.78 491.93"/><path d="M630.19,497.69l7.91-6.59a12.87,12.87,0,0,1,8-3,13.35,13.35,0,0,1,8.75,3.12L647,497.79a13.41,13.41,0,0,0-8.75-3.12A12.86,12.86,0,0,0,630.19,497.69Z"/><path d="M628.27,495.39l7.91-6.59c-.4.33-.78.69-1.15,1.06l-7.92,6.59C627.49,496.07,627.87,495.72,628.27,495.39Z"/><polygon class="e" points="678.72 542.65 670.81 549.24 669.56 547.29 677.47 540.71 678.72 542.65"/><path class="e" d="M628.72,499.11a15.06,15.06,0,0,1,1.47-1.42l7.91-6.59a15,15,0,0,0-1.46,1.42Z"/><path class="e" d="M706.93,547.72,699,554.31a18.31,18.31,0,0,1-11.43,4.28,19.61,19.61,0,0,1-16.78-9.35l7.91-6.59A19.59,19.59,0,0,0,695.5,552,18.25,18.25,0,0,0,706.93,547.72Z"/><polygon class="e" points="636.04 493.18 628.13 499.77 628.73 499.11 636.64 492.52 636.04 493.18"/><polygon points="636.04 493.18 628.13 499.77 627.25 499.52 635.16 492.94 636.04 493.18"/><polygon points="676.24 542.61 668.33 549.2 669.56 547.29 677.47 540.71 676.24 542.61"/><path d="M708.85,550l-7.91,6.59a21.22,21.22,0,0,1-13.24,4.94,22.43,22.43,0,0,1-18.14-9l7.92-6.58a22.38,22.38,0,0,0,18.13,9A21.16,21.16,0,0,0,708.85,550Z"/><path d="M673.1,546.11l-7.91,6.58a15.73,15.73,0,0,0,3.14-3.49l7.91-6.59A15.77,15.77,0,0,1,673.1,546.11Z"/><path d="M612.78,502.6,620.7,496a15.84,15.84,0,0,1,9.89-3.66,16.47,16.47,0,0,1,4.57.58l-7.91,6.58a16.46,16.46,0,0,0-4.57-.57A15.8,15.8,0,0,0,612.78,502.6Z"/><path class="e" d="M652.59,557.16a20.71,20.71,0,0,1-13.29-4.31l7.91-6.58a20.85,20.85,0,0,0,13.29,4.31l-7.91,6.58,7.91-6.58a20.38,20.38,0,0,0,12.61-4.47l-7.92,6.58A20.27,20.27,0,0,1,652.59,557.16Z"/><polygon class="e" points="647.21 546.27 639.3 552.85 638.62 552.32 646.53 545.73 647.21 546.27"/><polygon class="e" points="646.53 545.73 638.62 552.32 637.84 552.62 645.75 546.03 646.53 545.73"/><path d="M675,548.4,667.13,555a23.29,23.29,0,0,1-14.43,5.16,23.92,23.92,0,0,1-14.53-4.46l7.91-6.58a24,24,0,0,0,14.53,4.46A23.27,23.27,0,0,0,675,548.4Z"/><polygon class="e" points="623.06 522.68 615.15 529.27 613.9 528.36 621.82 521.78 623.06 522.68"/><path class="e" d="M613.91,528.36a16.73,16.73,0,0,1-2.8-2.57L612,525l1-.81,1-.85,1-.86,1-.86,1-.85,1-.82.92-.76a17.16,17.16,0,0,0,2.8,2.57Z"/><path class="e" d="M607.06,515.52a16,16,0,0,1,5.72-12.92L620.7,496A15.94,15.94,0,0,0,615,508.94a16.55,16.55,0,0,0,4,10.27l-7.91,6.58A16.5,16.5,0,0,1,607.06,515.52Z"/><polygon class="e" points="622.14 523.89 614.23 530.47 615.15 529.27 623.06 522.68 622.14 523.89"/><path d="M610.86,500.3l7.91-6.58A18.86,18.86,0,0,0,612,509a19.59,19.59,0,0,0,7,14.25L611,529.83a19.59,19.59,0,0,1-6.95-14.26A18.87,18.87,0,0,1,610.86,500.3Z"/><path class="e" d="M619.51,551.27,621,550l6.41-5.33A21.79,21.79,0,0,0,645.76,546l-7.92,6.59a21.87,21.87,0,0,1-18.33-1.35Z"/><path class="e" d="M611.44,539a13.25,13.25,0,0,1,2.79-8.56l7.92-6.58a13.2,13.2,0,0,0-2.8,8.55c.19,5.07,3.36,9.53,8.07,12.24l-7.91,6.59C614.8,548.55,611.63,544.1,611.44,539Z"/><path class="e" d="M687.88,482.38a20.46,20.46,0,0,1,14.63,5.5l.89.88,1-.72a20.65,20.65,0,0,1,11.51-3.62c10.19-.17,18.74,6.56,19.06,15a12.73,12.73,0,0,1-.19,2.67l-.19,1.12,1,.5c5.42,2.64,8.76,7.07,8.94,11.85s-2.89,9.43-8.21,12.24l-1.18.63.52,1.26c2,4.67,1.58,9.34-1.09,12.18a9.21,9.21,0,0,1-6.7,2.72,13.67,13.67,0,0,1-1.79-.09,18.44,18.44,0,0,1-10.34-5.16l-.51-.5-1.62-1.65-.8,2.14A19,19,0,0,1,695.5,552a19.59,19.59,0,0,1-16.78-9.35l-1.25-1.94-1.23,1.9c-3.13,4.8-9.15,7.86-15.74,8a20.85,20.85,0,0,1-13.29-4.31l-.68-.54-.77.3a21.15,21.15,0,0,1-7.35,1.41c-10.19.17-18.74-6.56-19.06-15a13.2,13.2,0,0,1,2.8-8.55l.91-1.21-1.24-.9A16.62,16.62,0,0,1,615,508.94a15.89,15.89,0,0,1,15.62-16.58,16.47,16.47,0,0,1,4.57.58l.88.24.6-.66a13,13,0,0,1,9.51-4.43,13.35,13.35,0,0,1,8.75,3.12l.88.71.91-.63a20.39,20.39,0,0,1,11.42-3.57,22.1,22.1,0,0,1,4.81.45l.77.15.55-.54A20,20,0,0,1,687.88,482.38Z"/><path d="M747.54,515.5c.21,5.64-3,10.91-8.63,14.3,1.88,5.37,1.1,10.69-2.13,14.12a12,12,0,0,1-8.73,3.64,16.88,16.88,0,0,1-2.22-.12,21.24,21.24,0,0,1-11.05-5.06A21.7,21.7,0,0,1,695.61,555a22.38,22.38,0,0,1-18.13-9,22.58,22.58,0,0,1-16.87,7.58,24,24,0,0,1-14.53-4.46,24.15,24.15,0,0,1-7.56,1.31c-11.82.2-21.75-7.84-22.13-17.92a15.9,15.9,0,0,1,2.56-9.25A19.59,19.59,0,0,1,612,509a18.79,18.79,0,0,1,18.48-19.6,19.43,19.43,0,0,1,4.55.47,15.82,15.82,0,0,1,11-4.74,16.14,16.14,0,0,1,9.81,3.12A23.47,23.47,0,0,1,668,484.75a25.51,25.51,0,0,1,4.71.36,23,23,0,0,1,15.07-5.71,23.76,23.76,0,0,1,15.88,5.54,23.42,23.42,0,0,1,12.16-3.49c11.82-.2,21.74,7.84,22.13,17.92a17.55,17.55,0,0,1-.07,2.17C743.73,504.73,747.32,509.89,747.54,515.5Zm-11.18,12.29c5.32-2.81,8.39-7.38,8.21-12.24s-3.52-9.21-8.94-11.85l-1-.5.19-1.12a12.73,12.73,0,0,0,.19-2.67c-.32-8.43-8.87-15.16-19.06-15A20.65,20.65,0,0,0,704.41,488l-1,.72-.89-.88a20.46,20.46,0,0,0-14.63-5.5,20,20,0,0,0-13.64,5.4l-.55.54-.77-.15a22.1,22.1,0,0,0-4.81-.45,20.46,20.46,0,0,0-11.42,3.56l-.91.64-.88-.71a13.35,13.35,0,0,0-8.75-3.12,13,13,0,0,0-9.51,4.43l-.6.66-.88-.24a16.47,16.47,0,0,0-4.57-.58A15.89,15.89,0,0,0,615,508.94a16.62,16.62,0,0,0,6.85,12.84l1.24.9-.91,1.21a13.2,13.2,0,0,0-2.8,8.55c.32,8.44,8.87,15.17,19.06,15a21.15,21.15,0,0,0,7.35-1.41l.77-.3.68.54a20.85,20.85,0,0,0,13.29,4.31c6.59-.11,12.61-3.17,15.74-8l1.23-1.9,1.25,1.94A19.59,19.59,0,0,0,695.5,552a19,19,0,0,0,17.35-12.68l.8-2.14,1.62,1.65.51.5a18.44,18.44,0,0,0,10.34,5.16,13.67,13.67,0,0,0,1.79.09,9.21,9.21,0,0,0,6.7-2.72c2.67-2.84,3.09-7.51,1.09-12.18l-.52-1.26,1.18-.63"/><path d="M646.08,549.1l-7.91,6.58a24.16,24.16,0,0,1-7.56,1.32c-11.82.19-21.75-7.85-22.13-17.93a15.87,15.87,0,0,1,2.56-9.24l7.91-6.59a15.9,15.9,0,0,0-2.56,9.25c.38,10.08,10.31,18.12,22.13,17.92A24.15,24.15,0,0,0,646.08,549.1Z"/></g><rect class="a" x="418" y="293" width="121" height="27"/><text class="l" transform="translate(593.2 332.31)"><tspan class="m">a</tspan><tspan x="12.24" y="0">ddN</tspan><tspan class="n" x="55.92" y="0">e</tspan><tspan class="o" x="68.16" y="0">wPl</tspan><tspan class="n" x="106.84" y="0">a</tspan><tspan class="p" x="118.78" y="0">y</tspan><tspan x="130.04" y="0">e</tspan><tspan class="q" x="142.48" y="0">r</tspan><tspan x="150.68" y="0">()</tspan></text><text class="l" transform="translate(575.7 465.81)">So<tspan class="r" x="25.48" y="0">c</tspan><tspan class="s" x="37" y="0">k</tspan><tspan x="49.28" y="0">et </tspan><tspan class="t" x="75.72" y="0">C</tspan><tspan x="89.86" y="0">on</tspan><tspan class="m" x="116.46" y="0">n</tspan><tspan x="130.26" y="0">e</tspan><tspan class="u" x="142.7" y="0">c</tspan><tspan x="154.46" y="0">tion</tspan></text><text class="v" transform="translate(528.7 663.1)">so<tspan class="w" x="16.74" y="0">c</tspan><tspan class="x" x="25.07" y="0">k</tspan><tspan x="33.77" y="0">et</tspan></text><line class="b" x1="392" y1="320.5" x2="576.92" y2="320.5"/><polygon points="573.6 324.59 572.92 323.86 576.53 320.5 572.92 317.14 573.6 316.41 578 320.5 573.6 324.59"/><line class="b" x1="670.5" y1="347" x2="670.5" y2="438.42"/><polygon points="666.41 435.1 667.14 434.42 670.5 438.03 673.86 434.42 674.59 435.1 670.5 439.5 666.41 435.1"/><line class="b" x1="281.75" y1="248.25" x2="281.75" y2="288.42"/><polygon points="277.66 285.1 278.39 284.42 281.75 288.03 285.11 284.42 285.84 285.1 281.75 289.5 277.66 285.1"/><line class="b" x1="774.69" y1="219.5" x2="977.57" y2="219.5"/><polygon points="974.26 223.59 973.57 222.86 977.19 219.5 973.57 216.14 974.26 215.41 978.65 219.5 974.26 223.59"/><line class="b" x1="979" y1="242.5" x2="775.08" y2="242.5"/><polygon points="778.4 238.41 779.08 239.14 775.47 242.5 779.08 245.86 778.4 246.59 774 242.5 778.4 238.41"/><text class="l" transform="translate(250.82 230.17)">GET <tspan class="y" x="46.4" y="0">“</tspan><tspan class="z" x="54.52" y="0">/</tspan><tspan x="62.94" y="0">”</tspan></text><text class="l" transform="translate(248.7 328.17)">PO<tspan class="q" x="31.36" y="0">S</tspan><tspan class="o" x="43.74" y="0">T </tspan><tspan class="y" x="61.3" y="0">“</tspan><tspan class="z" x="69.42" y="0">/</tspan><tspan x="77.84" y="0">”</tspan></text><text class="l" transform="translate(204.7 358.17)"><tspan class="m">n</tspan><tspan class="n" x="13.8" y="0">e</tspan><tspan x="26.04" y="0">w Pl</tspan><tspan class="q" x="70.24" y="0">a</tspan><tspan class="p" x="82.18" y="0">y</tspan><tspan class="aa" x="93.44" y="0">e</tspan><tspan class="q" x="105.88" y="0">r</tspan><tspan x="114.08" y="0">(x, y)</tspan></text><text class="l" transform="translate(211.15 648.25)">d<tspan class="w" x="13.74" y="0">r</tspan><tspan class="q" x="21.98" y="0">a</tspan><tspan class="r" x="33.92" y="0">w</tspan><tspan x="52.2" y="0">Obje</tspan><tspan class="u" x="101.1" y="0">c</tspan><tspan x="112.86" y="0">ts()</tspan></text><text class="l" transform="translate(211.44 672.56)"><tspan class="w">c</tspan><tspan x="11.46" y="0">olle</tspan><tspan class="u" x="48.36" y="0">c</tspan><tspan x="60.12" y="0">t</tspan><tspan class="t" x="68.6" y="0">C</tspan><tspan class="aa" x="82.74" y="0">oin()</tspan></text><text class="v" transform="translate(830.83 217.13)"><tspan class="ab">f</tspan><tspan x="4.95" y="0">e</tspan><tspan class="ac" x="14.01" y="0">t</tspan><tspan class="w" x="19.81" y="0">c</tspan><tspan x="28.14" y="0">h data</tspan></text><text class="v" transform="translate(823.83 255.13)">JSON obje<tspan class="i" x="78.19" y="0">c</tspan><tspan x="86.73" y="0">t</tspan></text><text class="v" transform="translate(428.83 318.13)">H<tspan class="ad" x="12.2" y="0">T</tspan><tspan x="20.96" y="0">TP </tspan><tspan class="ae" x="44.26" y="0">r</tspan><tspan x="50.08" y="0">equest</tspan></text><rect class="a" x="418" y="349" width="121" height="27"/><rect class="a" x="375" y="640" width="121" height="23"/><line class="b" x1="578" y1="348.5" x2="393.08" y2="348.5"/><polygon points="396.4 344.41 397.08 345.14 393.47 348.5 397.08 351.86 396.4 352.59 392 348.5 396.4 344.41"/><text class="v" transform="translate(422.23 362.13)">H<tspan class="ad" x="12.2" y="0">T</tspan><tspan x="20.96" y="0">TP </tspan><tspan class="ae" x="44.26" y="0">r</tspan><tspan x="50.08" y="0">esponse</tspan></text><rect class="a" x="413.82" y="487.81" width="121" height="27" transform="translate(665.24 -161.9) rotate(59.47)"/><text class="v" transform="translate(421.37 411.02) rotate(59.47)">C<tspan class="af" x="10.79" y="0">r</tspan><tspan class="ag" x="16.61" y="0">e</tspan><tspan x="25.44" y="0">a</tspan><tspan class="ac" x="34.29" y="0">t</tspan><tspan x="40.09" y="0">e so</tspan><tspan class="ah" x="69.82" y="0">c</tspan><tspan class="ai" x="78.15" y="0">k</tspan><tspan x="86.85" y="0">et </tspan><tspan class="ab" x="105.93" y="0">c</tspan><tspan x="114.24" y="0">on</tspan><tspan class="aj" x="133.8" y="0">n</tspan><tspan x="143.98" y="0">e</tspan><tspan class="i" x="153.04" y="0">c</tspan><tspan x="161.58" y="0">tion</tspan></text><rect class="a" x="418" y="189" width="121" height="27"/><line class="b" x1="392" y1="216.5" x2="576.92" y2="216.5"/><polygon points="573.6 220.59 572.92 219.86 576.53 216.5 572.92 213.14 573.6 212.41 578 216.5 573.6 220.59"/><text class="v" transform="translate(428.83 214.13)">H<tspan class="ad" x="12.2" y="0">T</tspan><tspan x="20.96" y="0">TP </tspan><tspan class="ae" x="44.26" y="0">r</tspan><tspan x="50.08" y="0">equest</tspan></text><rect class="a" x="418" y="245" width="121" height="27"/><line class="b" x1="578" y1="244.5" x2="393.08" y2="244.5"/><polygon points="396.4 240.41 397.08 241.14 393.47 244.5 397.08 247.86 396.4 248.59 392 244.5 396.4 240.41"/><text class="v" transform="translate(422.23 258.13)">H<tspan class="ad" x="12.2" y="0">T</tspan><tspan x="20.96" y="0">TP </tspan><tspan class="ae" x="44.26" y="0">r</tspan><tspan x="50.08" y="0">esponse</tspan></text><line class="b" x1="622.23" y1="562.77" x2="558" y2="627"/><polygon points="617 562.22 617.03 563.22 621.96 563.04 621.78 567.97 622.78 568 623 562 617 562.22"/><line class="b" x1="703.5" y1="570.5" x2="703.5" y2="658.5"/><rect class="b" x="518.5" y="637.5" width="70" height="40" rx="9.5"/><text class="v" transform="translate(632.7 720.1)">so<tspan class="w" x="16.74" y="0">c</tspan><tspan class="x" x="25.07" y="0">k</tspan><tspan x="33.77" y="0">et</tspan></text><rect class="b" x="622.5" y="694.5" width="70" height="40" rx="9.5"/><text class="v" transform="translate(722.7 720.1)">so<tspan class="w" x="16.74" y="0">c</tspan><tspan class="x" x="25.07" y="0">k</tspan><tspan x="33.77" y="0">et</tspan></text><rect class="b" x="712.5" y="694.5" width="70" height="40" rx="9.5"/><line class="ak" x1="392.5" y1="376.5" x2="543.95" y2="633.57"/><polygon points="538.74 632.79 539.03 631.83 543.75 633.24 544.81 628.42 545.79 628.63 544.5 634.5 538.74 632.79"/><line class="b" x1="369.5" y1="616.5" x2="369.5" y2="691"/><line class="b" x1="369.5" y1="616.5" x2="358" y2="616.5"/><line class="b" x1="369.53" y1="690.5" x2="358" y2="690.5"/><text class="v" transform="translate(394.83 656.13)">upda<tspan class="ac" x="39.28" y="0">t</tspan><tspan x="45.09" y="0">e sta</tspan><tspan class="ac" x="80.35" y="0">t</tspan><tspan x="86.16" y="0">e</tspan></text><line class="b" x1="369.57" y1="659.5" x2="506.42" y2="659.5"/><polygon points="503.1 663.59 502.42 662.86 506.03 659.5 502.42 656.14 503.1 655.41 507.5 659.5 503.1 663.59"/><text class="al" transform="translate(572.06 608.57) rotate(-45)"><tspan class="w">c</tspan><tspan x="5.55" y="0">ha</tspan><tspan class="am" x="18.22" y="0">n</tspan><tspan x="25.01" y="0">ges</tspan></text><line class="b" x1="594.58" y1="658.5" x2="747.5" y2="658.5"/><polygon points="597.9 662.59 598.58 661.86 594.97 658.5 598.58 655.14 597.9 654.41 593.5 658.5 597.9 662.59"/><line class="b" x1="658.5" y1="658" x2="658.5" y2="688.92"/><polygon points="654.41 685.6 655.14 684.92 658.5 688.53 661.86 684.92 662.59 685.6 658.5 690 654.41 685.6"/><line class="b" x1="747.5" y1="658" x2="747.5" y2="688.92"/><polygon points="743.41 685.6 744.14 684.92 747.5 688.53 750.86 684.92 751.59 685.6 747.5 690 743.41 685.6"/><rect class="a" x="675" y="616" width="59" height="17"/><text class="al" transform="translate(684.23 627.42)">upda<tspan class="an" x="26.19" y="0">t</tspan><tspan x="30.06" y="0">e</tspan></text></svg>