<svg xmlns="http://www.w3.org/2000/svg" viewBox="0 0 1366 768"><defs><style>.a{fill:#dbdbdb;}.ak,.b,.c{fill:none;stroke:#000;stroke-miterlimit:10;}.c{stroke-dasharray:11.81 11.81;}.d{isolation:isolate;}.e{fill:#fff;}.f{font-size:30px;font-family:MyriadPro-Regular, Myriad Pro;}.g{letter-spacing:0em;}.h{letter-spacing:0em;}.i{letter-spacing:0.01em;}.j{letter-spacing:0.02em;}.k{letter-spacing:-0.01em;}.l{font-size:20px;font-family:Montserrat-SemiBold, Montserrat;font-weight:600;}.m{letter-spacing:0em;}.n{letter-spacing:-0.01em;}.o{letter-spacing:0em;}.p{letter-spacing:-0.01em;}.q{letter-spacing:-0.01em;}.r{letter-spacing:0em;}.s{letter-spacing:-0.02em;}.t{letter-spacing:-0.02em;}.u{letter-spacing:0.01em;}.v{font-size:15px;}.al,.v{font-family:Montserrat-Regular, Montserrat;}.w{letter-spacing:-0.01em;}.x{letter-spacing:-0.02em;}.y{letter-spacing:-0.05em;}.z{letter-spacing:0.05em;}.aa{letter-spacing:0em;}.ab{letter-spacing:-0.01em;}.ac{letter-spacing:-0.02em;}.ad{letter-spacing:0.01em;}.ae{letter-spacing:-0.01em;}.af{letter-spacing:-0.01em;}.ag{letter-spacing:-0.02em;}.ah{letter-spacing:-0.01em;}.ai{letter-spacing:-0.02em;}.aj{letter-spacing:0em;}.ak{stroke-dasharray:12 12;}.al{font-size:10px;}.am{letter-spacing:0em;}.an{letter-spacing:-0.02em;}</style></defs><rect class="a" width="1366" height="768"/><rect class="a" x="791.56" y="204.92" width="121" height="27"/><rect class="a" x="791.56" y="250.92" width="121" height="27"/><line class="b" x1="465.51" y1="58.42" x2="465.51" y2="64.42"/><line class="c" x1="465.51" y1="76.23" x2="465.51" y2="731.52"/><line class="b" x1="465.51" y1="737.42" x2="465.51" y2="743.42"/><line class="b" x1="79.06" y1="58.92" x2="79.06" y2="64.92"/><line class="c" x1="79.06" y1="76.73" x2="79.06" y2="732.02"/><line class="b" x1="79.06" y1="737.92" x2="79.06" y2="743.92"/><line class="b" x1="858.01" y1="58.92" x2="858.01" y2="64.92"/><line class="c" x1="858.01" y1="76.73" x2="858.01" y2="732.02"/><line class="b" x1="858.01" y1="737.92" x2="858.01" y2="743.92"/><line class="b" x1="1260.06" y1="58.92" x2="1260.06" y2="64.92"/><line class="c" x1="1260.06" y1="76.73" x2="1260.06" y2="732.02"/><line class="b" x1="1260.06" y1="737.92" x2="1260.06" y2="743.92"/><g class="d"><path d="M284,137.51l1.65.26a136.67,136.67,0,0,0-19.14-1.67c-2.45,0-4.78,0-7,.07h0l1.67-.06c1.9-.08,3.94-.1,6.07-.06A117.06,117.06,0,0,1,284,137.51Z"/><path d="M284.06,135.54l1.63.27a135.41,135.41,0,0,0-19.06-1.66c-2.41,0-4.71,0-6.87.06l.83,0,.83,0c1.88-.07,3.89-.09,6-.06A120.87,120.87,0,0,1,284.06,135.54Z"/><path d="M282.35,129.4l1.32.18a139.39,139.39,0,0,0-16.66-1.3c-1.55,0-3.06,0-4.51,0h0l1.33,0c1.27,0,2.59,0,3.95,0A120.45,120.45,0,0,1,282.35,129.4Z"/><path d="M284.85,133.68l1.71.29a135.5,135.5,0,0,0-19.81-1.78c-2.69-.05-5.24,0-7.61.1l1.74-.08c2.07-.1,4.3-.13,6.65-.09A118.42,118.42,0,0,1,284.85,133.68Z"/><path d="M284.25,131.62l1.64.27a135.15,135.15,0,0,0-19-1.65c-2.39-.05-4.68,0-6.82.06l.83,0,.82,0q2.82-.12,6-.06A118.65,118.65,0,0,1,284.25,131.62Z"/><path class="e" d="M258.76,149.52a66.25,66.25,0,0,1-8.56-1.64c-1.1-.23-2.55-.68-3.64-1a30.56,30.56,0,0,1-5.71-2.18c-1-.55-2.73-1.29-3.13-2.4-.13-.36-.52-.83-.41-1.19a4.65,4.65,0,0,1,1.47-2.15c.62-.44,2.57-1.57,7.22-2.46,2.27-.44,5.33-.76,7.63-1,1.35-.14,3.16-.19,4.51-.27l1.47-.06c-13,.51-20.93,3.19-18.22,6.58,3.16,4,19.6,7.43,36.65,7.73s28.34-2.69,25.18-6.65c-1.91-2.4-8.68-4.61-17.5-6.05l1.44.23c1.31.24,3.06.54,4.36.8s2.78.58,4,.91c2,.54,4.55,1.38,6.47,2.08a19.11,19.11,0,0,1,2.37,1.14c.95.53,2.5,1.35,2.68,2.41.05.35.33.86.16,1.17a6,6,0,0,1-1.91,2.1c-.73.43-2.94,1.52-7.8,2.36a94.43,94.43,0,0,1-12.57,1.12s-3.16-.5-6.34-1.17a2.41,2.41,0,0,0-.37-.07c-.22,0-.53,0-.75,0-.93,0-3.45-.08-6.59-.29-2.49-.17-4.53-.37-4.75-.4a6.39,6.39,0,0,0-1.07,0C261.88,149.42,258.77,149.52,258.76,149.52Z"/><path d="M286.17,148.4l-1.82.09c10.8-.53,17.24-2.82,14.95-5.7-2.76-3.46-17.13-6.49-32-6.74s-24.75,2.34-22,5.8c1.6,2,7.09,3.86,14.31,5.12h0l-.09,0-.53-.09-.27-.05-.89-.15c-8.27-1.44-14.55-3.57-16.38-5.87-3.16-4,8.13-6.94,25.17-6.64s33.48,3.76,36.64,7.72C305.9,145.17,298.53,147.79,286.17,148.4Z"/><path class="e" d="M258.14,135.26c-2.58.15-6,.29-8.57.69-1.07.17-2.51.33-3.57.58a35.13,35.13,0,0,0-5.44,1.53,10.83,10.83,0,0,0-2.88,2c-.26.24-.27.77-.37,1.11-.25.84.94,1.87,1.62,2.41,1,.78,3.11,2,7.63,3.36,1.08.33,2.54.74,3.64,1,2.56.55,6,1.2,8.56,1.64l-1.26,0c-10.12-1.62-17.9-4.15-20.08-6.88-3-3.83,5.84-6.84,20.52-7.41Z"/><path class="e" d="M284.88,151.13c2.66-.12,6.21-.23,8.85-.6,1.12-.15,2.62-.29,3.72-.52a44.09,44.09,0,0,0,5.81-1.46,14.12,14.12,0,0,0,3.3-1.91c.3-.22.43-.76.6-1.09.37-.7-.55-1.84-1.13-2.38-.84-.79-2.74-2-7-3.42-1-.34-2.44-.76-3.5-1-2.48-.57-5.81-1.25-8.32-1.71l.2,0c9.94,1.63,17.56,4.12,19.71,6.82,3.08,3.87-6,6.9-20.95,7.43Z"/><path class="e" d="M259,147.58a66.7,66.7,0,0,1-8.59-1.64c-1.11-.23-2.57-.68-3.67-1a31,31,0,0,1-5.73-2.18c-1.05-.56-2.74-1.29-3.15-2.41-.12-.36-.52-.83-.41-1.19A4.62,4.62,0,0,1,238.9,137c.63-.45,2.59-1.58,7.26-2.47,2.28-.44,5.36-.76,7.66-1,1.36-.14,3.17-.19,4.53-.27l1.46-.05c-13.08.5-21,3.18-18.3,6.58,3.16,4,19.6,7.43,36.65,7.73s28.34-2.69,25.18-6.65c-1.92-2.41-8.72-4.63-17.58-6.07,3.14.51,5.78,1,5.8,1,1.2.24,2.8.58,4,.91,2,.55,4.58,1.38,6.5,2.08a18.09,18.09,0,0,1,2.39,1.15c.95.52,2.51,1.35,2.69,2.42.05.35.33.86.16,1.17a6,6,0,0,1-1.92,2.1c-.73.43-2.95,1.53-7.83,2.36-2.37.4-5.57.69-8,.9-1.39.13-3.26.16-4.66.22,0,0-3.1-.49-6.24-1.15-.11,0-.25-.07-.36-.08h-.75c-.73,0-3.36-.07-6.61-.29-2.49-.17-4.53-.38-4.75-.4a6.39,6.39,0,0,0-1.07,0C262,147.48,259,147.58,259,147.58Z"/><path class="e" d="M278.17,149.89c.11,0,.26.05.37.07,1.91.41,4,.8,6.34,1.17-2.55.05-6.81.14-13.36-.26-6.08-.38-10.59-1-12.76-1.35,2.27-.09,4.38-.21,6.25-.38l.36,0c.21,0,.49,0,.71.07s2.72.28,5.59.45,5.13.23,5.75.24C277.64,149.88,278,149.86,278.17,149.89Z"/><path class="e" d="M256.21,147.37a143.29,143.29,0,0,0,15.39,1.78,140.9,140.9,0,0,0,16.1.16l-1.59.08c-2.5.12-5.21.17-8.07.12a135.1,135.1,0,0,1-20.27-1.86Z"/><path d="M288.28,135.5l1.78.31c10.12,1.76,17.79,4.36,20,7.17,3.86,4.84-9.93,8.49-30.78,8.12s-40.93-4.59-44.8-9.44c-3.21-4,5.8-7.23,20.92-8,.3,0,.6,0,.9-.05l.91,0c-13.55.67-21.63,3.54-18.75,7.15,3.46,4.34,21.48,8.14,40.15,8.47s31.05-2.94,27.59-7.28C304.23,139.41,297.34,137.08,288.28,135.5Z"/><path d="M286.46,146.44l-1.84.09c10.71-.55,17.08-2.83,14.8-5.69-2.76-3.46-17.13-6.49-32-6.75s-24.75,2.35-22,5.81c1.59,2,7,3.83,14.16,5.09h0l-1.8-.32c-8.19-1.44-14.4-3.55-16.22-5.83-3.16-4,8.14-7,25.18-6.65s33.49,3.76,36.65,7.73C306,143.2,298.72,145.81,286.46,146.44Z"/><path class="e" d="M258.35,133.3c-2.58.15-6.05.29-8.61.69-1.07.17-2.52.33-3.58.58a35.06,35.06,0,0,0-5.46,1.53,11,11,0,0,0-2.9,2c-.26.24-.27.78-.37,1.12-.25.84.94,1.87,1.63,2.41,1,.79,3.13,2,7.66,3.37,1.09.33,2.56.74,3.67,1,2.57.55,6,1.2,8.59,1.64l-1.27,0c-10.16-1.62-18-4.15-20.18-6.89-3.05-3.84,5.88-6.85,20.62-7.42Z"/><path class="e" d="M284.9,149.18c2.67-.12,6.24-.22,8.89-.59,1.12-.16,2.63-.3,3.74-.53a43.22,43.22,0,0,0,5.83-1.46,14.25,14.25,0,0,0,3.32-1.91c.3-.23.43-.76.6-1.09.37-.71-.56-1.85-1.14-2.39-.84-.79-2.75-2-7.08-3.43-1.05-.34-2.45-.76-3.52-1-2.49-.57-5.83-1.25-8.35-1.71l.2,0c10,1.62,17.65,4.12,19.81,6.83,3.08,3.87-6.05,6.91-21,7.43Z"/><path class="e" d="M258.18,145.48a63.5,63.5,0,0,1-8.26-1.64c-1.06-.23-2.46-.67-3.51-1a29,29,0,0,1-5.48-2.15c-1-.54-2.62-1.27-3-2.35-.12-.35-.5-.81-.39-1.16a4.66,4.66,0,0,1,1.42-2.11c.6-.43,2.49-1.54,7-2.44,2.18-.43,5.14-.76,7.35-1,1.31-.14,3.06-.2,4.36-.28l1.53-.07c-12.66.57-20.25,3.22-17.59,6.56,3.17,4,19.63,7.44,36.69,7.73s28.38-2.68,25.22-6.65c-1.87-2.34-8.35-4.51-16.86-5.95,6.12,1,8.84,1.76,9.53,1.95,1.89.54,4.39,1.37,6.23,2.05a17.26,17.26,0,0,1,2.28,1.13c.91.51,2.4,1.33,2.57,2.36.05.34.32.84.15,1.15a5.76,5.76,0,0,1-1.84,2.05c-.69.42-2.82,1.5-7.5,2.34a90.2,90.2,0,0,1-12.13,1.16s-3.53-.53-7.17-1.31a2.71,2.71,0,0,0-.41-.09h-.74c-.72,0-3.32-.08-6.52-.29-2.41-.17-4.33-.36-4.69-.4a6.86,6.86,0,0,0-1.11,0C261.71,145.38,258.2,145.48,258.18,145.48Z"/><path class="e" d="M278.3,148l.36.08c1.88.4,4,.78,6.24,1.15-2.53,0-6.76.14-13.25-.26-6-.38-10.52-1-12.67-1.34,2.23-.08,4.3-.21,6.14-.37l.36,0c.21,0,.49,0,.71.07s2.73.28,5.6.45,5.13.23,5.76.24C277.77,147.94,278.07,147.93,278.3,148Z"/><path class="e" d="M256.14,145.38a142.74,142.74,0,0,0,15.58,1.82,143.46,143.46,0,0,0,16.29.15l-1.61.08c-2.55.13-5.31.18-8.24.13a134.26,134.26,0,0,1-20.44-1.9Z"/><path d="M288.58,133.58l1.81.31c10,1.77,17.59,4.35,19.82,7.14,3.86,4.84-9.93,8.48-30.78,8.12s-40.93-4.6-44.8-9.44c-3.19-4,5.72-7.2,20.71-8l1.84-.1c-13.44.69-21.43,3.55-18.56,7.15,3.46,4.34,21.47,8.13,40.14,8.46s31.05-2.94,27.59-7.28C304.36,137.47,297.56,135.16,288.58,133.58Z"/><path d="M286.76,144.47l-1.85.1c10.63-.56,16.94-2.84,14.66-5.69-2.75-3.46-17.14-6.5-32-6.76s-24.78,2.35-22,5.82c1.57,2,6.93,3.81,14,5.07l-1.82-.32c-8.1-1.44-14.23-3.54-16-5.81-3.16-4,8.14-6.94,25.18-6.64S300.36,134,303.52,138C306.13,141.23,298.92,143.83,286.76,144.47Z"/><path class="e" d="M288,147.35l.23,0c-2.87.15-6,.2-9.3.15a152.51,152.51,0,0,1-23-2.13l.23,0a142.74,142.74,0,0,0,15.58,1.82A144.23,144.23,0,0,0,288,147.35Z"/><path class="e" d="M257.65,131.38c-2.48.16-5.82.31-8.27.72-1,.17-2.42.33-3.44.57a34.61,34.61,0,0,0-5.24,1.52,10.78,10.78,0,0,0-2.79,1.93c-.25.24-.26.77-.36,1.1-.24.8.88,1.82,1.54,2.35.94.77,3,2,7.32,3.31,1,.32,2.45.73,3.51,1,2.47.55,5.78,1.2,8.26,1.64l-1.28,0c-9.71-1.63-17.13-4.09-19.25-6.75-3-3.76,5.54-6.74,19.79-7.38Z"/><path class="e" d="M285.93,147.19c2.57-.13,6-.25,8.54-.63,1.08-.16,2.53-.3,3.59-.53a41.34,41.34,0,0,0,5.59-1.45,13.8,13.8,0,0,0,3.18-1.88c.28-.22.41-.74.57-1.06.35-.69-.52-1.81-1.08-2.34-.8-.77-2.63-2-6.78-3.36a86.69,86.69,0,0,0-11.4-2.69l.21,0c9.57,1.62,16.87,4.06,19,6.7,3,3.79-5.69,6.78-20.14,7.39Z"/><path class="e" d="M259.28,143.68a67.32,67.32,0,0,1-8.61-1.64c-1.11-.24-2.57-.68-3.67-1a31.06,31.06,0,0,1-5.76-2.19c-1.05-.55-2.74-1.29-3.15-2.41-.13-.36-.53-.83-.42-1.19a4.67,4.67,0,0,1,1.48-2.16c.62-.44,2.59-1.58,7.28-2.47,2.28-.44,5.37-.76,7.68-1,1.36-.14,3.18-.18,4.54-.26l1.45-.06c-13.11.5-21.07,3.18-18.35,6.59,3.16,4,19.6,7.42,36.65,7.72S306.74,141,303.58,137c-1.92-2.41-8.75-4.64-17.64-6.08,3.15.51,5.79,1,5.82,1,1.2.24,2.8.58,4,.91,2,.54,4.58,1.38,6.52,2.08a18.71,18.71,0,0,1,2.39,1.15c.95.53,2.52,1.35,2.7,2.42.05.35.33.86.16,1.18a6,6,0,0,1-1.93,2.1c-.73.43-2.95,1.53-7.85,2.36-2.38.4-5.59.69-8,.9-1.4.13-3.27.16-4.68.22,0,0-3.06-.49-6.17-1.14a2.29,2.29,0,0,0-.36-.07c-.22,0-.52,0-.75,0-.93,0-3.45-.08-6.61-.29-2.49-.17-4.53-.38-4.76-.4a6.23,6.23,0,0,0-1.06,0C262.31,143.58,259.29,143.68,259.28,143.68Z"/><path class="e" d="M278.35,145.79a2.71,2.71,0,0,1,.41.09c2.16.46,4.57.9,7.17,1.31-2.69.07-7.19.2-14.18-.23-6.5-.4-11.27-1.13-13.57-1.48,2.59-.09,5-.23,7.11-.42.12,0,.28,0,.41,0s.49,0,.7.07,2.69.28,5.52.45,5.07.22,5.69.24A6.09,6.09,0,0,1,278.35,145.79Z"/><path class="e" d="M256.06,143.4a143.9,143.9,0,0,0,15.77,1.84,141.55,141.55,0,0,0,16.5.14l-1.61.09c-2.6.14-5.43.19-8.44.13a133.73,133.73,0,0,1-20.63-1.92Z"/><path d="M288.9,131.66l1.81.32c9.89,1.76,17.38,4.32,19.58,7.09,3.86,4.84-9.92,8.48-30.75,8.11s-40.89-4.59-44.75-9.43c-3.18-4,5.62-7.16,20.47-7.95l1.84-.1c-13.31.71-21.21,3.55-18.36,7.13,3.46,4.34,21.47,8.14,40.14,8.46s31-2.94,27.58-7.28C304.49,135.54,297.77,133.23,288.9,131.66Z"/><path d="M288.23,142.4l-2,.14c9.87-.67,15.61-2.87,13.43-5.61-2.76-3.46-17.13-6.49-32-6.75s-24.75,2.35-22,5.8c1.49,1.86,6.32,3.6,12.79,4.85h0l-2-.38c-7.38-1.43-12.91-3.41-14.6-5.54C238.74,131,250,128,267,128.28s33.4,3.76,36.56,7.71C306.06,139.12,299.51,141.64,288.23,142.4Z"/><path class="e" d="M258.65,129.39c-2.59.15-6.07.28-8.63.69-1.08.17-2.53.32-3.59.57a35.3,35.3,0,0,0-5.48,1.53,11.27,11.27,0,0,0-2.91,2c-.26.24-.27.78-.37,1.12-.25.84,1,1.87,1.64,2.41,1,.79,3.14,2,7.69,3.38,1.09.32,2.56.73,3.67,1,2.58.55,6,1.2,8.61,1.64l-1.29,0c-10.18-1.62-18-4.16-20.23-6.91-3.06-3.84,5.91-6.85,20.69-7.42Z"/><path class="e" d="M285.07,145.27c2.68-.12,6.26-.22,8.92-.59,1.12-.16,2.64-.3,3.75-.53a43.13,43.13,0,0,0,5.85-1.46,14.52,14.52,0,0,0,3.33-1.91c.3-.23.43-.76.6-1.09.37-.71-.56-1.86-1.14-2.4-.84-.79-2.76-2-7.11-3.43-1-.34-2.45-.76-3.52-1-2.5-.57-5.85-1.25-8.38-1.71l.21,0c10,1.63,17.7,4.14,19.87,6.85,3.09,3.88-6.07,6.92-21.1,7.44Z"/><path class="e" d="M261.91,142.08a39.84,39.84,0,0,1-5-.74c-2.61-.51-6.08-1.25-8.67-1.89a48.52,48.52,0,0,1-6.45-2.29,9.22,9.22,0,0,1-3.56-2.55,2.53,2.53,0,0,1-.06-2.47,7.34,7.34,0,0,1,3.29-2.08,43.2,43.2,0,0,1,6.17-1.56,77.17,77.17,0,0,1,8.6-.94c1.51-.12,3.54-.13,5.06-.19l1.2,0c-14.47.25-23.53,3-20.66,6.65,3.16,4,19.6,7.42,36.65,7.72s28.34-2.68,25.18-6.65c-2.08-2.61-9.95-5-19.95-6.42,5.94.84,8.68,1.46,10.49,1.87a43.25,43.25,0,0,1,7.34,2.16,37.55,37.55,0,0,1,4.7,2.47,6.84,6.84,0,0,1,1.14,1.31c.49.55.07,1.87-.42,2.42a8.51,8.51,0,0,1-3.71,2c-1.93.54-4.55,1.12-6.53,1.49a41.83,41.83,0,0,1-4.18.51c-3,.21-6.93.54-9.91.47,0,0-1.75-.3-3.61-.67a1.3,1.3,0,0,0-.21,0c-.23,0-.54,0-.78,0s-2.48,0-5.09-.19c-3.29-.18-5.94-.44-6.67-.52-.22,0-.52-.07-.74-.07a1.34,1.34,0,0,0-.2,0C263.6,142,261.92,142.08,261.91,142.08Z"/><path class="e" d="M278.54,144.06c.11,0,.25.05.36.07,1.86.39,3.93.77,6.17,1.14-2.51,0-6.72.13-13.18-.27-6-.37-10.46-1-12.61-1.32,2.21-.09,4.25-.21,6.08-.37l.35,0c.22,0,.5.05.71.07s2.73.28,5.61.45,5.14.23,5.76.24C278,144.05,278.32,144,278.54,144.06Z"/><path class="e" d="M254.63,141.12c2.24.41,4.56.84,8.24,1.29s7,.72,9.05.84a139.39,139.39,0,0,0,18.08.05l-.19,0h-.1l-.2,0-.5,0-.3,0h-.2l-.2,0s-.08,0-.1,0c-3,.2-6.27.28-9.81.22a132,132,0,0,1-22-2.18Z"/><path d="M290.59,130l2,.38c9.05,1.74,15.82,4.17,17.9,6.77,3.86,4.85-9.93,8.49-30.78,8.13s-40.93-4.6-44.8-9.44c-3.06-3.84,5-6.93,18.79-7.86h0l2-.14c-12.42.84-19.64,3.61-16.89,7.06,3.47,4.35,21.52,8.16,40.24,8.48s31.11-3,27.64-7.29C304.8,133.71,298.72,131.52,290.59,130Z"/><path d="M286.52,140.62l-1.79.09c10.85-.53,17.35-2.82,15-5.7-2.75-3.46-17.12-6.49-32-6.75s-24.75,2.35-22,5.8c1.61,2,7.14,3.88,14.42,5.14h0l-1.77-.3c-8.33-1.45-14.66-3.58-16.5-5.89-3.16-4,8.13-6.94,25.17-6.64s33.48,3.76,36.64,7.72C306.38,137.4,299,140,286.52,140.62Z"/><path class="e" d="M282.67,143.36c3-.08,7-.12,9.91-.47,1.25-.15,2.94-.28,4.18-.51a49.81,49.81,0,0,0,6.53-1.49,15.86,15.86,0,0,0,3.71-2c.32-.24.46-.81.65-1.17.4-.77-.71-2-1.37-2.56-1-.84-3.17-2.15-8.08-3.6a101.15,101.15,0,0,0-13.27-2.74l.14,0c11.24,1.59,20.07,4.29,22.42,7.23,3.26,4.09-7.16,7.25-23.73,7.48Z"/><path class="e" d="M261.33,127.37c-2.89.11-6.77.18-9.64.57-1.2.17-2.83.31-4,.56a41.59,41.59,0,0,0-6.17,1.56,12.55,12.55,0,0,0-3.29,2.08c-.29.25-.31.83-.42,1.19-.29.91,1.09,2,1.86,2.58s3.27,2.05,8.63,3.54c2.57.71,6.06,1.38,8.67,1.89,1.48.28,3.47.52,5,.74-.36,0-.72,0-1.08,0-11.46-1.58-20.49-4.31-22.87-7.28-3.22-4,7-7.19,23.23-7.48Z"/><path class="e" d="M258.76,149.52c.45,0,1.05.15,1.5.22s5.35.77,11.26,1.13,10.2.33,11.77.29c.48,0,1.11-.06,1.59,0H285l1.16.18c-2.34.09-4.82.11-7.42.06a153.12,153.12,0,0,1-21.2-1.82l1.17,0Z"/><path class="e" d="M259,147.58c.45,0,1,.15,1.5.22s5.31.75,11.17,1.12,10.12.32,11.67.29c.48,0,1.11-.06,1.58,0H285c.39.06.78.13,1.18.18q-3.48.13-7.34.06a153.66,153.66,0,0,1-21.11-1.81l1.19,0Z"/><path class="e" d="M278.85,142.65a1.3,1.3,0,0,1,.21,0c1.66.33,3.13.59,3.61.67a152.68,152.68,0,0,1-20.76-1.28c1.62-.08,2.86-.17,3.46-.22h.2c.22,0,.52.05.74.07s2.77.29,5.8.47,5.32.23,6,.24C278.31,142.64,278.62,142.62,278.85,142.65Z"/><path class="e" d="M287.7,149.31h.23c-2.82.14-5.87.19-9.11.13a150.3,150.3,0,0,1-22.83-2.1l.22,0a143.29,143.29,0,0,0,15.39,1.78A141.45,141.45,0,0,0,287.7,149.31Z"/><path class="e" d="M256.82,139.61a145.62,145.62,0,0,0,15.27,1.76,140.91,140.91,0,0,0,16,.16l-1.58.08c-2.47.12-5.13.16-8,.11a133.8,133.8,0,0,1-20.15-1.84Z"/><path class="e" d="M258.18,145.48c.48,0,1.12.17,1.6.24s5.66.85,12,1.24c6.48.4,11.22.31,12.51.28.5,0,1.17-.08,1.67-.05H286l1.18.18c-2.57.11-5.33.15-8.25.1a154,154,0,0,1-22-2l1.2,0Z"/><path class="e" d="M259.28,143.68c.46,0,1.05.15,1.5.21s5.28.75,11.11,1.11,10.07.33,11.62.3c.47,0,1.1-.07,1.56,0h.09l1.19.19q-3.45.12-7.28.05a153.27,153.27,0,0,1-21.08-1.8l1.21,0Z"/><path class="e" d="M288.33,145.38h.23c-2.93.16-6.11.21-9.49.15a150.67,150.67,0,0,1-23.24-2.16l.23,0a143.9,143.9,0,0,0,15.77,1.84A142.6,142.6,0,0,0,288.33,145.38Z"/><path class="e" d="M261.91,142.08c.37,0,.86.11,1.22.16s4.3.53,8.94.82,8.05.31,9.31.3c.39,0,.91,0,1.29,0h.07l1,.17c-1.48,0-3,0-4.59,0a154.73,154.73,0,0,1-18.34-1.4l1,0Z"/><path class="e" d="M290,143.3h.21c-3.34.22-7,.31-11,.24a148.11,148.11,0,0,1-24.75-2.45l.21,0c2.24.41,4.56.84,8.24,1.29s7,.72,9.05.84A139.07,139.07,0,0,0,290,143.3Z"/><path d="M288.63,127.69l1.77.31c10.18,1.76,17.92,4.37,20.17,7.19,3.86,4.85-9.93,8.49-30.78,8.13s-40.93-4.6-44.8-9.44c-3.22-4,5.85-7.25,21.06-8l1.8-.09c-13.63.66-21.78,3.54-18.89,7.16,3.47,4.34,21.48,8.14,40.16,8.47s31.06-3,27.59-7.29C304.7,131.62,297.76,129.27,288.63,127.69Z"/><path class="e" d="M288.05,141.53h.22c-2.78.14-5.79.18-9,.13a152.85,152.85,0,0,1-22.7-2.07l.22,0a145.62,145.62,0,0,0,15.27,1.76A143.85,143.85,0,0,0,288.05,141.53Z"/><path d="M287.82,151l-1.67.07c-2.39.09-4.94.12-7.63.07a149.53,149.53,0,0,1-21-1.83l-1.64-.27a165.9,165.9,0,0,0,23.41,2C282.3,151.16,285.15,151.13,287.82,151Z"/><path d="M266.56,125.68c18.68.32,36.69,4.12,40.15,8.46s-8.91,7.61-27.59,7.29S242.43,137.3,239,133,247.88,125.35,266.56,125.68Zm12,15.06c17.05.29,28.34-2.69,25.18-6.65s-19.59-7.42-36.64-7.72-28.33,2.68-25.17,6.64,19.59,7.43,36.63,7.73"/><path d="M287.84,149.07l-1.66.07c-2.37.09-4.89.11-7.54.07a150,150,0,0,1-20.89-1.82h0l-1.63-.27a164.63,164.63,0,0,0,23.31,2C282.39,149.2,285.2,149.17,287.84,149.07Z"/><path d="M288.85,147.07l-1.74.07c-2.6.12-5.4.16-8.35.11a147.64,147.64,0,0,1-21.7-1.95h0l-1.71-.3a164.54,164.54,0,0,0,24.19,2.18C282.84,147.24,286,147.2,288.85,147.07Z"/><ellipse class="e" cx="272.84" cy="133.55" rx="7.84" ry="35.49" transform="translate(122.78 397.68) rotate(-86.48)"/><path d="M288,145.16l-1.66.07c-2.35.08-4.85.11-7.48.06a149.12,149.12,0,0,1-20.82-1.8h0l-1.64-.27a165.42,165.42,0,0,0,23.25,2C282.6,145.29,285.39,145.26,288,145.16Z"/><path d="M285.32,143.32l-1.34,0c-1.59,0-3.25,0-5,0a150,150,0,0,1-18.34-1.43h0l-1.31-.18a170.76,170.76,0,0,0,20.42,1.59C281.69,143.35,283.54,143.35,285.32,143.32Z"/></g><text class="f" transform="translate(236.04 114.02)">Clie<tspan class="g" x="46.53" y="0">n</tspan><tspan class="h" x="63.06" y="0">t</tspan></text><text class="f" transform="translate(621.99 105.56)"><tspan class="i">S</tspan><tspan x="14.97" y="0">e</tspan><tspan class="j" x="30" y="0">r</tspan><tspan class="k" x="40.56" y="0">v</tspan><tspan x="54.69" y="0">er</tspan></text><g class="d"><polygon points="697.13 140.05 675.31 142.25 675.27 127.43 697.1 125.23 697.13 140.05"/><path class="e" d="M671.12,132.69a4,4,0,0,0-3.64-4.11l21.82-2.2a4,4,0,0,1,3.65,4.11Z"/><path class="e" d="M667.9,136.62a3.79,3.79,0,0,0,3.22-3.93l21.83-2.2a3.8,3.8,0,0,1-3.23,3.93Z"/><path d="M689.52,132.44l-21.82,2.2a1.92,1.92,0,0,0,1.62-2,2,2,0,0,0-1.84-2.07h-.2l21.82-2.2h.21a2,2,0,0,1,1.83,2.07A1.92,1.92,0,0,1,689.52,132.44Z"/><path class="e" d="M665.66,132.57a1.9,1.9,0,0,1,1.62-2l21.82-2.2a1.91,1.91,0,0,0-1.62,2,2,2,0,0,0,1.84,2.07l-21.83,2.2,21.83-2.2h.2l-21.82,2.2h-.21A2,2,0,0,1,665.66,132.57Z"/><path d="M689.72,134.42l-21.82,2.2a2.75,2.75,0,0,1-.4,0,4,4,0,0,1-3.65-4.1,3.82,3.82,0,0,1,3.23-3.95l21.83-2.2a3.82,3.82,0,0,0-3.24,4,4,4,0,0,0,3.65,4.1A2.68,2.68,0,0,0,689.72,134.42Z"/><path class="e" d="M667.48,128.58a.81.81,0,0,0-.22,0l21.82-2.2h.22l-2.55.25-2.7.28-2.8.28-2.86.29-2.86.28-1.41.15-2.76.27-2.63.27C668.36,128.49,667.86,128.56,667.48,128.58Z"/><path class="e" d="M667.26,128.58h-.18l21.83-2.2h.17l-10.91,1.1-1.43.14-5.6.57-1.33.13C669,128.4,668,128.52,667.26,128.58Z"/><path class="e" d="M689.31,128.38a2,2,0,0,1,1.83,2.07,1.88,1.88,0,0,1-1.82,2,2,2,0,0,1-1.84-2.07A1.88,1.88,0,0,1,689.31,128.38Z"/><path d="M689.3,126.38a4,4,0,0,1,3.65,4.11,3.75,3.75,0,0,1-3.63,3.95,4,4,0,0,1-3.65-4.1A3.76,3.76,0,0,1,689.3,126.38Zm0,6.06a1.88,1.88,0,0,0,1.82-2,2,2,0,0,0-1.83-2.07,1.88,1.88,0,0,0-1.83,2,2,2,0,0,0,1.84,2.07"/><polygon points="697.1 125.23 675.27 127.43 621.18 126.31 643 124.11 697.1 125.23"/><polygon class="e" points="697.13 140.05 675.31 142.25 621.22 141.12 643.04 138.92 697.13 140.05"/><polygon class="e" points="643.04 138.92 621.22 141.12 621.18 126.31 643 124.11 643.04 138.92"/><path d="M641.2,122.07l57.69,1.2,0,18.82-57.68-1.2v-1.73Zm55.93,18,0-14.82L643,124.11l0,14.81,54.09,1.13"/><path class="e" d="M643,124.11l54.1,1.12,0,14.82L643,138.92Zm46.32,10.33a3.75,3.75,0,0,0,3.63-3.95,4,4,0,0,0-3.65-4.11,3.76,3.76,0,0,0-3.63,4,4,4,0,0,0,3.65,4.1"/><polygon points="641.24 139.16 619.42 141.36 619.38 124.27 641.2 122.06 641.24 139.16"/><polygon points="641.25 140.89 619.42 143.09 619.42 141.36 641.24 139.16 641.25 140.89"/><polygon points="698.93 142.09 677.11 144.29 619.42 143.09 641.25 140.89 698.93 142.09"/></g><g class="d"><polygon points="697.17 157.15 675.35 159.35 675.31 144.52 697.14 142.32 697.17 157.15"/><polygon points="697.21 174.25 675.39 176.45 675.35 161.62 697.18 159.42 697.21 174.25"/><polygon points="697.25 191.34 675.43 193.54 675.39 178.72 697.22 176.52 697.25 191.34"/><path class="e" d="M671.16,149.79a4,4,0,0,0-3.64-4.12l21.82-2.2a4,4,0,0,1,3.65,4.12Z"/><path class="e" d="M667.93,153.72a3.79,3.79,0,0,0,3.23-3.93l21.83-2.2a3.8,3.8,0,0,1-3.23,3.93Z"/><path d="M689.56,149.53l-21.83,2.2a1.91,1.91,0,0,0,1.63-2,2,2,0,0,0-1.84-2.07h-.2l21.82-2.2h.21a2,2,0,0,1,1.83,2.07A1.91,1.91,0,0,1,689.56,149.53Z"/><path class="e" d="M665.7,149.67a1.9,1.9,0,0,1,1.62-2l21.82-2.2a1.91,1.91,0,0,0-1.62,2l-21.82,2.2,21.82-2.2a2,2,0,0,0,1.84,2.07l-21.83,2.2,21.83-2.2h.2l-21.83,2.2h-.2A2,2,0,0,1,665.7,149.67Z"/><path d="M689.76,151.52l-21.83,2.2-.39,0a4,4,0,0,1-3.65-4.11,3.81,3.81,0,0,1,3.23-3.94l21.82-2.2a3.81,3.81,0,0,0-3.23,3.94,4,4,0,0,0,3.65,4.11A2.68,2.68,0,0,0,689.76,151.52Z"/><path class="e" d="M667.52,145.67h-.22l21.82-2.2h.22l-10.91,1.1-1.43.15-4.23.42-2.7.28C669.3,145.49,668.29,145.64,667.52,145.67Z"/><path class="e" d="M667.3,145.68h-.18l21.83-2.2h.17l-10.91,1.1-5.66.57-1.37.13-1.33.14C669.08,145.5,668.07,145.62,667.3,145.68Z"/><path class="e" d="M671.2,166.88a4,4,0,0,0-3.64-4.11l21.82-2.2a4,4,0,0,1,3.65,4.11Z"/><path class="e" d="M668,170.82a3.79,3.79,0,0,0,3.23-3.94l21.83-2.2a3.8,3.8,0,0,1-3.23,3.94Z"/><path d="M689.6,166.63l-21.83,2.2a1.91,1.91,0,0,0,1.63-2,2,2,0,0,0-1.84-2.08h-.2l21.82-2.2h.21a2,2,0,0,1,1.83,2.08A1.91,1.91,0,0,1,689.6,166.63Z"/><path class="e" d="M665.74,166.77a1.92,1.92,0,0,1,1.62-2l21.82-2.2a1.92,1.92,0,0,0-1.62,2l-21.82,2.2,21.82-2.2a2,2,0,0,0,1.83,2.07l-21.82,2.2,21.83-2.2h.2l-21.83,2.2h-.2A2,2,0,0,1,665.74,166.77Z"/><path d="M689.8,168.62,668,170.82l-.39,0a4,4,0,0,1-3.65-4.11,3.8,3.8,0,0,1,3.23-3.94l21.82-2.2a3.8,3.8,0,0,0-3.23,3.94,4,4,0,0,0,3.65,4.11Z"/><path class="e" d="M667.56,162.77h-.22l21.82-2.19h.22l-10.91,1.1-5.66.57-1.37.14-1.33.14C669.34,162.59,668.33,162.74,667.56,162.77Z"/><path class="e" d="M667.34,162.77l-.18,0,21.82-2.2h.18l-2.55.25-2.7.27-2.8.29-2.86.29-8.36.84C669.12,162.59,668.11,162.72,667.34,162.77Z"/><path class="e" d="M689.35,145.48a2,2,0,0,1,1.83,2.07,1.88,1.88,0,0,1-1.82,2,2,2,0,0,1-1.84-2.07A1.88,1.88,0,0,1,689.35,145.48Z"/><path class="e" d="M671.24,184a4,4,0,0,0-3.64-4.11l21.82-2.2a4,4,0,0,1,3.65,4.11Z"/><path class="e" d="M668,187.92a3.8,3.8,0,0,0,3.23-3.94l21.83-2.2a3.81,3.81,0,0,1-3.23,3.94Z"/><path d="M689.64,183.73l-21.83,2.2a1.91,1.91,0,0,0,1.63-2,2,2,0,0,0-1.84-2.08h-.2l21.82-2.2h.21a2,2,0,0,1,1.83,2.08A1.91,1.91,0,0,1,689.64,183.73Z"/><path class="e" d="M665.78,183.87a1.92,1.92,0,0,1,1.62-2l21.82-2.2a1.93,1.93,0,0,0-1.62,2,2,2,0,0,0,1.83,2.07l-21.82,2.2,21.82-2.2h.21l-21.83,2.2h-.2A2,2,0,0,1,665.78,183.87Z"/><path d="M689.84,185.72,668,187.92a2.54,2.54,0,0,1-.39,0,4,4,0,0,1-3.65-4.1,3.8,3.8,0,0,1,3.23-3.94l21.82-2.2a3.8,3.8,0,0,0-3.23,3.94,4,4,0,0,0,3.65,4.1A2.67,2.67,0,0,0,689.84,185.72Z"/><path class="e" d="M667.6,179.87h-.22l10.91-1.1,10.91-1.1h.22l-10.91,1.1-9.66,1C668.47,179.78,668,179.86,667.6,179.87Z"/><path class="e" d="M667.38,179.87l-.18,0,21.82-2.2.18,0-10.91,1.1-5.66.57-2.7.28C669.16,179.69,668.15,179.82,667.38,179.87Z"/><path class="e" d="M689.39,162.57a2,2,0,0,1,1.83,2.08,1.88,1.88,0,0,1-1.83,2,2,2,0,0,1-1.83-2.07A1.89,1.89,0,0,1,689.39,162.57Z"/><polygon points="697.14 142.32 675.31 144.52 621.22 143.4 643.04 141.2 697.14 142.32"/><path class="e" d="M643,141.2l54.1,1.12,0,14.83L643.08,156Zm46.32,10.34a3.75,3.75,0,0,0,3.63-3.95,4,4,0,0,0-3.65-4.12,3.76,3.76,0,0,0-3.63,4,4,4,0,0,0,3.65,4.11"/><polygon class="e" points="643.08 156.02 621.26 158.22 621.22 143.4 643.04 141.2 643.08 156.02"/><polygon class="e" points="697.17 157.15 675.35 159.35 621.26 158.22 643.08 156.02 697.17 157.15"/><path d="M641.25,140.89l57.68,1.2,0,17.1L641.29,158v-1.73Zm55.92,16.26,0-14.83L643,141.2l0,14.82,54.09,1.13"/><path d="M689.34,143.47a4,4,0,0,1,3.65,4.12,3.75,3.75,0,0,1-3.63,3.95,4,4,0,0,1-3.65-4.11A3.76,3.76,0,0,1,689.34,143.47Zm0,6.07a1.88,1.88,0,0,0,1.82-2,2,2,0,0,0-1.83-2.07,1.88,1.88,0,0,0-1.83,2,2,2,0,0,0,1.84,2.07"/><polygon class="e" points="697.21 174.25 675.39 176.45 621.3 175.32 643.12 173.12 697.21 174.25"/><polygon points="699.01 176.29 677.19 178.49 619.5 177.29 641.33 175.09 699.01 176.29"/><polygon points="697.22 176.52 675.39 178.72 621.3 177.59 643.12 175.39 697.22 176.52"/><path class="e" d="M643.12,175.39l54.1,1.13,0,14.83-54.09-1.13Zm46.32,10.34a3.75,3.75,0,0,0,3.63-3.95,4,4,0,0,0-3.65-4.11,3.76,3.76,0,0,0-3.63,4,4,4,0,0,0,3.65,4.1"/><polygon class="e" points="697.25 191.34 675.43 193.54 621.34 192.42 643.16 190.22 697.25 191.34"/><polygon class="e" points="643.16 190.22 621.34 192.42 621.3 177.59 643.12 175.39 643.16 190.22"/><path d="M641.33,175.09l57.68,1.2,0,17.09-57.68-1.2Zm55.92,16.26,0-14.83-54.1-1.13,0,14.83,54.09,1.13"/><path class="e" d="M689.43,179.67a2,2,0,0,1,1.83,2.08,1.89,1.89,0,0,1-1.83,2,2,2,0,0,1-1.83-2.07A1.89,1.89,0,0,1,689.43,179.67Z"/><path d="M689.38,160.57a4,4,0,0,1,3.65,4.11,3.76,3.76,0,0,1-3.63,4,4,4,0,0,1-3.65-4.11A3.76,3.76,0,0,1,689.38,160.57Zm0,6.07a1.88,1.88,0,0,0,1.83-2,2,2,0,0,0-1.83-2.08,1.89,1.89,0,0,0-1.83,2,2,2,0,0,0,1.83,2.07"/><path d="M689.42,177.67a4,4,0,0,1,3.65,4.11,3.75,3.75,0,0,1-3.63,3.95,4,4,0,0,1-3.65-4.1A3.76,3.76,0,0,1,689.42,177.67Zm0,6.07a1.89,1.89,0,0,0,1.83-2,2,2,0,0,0-1.83-2.08,1.89,1.89,0,0,0-1.83,2,2,2,0,0,0,1.83,2.07"/><polygon points="698.97 159.19 677.15 161.39 619.46 160.19 641.29 157.99 698.97 159.19"/><polygon points="697.18 159.42 675.35 161.62 621.26 160.5 643.08 158.29 697.18 159.42"/><path class="e" d="M643.08,158.3l54.1,1.12,0,14.83-54.09-1.13Zm46.32,10.34a3.76,3.76,0,0,0,3.63-4,4,4,0,0,0-3.65-4.11,3.76,3.76,0,0,0-3.63,4,4,4,0,0,0,3.65,4.11"/><polygon class="e" points="643.12 173.12 621.3 175.32 621.26 160.5 643.08 158.29 643.12 173.12"/><polygon points="641.28 156.26 619.46 158.46 619.42 143.09 641.25 140.89 641.28 156.26"/><polygon points="641.29 157.99 619.46 160.19 619.46 158.46 641.28 156.26 641.29 157.99"/><polygon points="641.32 173.36 619.5 175.56 619.46 160.19 641.29 157.99 641.32 173.36"/><polygon points="641.33 175.09 619.5 177.29 619.5 175.56 641.32 173.36 641.33 175.09"/><path d="M641.29,158l57.68,1.2,0,17.1-57.68-1.2v-1.73Zm55.92,16.26,0-14.83-54.1-1.12,0,14.82,54.09,1.13"/><polygon points="641.37 192.18 619.54 194.38 619.5 177.29 641.33 175.09 641.37 192.18"/><polygon points="699.05 193.38 677.23 195.58 619.54 194.38 641.37 192.18 699.05 193.38"/></g><text class="f" transform="translate(1036.7 105.56)">API</text><g class="d"><polygon points="1099.79 138.95 1091.88 145.53 1090.84 145.03 1098.75 138.45 1099.79 138.95"/><polygon points="1098.75 138.45 1090.84 145.03 1091.03 143.91 1098.94 137.33 1098.75 138.45"/><path d="M1102.33,152.69l-7.91,6.58a7.84,7.84,0,0,0,3.11-6.29c-.11-3-2.22-5.78-5.66-7.45l7.92-6.58c3.43,1.66,5.54,4.45,5.65,7.45A7.85,7.85,0,0,1,1102.33,152.69Z"/><path d="M1104.25,155l-7.91,6.59a15.22,15.22,0,0,1-1.48,1.08l7.91-6.59A12.49,12.49,0,0,0,1104.25,155Z"/><path d="M1098.94,137.33l-7.91,6.58a7.78,7.78,0,0,0,.12-1.66c-.21-5.34-5.65-9.59-12.15-9.48a13.27,13.27,0,0,0-7.38,2.32l7.91-6.59a13.18,13.18,0,0,1,7.38-2.31c6.5-.11,11.95,4.13,12.15,9.48A7.22,7.22,0,0,1,1098.94,137.33Z"/><path class="e" d="M1094.42,159.27a11.25,11.25,0,0,1-2.1,1.39l7.91-6.58a12.34,12.34,0,0,0,2.1-1.39Z"/><polygon points="1079.53 128.5 1071.62 135.09 1070.62 135.79 1078.53 129.21 1079.53 128.5"/><polygon points="1078.53 129.21 1070.62 135.79 1069.72 134.92 1077.63 128.34 1078.53 129.21"/><polygon class="e" points="1100.23 154.08 1092.32 160.66 1091.14 161.28 1099.06 154.7 1100.23 154.08"/><polygon points="1099.58 155.96 1091.67 162.54 1091.14 161.28 1099.06 154.7 1099.58 155.96"/><path d="M1098.52,163.92l-7.91,6.59a5.51,5.51,0,0,0,.43-.41c1.63-1.74,1.88-4.63.63-7.56l7.91-6.58c1.25,2.92,1,5.82-.63,7.56A4.07,4.07,0,0,1,1098.52,163.92Z"/><path d="M1052.29,134.26l7.91-6.58a13,13,0,0,1,8.07-2.85,13.09,13.09,0,0,1,9.36,3.51l-7.91,6.58a13.57,13.57,0,0,0-17.43-.66Z"/><path d="M1050.36,132l7.91-6.59-.28.24-7.91,6.59Z"/><polygon class="e" points="1058.98 128.82 1051.07 135.4 1051.62 134.87 1059.53 128.28 1058.98 128.82"/><polygon points="1058.98 128.82 1051.07 135.4 1050.31 135.25 1058.22 128.66 1058.98 128.82"/><path class="e" d="M1052.29,134.26l7.91-6.58c-.23.19-.45.39-.67.6l-7.91,6.59C1051.83,134.66,1052.06,134.45,1052.29,134.26Z"/><path class="e" d="M1086.92,171.77a11.34,11.34,0,0,1-7.7-3.35l7.91-6.59a11.35,11.35,0,0,0,7.7,3.36l-7.91,6.58.11-.09.12-.09.11-.1.12-.09.11-.1.12-.1.12-.1.12-.1.85-.71.88-.73.91-.76.91-.75.9-.75.88-.73.85-.71.8-.67a5.79,5.79,0,0,0,3.69-1.27l-7.91,6.59A5.78,5.78,0,0,1,1086.92,171.77Z"/><path class="e" d="M1087.13,161.83l-7.91,6.59-.32-.33,7.91-6.58Z"/><polygon class="e" points="1086.81 161.51 1078.9 168.09 1077.26 166.44 1085.18 159.86 1086.81 161.51"/><polygon points="1084.38 161.99 1076.46 168.58 1077.26 166.44 1085.18 159.86 1084.38 161.99"/><path d="M1100.44,166.22l-7.92,6.59a8.67,8.67,0,0,1-5.48,1.91,14,14,0,0,1-8.65-3.15l7.91-6.58a13.91,13.91,0,0,0,8.66,3.14A8.65,8.65,0,0,0,1100.44,166.22Z"/><path d="M1080.59,167.38l-7.91,6.59a13,13,0,0,0,3.79-5.39l7.91-6.59A12.85,12.85,0,0,1,1080.59,167.38Z"/><path d="M1058.22,128.66l-7.91,6.59a13.94,13.94,0,0,0-3.09-.28,13,13,0,0,0-7.33,2.28l7.91-6.58a13,13,0,0,1,7.33-2.29A15.19,15.19,0,0,1,1058.22,128.66Z"/><polygon points="1047.8 130.67 1039.89 137.25 1038.98 137.88 1046.89 131.3 1047.8 130.67"/><polygon points="1046.89 131.3 1038.98 137.88 1038.11 137.16 1046.02 130.58 1046.89 131.3"/><path d="M1027.56,137.11l7.91-6.58a8,8,0,0,1,5.06-1.9,8.37,8.37,0,0,1,5.49,2l-7.91,6.58a8.42,8.42,0,0,0-5.49-1.95A8.07,8.07,0,0,0,1027.56,137.11Z"/><polygon class="e" points="1062.58 164.13 1054.67 170.72 1053.41 168.77 1061.33 162.18 1062.58 164.13"/><path d="M1025.64,134.8l7.91-6.59-.61.54-7.91,6.59C1025.23,135.15,1025.43,135,1025.64,134.8Z"/><path class="e" d="M1065.39,176.7a12.55,12.55,0,0,1-10.72-6l7.91-6.59a12.54,12.54,0,0,0,10.72,6l-7.91,6.59,7.91-6.59a11.62,11.62,0,0,0,7.29-2.73l-7.91,6.59A11.74,11.74,0,0,1,1065.39,176.7Z"/><path class="e" d="M1027.56,137.11l7.91-6.58a8.3,8.3,0,0,0-.91.87l-7.92,6.59A9.51,9.51,0,0,1,1027.56,137.11Z"/><polygon class="e" points="1033.96 132.07 1026.05 138.65 1026.64 137.99 1034.56 131.41 1033.96 132.07"/><polygon points="1060.09 164.09 1052.18 170.68 1053.41 168.77 1061.33 162.18 1060.09 164.09"/><polygon points="1033.96 132.07 1026.05 138.65 1025.18 138.42 1033.09 131.83 1033.96 132.07"/><path d="M1082.51,169.68l-7.91,6.59a14.58,14.58,0,0,1-9.1,3.4,15.36,15.36,0,0,1-12.09-5.71l7.91-6.58a15.35,15.35,0,0,0,12.09,5.7A14.52,14.52,0,0,0,1082.51,169.68Z"/><path d="M1058.1,166.32l-7.91,6.58a10,10,0,0,0,2-2.22l7.91-6.59A9.78,9.78,0,0,1,1058.1,166.32Z"/><path d="M1016,140.36l7.92-6.58a10,10,0,0,1,6.28-2.32,10.26,10.26,0,0,1,2.9.37l-7.91,6.59a10.34,10.34,0,0,0-2.91-.38A10.06,10.06,0,0,0,1016,140.36Z"/><path class="e" d="M1042.12,175.76a13.41,13.41,0,0,1-8.51-2.76l7.91-6.59a13.35,13.35,0,0,0,8.51,2.76l-7.91,6.59,7.91-6.59a13,13,0,0,0,8.07-2.86l-7.91,6.59A13,13,0,0,1,1042.12,175.76Z"/><polygon class="e" points="1041.52 166.41 1033.61 173 1032.94 172.46 1040.85 165.88 1041.52 166.41"/><polygon class="e" points="1040.85 165.88 1032.94 172.46 1032.15 172.76 1040.06 166.18 1040.85 165.88"/><polygon class="e" points="1025.87 151.03 1017.96 157.61 1016.71 156.7 1024.63 150.12 1025.87 151.03"/><path d="M1060,168.61l-7.91,6.59a16,16,0,0,1-9.88,3.53,16.51,16.51,0,0,1-9.75-2.91l7.91-6.59a16.44,16.44,0,0,0,9.75,2.91A15.93,15.93,0,0,0,1060,168.61Z"/><path class="e" d="M1016,140.36l7.92-6.58a10.12,10.12,0,0,0-3.64,8.2,10.56,10.56,0,0,0,4.36,8.14l-7.92,6.58a10.56,10.56,0,0,1-4.35-8.14A10.17,10.17,0,0,1,1016,140.36Z"/><polygon class="e" points="1024.95 152.23 1017.04 158.81 1017.96 157.61 1025.87 151.03 1024.95 152.23"/><path d="M1014.08,138.06l7.92-6.59a13,13,0,0,0-4.68,10.56,13.51,13.51,0,0,0,4.46,9.55l-7.91,6.59a13.51,13.51,0,0,1-4.46-9.56A13,13,0,0,1,1014.08,138.06Z"/><path class="e" d="M1027.43,173.66A13.4,13.4,0,0,1,1019,171l.93-.77,1-.82,1-.85,1-.86,1-.86,1-.84,1-.82.92-.77a13.41,13.41,0,0,0,8.44,2.7,13.79,13.79,0,0,0,4.72-.9l-7.91,6.58A13.56,13.56,0,0,1,1027.43,173.66Z"/><path class="e" d="M1015.28,164.18a8.28,8.28,0,0,1,1.76-5.37l7.91-6.58a8.33,8.33,0,0,0-1.76,5.37,9.12,9.12,0,0,0,3.71,6.78L1019,171A9.11,9.11,0,0,1,1015.28,164.18Z"/><path class="e" d="M1068.27,124.83a13.09,13.09,0,0,1,9.36,3.51l.9.87,1-.71a13.18,13.18,0,0,1,7.38-2.31c6.5-.11,11.95,4.13,12.15,9.48a7.22,7.22,0,0,1-.12,1.66l-.19,1.12,1,.5c3.43,1.66,5.54,4.45,5.65,7.45s-1.83,5.9-5.21,7.68l-1.17.62.52,1.26c1.25,2.92,1,5.82-.63,7.56a5.64,5.64,0,0,1-4.12,1.67,11.35,11.35,0,0,1-7.7-3.36l-.32-.32-1.63-1.65-.8,2.13a12.15,12.15,0,0,1-11.08,8.12,12.54,12.54,0,0,1-10.72-6l-1.25-1.95-1.24,1.91a12.18,12.18,0,0,1-10.06,5.08,13.35,13.35,0,0,1-8.51-2.76l-.67-.53-.79.3a13.79,13.79,0,0,1-4.72.9c-6.5.11-11.95-4.14-12.15-9.48a8.33,8.33,0,0,1,1.76-5.37l.92-1.2-1.24-.91a10.56,10.56,0,0,1-4.36-8.14,10.08,10.08,0,0,1,9.92-10.52,10.26,10.26,0,0,1,2.9.37l.87.24.6-.67a8.18,8.18,0,0,1,6-2.77,8.37,8.37,0,0,1,5.49,2l.87.72.91-.63a13,13,0,0,1,7.33-2.29,15.19,15.19,0,0,1,3.09.28l.76.16.55-.54A12.76,12.76,0,0,1,1068.27,124.83Z"/><path d="M1040.39,169.23l-7.91,6.59a16.54,16.54,0,0,1-4.94.81c-8.12.14-14.95-5.42-15.22-12.4a11,11,0,0,1,1.55-6.06l7.91-6.59a11,11,0,0,0-1.54,6.06c.26,7,7.09,12.54,15.21,12.41A16.55,16.55,0,0,0,1040.39,169.23Z"/><path d="M1108.4,146.35c.14,3.81-1.94,7.38-5.63,9.72,1.14,3.63.55,7.18-1.65,9.51a8.46,8.46,0,0,1-6.16,2.55,13.91,13.91,0,0,1-8.66-3.14,14.87,14.87,0,0,1-12.89,8.09,15.35,15.35,0,0,1-12.09-5.7,15.54,15.54,0,0,1-11.18,4.76,16.44,16.44,0,0,1-9.75-2.91,16.55,16.55,0,0,1-4.94.82c-8.12.13-15-5.43-15.21-12.41a11,11,0,0,1,1.54-6.06,13.51,13.51,0,0,1-4.46-9.55,13,13,0,0,1,12.75-13.54,13.16,13.16,0,0,1,2.87.26,11,11,0,0,1,7.48-3.1,11.22,11.22,0,0,1,6.55,2,16.14,16.14,0,0,1,8-2.23,18.46,18.46,0,0,1,3,.21,15.88,15.88,0,0,1,10.17-3.75,16.29,16.29,0,0,1,10.62,3.56,16,16,0,0,1,8-2.21c8.13-.14,15,5.43,15.22,12.41a9.2,9.2,0,0,1,0,1.17C1105.88,139,1108.26,142.52,1108.4,146.35Zm-8.17,7.73c3.38-1.78,5.33-4.66,5.21-7.68s-2.22-5.79-5.65-7.45l-1-.5.19-1.12a7.22,7.22,0,0,0,.12-1.66c-.2-5.35-5.65-9.59-12.15-9.48a13.18,13.18,0,0,0-7.38,2.31l-1,.71-.9-.87a13.09,13.09,0,0,0-9.36-3.51,12.76,12.76,0,0,0-8.74,3.45l-.55.54-.76-.16a15.19,15.19,0,0,0-3.09-.28,13,13,0,0,0-7.33,2.29l-.91.63-.87-.72a8.37,8.37,0,0,0-5.49-2,8.15,8.15,0,0,0-6,2.77l-.6.67-.87-.24a10.26,10.26,0,0,0-2.9-.37,10.08,10.08,0,0,0-9.92,10.52,10.58,10.58,0,0,0,4.35,8.14l1.25.91-.92,1.2a8.33,8.33,0,0,0-1.76,5.37c.2,5.34,5.65,9.59,12.15,9.48a13.79,13.79,0,0,0,4.72-.9l.79-.3.67.53a13.35,13.35,0,0,0,8.51,2.76,12.18,12.18,0,0,0,10.06-5.08l1.24-1.91,1.25,1.95a12.54,12.54,0,0,0,10.72,6,12.15,12.15,0,0,0,11.08-8.12l.8-2.13,1.63,1.65.32.32a11.35,11.35,0,0,0,7.7,3.36,5.64,5.64,0,0,0,4.12-1.67c1.64-1.74,1.88-4.64.63-7.56l-.52-1.26,1.17-.62"/></g><g class="d"><polygon points="721.16 516.11 713.25 522.7 713.44 521.58 721.35 514.99 721.16 516.11"/><polygon points="722.19 516.62 714.28 523.21 713.25 522.7 721.16 516.11 722.19 516.62"/><path d="M726.19,538.54l-7.91,6.58a12.54,12.54,0,0,0,4.94-10.06c-.18-4.78-3.52-9.21-8.94-11.86l7.91-6.58c5.42,2.64,8.76,7.07,8.94,11.86A12.55,12.55,0,0,1,726.19,538.54Z"/><path d="M721.35,515l-7.91,6.59a12.59,12.59,0,0,0,.19-2.66c-.32-8.44-8.88-15.17-19.06-15a20.58,20.58,0,0,0-11.51,3.63L691,501a20.58,20.58,0,0,1,11.51-3.63c10.19-.17,18.74,6.56,19.06,15A12.54,12.54,0,0,1,721.35,515Z"/><path d="M728.12,540.84l-7.91,6.58a20.08,20.08,0,0,1-2.66,1.88l7.92-6.58A22.81,22.81,0,0,0,728.12,540.84Z"/><path class="e" d="M718.28,545.12A18.88,18.88,0,0,1,715,547.3l7.91-6.58a19.07,19.07,0,0,0,3.28-2.18Z"/><polygon points="690.97 500.97 683.06 507.55 682.05 508.25 689.96 501.67 690.97 500.97"/><polygon points="689.96 501.67 682.05 508.25 681.16 507.39 689.07 500.8 689.96 501.67"/><polygon class="e" points="722.91 540.72 715 547.3 713.82 547.93 721.74 541.34 722.91 540.72"/><polygon points="722.26 542.59 714.35 549.18 713.82 547.93 721.74 541.34 722.26 542.59"/><path d="M720.45,555.44,712.54,562a7.6,7.6,0,0,0,.71-.68c2.67-2.83,3.1-7.49,1.1-12.17l7.91-6.59c2,4.68,1.57,9.35-1.09,12.18A9.07,9.07,0,0,1,720.45,555.44Z"/><path class="e" d="M712.54,562a9.48,9.48,0,0,1-6,2.06l7.92-6.59a9.47,9.47,0,0,0,6-2.06Z"/><path class="e" d="M706.55,564.09h0l.93-.77,1-.82,2-1.71,1-.86,1-.84,1-.82.93-.77h0l-7.92,6.59Z"/><path d="M653.93,506.34l7.92-6.59a21.16,21.16,0,0,1,27.22,1.05l-7.91,6.59a21.14,21.14,0,0,0-27.23-1.05Z"/><path d="M652,504.05l7.91-6.58-.65.56-7.91,6.59C651.55,504.42,651.77,504.24,652,504.05Z"/><path class="e" d="M653.93,506.34l7.92-6.59c-.37.31-.72.62-1.05.95l-7.91,6.59C653.22,507,653.57,506.64,653.93,506.34Z"/><polygon class="e" points="660.25 501.25 652.34 507.83 652.89 507.29 660.8 500.7 660.25 501.25"/><path class="e" d="M694.43,558.84l-.51-.5,7.91-6.59.51.5h0a18.5,18.5,0,0,0,10.34,5.16,13.67,13.67,0,0,0,1.79.09l-7.92,6.59a12.1,12.1,0,0,1-1.78-.1A18.55,18.55,0,0,1,694.43,558.84Z"/><polygon points="660.25 501.25 652.34 507.83 651.57 507.67 659.48 501.09 660.25 501.25"/><polygon class="e" points="701.83 551.75 693.92 558.34 692.29 556.68 700.21 550.09 701.83 551.75"/><polygon points="699.41 552.24 691.5 558.82 692.29 556.68 700.21 550.09 699.41 552.24"/><path d="M722.38,557.75l-7.91,6.58a12.37,12.37,0,0,1-7.8,2.71,20.42,20.42,0,0,1-13.24-5.15l7.91-6.59a20.38,20.38,0,0,0,13.24,5.16A12.37,12.37,0,0,0,722.38,557.75Z"/><path d="M693.49,560.65l-7.91,6.58a20.08,20.08,0,0,0,5.92-8.41l7.91-6.58A20.08,20.08,0,0,1,693.49,560.65Z"/><path d="M659.48,501.09l-7.91,6.58a22.18,22.18,0,0,0-4.82-.44,20.44,20.44,0,0,0-11.42,3.56l7.91-6.58a20.45,20.45,0,0,1,11.43-3.57A22.73,22.73,0,0,1,659.48,501.09Z"/><polygon points="643.24 504.21 635.33 510.79 634.43 511.43 642.34 504.85 643.24 504.21"/><polygon points="642.34 504.85 634.43 511.43 633.55 510.71 641.46 504.13 642.34 504.85"/><path d="M616.75,510.61l7.91-6.58a12.88,12.88,0,0,1,8.05-3,13.41,13.41,0,0,1,8.75,3.12l-7.91,6.58a13.41,13.41,0,0,0-8.75-3.12A12.86,12.86,0,0,0,616.75,510.61Z"/><path d="M614.84,508.3l7.91-6.58c-.4.33-.79.69-1.16,1.06l-7.92,6.59C614.05,509,614.44,508.64,614.84,508.3Z"/><polygon class="e" points="665.28 555.58 657.37 562.16 656.12 560.22 664.03 553.63 665.28 555.58"/><path class="e" d="M660,565.53l.16-.14.18-.14.35-.3.19-.15.17-.15.18-.14.16-.14.76-.63.81-.67.84-.7.85-.71.85-.71.84-.7.81-.67.76-.64a19.25,19.25,0,0,0,14.12,6,18.31,18.31,0,0,0,11.43-4.28l-7.91,6.58a18.25,18.25,0,0,1-11.43,4.28A19.19,19.19,0,0,1,660,565.53Z"/><path class="e" d="M660,565.53a21.58,21.58,0,0,1-2.66-3.37l7.91-6.59a21.12,21.12,0,0,0,2.66,3.37Z"/><path class="e" d="M616.75,510.61l7.91-6.58a14.9,14.9,0,0,0-1.46,1.41L615.28,512A15.06,15.06,0,0,1,616.75,510.61Z"/><polygon class="e" points="622.6 506.1 614.69 512.69 615.28 512.03 623.2 505.44 622.6 506.1"/><polygon points="622.6 506.1 614.69 512.69 613.81 512.45 621.72 505.86 622.6 506.1"/><polygon points="662.8 555.54 654.89 562.12 656.12 560.22 664.03 553.63 662.8 555.54"/><path d="M695.41,563l-7.91,6.58a21.17,21.17,0,0,1-13.24,5,22.45,22.45,0,0,1-18.15-9L664,558.9a22.44,22.44,0,0,0,18.14,9A21.23,21.23,0,0,0,695.41,563Z"/><path d="M659.66,559l-7.91,6.59a15.77,15.77,0,0,0,3.14-3.5l7.91-6.58A15.73,15.73,0,0,1,659.66,559Z"/><path d="M599.34,515.53l7.92-6.59a15.84,15.84,0,0,1,9.89-3.66,16.85,16.85,0,0,1,4.57.58l-7.91,6.59a16.1,16.1,0,0,0-4.57-.58A15.81,15.81,0,0,0,599.34,515.53Z"/><path class="e" d="M639.15,570.09a20.78,20.78,0,0,1-13.29-4.32l7.91-6.58a20.79,20.79,0,0,0,13.29,4.31l-7.91,6.59,7.91-6.59a20.27,20.27,0,0,0,12.6-4.47l-7.91,6.59A20.35,20.35,0,0,1,639.15,570.09Z"/><polygon class="e" points="633.77 559.19 625.86 565.77 625.18 565.24 633.1 558.65 633.77 559.19"/><polygon class="e" points="633.1 558.65 625.18 565.24 624.39 565.54 632.31 558.95 633.1 558.65"/><path d="M661.59,561.32l-7.91,6.59a23.29,23.29,0,0,1-14.42,5.15,23.92,23.92,0,0,1-14.53-4.46l7.91-6.58a23.93,23.93,0,0,0,14.53,4.45A23.23,23.23,0,0,0,661.59,561.32Z"/><polygon class="e" points="609.62 535.61 601.71 542.19 600.47 541.28 608.38 534.7 609.62 535.61"/><polygon class="e" points="608.71 536.81 600.79 543.39 601.71 542.19 609.62 535.61 608.71 536.81"/><path class="e" d="M599.34,515.53l7.92-6.59a15.94,15.94,0,0,0-5.73,12.92,16.64,16.64,0,0,0,6.85,12.84l-7.91,6.58a16.6,16.6,0,0,1-6.85-12.83A15.94,15.94,0,0,1,599.34,515.53Z"/><path d="M597.42,513.22l7.91-6.58a18.87,18.87,0,0,0-6.77,15.27,19.63,19.63,0,0,0,7,14.26l-7.91,6.58a19.59,19.59,0,0,1-7-14.25A18.89,18.89,0,0,1,597.42,513.22Z"/><path class="e" d="M617.05,567a21.88,21.88,0,0,1-7.22-1.09l.92-.77,1-.81,1-.85,1-.86,2.05-1.71,1-.81.93-.77a21.94,21.94,0,0,0,7.23,1.08,21,21,0,0,0,7.34-1.41l-7.92,6.59A21.42,21.42,0,0,1,617.05,567Z"/><path class="e" d="M598,552a13.21,13.21,0,0,1,2.79-8.56l7.92-6.58a13.14,13.14,0,0,0-2.8,8.55c.24,6.33,5.11,11.7,11.83,13.92l-7.91,6.58C603.11,563.64,598.24,558.28,598,552Z"/><path d="M734.1,528.43c.21,5.63-3,10.9-8.63,14.29,1.87,5.38,1.1,10.69-2.13,14.12a12.06,12.06,0,0,1-8.76,3.62,20.38,20.38,0,0,1-13.24-5.16,21.73,21.73,0,0,1-19.17,12.6,22.44,22.44,0,0,1-18.14-9,22.5,22.5,0,0,1-16.86,7.57A23.93,23.93,0,0,1,632.64,562a24.2,24.2,0,0,1-7.56,1.31c-11.82.2-21.75-7.84-22.13-17.92a15.87,15.87,0,0,1,2.56-9.24,19.63,19.63,0,0,1-7-14.26A18.79,18.79,0,0,1,617,502.31a19.43,19.43,0,0,1,4.55.47,15.8,15.8,0,0,1,11-4.74,16.21,16.21,0,0,1,9.81,3.12,23.56,23.56,0,0,1,12.14-3.49,26.22,26.22,0,0,1,4.7.36,23,23,0,0,1,15.08-5.7,23.71,23.71,0,0,1,15.88,5.53,23.42,23.42,0,0,1,12.16-3.49c11.82-.2,21.74,7.84,22.13,17.92a17.61,17.61,0,0,1-.07,2.17C730.29,517.65,733.88,522.82,734.1,528.43Zm-11.19,12.29c5.33-2.81,8.4-7.39,8.22-12.24s-3.52-9.22-8.94-11.86l-1-.51.19-1.12a12.54,12.54,0,0,0,.19-2.65c-.32-8.44-8.87-15.17-19.06-15A20.58,20.58,0,0,0,691,501l-1,.7-.89-.87a20.42,20.42,0,0,0-14.63-5.5,19.91,19.91,0,0,0-13.64,5.4l-.55.55-.77-.16a22.73,22.73,0,0,0-4.81-.45,20.45,20.45,0,0,0-11.43,3.57l-.9.64-.88-.72a13.41,13.41,0,0,0-8.75-3.12,13,13,0,0,0-9.51,4.43l-.6.66-.88-.24a16.85,16.85,0,0,0-4.57-.58,15.89,15.89,0,0,0-15.62,16.58,16.64,16.64,0,0,0,6.85,12.84l1.24.91-.91,1.2a13.14,13.14,0,0,0-2.8,8.55c.32,8.44,8.87,15.17,19.06,15a21,21,0,0,0,7.34-1.41l.78-.29.68.53a20.79,20.79,0,0,0,13.29,4.31c6.59-.11,12.61-3.16,15.74-8l1.23-1.91,1.25,1.94a19.62,19.62,0,0,0,16.78,9.36,19,19,0,0,0,17.35-12.69l.8-2.15,1.62,1.66.51.5a18.5,18.5,0,0,0,10.34,5.16,13.67,13.67,0,0,0,1.79.09,9.18,9.18,0,0,0,6.7-2.73c2.66-2.83,3.09-7.5,1.09-12.18l-.52-1.25,1.17-.62"/><path class="e" d="M674.44,495.3a20.42,20.42,0,0,1,14.63,5.5l.89.87,1-.7a20.58,20.58,0,0,1,11.51-3.63c10.19-.17,18.74,6.56,19.06,15a12.54,12.54,0,0,1-.19,2.65l-.19,1.12,1,.51c5.42,2.64,8.76,7.07,8.94,11.86s-2.89,9.43-8.22,12.24l-1.17.62.52,1.25c2,4.68,1.57,9.35-1.09,12.18a9.18,9.18,0,0,1-6.7,2.73,13.67,13.67,0,0,1-1.79-.09,18.5,18.5,0,0,1-10.34-5.16l-.51-.5-1.62-1.66-.8,2.15a19,19,0,0,1-17.35,12.69,19.62,19.62,0,0,1-16.78-9.36L664,553.63l-1.23,1.91c-3.13,4.8-9.15,7.85-15.74,8a20.79,20.79,0,0,1-13.29-4.31l-.68-.53-.78.29a21,21,0,0,1-7.34,1.41c-10.19.17-18.74-6.56-19.06-15a13.14,13.14,0,0,1,2.8-8.55l.91-1.2-1.24-.91a16.64,16.64,0,0,1-6.85-12.84,15.89,15.89,0,0,1,15.62-16.58,16.85,16.85,0,0,1,4.57.58l.88.24.6-.66a13,13,0,0,1,9.51-4.43,13.41,13.41,0,0,1,8.75,3.12l.88.72.9-.64a20.45,20.45,0,0,1,11.43-3.57,22.73,22.73,0,0,1,4.81.45l.77.16.55-.55A19.91,19.91,0,0,1,674.44,495.3Z"/><path d="M632.64,562l-7.91,6.58a24.21,24.21,0,0,1-7.56,1.32c-11.82.19-21.75-7.84-22.13-17.92a15.9,15.9,0,0,1,2.56-9.25l7.91-6.58a15.87,15.87,0,0,0-2.56,9.24c.38,10.08,10.31,18.12,22.13,17.92A24.2,24.2,0,0,0,632.64,562Z"/></g><rect class="a" x="404.56" y="305.92" width="121" height="27"/><text class="l" transform="translate(579.76 345.23)"><tspan class="m">a</tspan><tspan x="12.24" y="0">ddN</tspan><tspan class="n" x="55.92" y="0">e</tspan><tspan class="o" x="68.16" y="0">wPl</tspan><tspan class="n" x="106.84" y="0">a</tspan><tspan class="p" x="118.78" y="0">y</tspan><tspan x="130.04" y="0">e</tspan><tspan class="q" x="142.48" y="0">r</tspan><tspan x="150.68" y="0">()</tspan></text><text class="l" transform="translate(562.26 478.73)">So<tspan class="r" x="25.48" y="0">c</tspan><tspan class="s" x="37" y="0">k</tspan><tspan x="49.28" y="0">et </tspan><tspan class="t" x="75.72" y="0">C</tspan><tspan x="89.86" y="0">on</tspan><tspan class="m" x="116.46" y="0">n</tspan><tspan x="130.26" y="0">e</tspan><tspan class="u" x="142.7" y="0">c</tspan><tspan x="154.46" y="0">tion</tspan></text><text class="v" transform="translate(515.26 676.02)">so<tspan class="w" x="16.74" y="0">c</tspan><tspan class="x" x="25.07" y="0">k</tspan><tspan x="33.77" y="0">et</tspan></text><line class="b" x1="378.56" y1="333.42" x2="563.48" y2="333.42"/><polygon points="560.16 337.51 559.48 336.78 563.09 333.42 559.48 330.06 560.16 329.33 564.56 333.42 560.16 337.51"/><line class="b" x1="657.06" y1="359.92" x2="657.06" y2="451.34"/><polygon points="652.97 448.02 653.7 447.34 657.06 450.95 660.42 447.34 661.15 448.02 657.06 452.42 652.97 448.02"/><line class="b" x1="268.31" y1="261.17" x2="268.31" y2="301.34"/><polygon points="264.22 298.02 264.95 297.34 268.31 300.95 271.67 297.34 272.4 298.02 268.31 302.42 264.22 298.02"/><line class="b" x1="761.25" y1="232.42" x2="964.13" y2="232.42"/><polygon points="960.82 236.51 960.13 235.78 963.75 232.42 960.13 229.06 960.82 228.33 965.21 232.42 960.82 236.51"/><line class="b" x1="965.56" y1="255.42" x2="761.64" y2="255.42"/><polygon points="764.96 251.33 765.64 252.06 762.03 255.42 765.64 258.78 764.96 259.51 760.56 255.42 764.96 251.33"/><text class="l" transform="translate(237.38 243.09)">GET <tspan class="y" x="46.4" y="0">“</tspan><tspan class="z" x="54.52" y="0">/</tspan><tspan x="62.94" y="0">”</tspan></text><text class="l" transform="translate(235.26 341.09)">PO<tspan class="q" x="31.36" y="0">S</tspan><tspan class="o" x="43.74" y="0">T </tspan><tspan class="y" x="61.3" y="0">“</tspan><tspan class="z" x="69.42" y="0">/</tspan><tspan x="77.84" y="0">”</tspan></text><text class="l" transform="translate(191.26 371.09)"><tspan class="m">n</tspan><tspan class="n" x="13.8" y="0">e</tspan><tspan x="26.04" y="0">w Pl</tspan><tspan class="q" x="70.24" y="0">a</tspan><tspan class="p" x="82.18" y="0">y</tspan><tspan class="aa" x="93.44" y="0">e</tspan><tspan class="q" x="105.88" y="0">r</tspan><tspan x="114.08" y="0">(x, y)</tspan></text><text class="l" transform="translate(197.71 661.17)">d<tspan class="w" x="13.74" y="0">r</tspan><tspan class="q" x="21.98" y="0">a</tspan><tspan class="r" x="33.92" y="0">w</tspan><tspan x="52.2" y="0">Obje</tspan><tspan class="u" x="101.1" y="0">c</tspan><tspan x="112.86" y="0">ts()</tspan></text><text class="l" transform="translate(198 685.48)"><tspan class="w">c</tspan><tspan x="11.46" y="0">olle</tspan><tspan class="u" x="48.36" y="0">c</tspan><tspan x="60.12" y="0">t</tspan><tspan class="t" x="68.6" y="0">C</tspan><tspan class="aa" x="82.74" y="0">oin()</tspan></text><text class="v" transform="translate(817.39 230.05)"><tspan class="ab">f</tspan><tspan x="4.95" y="0">e</tspan><tspan class="ac" x="14.01" y="0">t</tspan><tspan class="w" x="19.81" y="0">c</tspan><tspan x="28.14" y="0">h data</tspan></text><text class="v" transform="translate(810.39 268.05)">JSON obje<tspan class="i" x="78.19" y="0">c</tspan><tspan x="86.73" y="0">t</tspan></text><text class="v" transform="translate(415.39 331.05)">H<tspan class="ad" x="12.2" y="0">T</tspan><tspan x="20.96" y="0">TP </tspan><tspan class="ae" x="44.26" y="0">r</tspan><tspan x="50.08" y="0">equest</tspan></text><rect class="a" x="404.56" y="361.92" width="121" height="27"/><rect class="a" x="361.56" y="652.92" width="121" height="23"/><line class="b" x1="564.56" y1="361.42" x2="379.64" y2="361.42"/><polygon points="382.96 357.33 383.64 358.06 380.03 361.42 383.64 364.78 382.96 365.51 378.56 361.42 382.96 357.33"/><text class="v" transform="translate(408.79 375.05)">H<tspan class="ad" x="12.2" y="0">T</tspan><tspan x="20.96" y="0">TP </tspan><tspan class="ae" x="44.26" y="0">r</tspan><tspan x="50.08" y="0">esponse</tspan></text><rect class="a" x="400.38" y="500.73" width="121" height="27" transform="translate(669.75 -143.96) rotate(59.47)"/><text class="v" transform="translate(407.89 423.98) rotate(59.47)">C<tspan class="af" x="10.79" y="0">r</tspan><tspan class="ag" x="16.61" y="0">e</tspan><tspan x="25.44" y="0">a</tspan><tspan class="ac" x="34.29" y="0">t</tspan><tspan x="40.09" y="0">e so</tspan><tspan class="ah" x="69.82" y="0">c</tspan><tspan class="ai" x="78.15" y="0">k</tspan><tspan x="86.85" y="0">et </tspan><tspan class="ab" x="105.93" y="0">c</tspan><tspan x="114.24" y="0">on</tspan><tspan class="aj" x="133.8" y="0">n</tspan><tspan x="143.98" y="0">e</tspan><tspan class="i" x="153.04" y="0">c</tspan><tspan x="161.58" y="0">tion</tspan></text><rect class="a" x="404.56" y="201.92" width="121" height="27"/><line class="b" x1="378.56" y1="229.42" x2="563.48" y2="229.42"/><polygon points="560.16 233.51 559.48 232.78 563.09 229.42 559.48 226.06 560.16 225.33 564.56 229.42 560.16 233.51"/><text class="v" transform="translate(415.39 227.05)">H<tspan class="ad" x="12.2" y="0">T</tspan><tspan x="20.96" y="0">TP </tspan><tspan class="ae" x="44.26" y="0">r</tspan><tspan x="50.08" y="0">equest</tspan></text><rect class="a" x="404.56" y="257.92" width="121" height="27"/><line class="b" x1="564.56" y1="257.42" x2="379.64" y2="257.42"/><polygon points="382.96 253.33 383.64 254.06 380.03 257.42 383.64 260.78 382.96 261.51 378.56 257.42 382.96 253.33"/><text class="v" transform="translate(408.79 271.05)">H<tspan class="ad" x="12.2" y="0">T</tspan><tspan x="20.96" y="0">TP </tspan><tspan class="ae" x="44.26" y="0">r</tspan><tspan x="50.08" y="0">esponse</tspan></text><line class="b" x1="608.79" y1="575.69" x2="544.56" y2="639.92"/><polygon points="603.56 575.14 603.59 576.14 608.52 575.96 608.34 580.89 609.34 580.92 609.56 574.92 603.56 575.14"/><line class="b" x1="690.06" y1="583.42" x2="690.06" y2="671.42"/><rect class="b" x="505.06" y="650.42" width="70" height="40" rx="9.5"/><text class="v" transform="translate(619.26 733.02)">so<tspan class="w" x="16.74" y="0">c</tspan><tspan class="x" x="25.07" y="0">k</tspan><tspan x="33.77" y="0">et</tspan></text><rect class="b" x="609.06" y="707.42" width="70" height="40" rx="9.5"/><text class="v" transform="translate(709.26 733.02)">so<tspan class="w" x="16.74" y="0">c</tspan><tspan class="x" x="25.07" y="0">k</tspan><tspan x="33.77" y="0">et</tspan></text><rect class="b" x="699.06" y="707.42" width="70" height="40" rx="9.5"/><line class="ak" x1="379.06" y1="389.42" x2="530.51" y2="646.49"/><polygon points="525.3 645.71 525.59 644.75 530.31 646.16 531.37 641.34 532.35 641.56 531.06 647.42 525.3 645.71"/><line class="b" x1="356.06" y1="629.42" x2="356.06" y2="703.92"/><line class="b" x1="356.06" y1="629.42" x2="344.56" y2="629.42"/><line class="b" x1="356.09" y1="703.42" x2="344.56" y2="703.42"/><text class="v" transform="translate(381.39 669.05)">upda<tspan class="ac" x="39.28" y="0">t</tspan><tspan x="45.09" y="0">e sta</tspan><tspan class="ac" x="80.35" y="0">t</tspan><tspan x="86.16" y="0">e</tspan></text><line class="b" x1="356.13" y1="672.42" x2="492.98" y2="672.42"/><polygon points="489.66 676.51 488.98 675.78 492.59 672.42 488.98 669.06 489.66 668.33 494.06 672.42 489.66 676.51"/><text class="al" transform="translate(558.55 621.49) rotate(-45)"><tspan class="w">c</tspan><tspan x="5.55" y="0">ha</tspan><tspan class="am" x="18.22" y="0">n</tspan><tspan x="25.01" y="0">ges</tspan></text><line class="b" x1="581.14" y1="671.42" x2="734.06" y2="671.42"/><polygon points="584.46 675.51 585.14 674.78 581.53 671.42 585.14 668.06 584.46 667.33 580.06 671.42 584.46 675.51"/><line class="b" x1="645.06" y1="670.92" x2="645.06" y2="701.84"/><polygon points="640.97 698.52 641.7 697.84 645.06 701.45 648.42 697.84 649.15 698.52 645.06 702.92 640.97 698.52"/><line class="b" x1="734.06" y1="670.92" x2="734.06" y2="701.84"/><polygon points="729.97 698.52 730.7 697.84 734.06 701.45 737.42 697.84 738.15 698.52 734.06 702.92 729.97 698.52"/><rect class="a" x="661.56" y="628.92" width="59" height="17"/><text class="al" transform="translate(670.79 640.34)">upda<tspan class="an" x="26.19" y="0">t</tspan><tspan x="30.06" y="0">e</tspan></text></svg>