<svg xmlns="http://www.w3.org/2000/svg" viewBox="0 0 1366 1031"><defs><style>.a{fill:#dbdbdb;}.ad,.b,.c{fill:none;stroke:#000;stroke-miterlimit:10;}.c{stroke-dasharray:11.93 11.93;}.d{isolation:isolate;}.e{fill:#fff;}.f{font-size:30px;font-family:MyriadPro-Regular, Myriad Pro;}.g{letter-spacing:0em;}.h{letter-spacing:0em;}.i{letter-spacing:0.01em;}.j{letter-spacing:0.02em;}.k{letter-spacing:-0.01em;}.l{font-size:20px;font-family:Montserrat-SemiBold, Montserrat;font-weight:600;}.m{letter-spacing:0em;}.n{letter-spacing:-0.01em;}.o{letter-spacing:0em;}.p{letter-spacing:-0.01em;}.q{letter-spacing:-0.01em;}.r{letter-spacing:0.01em;}.s{letter-spacing:-0.02em;}.t{letter-spacing:0em;}.u{letter-spacing:-0.01em;}.v{letter-spacing:-0.02em;}.w{letter-spacing:0.01em;}.x{letter-spacing:0em;}.y{letter-spacing:-0.02em;}.z{letter-spacing:-0.02em;}.aa{font-size:15px;}.aa,.am{font-family:Montserrat-Regular, Montserrat;}.ab{letter-spacing:-0.01em;}.ac{letter-spacing:-0.02em;}.ad{stroke-dasharray:12 12;}.ae{letter-spacing:-0.05em;}.af{letter-spacing:0.05em;}.ag{letter-spacing:-0.06em;}.ah{letter-spacing:0em;}.ai{letter-spacing:-0.01em;}.aj{letter-spacing:-0.02em;}.ak{letter-spacing:0.01em;}.al{letter-spacing:-0.01em;}.am{font-size:10px;}.an{letter-spacing:0em;}.ao{letter-spacing:-0.02em;}.ap{letter-spacing:-0.01em;}.aq{letter-spacing:0.01em;}.ar{letter-spacing:-0.01em;}.as{letter-spacing:-0.02em;}.at{letter-spacing:-0.01em;}.au{letter-spacing:-0.02em;}.av{letter-spacing:0em;}</style></defs><rect class="a" width="1366" height="1031"/><line class="b" x1="465.51" y1="53.42" x2="465.51" y2="59.42"/><line class="c" x1="465.51" y1="71.35" x2="465.51" y2="972.35"/><line class="b" x1="465.51" y1="978.32" x2="465.51" y2="984.32"/><line class="b" x1="79.06" y1="54.1" x2="79.06" y2="60.1"/><line class="c" x1="79.06" y1="72.03" x2="79.06" y2="973.03"/><line class="b" x1="79.06" y1="979" x2="79.06" y2="985"/><line class="b" x1="858.01" y1="54.1" x2="858.01" y2="60.1"/><line class="c" x1="858.01" y1="72.03" x2="858.01" y2="973.03"/><line class="b" x1="858.01" y1="979" x2="858.01" y2="985"/><line class="b" x1="1260.06" y1="54.1" x2="1260.06" y2="60.1"/><line class="c" x1="1260.06" y1="72.03" x2="1260.06" y2="973.03"/><line class="b" x1="1260.06" y1="979" x2="1260.06" y2="985"/><rect class="a" x="791.56" y="204.92" width="121" height="27"/><g class="d"><path d="M285.42,116.51l1.65.27a135.12,135.12,0,0,0-19.14-1.68c-2.45,0-4.78,0-7,.07h0l1.67-.06c1.9-.08,3.94-.1,6.07-.06A118.53,118.53,0,0,1,285.42,116.51Z"/><path d="M285.47,114.54l1.64.27a137.2,137.2,0,0,0-19.06-1.66c-2.42,0-4.72,0-6.88.07h0l1.66-.07c1.88-.07,3.89-.09,6-.05A119.39,119.39,0,0,1,285.47,114.54Z"/><path d="M283.76,108.4l1.32.18a137.4,137.4,0,0,0-16.66-1.29c-1.55,0-3.06,0-4.51,0l1.33,0c1.27,0,2.59,0,3.95,0A120.29,120.29,0,0,1,283.76,108.4Z"/><path d="M286.26,112.68l1.71.3a135.3,135.3,0,0,0-19.8-1.79c-2.7,0-5.25,0-7.62.1.29,0,.58,0,.87,0l.87,0c2.07-.09,4.3-.12,6.66-.08A118.46,118.46,0,0,1,286.26,112.68Z"/><path d="M285.66,110.62l1.64.27a135.13,135.13,0,0,0-19-1.65c-2.4,0-4.69,0-6.83.06l.83,0,.83,0c1.87-.07,3.86-.09,5.95-.06A118.65,118.65,0,0,1,285.66,110.62Z"/><path class="e" d="M260.17,128.52a65.78,65.78,0,0,1-8.55-1.64c-1.11-.23-2.56-.68-3.65-1a30.56,30.56,0,0,1-5.71-2.18c-1-.55-2.73-1.29-3.13-2.4-.13-.35-.52-.83-.41-1.19a4.64,4.64,0,0,1,1.47-2.14c.62-.45,2.57-1.57,7.22-2.47,2.27-.44,5.33-.76,7.63-1,1.35-.14,3.16-.19,4.51-.27l1.47-.06c-13,.51-20.93,3.19-18.22,6.58,3.16,4,19.6,7.43,36.65,7.73s28.34-2.69,25.18-6.65c-1.91-2.39-8.68-4.61-17.5-6l1.44.23c1.31.24,3.06.54,4.36.8s2.78.58,4,.91c2,.55,4.55,1.38,6.47,2.08a19.11,19.11,0,0,1,2.37,1.14c.95.53,2.5,1.35,2.68,2.42,0,.35.33.85.16,1.16a6,6,0,0,1-1.91,2.1c-.73.43-2.94,1.53-7.8,2.36-2.36.4-5.54.69-7.93.9-1.39.13-3.25.17-4.64.22,0,0-3.16-.49-6.34-1.16a1.63,1.63,0,0,0-.37-.08c-.22,0-.52,0-.75,0-.73,0-3.35-.07-6.59-.29-2.49-.16-4.53-.37-4.75-.39a6.39,6.39,0,0,0-1.07-.05C263.29,128.42,260.18,128.52,260.17,128.52Z"/><path d="M287.57,127.4l-1.81.09c10.8-.53,17.24-2.82,14.95-5.7-2.76-3.45-17.13-6.48-32-6.74s-24.75,2.34-22,5.8c1.6,2,7.09,3.86,14.32,5.12l-1.79-.31c-8.27-1.44-14.55-3.57-16.38-5.86-3.16-4,8.13-7,25.18-6.65s33.47,3.76,36.63,7.73C307.31,124.17,299.94,126.79,287.57,127.4Z"/><path class="e" d="M259.55,114.26c-2.57.15-6,.29-8.57.7-1.07.17-2.51.32-3.57.57a35.13,35.13,0,0,0-5.44,1.53,11.32,11.32,0,0,0-2.88,2c-.26.24-.27.78-.37,1.11-.25.84.94,1.87,1.62,2.41,1,.78,3.11,2,7.63,3.36,1.08.33,2.54.74,3.65,1,2.55.55,6,1.2,8.55,1.64l-1.26,0c-10.12-1.62-17.9-4.15-20.08-6.88-3.05-3.82,5.84-6.84,20.52-7.41Z"/><path class="e" d="M286.29,130.13c2.65-.12,6.21-.22,8.85-.59,1.12-.16,2.62-.3,3.72-.53a44.09,44.09,0,0,0,5.81-1.46,14.33,14.33,0,0,0,3.3-1.91c.3-.22.43-.75.6-1.09.37-.7-.55-1.84-1.13-2.38-.83-.79-2.74-2-7.05-3.42-1-.34-2.44-.76-3.5-1-2.48-.57-5.81-1.25-8.32-1.71l.2,0c9.94,1.62,17.56,4.12,19.72,6.82,3.07,3.86-6,6.89-21,7.43Z"/><path class="e" d="M260.39,126.58A68.42,68.42,0,0,1,251.8,125c-1.11-.24-2.56-.68-3.66-1a30.84,30.84,0,0,1-5.74-2.18c-1.05-.56-2.74-1.29-3.14-2.41-.13-.35-.53-.83-.42-1.19a4.67,4.67,0,0,1,1.47-2.15c.63-.45,2.59-1.58,7.26-2.47,2.28-.44,5.36-.76,7.66-1,1.36-.14,3.17-.19,4.53-.27l1.46,0c-13.08.5-21,3.18-18.3,6.58,3.16,4,19.6,7.43,36.65,7.73s28.34-2.69,25.18-6.65c-1.92-2.4-8.72-4.63-17.58-6.07,3.2.52,5.78,1,5.8,1,1.21.24,2.8.59,4,.91,2,.55,4.58,1.39,6.5,2.08a21,21,0,0,1,2.39,1.15c1,.53,2.51,1.35,2.69,2.42.05.35.33.86.16,1.17a6,6,0,0,1-1.92,2.1c-.73.43-2.95,1.53-7.83,2.36-2.37.4-5.57.69-8,.91-1.39.12-3.26.15-4.66.21,0,0-3.1-.49-6.24-1.15a2.29,2.29,0,0,0-.36-.07c-.23,0-.53,0-.75,0-.94,0-3.45-.08-6.6-.29-2.5-.17-4.54-.37-4.76-.4a6.31,6.31,0,0,0-1.06,0C263.45,126.48,260.4,126.58,260.39,126.58Z"/><path class="e" d="M279.58,128.89a2.45,2.45,0,0,1,.37.08c1.9.4,4,.79,6.34,1.16-2.55.05-6.81.14-13.35-.26-6.08-.37-10.6-1-12.77-1.35,2.27-.08,4.38-.21,6.25-.38l.36,0a5.94,5.94,0,0,1,.71.08c.27,0,2.72.27,5.59.45s5.13.22,5.75.23C279.06,128.88,279.36,128.86,279.58,128.89Z"/><path class="e" d="M257.62,126.37A142.44,142.44,0,0,0,273,128.16a142.59,142.59,0,0,0,16.1.15l-1.59.08c-2.5.13-5.21.17-8.07.12a134.84,134.84,0,0,1-20.26-1.86Z"/><path d="M289.69,114.5l1.78.31c10.11,1.77,17.79,4.37,20,7.17,3.86,4.85-9.94,8.49-30.78,8.13s-40.93-4.6-44.8-9.45c-3.21-4,5.8-7.23,20.92-8l1.81-.09c-13.55.68-21.63,3.54-18.75,7.16,3.46,4.34,21.48,8.13,40.16,8.46s31-2.94,27.58-7.28C305.64,118.41,298.75,116.08,289.69,114.5Z"/><path d="M287.87,125.44l-1.84.1c10.7-.56,17.08-2.84,14.8-5.7-2.76-3.46-17.12-6.49-32-6.74s-24.75,2.34-22,5.8c1.58,2,7,3.83,14.16,5.09l-1.81-.31c-8.19-1.45-14.4-3.56-16.22-5.84-3.16-4,8.14-6.94,25.19-6.65s33.48,3.77,36.64,7.73C307.43,122.2,300.13,124.81,287.87,125.44Z"/><path class="e" d="M259.76,112.3c-2.58.16-6,.29-8.61.7-1.07.17-2.52.32-3.58.57a35.06,35.06,0,0,0-5.46,1.53,11.26,11.26,0,0,0-2.9,2c-.26.25-.27.78-.37,1.12-.25.84.94,1.87,1.63,2.41,1,.79,3.13,2,7.67,3.37,1.09.33,2.55.74,3.66,1,2.57.54,6,1.19,8.59,1.63l-1.27,0c-10.16-1.62-18-4.15-20.18-6.89-3.05-3.84,5.88-6.85,20.62-7.42Z"/><path class="e" d="M286.31,128.18c2.67-.12,6.24-.22,8.89-.59,1.12-.16,2.63-.3,3.74-.53a43.22,43.22,0,0,0,5.83-1.46,14.25,14.25,0,0,0,3.32-1.91c.3-.22.43-.76.6-1.09.37-.71-.56-1.85-1.14-2.39-.84-.79-2.75-2-7.08-3.43-1.05-.33-2.45-.75-3.52-1-2.49-.57-5.83-1.24-8.35-1.7l.2,0c10,1.62,17.65,4.12,19.81,6.83,3.08,3.87-6.05,6.91-21.05,7.44Z"/><path class="e" d="M259.6,124.48a63.17,63.17,0,0,1-8.26-1.64c-1.07-.23-2.46-.67-3.52-1a29,29,0,0,1-5.48-2.15c-1-.54-2.62-1.27-3-2.35-.12-.35-.5-.81-.39-1.16a4.66,4.66,0,0,1,1.42-2.11c.6-.43,2.49-1.54,7-2.43,2.18-.44,5.14-.77,7.36-1,1.3-.15,3-.21,4.35-.29l1.53-.07c-12.66.57-20.25,3.22-17.59,6.56,3.17,4,19.63,7.44,36.7,7.74s28.37-2.69,25.21-6.66c-1.87-2.34-8.35-4.51-16.86-6,6.12,1,8.84,1.76,9.53,2,1.89.54,4.39,1.37,6.23,2.06a16.06,16.06,0,0,1,2.28,1.12c.91.51,2.41,1.33,2.57,2.37,0,.34.32.83.15,1.14a5.76,5.76,0,0,1-1.84,2c-.7.43-2.82,1.5-7.5,2.34a88.54,88.54,0,0,1-12.13,1.16s-3.53-.53-7.17-1.31a2.71,2.71,0,0,0-.41-.09H279c-.72,0-3.32-.08-6.52-.29-2.41-.16-4.33-.36-4.69-.39a5.89,5.89,0,0,0-1.11,0C263.12,124.39,259.61,124.48,259.6,124.48Z"/><path class="e" d="M279.71,127c.11,0,.25.05.36.07,1.88.4,4,.78,6.24,1.15-2.53,0-6.76.14-13.25-.26-6-.37-10.52-1-12.67-1.34,2.24-.08,4.3-.21,6.15-.37l.35,0c.21,0,.5,0,.71.07s2.73.28,5.6.46,5.14.22,5.76.23C279.18,127,279.49,126.93,279.71,127Z"/><path class="e" d="M257.55,124.39a146.64,146.64,0,0,0,15.58,1.81,143.47,143.47,0,0,0,16.29.15l-1.61.08c-2.55.13-5.31.18-8.24.13a135.34,135.34,0,0,1-20.43-1.89Z"/><path d="M290,112.58l1.81.32c10,1.76,17.59,4.34,19.82,7.13,3.86,4.84-9.94,8.49-30.78,8.12s-40.93-4.59-44.8-9.44c-3.19-4,5.72-7.2,20.71-8,.31,0,.61,0,.92,0l.92,0c-13.44.7-21.43,3.55-18.56,7.15,3.46,4.34,21.47,8.14,40.14,8.46s31.05-2.94,27.59-7.28C305.77,116.47,299,114.16,290,112.58Z"/><path d="M288.17,123.48l-1.85.1c10.63-.57,16.94-2.85,14.66-5.7-2.75-3.46-17.14-6.49-32-6.75s-24.79,2.35-22,5.81c1.57,2,6.94,3.81,14,5.07l-1.81-.32c-8.1-1.44-14.24-3.54-16-5.8-3.16-4,8.14-7,25.19-6.65S301.77,113,304.93,117C307.54,120.23,300.32,122.83,288.17,123.48Z"/><path class="e" d="M289.42,126.35h.23c-2.88.14-6,.2-9.29.14a151.1,151.1,0,0,1-23-2.13l.22,0a146.64,146.64,0,0,0,15.58,1.81A144.23,144.23,0,0,0,289.42,126.35Z"/><path class="e" d="M259.06,110.38c-2.48.16-5.81.31-8.27.72-1,.17-2.42.33-3.44.58a33.46,33.46,0,0,0-5.24,1.51,10.75,10.75,0,0,0-2.79,1.94c-.25.23-.26.76-.36,1.09-.24.81.88,1.82,1.54,2.35.94.77,3,2,7.32,3.31,1.05.32,2.45.73,3.52,1,2.46.55,5.77,1.2,8.26,1.64l-1.28,0c-9.72-1.63-17.14-4.09-19.26-6.75-3-3.76,5.54-6.73,19.79-7.38Z"/><path class="e" d="M287.34,126.19c2.57-.13,6-.25,8.54-.63,1.08-.16,2.53-.3,3.59-.53a41.34,41.34,0,0,0,5.59-1.45,14.13,14.13,0,0,0,3.18-1.87,3.33,3.33,0,0,0,.57-1.07c.35-.69-.52-1.8-1.08-2.34-.8-.77-2.62-2-6.78-3.36a86.69,86.69,0,0,0-11.4-2.69l.21,0c9.58,1.63,16.87,4.06,19,6.7,3,3.79-5.69,6.78-20.14,7.4Z"/><path class="e" d="M260.7,122.68a66.67,66.67,0,0,1-8.61-1.64c-1.12-.23-2.58-.68-3.68-1a30.7,30.7,0,0,1-5.75-2.19c-1.06-.55-2.75-1.29-3.16-2.41-.13-.35-.53-.83-.42-1.19a4.72,4.72,0,0,1,1.48-2.16c.63-.44,2.59-1.57,7.28-2.47,2.28-.44,5.37-.76,7.68-1,1.36-.14,3.18-.18,4.54-.26l1.46-.06c-13.12.5-21.08,3.18-18.36,6.59,3.16,4,19.6,7.43,36.65,7.72S308.15,120,305,116c-1.92-2.41-8.75-4.64-17.63-6.08,3.2.52,5.78,1,5.81,1,1.2.24,2.8.58,4,.91,2,.55,4.59,1.38,6.52,2.08a21.84,21.84,0,0,1,2.39,1.15c.95.53,2.52,1.35,2.7,2.43.05.35.33.85.16,1.17a6,6,0,0,1-1.93,2.1c-.73.43-2.95,1.53-7.85,2.36-2.38.41-5.59.69-8,.91-1.4.12-3.27.15-4.68.21,0,0-3.06-.48-6.17-1.14a2.17,2.17,0,0,0-.35-.07c-.23,0-.53,0-.76,0-.93,0-3.45-.08-6.61-.29-2.44-.16-4.39-.36-4.76-.4a6.23,6.23,0,0,0-1.06,0C263.72,122.58,260.71,122.68,260.7,122.68Z"/><path class="e" d="M279.76,124.79l.41.09c2.16.46,4.57.9,7.17,1.31-2.69.08-7.19.2-14.18-.23-6.49-.4-11.27-1.13-13.56-1.48,2.58-.08,5-.23,7.1-.42.12,0,.28,0,.41,0s.49,0,.7.08,2.69.27,5.52.44,5.08.23,5.69.24C279.24,124.78,279.54,124.77,279.76,124.79Z"/><path class="e" d="M257.47,122.4a146,146,0,0,0,15.77,1.85,143.17,143.17,0,0,0,16.5.13l-1.62.09c-2.59.14-5.42.19-8.42.14a133.81,133.81,0,0,1-20.64-1.93Z"/><path d="M290.31,110.66l1.81.32c9.89,1.76,17.38,4.33,19.58,7.09,3.86,4.84-9.93,8.48-30.75,8.11s-40.88-4.59-44.75-9.43c-3.18-4,5.62-7.16,20.47-8l1.84-.1c-13.31.71-21.21,3.56-18.36,7.13,3.46,4.34,21.47,8.14,40.14,8.47s31-3,27.59-7.28C305.9,114.54,299.18,112.24,290.31,110.66Z"/><path d="M289.63,121.41l-2,.13c9.88-.67,15.62-2.87,13.44-5.61-2.76-3.46-17.12-6.49-32-6.75s-24.75,2.35-22,5.81c1.48,1.85,6.31,3.59,12.78,4.84h0l-2-.38C250.52,118,245,116,243.3,113.92c-3.15-4,8.12-6.93,25.12-6.63S301.82,111,305,115C307.47,118.12,300.92,120.64,289.63,121.41Z"/><path class="e" d="M260.06,108.39c-2.59.15-6.06.28-8.63.69-1.08.17-2.53.32-3.59.57a36.77,36.77,0,0,0-5.48,1.53,11.27,11.27,0,0,0-2.91,2c-.26.24-.27.78-.37,1.12-.25.84.95,1.87,1.64,2.42,1,.78,3.14,2,7.69,3.37,1.09.33,2.56.74,3.68,1,2.57.55,6,1.2,8.61,1.64l-1.29,0c-10.19-1.62-18-4.16-20.24-6.9-3-3.84,5.91-6.86,20.69-7.42Z"/><path class="e" d="M286.48,124.27c2.68-.12,6.26-.22,8.92-.59,1.12-.16,2.64-.3,3.75-.53a42,42,0,0,0,5.85-1.46,14.52,14.52,0,0,0,3.33-1.91c.3-.23.43-.76.6-1.09.37-.71-.56-1.85-1.14-2.4-.84-.79-2.76-2-7.11-3.43-1-.34-2.45-.76-3.52-1-2.5-.57-5.85-1.25-8.37-1.71l.2,0c10,1.62,17.7,4.13,19.87,6.84,3.09,3.88-6.07,6.92-21.1,7.44Z"/><path class="e" d="M263.32,121.09a41.35,41.35,0,0,1-4.95-.75c-2.62-.51-6.09-1.25-8.67-1.89a46.8,46.8,0,0,1-6.46-2.29,9.12,9.12,0,0,1-3.56-2.55,2.53,2.53,0,0,1-.06-2.47,7.33,7.33,0,0,1,3.29-2.07,41.94,41.94,0,0,1,6.17-1.57,79.61,79.61,0,0,1,8.6-.94c1.51-.12,3.55-.13,5.07-.19l1.19,0c-14.47.26-23.53,3.05-20.66,6.65,3.16,4,19.6,7.43,36.65,7.72s28.34-2.68,25.18-6.64c-2.08-2.62-9.95-5-19.95-6.43,5.94.84,8.79,1.48,10.49,1.87a43.25,43.25,0,0,1,7.34,2.16,37.55,37.55,0,0,1,4.7,2.47,7.15,7.15,0,0,1,1.14,1.31c.49.55.07,1.87-.42,2.42a8.31,8.31,0,0,1-3.71,2c-1.93.54-4.55,1.12-6.53,1.49a41.83,41.83,0,0,1-4.18.51c-3,.21-6.93.54-9.91.47,0,0-1.74-.29-3.61-.67l-.21,0c-.23,0-.54,0-.78,0-.39,0-2.48,0-5.09-.2-3.29-.18-5.94-.44-6.67-.52-.22,0-.52-.06-.74-.07h-.2C265,121,263.33,121.09,263.32,121.09Z"/><path class="e" d="M280,123.06c.1,0,.25,0,.35.07,1.87.39,3.94.78,6.17,1.14-2.51,0-6.72.13-13.18-.27-6-.36-10.46-1-12.6-1.32,2.2-.09,4.25-.21,6.07-.37l.35,0c.22,0,.5,0,.71.07s2.73.28,5.61.46,5.14.22,5.76.23C279.43,123.05,279.73,123,280,123.06Z"/><path class="e" d="M256.05,120.12c2.24.42,4.55.84,8.23,1.29s7,.72,9.05.85a138.57,138.57,0,0,0,18.07,0l-1.79.13c-3,.2-6.26.28-9.8.21a131.08,131.08,0,0,1-22-2.18Z"/><path d="M292,109l2,.38c9.05,1.74,15.82,4.17,17.9,6.78,3.86,4.84-9.94,8.48-30.78,8.12s-40.93-4.6-44.8-9.44c-3.05-3.84,5-6.92,18.8-7.86h0l2-.14c-12.42.85-19.64,3.62-16.89,7.06,3.47,4.35,21.52,8.16,40.24,8.48s31.11-2.94,27.64-7.29C306.21,112.71,300.13,110.53,292,109Z"/><path d="M287.93,119.63l-1.8.08c10.86-.52,17.36-2.82,15.06-5.7-2.76-3.46-17.13-6.49-32-6.75s-24.75,2.35-22,5.81c1.61,2,7.14,3.87,14.42,5.13l-1.77-.3c-8.33-1.44-14.66-3.58-16.5-5.89-3.16-4,8.13-6.94,25.18-6.64s33.47,3.76,36.63,7.72C307.79,116.4,300.37,119,287.93,119.63Z"/><path class="e" d="M284.08,122.36c3-.08,7-.11,9.91-.47,1.25-.15,2.94-.28,4.18-.51a49.81,49.81,0,0,0,6.53-1.49,15.5,15.5,0,0,0,3.71-2c.32-.24.46-.81.65-1.17.4-.77-.71-2-1.37-2.56-1-.84-3.17-2.14-8.08-3.6-2.48-.74-5.87-1.43-8.41-2-1.45-.3-3.4-.55-4.86-.78l.14,0c11.24,1.59,20.07,4.28,22.42,7.22,3.26,4.09-7.16,7.25-23.73,7.49Z"/><path class="e" d="M262.75,106.37c-2.9.11-6.77.18-9.65.57-1.2.17-2.83.31-4,.56a41.62,41.62,0,0,0-6.17,1.57,12.26,12.26,0,0,0-3.29,2.07c-.28.25-.3.83-.42,1.19-.29.91,1.09,2,1.86,2.58s3.27,2.06,8.64,3.54c2.56.72,6.05,1.38,8.67,1.89,1.47.28,3.47.52,4.95.75l-1.08,0c-11.45-1.59-20.49-4.31-22.87-7.29-3.22-4,7-7.19,23.23-7.48Z"/><path class="e" d="M260.17,128.52c.46,0,1.05.16,1.51.22s5.35.77,11.26,1.13,10.19.33,11.76.29c.48,0,1.11-.06,1.59,0h.08l1.16.19c-2.34.08-4.82.1-7.42.06a153.07,153.07,0,0,1-21.2-1.83l1.18,0Z"/><path class="e" d="M260.39,126.58c.45,0,1.05.16,1.5.22,1.37.2,6.34.87,12.84,1.21,5.52.29,9.31.22,11.58.17h.08l1.17.19c-2.31.08-4.76.1-7.33.05a153.66,153.66,0,0,1-21.11-1.81l1.19,0Z"/><path class="e" d="M280.26,121.65l.21,0c1.67.34,3.08.58,3.61.67a154.4,154.4,0,0,1-20.76-1.27c1.63-.09,2.87-.18,3.46-.23h.2c.22,0,.52.05.74.07s2.82.29,5.8.47,5.32.23,6,.25A6.74,6.74,0,0,1,280.26,121.65Z"/><path class="e" d="M289.11,128.31h.22c-2.81.14-5.86.19-9.1.13a151.65,151.65,0,0,1-22.83-2.09l.22,0A146,146,0,0,0,273,128.16,143.29,143.29,0,0,0,289.11,128.31Z"/><path class="e" d="M258.23,118.61a143.19,143.19,0,0,0,15.27,1.76,144.23,144.23,0,0,0,16,.17l-1.58.07c-2.47.12-5.13.16-7.95.11a133.66,133.66,0,0,1-20.14-1.84Z"/><path class="e" d="M259.6,124.48c.48,0,1.11.17,1.59.24s5.66.85,12,1.24,10.85.32,12.51.28c.5,0,1.17-.08,1.67,0l.08,0,1.18.18c-2.57.11-5.33.14-8.24.09a153.84,153.84,0,0,1-22-2l1.19,0Z"/><path class="e" d="M260.7,122.68c.45,0,1,.15,1.49.22,1.36.19,6.31.86,12.77,1.2,5.5.29,9.27.21,11.52.17h.09l.64.1.32.05a.93.93,0,0,0,.23,0q-3.45.12-7.28,0a151.44,151.44,0,0,1-21.07-1.8l1.2,0Z"/><path class="e" d="M289.74,124.38H290c-2.93.16-6.11.21-9.49.15a150.91,150.91,0,0,1-23.24-2.16l.23,0a146,146,0,0,0,15.77,1.85A142.06,142.06,0,0,0,289.74,124.38Z"/><path class="e" d="M263.32,121.09c.37,0,.86.1,1.23.15s4.3.54,8.94.82,8,.31,9.3.31c.39,0,.91,0,1.29,0l.07,0,1,.17c-1.48,0-3,0-4.59,0a156.87,156.87,0,0,1-18.34-1.4l1,0S263.3,121.08,263.32,121.09Z"/><path class="e" d="M291.4,122.3h.21c-3.33.23-7,.32-11,.25a147.93,147.93,0,0,1-24.74-2.46l.21,0c2.24.42,4.55.84,8.23,1.29s7,.72,9.05.85A136.66,136.66,0,0,0,291.4,122.3Z"/><path d="M290,106.69l1.77.31c10.18,1.76,17.92,4.38,20.17,7.2,3.86,4.84-9.94,8.48-30.78,8.12s-40.93-4.6-44.8-9.44c-3.22-4,5.86-7.25,21.06-8h0l1.8-.09c-13.63.66-21.77,3.54-18.88,7.16,3.46,4.34,21.47,8.14,40.15,8.47s31.06-2.94,27.6-7.28C306.11,110.62,299.17,108.28,290,106.69Z"/><path class="e" d="M289.46,120.54h.22c-2.78.13-5.79.18-9,.12A151.38,151.38,0,0,1,258,118.58l.21,0a143.19,143.19,0,0,0,15.27,1.76A144.44,144.44,0,0,0,289.46,120.54Z"/><path d="M289.23,130l-1.67.07c-2.39.09-4.94.12-7.62.07a149.54,149.54,0,0,1-21-1.83h0l-1.64-.27a167.34,167.34,0,0,0,23.41,2.05C283.71,130.16,286.56,130.13,289.23,130Z"/><path class="e" d="M267.8,104.46c19.21.33,37.72,4.24,41.29,8.7s-9.16,7.83-28.38,7.49S243,116.41,239.43,112,248.58,104.12,267.8,104.46Z"/><path d="M268,104.68c18.68.32,36.69,4.12,40.16,8.47s-8.92,7.6-27.6,7.28-36.69-4.13-40.15-8.47S249.29,104.35,268,104.68Zm12,15.06c17,.3,28.34-2.69,25.18-6.65s-19.59-7.42-36.63-7.72-28.34,2.68-25.18,6.64,19.59,7.43,36.63,7.73"/><path d="M289.25,128.07l-1.66.07c-2.37.09-4.89.12-7.53.07a148.26,148.26,0,0,1-20.89-1.82h0l-1.64-.27a164.63,164.63,0,0,0,23.31,2C283.8,128.21,286.61,128.18,289.25,128.07Z"/><path d="M290.26,126.07l-1.75.08c-2.59.11-5.39.15-8.34.1a147.76,147.76,0,0,1-21.7-2h0l-1.71-.29A166,166,0,0,0,281,126.18C284.24,126.24,287.36,126.2,290.26,126.07Z"/><path d="M289.43,124.16l-1.66.07c-2.35.09-4.85.11-7.48.07a149.06,149.06,0,0,1-20.82-1.81l-1.63-.27a165.14,165.14,0,0,0,23.24,2C284,124.29,286.8,124.26,289.43,124.16Z"/><path d="M286.73,122.32l-1.34,0c-1.59,0-3.25,0-5,0a152,152,0,0,1-18.34-1.42l-1.31-.19a168.71,168.71,0,0,0,20.42,1.59C283.1,122.35,285,122.35,286.73,122.32Z"/></g><text class="f" transform="translate(237.45 93.02)">Clie<tspan class="g" x="46.53" y="0">n</tspan><tspan class="h" x="63.06" y="0">t</tspan></text><text class="f" transform="translate(621.99 84.56)"><tspan class="i">S</tspan><tspan x="14.97" y="0">e</tspan><tspan class="j" x="30" y="0">r</tspan><tspan class="k" x="40.56" y="0">v</tspan><tspan x="54.69" y="0">er</tspan></text><g class="d"><polygon points="697.13 119.05 675.31 121.25 675.27 106.43 697.1 104.23 697.13 119.05"/><path class="e" d="M671.12,111.69a4,4,0,0,0-3.64-4.11l21.82-2.2a4,4,0,0,1,3.65,4.11Z"/><path class="e" d="M667.9,115.62a3.79,3.79,0,0,0,3.22-3.93l21.83-2.2a3.8,3.8,0,0,1-3.23,3.93Z"/><path d="M689.52,111.44l-21.82,2.2a1.92,1.92,0,0,0,1.62-2,2,2,0,0,0-1.84-2.07h-.2l21.82-2.2h.21a2,2,0,0,1,1.83,2.07A1.92,1.92,0,0,1,689.52,111.44Z"/><path class="e" d="M665.66,111.57a1.9,1.9,0,0,1,1.62-2l21.82-2.2a1.91,1.91,0,0,0-1.62,2,2,2,0,0,0,1.84,2.07l-21.83,2.2,21.83-2.2a1.33,1.33,0,0,0,.2,0l-21.82,2.2h-.21A2,2,0,0,1,665.66,111.57Z"/><path d="M689.72,113.42l-21.82,2.2a2.75,2.75,0,0,1-.4,0,4,4,0,0,1-3.65-4.1,3.82,3.82,0,0,1,3.23-4l21.83-2.2a3.82,3.82,0,0,0-3.24,4,4,4,0,0,0,3.65,4.1A2.68,2.68,0,0,0,689.72,113.42Z"/><path class="e" d="M667.48,107.58a.81.81,0,0,0-.22,0l21.82-2.2h.22l-2.55.25-2.7.28-2.8.28-2.86.29-2.86.28-1.41.15-2.76.27-2.63.27C668.36,107.49,667.86,107.56,667.48,107.58Z"/><path class="e" d="M667.26,107.58h-.18l21.83-2.2h.17l-10.91,1.1-1.43.14-5.6.57-1.33.13C669,107.4,668,107.52,667.26,107.58Z"/><path class="e" d="M689.31,107.38a2,2,0,0,1,1.83,2.07,1.88,1.88,0,0,1-1.82,2,2,2,0,0,1-1.84-2.07A1.88,1.88,0,0,1,689.31,107.38Z"/><path d="M689.3,105.38a4,4,0,0,1,3.65,4.11,3.75,3.75,0,0,1-3.63,4,4,4,0,0,1-3.65-4.1A3.76,3.76,0,0,1,689.3,105.38Zm0,6.06a1.88,1.88,0,0,0,1.82-2,2,2,0,0,0-1.83-2.07,1.88,1.88,0,0,0-1.83,2,2,2,0,0,0,1.84,2.07"/><polygon points="697.1 104.23 675.27 106.43 621.18 105.31 643 103.11 697.1 104.23"/><polygon class="e" points="697.13 119.05 675.31 121.25 621.22 120.12 643.04 117.92 697.13 119.05"/><polygon class="e" points="643.04 117.92 621.22 120.12 621.18 105.31 643 103.11 643.04 117.92"/><path d="M641.2,101.07l57.69,1.2,0,18.82-57.68-1.2v-1.73Zm55.93,18,0-14.82L643,103.11l0,14.81,54.09,1.13"/><path class="e" d="M643,103.11l54.1,1.12,0,14.82L643,117.92Zm46.32,10.33a3.75,3.75,0,0,0,3.63-4,4,4,0,0,0-3.65-4.11,3.76,3.76,0,0,0-3.63,4,4,4,0,0,0,3.65,4.1"/><polygon points="641.24 118.16 619.42 120.36 619.38 103.27 641.2 101.06 641.24 118.16"/><polygon points="641.25 119.89 619.42 122.09 619.42 120.36 641.24 118.16 641.25 119.89"/><polygon points="698.93 121.09 677.11 123.29 619.42 122.09 641.25 119.89 698.93 121.09"/></g><g class="d"><polygon points="697.17 136.15 675.35 138.35 675.31 123.52 697.14 121.32 697.17 136.15"/><polygon points="697.21 153.25 675.39 155.45 675.35 140.62 697.18 138.42 697.21 153.25"/><polygon points="697.25 170.34 675.43 172.54 675.39 157.72 697.22 155.52 697.25 170.34"/><path class="e" d="M671.16,128.79a4,4,0,0,0-3.64-4.12l21.82-2.2a4,4,0,0,1,3.65,4.12Z"/><path class="e" d="M667.93,132.72a3.79,3.79,0,0,0,3.23-3.93l21.83-2.2a3.8,3.8,0,0,1-3.23,3.93Z"/><path d="M689.56,128.53l-21.83,2.2a1.91,1.91,0,0,0,1.63-2,2,2,0,0,0-1.84-2.07h-.2l21.82-2.2h.21a2,2,0,0,1,1.83,2.07A1.91,1.91,0,0,1,689.56,128.53Z"/><path class="e" d="M665.7,128.67a1.9,1.9,0,0,1,1.62-2l21.82-2.2a1.91,1.91,0,0,0-1.62,2l-21.82,2.2,21.82-2.2a2,2,0,0,0,1.84,2.07l-21.83,2.2,21.83-2.2h.2l-21.83,2.2h-.2A2,2,0,0,1,665.7,128.67Z"/><path d="M689.76,130.52l-21.83,2.2-.39,0a4,4,0,0,1-3.65-4.11,3.81,3.81,0,0,1,3.23-3.94l21.82-2.2a3.81,3.81,0,0,0-3.23,3.94,4,4,0,0,0,3.65,4.11A2.68,2.68,0,0,0,689.76,130.52Z"/><path class="e" d="M667.52,124.67h-.22l21.82-2.2h.22l-10.91,1.1-1.43.15-4.23.42-2.7.28C669.3,124.49,668.29,124.64,667.52,124.67Z"/><path class="e" d="M667.3,124.68h-.18l21.83-2.2h.17l-10.91,1.1-5.66.57-1.37.13-1.33.14C669.08,124.5,668.07,124.62,667.3,124.68Z"/><path class="e" d="M671.2,145.88a4,4,0,0,0-3.64-4.11l21.82-2.2a4,4,0,0,1,3.65,4.11Z"/><path class="e" d="M668,149.82a3.79,3.79,0,0,0,3.23-3.94l21.83-2.2a3.8,3.8,0,0,1-3.23,3.94Z"/><path d="M689.6,145.63l-21.83,2.2a1.91,1.91,0,0,0,1.63-2,2,2,0,0,0-1.84-2.08h-.2l21.82-2.2h.21a2,2,0,0,1,1.83,2.08A1.91,1.91,0,0,1,689.6,145.63Z"/><path class="e" d="M665.74,145.77a1.92,1.92,0,0,1,1.62-2l21.82-2.2a1.92,1.92,0,0,0-1.62,2l-21.82,2.2,21.82-2.2a2,2,0,0,0,1.83,2.07l-21.82,2.2,21.83-2.2h.2l-21.83,2.2h-.2A2,2,0,0,1,665.74,145.77Z"/><path d="M689.8,147.62,668,149.82l-.39,0a4,4,0,0,1-3.65-4.11,3.8,3.8,0,0,1,3.23-3.94l21.82-2.2a3.8,3.8,0,0,0-3.23,3.94,4,4,0,0,0,3.65,4.11Z"/><path class="e" d="M667.56,141.77h-.22l21.82-2.19h.22l-10.91,1.1-5.66.57-1.37.14-1.33.14C669.34,141.59,668.33,141.74,667.56,141.77Z"/><path class="e" d="M667.34,141.77l-.18,0,21.82-2.2h.18l-2.55.25-2.7.27-2.8.29-2.86.29-8.36.84C669.12,141.59,668.11,141.72,667.34,141.77Z"/><path class="e" d="M689.35,124.48a2,2,0,0,1,1.83,2.07,1.88,1.88,0,0,1-1.82,2,2,2,0,0,1-1.84-2.07A1.88,1.88,0,0,1,689.35,124.48Z"/><path class="e" d="M671.24,163a4,4,0,0,0-3.64-4.11l21.82-2.2a4,4,0,0,1,3.65,4.11Z"/><path class="e" d="M668,166.92a3.8,3.8,0,0,0,3.23-3.94l21.83-2.2a3.81,3.81,0,0,1-3.23,3.94Z"/><path d="M689.64,162.73l-21.83,2.2a1.91,1.91,0,0,0,1.63-2,2,2,0,0,0-1.84-2.08h-.2l21.82-2.2h.21a2,2,0,0,1,1.83,2.08A1.91,1.91,0,0,1,689.64,162.73Z"/><path class="e" d="M665.78,162.87a1.92,1.92,0,0,1,1.62-2l21.82-2.2a1.93,1.93,0,0,0-1.62,2,2,2,0,0,0,1.83,2.07l-21.82,2.2,21.82-2.2h.21l-21.83,2.2h-.2A2,2,0,0,1,665.78,162.87Z"/><path d="M689.84,164.72,668,166.92a2.54,2.54,0,0,1-.39,0,4,4,0,0,1-3.65-4.1,3.8,3.8,0,0,1,3.23-3.94l21.82-2.2a3.8,3.8,0,0,0-3.23,3.94,4,4,0,0,0,3.65,4.1A2.67,2.67,0,0,0,689.84,164.72Z"/><path class="e" d="M667.6,158.87h-.22l10.91-1.1,10.91-1.1h.22l-10.91,1.1-9.66,1C668.47,158.78,668,158.86,667.6,158.87Z"/><path class="e" d="M667.38,158.87l-.18,0,21.82-2.2.18,0-10.91,1.1-5.66.57-2.7.28C669.16,158.69,668.15,158.82,667.38,158.87Z"/><path class="e" d="M689.39,141.57a2,2,0,0,1,1.83,2.08,1.88,1.88,0,0,1-1.83,2,2,2,0,0,1-1.83-2.07A1.89,1.89,0,0,1,689.39,141.57Z"/><polygon points="697.14 121.32 675.31 123.52 621.22 122.4 643.04 120.2 697.14 121.32"/><path class="e" d="M643,120.2l54.1,1.12,0,14.83L643.08,135Zm46.32,10.34a3.75,3.75,0,0,0,3.63-3.95,4,4,0,0,0-3.65-4.12,3.76,3.76,0,0,0-3.63,4,4,4,0,0,0,3.65,4.11"/><polygon class="e" points="643.08 135.02 621.26 137.22 621.22 122.4 643.04 120.2 643.08 135.02"/><polygon class="e" points="697.17 136.15 675.35 138.35 621.26 137.22 643.08 135.02 697.17 136.15"/><path d="M641.25,119.89l57.68,1.2,0,17.1L641.29,137v-1.73Zm55.92,16.26,0-14.83L643,120.2l0,14.82,54.09,1.13"/><path d="M689.34,122.47a4,4,0,0,1,3.65,4.12,3.75,3.75,0,0,1-3.63,3.95,4,4,0,0,1-3.65-4.11A3.76,3.76,0,0,1,689.34,122.47Zm0,6.07a1.88,1.88,0,0,0,1.82-2,2,2,0,0,0-1.83-2.07,1.88,1.88,0,0,0-1.83,2,2,2,0,0,0,1.84,2.07"/><polygon class="e" points="697.21 153.25 675.39 155.45 621.3 154.32 643.12 152.12 697.21 153.25"/><polygon points="699.01 155.29 677.19 157.49 619.5 156.29 641.33 154.09 699.01 155.29"/><polygon points="697.22 155.52 675.39 157.72 621.3 156.59 643.12 154.39 697.22 155.52"/><path class="e" d="M643.12,154.39l54.1,1.13,0,14.83-54.09-1.13Zm46.32,10.34a3.75,3.75,0,0,0,3.63-3.95,4,4,0,0,0-3.65-4.11,3.76,3.76,0,0,0-3.63,4,4,4,0,0,0,3.65,4.1"/><polygon class="e" points="697.25 170.34 675.43 172.54 621.34 171.42 643.16 169.22 697.25 170.34"/><polygon class="e" points="643.16 169.22 621.34 171.42 621.3 156.59 643.12 154.39 643.16 169.22"/><path d="M641.33,154.09l57.68,1.2,0,17.09-57.68-1.2Zm55.92,16.26,0-14.83-54.1-1.13,0,14.83,54.09,1.13"/><path class="e" d="M689.43,158.67a2,2,0,0,1,1.83,2.08,1.89,1.89,0,0,1-1.83,2,2,2,0,0,1-1.83-2.07A1.89,1.89,0,0,1,689.43,158.67Z"/><path d="M689.38,139.57a4,4,0,0,1,3.65,4.11,3.76,3.76,0,0,1-3.63,4,4,4,0,0,1-3.65-4.11A3.76,3.76,0,0,1,689.38,139.57Zm0,6.07a1.88,1.88,0,0,0,1.83-2,2,2,0,0,0-1.83-2.08,1.89,1.89,0,0,0-1.83,2,2,2,0,0,0,1.83,2.07"/><path d="M689.42,156.67a4,4,0,0,1,3.65,4.11,3.75,3.75,0,0,1-3.63,3.95,4,4,0,0,1-3.65-4.1A3.76,3.76,0,0,1,689.42,156.67Zm0,6.07a1.89,1.89,0,0,0,1.83-2,2,2,0,0,0-1.83-2.08,1.89,1.89,0,0,0-1.83,2,2,2,0,0,0,1.83,2.07"/><polygon points="698.97 138.19 677.15 140.39 619.46 139.19 641.29 136.99 698.97 138.19"/><polygon points="697.18 138.42 675.35 140.62 621.26 139.5 643.08 137.29 697.18 138.42"/><path class="e" d="M643.08,137.3l54.1,1.12,0,14.83-54.09-1.13Zm46.32,10.34a3.76,3.76,0,0,0,3.63-4,4,4,0,0,0-3.65-4.11,3.76,3.76,0,0,0-3.63,4,4,4,0,0,0,3.65,4.11"/><polygon class="e" points="643.12 152.12 621.3 154.32 621.26 139.5 643.08 137.29 643.12 152.12"/><polygon points="641.28 135.26 619.46 137.46 619.42 122.09 641.25 119.89 641.28 135.26"/><polygon points="641.29 136.99 619.46 139.19 619.46 137.46 641.28 135.26 641.29 136.99"/><polygon points="641.32 152.36 619.5 154.56 619.46 139.19 641.29 136.99 641.32 152.36"/><polygon points="641.33 154.09 619.5 156.29 619.5 154.56 641.32 152.36 641.33 154.09"/><path d="M641.29,137l57.68,1.2,0,17.1-57.68-1.2v-1.73Zm55.92,16.26,0-14.83-54.1-1.12,0,14.82,54.09,1.13"/><polygon points="641.37 171.18 619.54 173.38 619.5 156.29 641.33 154.09 641.37 171.18"/><polygon points="699.05 172.38 677.23 174.58 619.54 173.38 641.37 171.18 699.05 172.38"/></g><text class="f" transform="translate(1036.7 84.56)">API</text><g class="d"><polygon points="1099.79 117.95 1091.88 124.53 1090.84 124.03 1098.75 117.45 1099.79 117.95"/><polygon points="1098.75 117.45 1090.84 124.03 1091.03 122.91 1098.94 116.33 1098.75 117.45"/><path d="M1102.33,131.69l-7.91,6.58a7.84,7.84,0,0,0,3.11-6.29c-.11-3-2.22-5.78-5.66-7.45l7.92-6.58c3.43,1.66,5.54,4.45,5.65,7.45A7.85,7.85,0,0,1,1102.33,131.69Z"/><path d="M1104.25,134l-7.91,6.59a15.22,15.22,0,0,1-1.48,1.08l7.91-6.59A12.49,12.49,0,0,0,1104.25,134Z"/><path d="M1098.94,116.33l-7.91,6.58a7.78,7.78,0,0,0,.12-1.66c-.21-5.34-5.65-9.59-12.15-9.48a13.27,13.27,0,0,0-7.38,2.32l7.91-6.59a13.18,13.18,0,0,1,7.38-2.31c6.5-.11,11.95,4.13,12.15,9.48A7.22,7.22,0,0,1,1098.94,116.33Z"/><path class="e" d="M1094.42,138.27a11.25,11.25,0,0,1-2.1,1.39l7.91-6.58a12.34,12.34,0,0,0,2.1-1.39Z"/><polygon points="1079.53 107.5 1071.62 114.09 1070.62 114.79 1078.53 108.21 1079.53 107.5"/><polygon points="1078.53 108.21 1070.62 114.79 1069.72 113.92 1077.63 107.34 1078.53 108.21"/><polygon class="e" points="1100.23 133.08 1092.32 139.66 1091.14 140.28 1099.06 133.7 1100.23 133.08"/><polygon points="1099.58 134.96 1091.67 141.54 1091.14 140.28 1099.06 133.7 1099.58 134.96"/><path d="M1098.52,142.92l-7.91,6.59a5.51,5.51,0,0,0,.43-.41c1.63-1.74,1.88-4.63.63-7.56l7.91-6.58c1.25,2.92,1,5.82-.63,7.56A4.07,4.07,0,0,1,1098.52,142.92Z"/><path d="M1052.29,113.26l7.91-6.58a13,13,0,0,1,8.07-2.85,13.09,13.09,0,0,1,9.36,3.51l-7.91,6.58a13.57,13.57,0,0,0-17.43-.66Z"/><path d="M1050.36,111l7.91-6.59-.28.24-7.91,6.59Z"/><polygon class="e" points="1058.98 107.82 1051.07 114.4 1051.62 113.87 1059.53 107.28 1058.98 107.82"/><polygon points="1058.98 107.82 1051.07 114.4 1050.31 114.25 1058.22 107.66 1058.98 107.82"/><path class="e" d="M1052.29,113.26l7.91-6.58c-.23.19-.45.39-.67.6l-7.91,6.59C1051.83,113.66,1052.06,113.45,1052.29,113.26Z"/><path class="e" d="M1086.92,150.77a11.34,11.34,0,0,1-7.7-3.35l7.91-6.59a11.35,11.35,0,0,0,7.7,3.36l-7.91,6.58.11-.09.12-.09.11-.1.12-.09.11-.1.12-.1.12-.1.12-.1.85-.71.88-.73.91-.76.91-.75.9-.75.88-.73.85-.71.8-.67a5.79,5.79,0,0,0,3.69-1.27l-7.91,6.59A5.78,5.78,0,0,1,1086.92,150.77Z"/><path class="e" d="M1087.13,140.83l-7.91,6.59-.32-.33,7.91-6.58Z"/><polygon class="e" points="1086.81 140.51 1078.9 147.09 1077.26 145.44 1085.18 138.86 1086.81 140.51"/><polygon points="1084.38 140.99 1076.46 147.58 1077.26 145.44 1085.18 138.86 1084.38 140.99"/><path d="M1100.44,145.22l-7.92,6.59a8.67,8.67,0,0,1-5.48,1.91,14,14,0,0,1-8.65-3.15l7.91-6.58a13.91,13.91,0,0,0,8.66,3.14A8.65,8.65,0,0,0,1100.44,145.22Z"/><path d="M1080.59,146.38l-7.91,6.59a13,13,0,0,0,3.79-5.39l7.91-6.59A12.85,12.85,0,0,1,1080.59,146.38Z"/><path d="M1058.22,107.66l-7.91,6.59a13.94,13.94,0,0,0-3.09-.28,13,13,0,0,0-7.33,2.28l7.91-6.58a13,13,0,0,1,7.33-2.29A15.19,15.19,0,0,1,1058.22,107.66Z"/><polygon points="1047.8 109.67 1039.89 116.25 1038.98 116.88 1046.89 110.3 1047.8 109.67"/><polygon points="1046.89 110.3 1038.98 116.88 1038.11 116.17 1046.02 109.58 1046.89 110.3"/><path d="M1027.56,116.11l7.91-6.58a8,8,0,0,1,5.06-1.9,8.37,8.37,0,0,1,5.49,2l-7.91,6.58a8.42,8.42,0,0,0-5.49-2A8.07,8.07,0,0,0,1027.56,116.11Z"/><polygon class="e" points="1062.58 143.13 1054.67 149.72 1053.41 147.77 1061.33 141.18 1062.58 143.13"/><path d="M1025.64,113.8l7.91-6.59-.61.54-7.91,6.59C1025.23,114.15,1025.43,114,1025.64,113.8Z"/><path class="e" d="M1065.39,155.7a12.55,12.55,0,0,1-10.72-6l7.91-6.59a12.54,12.54,0,0,0,10.72,6l-7.91,6.59,7.91-6.59a11.62,11.62,0,0,0,7.29-2.73l-7.91,6.59A11.74,11.74,0,0,1,1065.39,155.7Z"/><path class="e" d="M1027.56,116.11l7.91-6.58a8.3,8.3,0,0,0-.91.87l-7.92,6.59A9.51,9.51,0,0,1,1027.56,116.11Z"/><polygon class="e" points="1033.96 111.07 1026.05 117.65 1026.64 116.99 1034.56 110.41 1033.96 111.07"/><polygon points="1060.09 143.09 1052.18 149.68 1053.41 147.77 1061.33 141.18 1060.09 143.09"/><polygon points="1033.96 111.07 1026.05 117.65 1025.18 117.42 1033.09 110.83 1033.96 111.07"/><path d="M1082.51,148.68l-7.91,6.59a14.58,14.58,0,0,1-9.1,3.4,15.36,15.36,0,0,1-12.09-5.71l7.91-6.58a15.35,15.35,0,0,0,12.09,5.7A14.52,14.52,0,0,0,1082.51,148.68Z"/><path d="M1058.1,145.32l-7.91,6.58a10,10,0,0,0,2-2.22l7.91-6.59A9.78,9.78,0,0,1,1058.1,145.32Z"/><path d="M1016,119.36l7.92-6.58a10,10,0,0,1,6.28-2.32,10.26,10.26,0,0,1,2.9.37l-7.91,6.59a10.34,10.34,0,0,0-2.91-.38A10.06,10.06,0,0,0,1016,119.36Z"/><path class="e" d="M1042.12,154.76a13.41,13.41,0,0,1-8.51-2.76l7.91-6.59a13.35,13.35,0,0,0,8.51,2.76l-7.91,6.59,7.91-6.59a13,13,0,0,0,8.07-2.86l-7.91,6.59A13,13,0,0,1,1042.12,154.76Z"/><polygon class="e" points="1041.52 145.41 1033.61 152 1032.94 151.46 1040.85 144.88 1041.52 145.41"/><polygon class="e" points="1040.85 144.88 1032.94 151.46 1032.15 151.76 1040.06 145.18 1040.85 144.88"/><polygon class="e" points="1025.87 130.03 1017.96 136.61 1016.71 135.7 1024.63 129.12 1025.87 130.03"/><path d="M1060,147.61l-7.91,6.59a16,16,0,0,1-9.88,3.53,16.51,16.51,0,0,1-9.75-2.91l7.91-6.59a16.44,16.44,0,0,0,9.75,2.91A15.93,15.93,0,0,0,1060,147.61Z"/><path class="e" d="M1016,119.36l7.92-6.58a10.12,10.12,0,0,0-3.64,8.2,10.56,10.56,0,0,0,4.36,8.14l-7.92,6.58a10.56,10.56,0,0,1-4.35-8.14A10.17,10.17,0,0,1,1016,119.36Z"/><polygon class="e" points="1024.95 131.23 1017.04 137.81 1017.96 136.61 1025.87 130.03 1024.95 131.23"/><path d="M1014.08,117.06l7.92-6.59a13,13,0,0,0-4.68,10.56,13.51,13.51,0,0,0,4.46,9.55l-7.91,6.59a13.51,13.51,0,0,1-4.46-9.56A13,13,0,0,1,1014.08,117.06Z"/><path class="e" d="M1027.43,152.66A13.4,13.4,0,0,1,1019,150l.93-.77,1-.82,1-.85,1-.86,1-.86,1-.84,1-.82.92-.77a13.41,13.41,0,0,0,8.44,2.7,13.79,13.79,0,0,0,4.72-.9l-7.91,6.58A13.56,13.56,0,0,1,1027.43,152.66Z"/><path class="e" d="M1015.28,143.18a8.28,8.28,0,0,1,1.76-5.37l7.91-6.58a8.33,8.33,0,0,0-1.76,5.37,9.12,9.12,0,0,0,3.71,6.78L1019,150A9.11,9.11,0,0,1,1015.28,143.18Z"/><path class="e" d="M1068.27,103.83a13.09,13.09,0,0,1,9.36,3.51l.9.87,1-.71a13.18,13.18,0,0,1,7.38-2.31c6.5-.11,11.95,4.13,12.15,9.48a7.22,7.22,0,0,1-.12,1.66l-.19,1.12,1,.5c3.43,1.66,5.54,4.45,5.65,7.45s-1.83,5.9-5.21,7.68l-1.17.62.52,1.26c1.25,2.92,1,5.82-.63,7.56a5.64,5.64,0,0,1-4.12,1.67,11.35,11.35,0,0,1-7.7-3.36l-.32-.32-1.63-1.65-.8,2.13a12.15,12.15,0,0,1-11.08,8.12,12.54,12.54,0,0,1-10.72-6l-1.25-1.95-1.24,1.91a12.18,12.18,0,0,1-10.06,5.08,13.35,13.35,0,0,1-8.51-2.76l-.67-.53-.79.3a13.79,13.79,0,0,1-4.72.9c-6.5.11-11.95-4.14-12.15-9.48a8.33,8.33,0,0,1,1.76-5.37l.92-1.2-1.24-.91a10.56,10.56,0,0,1-4.36-8.14,10.08,10.08,0,0,1,9.92-10.52,10.26,10.26,0,0,1,2.9.37l.87.24.6-.67a8.18,8.18,0,0,1,6-2.77,8.37,8.37,0,0,1,5.49,2l.87.72.91-.63a13,13,0,0,1,7.33-2.29,15.19,15.19,0,0,1,3.09.28l.76.16.55-.54A12.76,12.76,0,0,1,1068.27,103.83Z"/><path d="M1040.39,148.23l-7.91,6.59a16.54,16.54,0,0,1-4.94.81c-8.12.14-14.95-5.42-15.22-12.4a11,11,0,0,1,1.55-6.06l7.91-6.59a11,11,0,0,0-1.54,6.06c.26,7,7.09,12.54,15.21,12.41A16.55,16.55,0,0,0,1040.39,148.23Z"/><path d="M1108.4,125.35c.14,3.81-1.94,7.38-5.63,9.72,1.14,3.63.55,7.18-1.65,9.51a8.46,8.46,0,0,1-6.16,2.55,13.91,13.91,0,0,1-8.66-3.14,14.87,14.87,0,0,1-12.89,8.09,15.35,15.35,0,0,1-12.09-5.7,15.54,15.54,0,0,1-11.18,4.76,16.44,16.44,0,0,1-9.75-2.91,16.55,16.55,0,0,1-4.94.82c-8.12.13-15-5.43-15.21-12.41a11,11,0,0,1,1.54-6.06,13.51,13.51,0,0,1-4.46-9.55,13,13,0,0,1,12.75-13.54,13.16,13.16,0,0,1,2.87.26,11,11,0,0,1,7.48-3.1,11.22,11.22,0,0,1,6.55,2,16.14,16.14,0,0,1,8-2.23,18.46,18.46,0,0,1,3,.21,15.88,15.88,0,0,1,10.17-3.75,16.29,16.29,0,0,1,10.62,3.56,16,16,0,0,1,8-2.21c8.13-.14,15,5.43,15.22,12.41a9.2,9.2,0,0,1,0,1.17C1105.88,118,1108.26,121.52,1108.4,125.35Zm-8.17,7.73c3.38-1.78,5.33-4.66,5.21-7.68s-2.22-5.79-5.65-7.45l-1-.5.19-1.12a7.22,7.22,0,0,0,.12-1.66c-.2-5.35-5.65-9.59-12.15-9.48a13.18,13.18,0,0,0-7.38,2.31l-1,.71-.9-.87a13.09,13.09,0,0,0-9.36-3.51,12.76,12.76,0,0,0-8.74,3.45l-.55.54-.76-.16a15.19,15.19,0,0,0-3.09-.28,13,13,0,0,0-7.33,2.29l-.91.63-.87-.72a8.37,8.37,0,0,0-5.49-2,8.15,8.15,0,0,0-6,2.77l-.6.67-.87-.24a10.26,10.26,0,0,0-2.9-.37,10.08,10.08,0,0,0-9.92,10.52,10.58,10.58,0,0,0,4.35,8.14l1.25.91-.92,1.2a8.33,8.33,0,0,0-1.76,5.37c.2,5.34,5.65,9.59,12.15,9.48a13.79,13.79,0,0,0,4.72-.9l.79-.3.67.53a13.35,13.35,0,0,0,8.51,2.76,12.18,12.18,0,0,0,10.06-5.08l1.24-1.91,1.25,1.95a12.54,12.54,0,0,0,10.72,6,12.15,12.15,0,0,0,11.08-8.12l.8-2.13,1.63,1.65.32.32a11.35,11.35,0,0,0,7.7,3.36,5.64,5.64,0,0,0,4.12-1.67c1.64-1.74,1.88-4.64.63-7.56l-.52-1.26,1.17-.62"/></g><g class="d"><polygon points="722.19 600.62 714.27 607.2 713.24 606.7 721.15 600.12 722.19 600.62"/><polygon points="721.15 600.12 713.24 606.7 713.44 605.58 721.35 599 721.15 600.12"/><path d="M726.18,622.54l-7.91,6.59a12.54,12.54,0,0,0,5-10.07c-.18-4.78-3.52-9.22-9-11.86l7.92-6.58c5.42,2.64,8.76,7.07,8.94,11.85A12.53,12.53,0,0,1,726.18,622.54Z"/><path d="M721.35,599l-7.91,6.58a12.58,12.58,0,0,0,.18-2.66c-.31-8.44-8.87-15.17-19-15a20.66,20.66,0,0,0-11.52,3.63L691,585a20.68,20.68,0,0,1,11.51-3.62c10.18-.17,18.74,6.56,19.06,15A12.68,12.68,0,0,1,721.35,599Z"/><path d="M728.12,624.84l-7.91,6.58a20.08,20.08,0,0,1-2.66,1.88l7.91-6.58A22.12,22.12,0,0,0,728.12,624.84Z"/><path class="e" d="M718.27,629.13A18.86,18.86,0,0,1,715,631.3l7.91-6.58a18.33,18.33,0,0,0,3.26-2.18Z"/><polygon points="690.97 584.97 683.05 591.55 682.05 592.26 689.96 585.68 690.97 584.97"/><polygon points="689.96 585.68 682.05 592.26 681.16 591.38 689.07 584.8 689.96 585.68"/><polygon class="e" points="722.92 624.72 715.01 631.3 713.82 631.93 721.73 625.34 722.92 624.72"/><polygon points="722.27 626.6 714.36 633.19 713.82 631.93 721.73 625.34 722.27 626.6"/><path d="M720.46,639.44,712.55,646a7.21,7.21,0,0,0,.7-.66c2.68-2.84,3.1-7.5,1.11-12.17l7.91-6.59c2,4.67,1.57,9.34-1.11,12.18A8.79,8.79,0,0,1,720.46,639.44Z"/><path class="e" d="M707.48,647.32l5.76-4.8.42-.35.8-.67h0Z"/><path class="e" d="M706.55,648.09a12,12,0,0,1-1.78-.1l.92-.77,1-.81,1-.85,1-.86,1-.86,1-.85,1-.81.92-.77h0L704.79,648l.92-.77,1-.81,1-.85,1-.86,1-.86,1-.84,1.9-1.58a13.67,13.67,0,0,0,1.79.09h0L711,644.36l-4.48,3.73,7.92-6.59a9.48,9.48,0,0,0,6-2.06L712.55,646A9.43,9.43,0,0,1,706.55,648.09Z"/><path d="M653.93,590.34l7.91-6.58a21.15,21.15,0,0,1,27.23,1l-7.91,6.59a21.17,21.17,0,0,0-27.23-1Z"/><path d="M652,588l7.91-6.58q-.34.27-.66.57l-7.91,6.59C651.56,588.42,651.78,588.23,652,588Z"/><path class="e" d="M653.93,590.34l7.91-6.58c-.36.3-.71.61-1,.94l-7.91,6.59C653.22,591,653.57,590.64,653.93,590.34Z"/><polygon class="e" points="660.25 585.25 652.34 591.83 652.89 591.28 660.8 584.7 660.25 585.25"/><path class="e" d="M704.77,648a18.48,18.48,0,0,1-10.34-5.15l.92-.77,1-.82,1-.84,1-.87,1-.86,1-.84,1-.82.93-.77a18.44,18.44,0,0,0,10.34,5.16Z"/><path class="e" d="M694.43,642.84h0l.92-.77,1-.82,1-.85,1-.86,1-.86,1-.84,1-.82.93-.77h0l-7.91,6.59Z"/><polygon class="e" points="701.84 635.75 693.93 642.34 692.29 640.68 700.2 634.09 701.84 635.75"/><path class="e" d="M693.93,642.34h0l7.91-6.59h0Z"/><path class="e" d="M694.43,642.84l-.5-.5,4-3.3,4-3.29c.16.17.32.34.5.5Z"/><polygon points="660.25 585.25 652.34 591.83 651.57 591.67 659.48 585.09 660.25 585.25"/><polygon points="699.41 636.24 691.49 642.82 692.29 640.68 700.2 634.09 699.41 636.24"/><path d="M722.38,641.75l-7.92,6.58a12.32,12.32,0,0,1-7.79,2.71,20.46,20.46,0,0,1-13.24-5.15l7.91-6.59a20.42,20.42,0,0,0,13.24,5.16A12.37,12.37,0,0,0,722.38,641.75Z"/><path d="M693.49,644.64l-7.91,6.59a20.06,20.06,0,0,0,5.91-8.41l7.92-6.58A20.07,20.07,0,0,1,693.49,644.64Z"/><path d="M659.48,585.09l-7.91,6.58a22.09,22.09,0,0,0-4.81-.44,20.36,20.36,0,0,0-11.42,3.56l7.91-6.58a20.39,20.39,0,0,1,11.42-3.57A22.1,22.1,0,0,1,659.48,585.09Z"/><polygon points="643.25 588.21 635.34 594.79 634.43 595.43 642.34 588.85 643.25 588.21"/><polygon points="642.34 588.85 634.43 595.43 633.55 594.71 641.46 588.13 642.34 588.85"/><path class="e" d="M674.15,655.51a18.67,18.67,0,0,1-4.9-.57l7.91-6.59a18.68,18.68,0,0,0,4.9.58,18.32,18.32,0,0,0,11.43-4.29l-7.91,6.59A18.28,18.28,0,0,1,674.15,655.51Z"/><path d="M616.75,594.61l7.91-6.58a12.86,12.86,0,0,1,8.05-3,13.33,13.33,0,0,1,8.75,3.12l-7.91,6.58a13.39,13.39,0,0,0-8.75-3.12A12.86,12.86,0,0,0,616.75,594.61Z"/><path d="M614.83,592.31l7.91-6.58c-.4.33-.79.68-1.16,1l-7.91,6.59A14.41,14.41,0,0,1,614.83,592.31Z"/><polygon class="e" points="665.28 639.57 657.37 646.16 656.12 644.22 664.03 637.63 665.28 639.57"/><path class="e" d="M616.75,594.61l7.91-6.58a16.2,16.2,0,0,0-1.47,1.41L615.28,596A14,14,0,0,1,616.75,594.61Z"/><path class="e" d="M669.25,654.94a20.17,20.17,0,0,1-11.89-8.78l7.92-6.59a20.08,20.08,0,0,0,11.88,8.78Z"/><polygon class="e" points="622.6 590.1 614.69 596.69 615.28 596.03 623.19 589.44 622.6 590.1"/><polygon points="622.6 590.1 614.69 596.69 613.81 596.44 621.73 589.86 622.6 590.1"/><polygon points="662.8 639.53 654.88 646.12 656.12 644.22 664.03 637.63 662.8 639.53"/><path d="M695.42,647l-7.92,6.58a21.15,21.15,0,0,1-13.24,5,22.43,22.43,0,0,1-18.14-9L664,642.9a22.45,22.45,0,0,0,18.14,9A21.26,21.26,0,0,0,695.42,647Z"/><path d="M659.66,643l-7.91,6.58a15.44,15.44,0,0,0,3.13-3.49l7.92-6.59A15.56,15.56,0,0,1,659.66,643Z"/><path d="M599.34,599.52l7.91-6.58a15.87,15.87,0,0,1,9.9-3.66,16.93,16.93,0,0,1,4.58.58l-7.92,6.58a16.44,16.44,0,0,0-4.58-.57A15.78,15.78,0,0,0,599.34,599.52Z"/><path class="e" d="M639.15,654.09a20.78,20.78,0,0,1-13.29-4.32l7.91-6.58a20.77,20.77,0,0,0,13.29,4.31l-7.91,6.58,7.91-6.58a20.35,20.35,0,0,0,12.6-4.47l-7.91,6.58A20.3,20.3,0,0,1,639.15,654.09Z"/><polygon class="e" points="633.77 643.19 625.86 649.77 625.18 649.24 633.09 642.65 633.77 643.19"/><polygon class="e" points="633.09 642.65 625.18 649.24 624.4 649.54 632.31 642.95 633.09 642.65"/><path d="M661.6,645.32l-7.91,6.59a23.28,23.28,0,0,1-14.43,5.15,23.92,23.92,0,0,1-14.53-4.46l7.91-6.58a23.92,23.92,0,0,0,14.53,4.46A23.29,23.29,0,0,0,661.6,645.32Z"/><polygon class="e" points="609.62 619.61 601.71 626.19 600.47 625.28 608.38 618.7 609.62 619.61"/><polygon class="e" points="608.7 620.81 600.79 627.39 601.71 626.19 609.62 619.61 608.7 620.81"/><path class="e" d="M593.62,612.45a16,16,0,0,1,5.72-12.93l7.91-6.58a16,16,0,0,0-5.72,12.92,16.62,16.62,0,0,0,6.85,12.84l-7.91,6.58A16.59,16.59,0,0,1,593.62,612.45Z"/><path d="M597.43,597.22l7.91-6.59a18.86,18.86,0,0,0-6.77,15.28,19.58,19.58,0,0,0,6.94,14.26l-7.91,6.58a19.58,19.58,0,0,1-6.94-14.25A18.85,18.85,0,0,1,597.43,597.22Z"/><path class="e" d="M617.05,651a21.52,21.52,0,0,1-10.42-2.45l4-3.29,2-1.71,1-.82.92-.76A21.57,21.57,0,0,0,625,644.36a21.06,21.06,0,0,0,7.35-1.41l-7.91,6.59A21.53,21.53,0,0,1,617.05,651Z"/><path class="e" d="M604.25,647l7.91-6.58a19.92,19.92,0,0,0,2.38,1.5l-7.91,6.58A19.15,19.15,0,0,1,604.25,647Z"/><path class="e" d="M604.25,647l-.43-.33.93-.76,1-.82,1-.85,1-.86,1-.86,1-.85,1-.81.93-.77.42.33Z"/><path class="e" d="M598,636a13.2,13.2,0,0,1,2.79-8.56l7.91-6.58a13.24,13.24,0,0,0-2.79,8.55,14.42,14.42,0,0,0,5.83,10.73l-7.92,6.58A14.37,14.37,0,0,1,598,636Z"/><path class="e" d="M674.44,579.3a20.46,20.46,0,0,1,14.63,5.5l.89.88,1-.72a20.68,20.68,0,0,1,11.51-3.62c10.18-.17,18.74,6.56,19.06,15a12.68,12.68,0,0,1-.19,2.66l-.2,1.12,1,.5c5.42,2.64,8.76,7.07,8.94,11.85s-2.89,9.43-8.21,12.25l-1.19.62.54,1.26c2,4.67,1.57,9.34-1.11,12.18a9.17,9.17,0,0,1-6.69,2.72,13.67,13.67,0,0,1-1.79-.09,18.44,18.44,0,0,1-10.34-5.16c-.18-.17-.34-.33-.5-.5l-1.64-1.66-.79,2.15a19,19,0,0,1-17.35,12.69,19.63,19.63,0,0,1-16.78-9.36L664,637.63l-1.23,1.9c-3.13,4.81-9.15,7.86-15.74,8a20.77,20.77,0,0,1-13.29-4.31l-.68-.54-.78.3a21.06,21.06,0,0,1-7.35,1.41c-10.18.17-18.73-6.56-19.05-15a13.24,13.24,0,0,1,2.79-8.55l.92-1.2-1.24-.91a16.62,16.62,0,0,1-6.85-12.84,15.89,15.89,0,0,1,15.62-16.58,16.93,16.93,0,0,1,4.58.58l.87.24.59-.66a13,13,0,0,1,9.52-4.43,13.33,13.33,0,0,1,8.75,3.12l.88.72.91-.64a20.39,20.39,0,0,1,11.42-3.57,22.1,22.1,0,0,1,4.81.45l.77.15.55-.54A19.94,19.94,0,0,1,674.44,579.3Z"/><path d="M632.64,646l-7.91,6.58a24.22,24.22,0,0,1-7.57,1.32c-11.81.19-21.74-7.84-22.12-17.92a15.9,15.9,0,0,1,2.56-9.25l7.91-6.58a15.85,15.85,0,0,0-2.56,9.24c.38,10.08,10.31,18.12,22.13,17.92A24.15,24.15,0,0,0,632.64,646Z"/><path d="M734.09,612.43c.22,5.63-3,10.9-8.63,14.29,1.89,5.37,1.11,10.69-2.12,14.12a12.06,12.06,0,0,1-8.76,3.62,20.42,20.42,0,0,1-13.24-5.16,21.72,21.72,0,0,1-19.17,12.6,22.45,22.45,0,0,1-18.14-9,22.54,22.54,0,0,1-16.86,7.58A23.92,23.92,0,0,1,632.64,646a24.15,24.15,0,0,1-7.56,1.31c-11.82.2-21.75-7.84-22.13-17.92a15.85,15.85,0,0,1,2.56-9.24,19.58,19.58,0,0,1-6.94-14.26A18.78,18.78,0,0,1,617,586.31a19.32,19.32,0,0,1,4.55.47,15.86,15.86,0,0,1,11-4.74,16.19,16.19,0,0,1,9.81,3.12,23.6,23.6,0,0,1,12.15-3.49,25.53,25.53,0,0,1,4.7.36,23,23,0,0,1,15.07-5.7,23.76,23.76,0,0,1,15.89,5.53,23.36,23.36,0,0,1,12.15-3.49c11.82-.2,21.74,7.84,22.12,17.92a14.35,14.35,0,0,1-.07,2.17C730.29,601.65,733.88,606.81,734.09,612.43Zm-11.17,12.29c5.32-2.82,8.39-7.39,8.21-12.25s-3.52-9.21-8.94-11.85l-1-.5.2-1.12a12.68,12.68,0,0,0,.19-2.66c-.32-8.44-8.88-15.17-19.06-15A20.68,20.68,0,0,0,691,585l-1,.72-.89-.88a20.46,20.46,0,0,0-14.63-5.5,19.94,19.94,0,0,0-13.64,5.4l-.55.54-.77-.15a22.1,22.1,0,0,0-4.81-.45,20.39,20.39,0,0,0-11.42,3.57l-.91.64-.88-.72a13.33,13.33,0,0,0-8.75-3.12,13,13,0,0,0-9.52,4.43l-.59.66-.87-.24a16.93,16.93,0,0,0-4.58-.58,15.89,15.89,0,0,0-15.62,16.58,16.62,16.62,0,0,0,6.85,12.84l1.24.91-.92,1.2a13.24,13.24,0,0,0-2.79,8.55c.32,8.44,8.87,15.17,19.05,15a21.06,21.06,0,0,0,7.35-1.41l.78-.3.68.54a20.77,20.77,0,0,0,13.29,4.31c6.59-.11,12.61-3.16,15.74-8l1.23-1.9,1.25,1.94a19.63,19.63,0,0,0,16.78,9.36,19,19,0,0,0,17.35-12.69l.79-2.15,1.64,1.66c.16.17.32.33.5.5a18.44,18.44,0,0,0,10.34,5.16,13.67,13.67,0,0,0,1.79.09,9.17,9.17,0,0,0,6.69-2.72c2.68-2.84,3.1-7.51,1.11-12.18l-.54-1.26,1.19-.62"/></g><rect class="a" x="404.56" y="389.92" width="121" height="27"/><text class="l" transform="translate(579.76 429.23)"><tspan class="m">a</tspan><tspan x="12.24" y="0">ddN</tspan><tspan class="n" x="55.92" y="0">e</tspan><tspan class="o" x="68.16" y="0">wPl</tspan><tspan class="n" x="106.84" y="0">a</tspan><tspan class="p" x="118.78" y="0">y</tspan><tspan x="130.04" y="0">e</tspan><tspan class="q" x="142.48" y="0">r</tspan><tspan x="150.68" y="0">()</tspan></text><text class="l" transform="translate(542 251.23)">getSta<tspan class="r" x="68" y="0">r</tspan><tspan class="s" x="76.7" y="0">t</tspan><tspan x="84.82" y="0">e</tspan><tspan class="t" x="97.26" y="0">r</tspan><tspan class="o" x="105.6" y="0">s</tspan><tspan class="u" x="115.9" y="0">P</tspan><tspan x="130.18" y="0">o</tspan><tspan class="v" x="143.08" y="0">k</tspan><tspan x="155.36" y="0">e</tspan><tspan class="m" x="167.8" y="0">m</tspan><tspan x="188.96" y="0">on()</tspan></text><text class="l" transform="translate(596 340.23)"><tspan class="q">r</tspan><tspan x="8.2" y="0">es.</tspan><tspan class="n" x="35.82" y="0">r</tspan><tspan x="44.02" y="0">edi</tspan><tspan class="q" x="75.98" y="0">r</tspan><tspan x="84.18" y="0">e</tspan><tspan class="w" x="96.62" y="0">c</tspan><tspan x="108.38" y="0">t()</tspan></text><text class="l" transform="translate(562.26 562.73)">So<tspan class="x" x="25.48" y="0">c</tspan><tspan class="y" x="37" y="0">k</tspan><tspan x="49.28" y="0">et </tspan><tspan class="z" x="75.72" y="0">C</tspan><tspan x="89.86" y="0">on</tspan><tspan class="m" x="116.46" y="0">n</tspan><tspan x="130.26" y="0">e</tspan><tspan class="w" x="142.7" y="0">c</tspan><tspan x="154.46" y="0">tion</tspan></text><text class="aa" transform="translate(515.26 760.02)">so<tspan class="ab" x="16.74" y="0">c</tspan><tspan class="ac" x="25.07" y="0">k</tspan><tspan x="33.77" y="0">et</tspan></text><line class="ad" x1="378.56" y1="417.42" x2="563.48" y2="417.42"/><polygon points="560.16 421.51 559.48 420.78 563.09 417.42 559.48 414.06 560.16 413.33 564.56 417.42 560.16 421.51"/><line class="b" x1="657.06" y1="443.92" x2="657.06" y2="535.34"/><polygon points="652.97 532.02 653.7 531.34 657.06 534.95 660.42 531.34 661.15 532.02 657.06 536.42 652.97 532.02"/><line class="b" x1="269.7" y1="261.17" x2="269.7" y2="301.34"/><polygon points="265.61 298.02 266.34 297.34 269.69 300.95 273.05 297.34 273.78 298.02 269.69 302.42 265.61 298.02"/><line class="b" x1="269.7" y1="364.17" x2="269.7" y2="404.34"/><polygon points="265.61 401.02 266.34 400.34 269.69 403.95 273.05 400.34 273.78 401.02 269.69 405.42 265.61 401.02"/><line class="b" x1="269.7" y1="452.17" x2="269.7" y2="556.42"/><polygon points="265.61 553.1 266.34 552.42 269.69 556.03 273.05 552.42 273.78 553.1 269.69 557.5 265.61 553.1"/><line class="ad" x1="779.63" y1="232.42" x2="964.16" y2="232.42"/><polygon points="960.85 236.51 960.16 235.78 963.78 232.42 960.16 229.06 960.85 228.33 965.25 232.42 960.85 236.51"/><text class="l" transform="translate(237.67 243.09)">GET <tspan class="ae" x="46.4" y="0">“</tspan><tspan class="af" x="54.52" y="0">/</tspan><tspan x="62.94" y="0">”</tspan></text><text class="l" transform="translate(204.93 439.09)">GET <tspan class="ae" x="46.4" y="0">“</tspan><tspan class="ag" x="54.52" y="0">/</tspan><tspan class="o" x="60.64" y="0">ga</tspan><tspan class="m" x="86.66" y="0">m</tspan><tspan class="ah" x="107.82" y="0">e”</tspan></text><text class="l" transform="translate(230.22 341.09)">PO<tspan class="q" x="31.36" y="0">S</tspan><tspan class="o" x="43.74" y="0">T </tspan><tspan class="ae" x="61.3" y="0">“</tspan><tspan class="af" x="69.42" y="0">/</tspan><tspan x="77.84" y="0">”</tspan></text><text class="aa" transform="translate(836 226.05)"><tspan class="ai">f</tspan><tspan x="4.95" y="0">e</tspan><tspan class="aj" x="14.01" y="0">t</tspan><tspan class="ab" x="19.81" y="0">c</tspan><tspan x="28.14" y="0">h data</tspan></text><text class="aa" transform="translate(415.39 413.05)">H<tspan class="ak" x="12.2" y="0">T</tspan><tspan x="20.96" y="0">TP </tspan><tspan class="al" x="44.26" y="0">r</tspan><tspan x="50.08" y="0">equest</tspan></text><rect class="a" x="404.56" y="445.92" width="121" height="27"/><line class="ad" x1="564.56" y1="445.42" x2="379.64" y2="445.42"/><polygon points="382.96 441.33 383.64 442.06 380.03 445.42 383.64 448.78 382.96 449.51 378.56 445.42 382.96 441.33"/><text class="aa" transform="translate(408.79 461.05)">H<tspan class="ak" x="12.2" y="0">T</tspan><tspan x="20.96" y="0">TP </tspan><tspan class="al" x="44.26" y="0">r</tspan><tspan x="50.08" y="0">esponse</tspan></text><rect class="a" x="405" y="291" width="121" height="27"/><line class="ad" x1="379" y1="318.5" x2="582.42" y2="318.5"/><polygon points="579.1 322.59 578.42 321.86 582.03 318.5 578.42 315.14 579.1 314.41 583.5 318.5 579.1 322.59"/><text class="aa" transform="translate(415.83 314.13)">H<tspan class="ak" x="12.2" y="0">T</tspan><tspan x="20.96" y="0">TP </tspan><tspan class="al" x="44.26" y="0">r</tspan><tspan x="50.08" y="0">equest</tspan></text><rect class="a" x="405" y="347" width="121" height="27"/><line class="ad" x1="565" y1="346.5" x2="380.08" y2="346.5"/><polygon points="383.4 342.41 384.08 343.14 380.47 346.5 384.08 349.86 383.4 350.59 379 346.5 383.4 342.41"/><text class="aa" transform="translate(409.23 362.13)">H<tspan class="ak" x="12.2" y="0">T</tspan><tspan x="20.96" y="0">TP </tspan><tspan class="al" x="44.26" y="0">r</tspan><tspan x="50.08" y="0">esponse</tspan></text><rect class="a" x="404.56" y="201.92" width="121" height="27"/><line class="ad" x1="378.56" y1="229.42" x2="532.42" y2="229.42"/><polygon points="529.1 233.51 528.42 232.78 532.03 229.42 528.42 226.06 529.1 225.33 533.5 229.42 529.1 233.51"/><text class="aa" transform="translate(410.39 225.05)">H<tspan class="ak" x="12.2" y="0">T</tspan><tspan x="20.96" y="0">TP </tspan><tspan class="al" x="44.26" y="0">r</tspan><tspan x="50.08" y="0">equest</tspan></text><rect class="a" x="404.56" y="257.92" width="121" height="27"/><line class="ad" x1="530.5" y1="257.42" x2="379.64" y2="257.42"/><polygon points="382.96 253.33 383.64 254.06 380.03 257.42 383.64 260.78 382.96 261.51 378.56 257.42 382.96 253.33"/><text class="aa" transform="translate(405.79 273.05)">H<tspan class="ak" x="12.2" y="0">T</tspan><tspan x="20.96" y="0">TP </tspan><tspan class="al" x="44.26" y="0">r</tspan><tspan x="50.08" y="0">esponse</tspan></text><line class="b" x1="608.83" y1="659.72" x2="546.5" y2="728.5"/><polygon points="603.58 659.43 603.66 660.43 608.57 660.01 608.63 664.94 609.64 664.92 609.56 658.92 603.58 659.43"/><line class="b" x1="690.06" y1="667.42" x2="690.06" y2="755.42"/><rect class="b" x="505.06" y="734.42" width="70" height="40" rx="9.5"/><text class="aa" transform="translate(619.26 817.02)">so<tspan class="ab" x="16.74" y="0">c</tspan><tspan class="ac" x="25.07" y="0">k</tspan><tspan x="33.77" y="0">et</tspan></text><rect class="b" x="609.06" y="791.42" width="70" height="40" rx="9.5"/><text class="aa" transform="translate(709.26 817.02)">so<tspan class="ab" x="16.74" y="0">c</tspan><tspan class="ac" x="25.07" y="0">k</tspan><tspan x="33.77" y="0">et</tspan></text><rect class="b" x="699.06" y="791.42" width="70" height="40" rx="9.5"/><text class="am" transform="matrix(0.68, -0.73, 0.73, 0.68, 558.29, 709.68)"><tspan class="ab">c</tspan><tspan x="5.55" y="0">ha</tspan><tspan class="an" x="18.22" y="0">n</tspan><tspan x="25.01" y="0">ges</tspan></text><line class="b" x1="581.14" y1="755.42" x2="734.06" y2="755.42"/><polygon points="584.46 759.51 585.14 758.78 581.53 755.42 585.14 752.06 584.46 751.33 580.06 755.42 584.46 759.51"/><line class="b" x1="645.06" y1="754.92" x2="645.06" y2="785.84"/><polygon points="640.97 782.52 641.7 781.84 645.06 785.45 648.42 781.84 649.15 782.52 645.06 786.92 640.97 782.52"/><line class="b" x1="734.06" y1="754.92" x2="734.06" y2="785.84"/><polygon points="729.97 782.52 730.7 781.84 734.06 785.45 737.42 781.84 738.15 782.52 734.06 786.92 729.97 782.52"/><rect class="a" x="661.56" y="712.92" width="59" height="17"/><text class="am" transform="translate(672.79 724.34)">upda<tspan class="ao" x="26.19" y="0">t</tspan><tspan x="30.06" y="0">e</tspan></text><rect class="a" x="792" y="251" width="121" height="29"/><text class="aa" transform="translate(829 272.05)">JSON obje<tspan class="i" x="78.19" y="0">c</tspan><tspan x="86.73" y="0">t</tspan></text><line class="ad" x1="965.56" y1="255.42" x2="780.08" y2="255.42"/><polygon points="783.4 251.33 784.08 252.06 780.47 255.42 784.08 258.78 783.4 259.51 779 255.42 783.4 251.33"/><text class="l" transform="translate(212.47 608.09)"><tspan class="m">n</tspan><tspan class="n" x="13.8" y="0">e</tspan><tspan x="26.04" y="0">wPl</tspan><tspan class="q" x="64.72" y="0">a</tspan><tspan class="p" x="76.66" y="0">y</tspan><tspan x="87.92" y="0">e</tspan><tspan class="q" x="100.36" y="0">r</tspan><tspan class="ah" x="108.56" y="0">()</tspan></text><text class="l" transform="translate(204.47 846.09)">d<tspan class="ap" x="13.74" y="0">r</tspan><tspan class="n" x="21.98" y="0">a</tspan><tspan class="x" x="33.92" y="0">w</tspan><tspan x="52.2" y="0">Obje</tspan><tspan class="w" x="101.1" y="0">c</tspan><tspan x="112.86" y="0">ts()</tspan></text><text class="l" transform="translate(238.02 759.17)"><tspan class="aq">m</tspan><tspan class="p" x="21.16" y="0">ov</tspan><tspan x="45.02" y="0">e()</tspan></text><rect class="b" x="121" y="519.5" width="310" height="429"/><rect class="a" x="386.51" y="665" width="121" height="35.33" transform="translate(313.05 -122.26) rotate(23.77)"/><text class="aa" transform="translate(325.76 632.5) rotate(23.47)">C<tspan class="ar" x="10.79" y="0">r</tspan><tspan class="as" x="16.61" y="0">e</tspan><tspan x="25.44" y="0">a</tspan><tspan class="aj" x="34.29" y="0">t</tspan><tspan x="40.09" y="0">e so</tspan><tspan class="at" x="69.82" y="0">c</tspan><tspan class="au" x="78.15" y="0">k</tspan><tspan x="86.85" y="0">et </tspan><tspan class="ai" x="105.93" y="0">c</tspan><tspan x="114.24" y="0">on</tspan><tspan class="av" x="133.8" y="0">n</tspan><tspan x="143.98" y="0">e</tspan><tspan class="i" x="153.04" y="0">c</tspan><tspan x="161.58" y="0">tion</tspan></text><line class="ad" x1="279.5" y1="617.5" x2="530.07" y2="727.98"/><polygon points="525.38 730.39 525.06 729.44 529.72 727.83 527.77 723.3 528.68 722.9 531.06 728.42 525.38 730.39"/><rect class="a" x="343" y="732" width="133" height="33"/><text class="aa" transform="translate(350.39 748.05)">upda<tspan class="aj" x="39.28" y="0">t</tspan><tspan x="45.09" y="0">e sta</tspan><tspan class="aj" x="80.35" y="0">t</tspan><tspan x="86.16" y="0">e</tspan></text><rect class="a" x="366" y="779" width="133" height="33" transform="translate(-313.08 281.7) rotate(-26.9)"/><text class="aa" transform="translate(379.58 822.84) rotate(-26.9)">upda<tspan class="aj" x="39.28" y="0">t</tspan><tspan x="45.09" y="0">ed sta</tspan><tspan class="aj" x="90.52" y="0">t</tspan><tspan x="96.33" y="0">e</tspan></text><line class="ad" x1="317.5" y1="753.42" x2="492.98" y2="753.42"/><polygon points="489.66 757.51 488.98 756.78 492.59 753.42 488.98 750.06 489.66 749.33 494.06 753.42 489.66 757.51"/><line class="ad" x1="494.5" y1="770.5" x2="357.47" y2="840.01"/><polygon points="358.57 834.86 359.51 835.21 357.81 839.84 362.55 841.2 362.27 842.16 356.5 840.5 358.57 834.86"/></svg>